<?xml version='1.0' encoding='utf-8'?>
<svg xmlns="http://www.w3.org/2000/svg" viewBox="0 0 1950 2041" width="382" height="400"><path d="M648 818q-14-13-20.5-30t-6.5-36q0-13 4-25L417 519l-30-92 91 31 207 208q11-4 29-4t34.5 7.5 29 20T797 719t7 35q0 19-7 35.5T777.5 818 748 837t-36 7q-38 0-64-26zm-257 317l-136 136q-54-48-97-106t-74-123.5T36.5 903 20 752q0-96 24.5-184.5t70-165.5T223 262t140.5-108 166-69.5T714 60q95 0 183.5 24.5T1063 154t140 108 108 140 70 165.5 25 184.5v43h-193v-85h106q-8-103-46.5-192T1170 356l-75 74-60-62 76-74q-73-63-162.5-101T756 147v106h-86V147q-103 8-193 46T315 294l75 75-62 61-73-75q-63 74-101 163t-45 192h104v85H109q7 103 45 193t101 163l75-76zm570-252q38 0 69 9t54 23 39.5 31 26.5 32q13 21 25.5 45t21.5 54.5 14.5 69 5.5 87.5v6q0 42-4 87t-14.5 88-28.5 81.5-46.5 68-69 46.5-94.5 17q-69 0-116.5-31t-77-82.5T724 1396t-13-139q0-24 2.5-61t11-78.5T749 1034t44-75.5 69-54.5 99-21zm82 205q-2-8-6.5-22t-13.5-28-23.5-24-36.5-10q-33 0-52 26.5t-29 64-12.5 77.5-2.5 66v30q0 46 4 89t15 76.5 29.5 53.5 48.5 20q31 0 50.5-23.5t29.5-59.5 13.5-78 3.5-80q0-17-1-40t-3-48-5.5-48.5-8.5-41.5zm634-214l-278 742h-122l281-742h119zm92-8h161v750h-161V866z" fill="#000000"></path></svg>