<?xml version='1.0' encoding='utf-8'?>
<svg xmlns="http://www.w3.org/2000/svg" viewBox="0 0 1537 2041" width="301" height="400"><path d="M383 790v129q0 8-5 15t-11.5 12.5T354 955t-9 3q-1 0-1-1H191q-39 0-39-38V714q0-22-2-33t-4-17.5-4-11.5-2-15V509l12-38v-2q0-9 1.5-18.5T166 433q0-11 6-14t6-13H89q-1 0-5 .5t-9 .5-8.5-2.5T63 394l-13-13 26-89h13v-14h167q8-19 23.5-45t36-53 44.5-53 49.5-46.5 51.5-33T511 35h359q21 0 49-1t55-1q52 0 86.5 8.5t59 24 42 37.5 36 49 40.5 59 55 67h141q0 1 2 1t4.5-.5 6.5-.5q5 0 7 2t3.5 4.5 4 4.5 10.5 3l13 89q0 17-9.5 22t-13.5 5q-3 0-6.5-1t-9.5-1h-76q0 6 4 13.5t8.5 15.5 8.5 17 4 19q0 23 2 38.5t4.5 28.5 4.5 27 2 33q-9 10-12 21.5t-3 23.5q0 9 .5 14t.5 11 .5 16 .5 30v205q0 20-14 29t-24 9h-154q-13 0-20.5-5t-11.5-11.5-5.5-12.5-1.5-9V790H383zM256 676h1024V547h-218V445h180l-27-64H332l-39 64h193v102H256v129zm809-480q-17-9-33.5-17.5T995 164t-46-9.5-62-3.5H635q-17 0-37.5 1t-42 6.5-43 15.5-39.5 28q-19 9-37 28.5T409 278h730q-9-28-26.5-47.5T1075 202zm-156 877H640V957h269v116zm51 192H588v-116h372v116zm51 192H524v-128h487v128zm51 180H473v-116h589v116zm51 179H434v-116h679v116z" fill="#000000"></path></svg>