<?xml version='1.0' encoding='utf-8'?>
<!-- Generator: Adobe Illustrator 20.1.0, SVG Export Plug-In . SVG Version: 6.00 Build 0)  --><svg xmlns="http://www.w3.org/2000/svg" xmlns:xlink="http://www.w3.org/1999/xlink" version="1.1" id="Ebene_1" x="0px" y="0px" viewBox="0 0 570 400" style="enable-background:new 0 0 570 400;" xml:space="preserve" width="570.0" height="400.0">
<style type="text/css">
	.st0{fill:none;stroke:#1D1D1B;stroke-width:20;stroke-linecap:round;stroke-miterlimit:10;}
	.st1{fill:#FFFFFF;stroke:#FFFFFF;stroke-width:50;stroke-linecap:round;stroke-miterlimit:10;}
</style>
<g>
	<path class="st0" d="M392.7,189.5H31c-6.6,0-12-5.4-12-12v-84c0-6.6,5.4-12,12-12h361.7c6.6,0,12,5.4,12,12v84   C404.7,184.1,399.3,189.5,392.7,189.5z" fill="#000000"></path>
	<path class="st1" d="M275.2,208H154.2c-6.6,0-12-5.4-12-12V74.9c0-6.6,5.4-12,12-12h121.1c6.6,0,12,5.4,12,12V196   C287.2,202.6,281.8,208,275.2,208z" fill="#000000"></path>
	<path class="st0" d="M544,189.5h-84c-6.6,0-12-5.4-12-12v-84c0-6.6,5.4-12,12-12h84c6.6,0,12,5.4,12,12v84   C556,184.1,550.6,189.5,544,189.5z" fill="#000000"></path>
	<path class="st0" d="M275.2,208H154.2c-6.6,0-12-5.4-12-12V74.9c0-6.6,5.4-12,12-12h121.1c6.6,0,12,5.4,12,12V196   C287.2,202.6,281.8,208,275.2,208z" fill="#000000"></path>
</g>
</svg>