<?xml version='1.0' encoding='utf-8'?>
<svg xmlns="http://www.w3.org/2000/svg" viewBox="0 0 635 2041" width="124" height="400"><path d="M507 168q11 20 15.5 42t4.5 45q0 35-11 68.5T485 383q4 2 8 1.5t9 .5q39 6 60.5 37.5T584 491v31l-1 500q-2 14-13 29.5t-28 17.5l-14 2-1 373q-4 14-15.5 24t-26.5 10v1q42 56 42 128 0 43-17 81t-45.5 66-66.5 44.5-80 16.5q-40 0-78-15t-67.5-43-47.5-66.5-18-86.5q0-72 42-126-16 0-29-11t-13-31q0-5 .5-9.5t.5-9.5q0-2-.5-4.5t-.5-4.5v-337q-23 0-39.5-16T51 1010V472q3-36 30.5-62t67.5-26q-18-32-30-61t-12-69q0-46 18.5-84.5t48-65.5T241 62t77-15q28 0 57 8.5t54 24 45.5 38T507 168zm-103 43q-14-25-37.5-38.5T318 159q-21 0-39 8t-31.5 21.5-21 31.5-7.5 38 8 37.5 21.5 31 31 21T316 355t36.5-7 31-20 22-31.5T414 255q0-25-10-44zm32 286H201l-14 3q-19 11-23 32l-1 386 3 15q4 9 13 16t19 9h230l14-2q11-2 19-11.5t10-20.5V536l-3-13q-2-11-11.5-17.5T436 497zm-33 1060q-14-23-36-36.5t-48-13.5q-42 0-71 28.5t-29 70.5q0 20 8 37.5t21.5 31 31 21 36.5 7.5q18 0 36-7t31.5-19.5 22-31 8.5-41.5q0-26-11-47z" fill="#ffd100"></path></svg>