<?xml version='1.0' encoding='utf-8'?>
<svg xmlns="http://www.w3.org/2000/svg" viewBox="0 0 1325 2041" width="260" height="400"><path d="M737 1819q20 0 31.5-10.5T791 1777q3-7 12-37.5t21-77.5 24.5-108.5 23-130 17.5-142 7-145.5q0-38-15-67t-41.5-48.5-61-29.5-73.5-10h-84q-40 0-74.5 10t-60.5 29.5-41 48.5-15 67q0 72 7 145.5t17.5 142 23 130T502 1662t21 77.5 12 37.5q10 21 21.5 31.5T588 1819h149zm91-1164q0 34-13 64t-35.5 52.5T727 807t-64 13-64-13-52.5-35.5T511 719t-13-64 13-64 35.5-52.5T599 503t64-13 64 13 52.5 35.5T815 591t13 64zm139 417q49-35 88-80.5t67-99 43-113.5 15-124q0-107-40.5-201t-111-164.5-164.5-111T663 138t-201 40.5-164.5 111-111 164.5T146 655q0 64 15 124t42.5 113.5 66.5 99 87 80.5q-2 0-4 25t-2 66v30q-69-40-126.5-96.5t-98.5-126T62.5 821 40 655q0-129 49-242t133.5-198 198-134T663 32q128 0 241.5 49t198 134T1236 413t49 242q0 86-22.5 166T1199 970.5t-98 126-127 96.5v-29q0-39-3-65.5t-4-26.5zM414 958q-67-54-105.5-132.5T270 655q0-82 31-153.5T385 377t125-84 153-31 152.5 31 125 84 84.5 124.5 31 153.5q0 92-39 170.5T912 958q2-1-4.5-6.5T891 938t-22.5-16.5-23-15-18-10-7.5-1.5q60-38 95.5-101T951 655q0-60-22.5-112.5T867 451t-91.5-61.5T663 367t-112.5 22.5T459 451t-61.5 91.5T375 655q0 76 35 139t95 101q-1-3-16 5.5T457 921t-31 23-12 14z" fill="#000000"></path></svg>