<?xml version='1.0' encoding='utf-8'?>
<!-- Generator: Adobe Illustrator 20.1.0, SVG Export Plug-In . SVG Version: 6.00 Build 0)  --><svg xmlns="http://www.w3.org/2000/svg" xmlns:xlink="http://www.w3.org/1999/xlink" version="1.1" id="Ebene_1" x="0px" y="0px" viewBox="0 0 302.5 400" style="enable-background:new 0 0 302.5 400;" xml:space="preserve" width="302.5" height="400.0">
<style type="text/css">
	.st0{fill:none;stroke:#1D1D1B;stroke-width:10;stroke-linecap:round;stroke-linejoin:round;stroke-miterlimit:10;}
	.st1{fill:#1D1D1B;stroke:#1D1E1B;stroke-width:6;stroke-miterlimit:10;}
	.st2{fill:#1D1D1B;stroke:#1D1D1B;stroke-width:20;stroke-miterlimit:10;}
</style>
<g>
	<path class="st0" d="M190.9,234.2c0,0-4.9-5-6.9-7.3s-8.6-8.2-6.1-27.3c1.9-13.9,14.7-22.2,38.2-22.4c19.4-0.2,29.5,4.3,32.1,16.8   c1.9,9.5-1.6,13.4-3.8,16.2c-1.6,2.1-8.1,8.6-8.1,8.6l0.9-0.9c-17.5,17.4-54.7,54.4-60.4,59.3c0,0-8.2,6.6-10.8,7.9   s-9.4,6.1-27.8,0.5c-12.9-4-18-17.4-15.8-38.3c1.8-16.9,8.9-24.4,21.6-24.4c9.6,0,16.6,6.9,16.6,6.9l11.5,12.1   c0,0,48.7,49.2,52.3,53.4c3.6,4.2,10.2,9.3,8.1,27.2c-1.3,11.5-14.5,22.9-35.5,23.7c-20.6,0.8-29.1-7.2-30.3-18.8   c-1.1-11,3.5-15.8,6-18.5c2.4-2.5,59.5-60.1,64.5-65.1l-0.6,0.6c0,0,6.9-6.1,9.8-7.2c2.7-1,10.1-6.1,29-0.5   c13.3,3.9,18.6,17.6,16.7,39c-1.6,17.3-8.9,25.1-21.8,25.2c-9.9,0.1-17-6.9-17-6.9l-11.9-11.8l-0.5-0.5l-51.9-49.5" fill="#000000"></path>
	<path class="st1" d="M81.9,244.2c-2.6-32.8-10.4-49.3-17.2-63.8c-7.1-15.1-13.2-28.1-13.8-57.5c-0.2-9.8-0.3-17.2-0.4-22.7l23-0.1   L44.4,16l-29,83.8l22.2,0.4c0,5.6,0.1,13.1,0.4,23c0.7,32.1,8,47.6,15.1,62.7c6.7,14.2,13.5,28.9,16,59.4   c3.9,48.6-16.4,75.5-25,84.6l0,0l-3.5,3.4c-0.1,0.1-0.1,0.1-0.2,0.2l0,0l-11.2,11h18.5l1.7-1.6C55.1,337.7,87,306.7,81.9,244.2z" fill="#000000"></path>
	<g>
		<path class="st1" d="M132.1,123.2c0.6,26.9,5.8,42.2,11.7,55.4c3.5-2.7,7.1-5.2,10.8-7.5c-5.1-11.9-9.1-24.9-9.6-48.2    c-0.2-9.8-0.3-17.2-0.4-22.7l23-0.1L138.5,16l-29,83.8l22.2,0.4C131.8,105.8,131.9,113.2,132.1,123.2z" fill="#000000"></path>
	</g>
	<path class="st1" d="M226.2,123.2c0.3,13.1,1.7,23.4,3.7,32.1c4.8,0.6,9.5,1.6,14.1,2.8c-2.7-9-4.5-19.9-4.8-35.1   c-0.2-9.8-0.3-17.2-0.4-22.7l23-0.1L232.6,16l-29,83.8l22.2,0.4C225.8,105.8,225.9,113.2,226.2,123.2z" fill="#000000"></path>
	<line class="st2" x1="6.5" y1="377" x2="292.4" y2="377" fill="#000000"></line>
</g>
</svg>