<?xml version='1.0' encoding='utf-8'?>
<!-- Generator: Adobe Illustrator 22.1.0, SVG Export Plug-In . SVG Version: 6.00 Build 0)  --><svg xmlns="http://www.w3.org/2000/svg" xmlns:xlink="http://www.w3.org/1999/xlink" version="1.1" id="Ebene_1" x="0px" y="0px" viewBox="0 0 291 256" style="enable-background:new 0 0 291 256;" xml:space="preserve" width="454" height="400">
<polygon points="12,187.5 113.8,50.1 125.1,50.1 39.2,188 " fill="#ffffff"></polygon>
<rect x="133.4" y="153" width="14.8" height="34.1" fill="#ffffff"></rect>
<rect x="133.4" y="110.3" width="13.9" height="25.4" fill="#ffffff"></rect>
<rect x="134.9" y="74.8" width="10.9" height="21" fill="#ffffff"></rect>
<rect x="134.9" y="50.1" width="10.9" height="15.4" fill="#ffffff"></rect>
<polygon points="156.6,50.7 168.3,50.7 204.2,99.4 199.4,110 193.8,110.5 " fill="#ffffff"></polygon>
<path d="M285,126.2l-43.3-6.1l-18-36.4l-18.9,37.6l-40,4.2l29.6,31.6l-7,40.7l36.7-20.2l37.4,19.8l-6.9-41.5L285,126.2z   M224.2,166.9L199.8,181l4.8-27.1c0,0-19.9-19.6-21-21.3l28.7-3l11.4-25.3l12.4,25.9l28,2.7l-20.7,19.8l4.3,26.9L224.2,166.9z" fill="#ffffff"></path>
</svg>