<?xml version='1.0' encoding='utf-8'?>
<svg xmlns="http://www.w3.org/2000/svg" viewBox="0 0 1955 2041" width="383" height="400"><path d="M1049 1225q0-8 5-20t5-20l-162-163-21-93h93l162 185q13-7 20.5-8.5t14.5-1.5h5q27 0 51.5 9t42.5 25 29 38 11 49-11 49.5-29 39-42.5 25.5-51.5 9q-23 0-45-9t-39-25.5-27.5-39-10.5-49.5zM102 675l142-143L50 338 295 95l193 203 143-143v520H102zm254-143l-61 72h254V338l-61 62-193-195-144 133zm1284 287l-101 100q-16-8-27.5-21.5T1478 868l112-111q-78-69-169.5-107T1212 604v153h-71V604q-109 8-205 46T764 757l112 111q-16 8-31 22t-29 29L712 809q-69 75-112 171t-51 205h163q0 8-5 20t-5 20 5 17 5 25H549q8 109 51 198.5T712 1633l104-102q14 15 29 29t31 22l-184 184-18.5-18.5-17.5-18-25.5-26.5-42.5-45q-20-22-44.5-67T498 1487t-35.5-127-14.5-135q0-99 26-191.5t73-173T660.5 714 807 600.5 979.5 527t191.5-26q102 0 196 26t175.5 73.5T1691 714t114.5 146.5T1879 1033t26 192q0 148-50 268.5T1711 1714q2 0 2 1 0 3-5.5 9.5t-14 14.5-17.5 15.5-15 11.5l-183-184q15-8 29-22t22-29l111 112q69-78 111-172.5t42-203.5h-153v-82h153q0-109-42-200t-111-166z" fill="#b9c900"></path></svg>