<?xml version='1.0' encoding='utf-8'?>
<svg xmlns="http://www.w3.org/2000/svg" viewBox="0 0 1983 2041" width="389" height="400"><path d="M1916 1653q9 15 13 28t4 23q0 48-84 48H128q-78 0-78-41 0-20 19-54L935 162q32-52 60-52 29 0 60 52zM995 393L302 1598h1391zm32 1045q-21 0-42.5.5t-43.5.5q-35 0-67-6t-55-28q-15-34-25-58.5t-18-44.5-15-37-14-37l-23-59q-11-29-21.5-63t-10.5-60q0-23 9-35l113-125 8 45q-42 42-60 63.5t-18 23.5q1 0 1-2-10 19-10 40 0 20 6.5 43.5T760 1153l56 144q16 41 31 65.5t45 35.5l112 6zm319-109l-52 21-40-104 53-21q6-2 7-2 8 0 14 14l25 67q3 6 3 11 0 11-10 14zm-150 76l-34-89q-8-13-22-13-8 0-21 5l39 102q0 1 .5 1.5t.5 2.5q0 6-10 10l-8 3q-2 1-5 1-8 0-10-5l-39-102q-14 8-18 16.5t-4 20.5l33 86q-22-1-42.5-20t-38.5-47.5-32.5-61-26-62-18.5-51-9-26.5l-28-72q-9-24-19.5-52.5t-18.5-58-13.5-57T846 886q0-18 4-31.5t13-21.5l34 89q6 6 15.5 8t24.5 3l-38-101q-1-1-1-4 0-5 9-9l12-5q2-1 7-1t8 5l39 101q22-17 22-36l-34-89q13 1 22 12l221 572q1 4 1.5 6.5t.5 5.5q0 11-10 15zm65 0l-3 1q-8 3-13 3-12 0-17-15L992 782q-3-6-3-11 0-13 18-19l3-1q9-3 14-3 10 0 15 15l235 613q3 8 3 13 0 9-16 16zm-98-555l-53 21-40-103 53-21q2-1 7-1 8 0 13 11l26 69q3 8 3 12 0 9-9 12zm-85 358q7-3 11-6.5t4-10.5q0-3-2-11l-58-151q-5-12-18-12-2 0-10 2l-33 13q-14 6-14 16 0 4 3 10l58 150q6 16 15 16 5 0 11-3zm394 316H512v-60h960v60z" fill="#000000"></path></svg>