<?xml version='1.0' encoding='utf-8'?>
<!-- Generator: Adobe Illustrator 20.1.0, SVG Export Plug-In . SVG Version: 6.00 Build 0)  --><svg xmlns="http://www.w3.org/2000/svg" xmlns:xlink="http://www.w3.org/1999/xlink" version="1.1" id="Ebene_1" x="0px" y="0px" viewBox="0 0 398.6 400" style="enable-background:new 0 0 398.6 400;" xml:space="preserve" width="398.6" height="400.0">
<style type="text/css">
	.st0{fill:none;stroke:#1D1D1B;stroke-width:15;stroke-linecap:round;stroke-miterlimit:10;}
	.st1{fill:none;stroke:#1D1D1B;stroke-width:15;stroke-linecap:round;stroke-linejoin:round;stroke-miterlimit:10;}
</style>
<path class="st0" d="M151.6,75.9c5.7-47.3,37.8-62.9,79.8-62.2c37.2,0.6,70,26.5,69.5,78.4c-0.6,52.1-20.2,73.6-19,82.8  s5,18.1,9.5,19.2s73.4,17.9,81.2,33.1c7.8,15.1,15.1,100.3,15.1,100.3" fill="#000000"></path>
<path class="st1" d="M168.1,219.6L94.9,350l0,0l-74-132.7l-0.6-1.6c-3.2-8.7-5-18-5-27.8c0-44,35.6-79.6,79.6-79.6  s79.6,35.6,79.6,79.6c0,10.7-2.1,20.9-5.9,30.2" fill="#000000"></path>
<circle class="st1" cx="94.9" cy="193.6" r="22.2" fill="#000000"></circle>
</svg>