<?xml version='1.0' encoding='utf-8'?>
<!-- Generator: Adobe Illustrator 23.0.1, SVG Export Plug-In . SVG Version: 6.00 Build 0)  --><svg xmlns="http://www.w3.org/2000/svg" xmlns:xlink="http://www.w3.org/1999/xlink" version="1.1" id="Ebene_2" x="0px" y="0px" viewBox="0 0 291 278" style="enable-background:new 0 0 291 278;" xml:space="preserve" width="418.70505" height="400.0">
<g>
	<path d="M177.6,170.5v-34.7H204v57.1c0,5.2,4.2,9.4,9.4,9.4h59.4c5.2,0,9.4-4.2,9.4-9.4v-78.5c0-2.4-0.9-4.7-2.6-6.5L257.6,85V18.9   c0-5.2-4.2-9.4-9.4-9.4h-30.8c-5.2,0-9.4,4.2-9.4,9.4v12l-17.4-15c-3.8-3.3-9.5-3-12.9,0.6l-63.8,67.3c0,0,9.4-0.6,13.8,2.7   c4.4,3.3,5.2,4.6,5.2,4.6l52.3-55.2l26.1,22.5c2.8,2.4,6.7,3,10,1.4c3.3-1.5,5.5-4.9,5.5-8.5V28.3h12v60.5c0,2.4,0.9,4.7,2.6,6.5   l21.9,22.9v65.3h-40.6v-57.1c0-5.2-4.2-9.4-9.4-9.4h-45.2c-5.2,0-9.4,4.2-9.4,9.4v32.4L177.6,170.5z" fill="#000000"></path>
</g>
<g>
	<path d="M124.8,158.4v-22.2l-17.1-18.1H58.9v40.7l-18.8-0.5v-49.6c0-5.2,4.2-9.4,9.4-9.4h62.3c2.6,0,5,1.1,6.8,2.9l22.4,23.7   c1.6,1.7,2.6,4,2.6,6.4v25.9H124.8z" fill="#000000"></path>
</g>
<g>
	<path d="M164.1,269.6H19.5c-5.2,0-9.4-4.2-9.4-9.4v-55.5c0-13.1,21.4-31.7,36.4-31.7h90.6c15,0,36.4,18.7,36.4,31.7v55.5   C173.5,265.4,169.3,269.6,164.1,269.6z M28.9,250.8h125.9v-45.6c-1.6-4.4-12.8-13.5-17.6-13.5H46.5c-4.8,0-16,9.1-17.6,13.5V250.8z    M28.8,205.5L28.8,205.5L28.8,205.5z" fill="#000000"></path>
</g>
<rect x="54.9" y="194.3" width="12.2" height="12.2" fill="#000000"></rect>
<rect x="73.1" y="194.3" width="12.2" height="12.2" fill="#000000"></rect>
<rect x="91.3" y="194.3" width="12.2" height="12.2" fill="#000000"></rect>
<rect x="115.5" y="194.3" width="12.2" height="12.2" fill="#000000"></rect>
<rect x="54.9" y="212.4" width="12.2" height="12.2" fill="#000000"></rect>
<rect x="73.1" y="212.4" width="12.2" height="12.2" fill="#000000"></rect>
<rect x="91.3" y="212.4" width="12.2" height="12.2" fill="#000000"></rect>
<rect x="115.5" y="212.4" width="12.2" height="12.2" fill="#000000"></rect>
<rect x="54.9" y="230.6" width="12.2" height="12.2" fill="#000000"></rect>
<rect x="73.1" y="230.6" width="12.2" height="12.2" fill="#000000"></rect>
<rect x="91.3" y="230.6" width="12.2" height="12.2" fill="#000000"></rect>
<rect x="115.5" y="230.6" width="12.2" height="12.2" fill="#000000"></rect>
</svg>