<?xml version='1.0' encoding='utf-8'?>
<!-- Generator: Adobe Illustrator 20.1.0, SVG Export Plug-In . SVG Version: 6.00 Build 0)  --><svg xmlns="http://www.w3.org/2000/svg" xmlns:xlink="http://www.w3.org/1999/xlink" version="1.1" id="Ebene_1" x="0px" y="0px" viewBox="0 0 400 400" style="enable-background:new 0 0 400 400;" xml:space="preserve" width="400.0" height="400.0">
<style type="text/css">
	.st0{fill:#1D1D1B;stroke:#1D1D1B;stroke-miterlimit:10;}
	.st1{fill:none;stroke:#1D1D1B;stroke-width:10;stroke-miterlimit:10;}
</style>
<circle class="st0" cx="200.2" cy="43.4" r="26.9" fill="#000000"></circle>
<circle class="st0" cx="200.2" cy="188.7" r="26.9" fill="#000000"></circle>
<line class="st1" x1="200.2" y1="225" x2="200.2" y2="282.8" fill="#000000"></line>
<line class="st1" x1="200.2" y1="83.5" x2="200.2" y2="147.2" fill="#000000"></line>
<circle class="st1" cx="197.7" cy="337.8" r="39.8" fill="#000000"></circle>
<path class="st0" d="M198.9,305.6c0.2-0.4-3.1,13.4-10.8,29.9c-6.2,13.3-14.7,25.4-14.7,25.4s10.1-4.8,15-6  c5.2-1.3,13.9-1.2,18.5,0.5c4.2,1.5,14.3,6.8,14.3,6.8s-8.7-14.4-13.5-27.4C202.5,320.6,198.9,305.6,198.9,305.6z" fill="#000000"></path>
</svg>