<?xml version='1.0' encoding='utf-8'?>
<svg xmlns="http://www.w3.org/2000/svg" viewBox="0 0 1886 2041" width="370" height="400"><path d="M1836 928l-4 83-11 82-19 80-26 78-34 76-40 72-47 68-51 62-58 59-65 52-67 46-73 41-75 34-78 25-81 19-81 12-83 4-82-4-81-12-80-19-78-25-77-34-71-41-68-46-65-52-57-59-52-62-47-68-40-72-34-76-26-78-18-80-13-82-4-83 4-81 13-82 18-80 26-77 34-77 40-72 47-68 52-64 57-59 65-51 68-46 71-40 77-32 78-28 80-17 81-13 82-4 83 4 81 13 81 17 78 28 75 32 73 40 67 46 65 51 58 59 51 64 47 68 40 72 34 77 26 77 19 80 11 82zm-124 0l-3-75-12-77-19-75-26-71-33-69-39-65-47-62-53-57-56-51-63-44-67-38-70-32-72-21-74-19-77-10-76-1-78 5-74 14-74 22-71 26-69 33-66 44-58 47-55 54-49 57-44 65-37 68-29 69-24 74-14 75-8 77v76l8 77 14 76 24 72 29 70 37 68 44 64 49 58 55 53 58 48 66 42 69 34 71 28 74 20 74 14 78 7 76-3 77-10 74-16 72-25 70-32 67-38 63-45 56-49 53-56 47-61 39-67 33-69 26-72 19-73 12-77zm-630-538l-4 32-12 33-19 27-25 22-29 16-32 8h-33l-35-8-28-16-26-22-18-27-13-33-4-32 4-33 13-32 18-26 26-23 28-16 35-6h33l32 6 29 16 25 23 19 26 12 32zm140 1086l-2 26-11 26-18 23-22 16-28 7-29-1-26-9-22-17-17-24-9-26-44-279-9-22-18-15-24-6-22 6-19 15-10 22-44 279-8 26-16 24-24 17-25 9-30 1-24-7-25-16-16-23-12-26-1-26 23-237 39-234h430l37 234zM546 859l-26 8-28-4-21-16-15-23-2-27 11-27 21-18 127-72 127-69 71-26 74-10h118l74 10 68 26 130 69 127 72 20 18 10 27-2 27-14 23-22 16-27 4-27-8-72-42-75-40-20-6-23 4-17 15-10 19v23l10 49 10 47H742l11-47 11-49v-23l-10-19-18-15-19-4-23 6-74 40z" fill="#000000"></path></svg>