<?xml version='1.0' encoding='utf-8'?>
<!-- Generator: Adobe Illustrator 23.0.1, SVG Export Plug-In . SVG Version: 6.00 Build 0)  --><svg xmlns="http://www.w3.org/2000/svg" xmlns:xlink="http://www.w3.org/1999/xlink" version="1.1" id="Ebene_1" x="0px" y="0px" viewBox="0 0 291 278" style="enable-background:new 0 0 291 278;" xml:space="preserve" width="418.70505" height="400.0">
<path d="M129.7,103.1c-0.7,3.4,6.6-0.3,8-0.5c1.1-0.2,3.1-0.5,4.2-0.1c2.1,0.7,0.5,1.8,0.9,3.3c0.5,1.7,3.2,1.3,4.4,1.7  c1,0.3,3,2.4,4.1,1.7c0.6-0.3,0.3-1.3,0.8-1.7c0.7-0.6,1.5-0.5,2.4,0c1.3,0.6,2.1,2,3.9,1.7c1.8-0.3,3.7-1.7,5-0.1  c0.8,1,1.6,3.1-0.1,3.6c-0.2,1,2,3,2.5,4.1c0.8,1.4,1.4,2.9,2.5,4.1c1.4,1.4,2.3,2.3,3.2,4.1c0.7,1.4,1.5,2.8,2.9,3.6  c0.7,0.4,1.5,0.6,2.3,0.6c1,0,3.1-1.1,4-0.6c2.2,1.2-1.4,4-2.2,4.7c-3,2.8-4.8,6.5-6.9,9.9c-0.9,1.5-2,3.2-2.1,5.1  c0,2.1,1.3,4,1.1,6.1c-0.4,4.2-4.8,5.2-5.5,9.4c-0.2,1.3,0.5,3.1-0.2,4.2c-0.3,0.5-1.3,0.8-1.7,1.3c-0.6,0.9-0.6,1.7-0.8,2.7  c-0.5,2-2,3.5-3.6,4.7c-1.6,1.2-3.5,1-5.4,1.1c-1.8,0.1-3.1,0.5-4.1-1.3c-1.1-1.9-0.7-4.9-1.7-7c-1.2-2.6-3.3-5.2-3.9-8  c-0.4-2.1,1-4.5,1.7-6.5c0.3-0.9,0.6-2.5,0.4-3.4c-0.3-1-1.1-1.4-1.7-2.4c-1.2-1.8-1.1-3.6-1.5-5.5c-0.5-2-0.5-3.5-1.8-5.2  c-1.2-1.7-2.4-2-4.4-2.6c-2.2-0.6-3.8-0.2-6.1,0.5c-2.2,0.7-4.2,1.9-6.4,0.7c-4.8-2.6-4.5-8.4-5.3-12.9c-0.5-2.6-1.6-4.9,0-7.2  c1.5-2.2,4.5-3.4,5.7-5.8c0.9-1.7,0.7-4.1,2.1-5.7c0.4-0.5,1.1-0.7,1.7-1c0.6-0.4,0.8-1,1.1-0.7" fill="#000000"></path>
<path d="M129.7,103.1c-0.7,3.4,6.6-0.3,8-0.5c1.1-0.2,3.1-0.5,4.2-0.1c2.1,0.7,0.5,1.8,0.9,3.3c0.5,1.7,3.2,1.3,4.4,1.7  c1,0.3,3,2.4,4.1,1.7c0.6-0.3,0.3-1.3,0.8-1.7c0.7-0.6,1.5-0.5,2.4,0c1.3,0.6,2.1,2,3.9,1.7c1.8-0.3,3.7-1.7,5-0.1  c0.8,1,1.6,3.1-0.1,3.6c-0.2,1,2,3,2.5,4.1c0.8,1.4,1.4,2.9,2.5,4.1c1.4,1.4,2.3,2.3,3.2,4.1c0.7,1.4,1.5,2.8,2.9,3.6  c0.7,0.4,1.5,0.6,2.3,0.6c1,0,3.1-1.1,4-0.6c2.2,1.2-1.4,4-2.2,4.7c-3,2.8-4.8,6.5-6.9,9.9c-0.9,1.5-2,3.2-2.1,5.1  c0,2.1,1.3,4,1.1,6.1c-0.4,4.2-4.8,5.2-5.5,9.4c-0.2,1.3,0.5,3.1-0.2,4.2c-0.3,0.5-1.3,0.8-1.7,1.3c-0.6,0.9-0.6,1.7-0.8,2.7  c-0.5,2-2,3.5-3.6,4.7c-1.6,1.2-3.5,1-5.4,1.1c-1.8,0.1-3.1,0.5-4.1-1.3c-1.1-1.9-0.7-4.9-1.7-7c-1.2-2.6-3.3-5.2-3.9-8  c-0.4-2.1,1-4.5,1.7-6.5c0.3-0.9,0.6-2.5,0.4-3.4c-0.3-1-1.1-1.4-1.7-2.4c-1.2-1.8-1.1-3.6-1.5-5.5c-0.5-2-0.5-3.5-1.8-5.2  c-1.2-1.7-2.4-2-4.4-2.6c-2.2-0.6-3.8-0.2-6.1,0.5c-2.2,0.7-4.2,1.9-6.4,0.7c-4.8-2.6-4.5-8.4-5.3-12.9c-0.5-2.6-1.6-4.9,0-7.2  c1.5-2.2,4.5-3.4,5.7-5.8c0.9-1.7,0.7-4.1,2.1-5.7c0.4-0.5,1.1-0.7,1.7-1c0.6-0.4,0.8-1,1.1-0.7" fill="#000000"></path>
<path d="M178.6,153.9c-0.3,1.3-1.5,3-2.6,3.8c-0.7,0.4-2.3,0.5-2.7,1.1c-1.4,1.8,0.5,7.4,0.4,9.6c0,1.5-0.1,2.2,1.4,0.8  c2-1.9,2.1-4.6,2.7-7.1c0.4-1.5,0.5-3,0.8-4.6c0.2-1.2,0.8-2.4,0.3-3.6c-0.3-0.1-0.2,0.1-0.3,0.1" fill="#000000"></path>
<path d="M178.6,153.9c-0.3,1.3-1.5,3-2.6,3.8c-0.7,0.4-2.3,0.5-2.7,1.1c-1.4,1.8,0.5,7.4,0.4,9.6c0,1.5-0.1,2.2,1.4,0.8  c2-1.9,2.1-4.6,2.7-7.1c0.4-1.5,0.5-3,0.8-4.6c0.2-1.2,0.8-2.4,0.3-3.6c-0.3-0.1-0.2,0.1-0.3,0.1" fill="#000000"></path>
<path d="M66,129.2c-1.5-0.2-2.6,1.7-3.2,2.8c-0.7,1.4-1.8,2.3-1.8,3.9c-0.1,1.8,0.9,3-0.5,4.5c-1.1,1.2-2.3,1.6-2.7,3.5  c-0.2,1.3,0.2,3.1,0.6,4.4c0.5,1.5,2,2.3,2.8,3.8c0.9,1.7,1.5,3.4,2.8,4.8c1.1,1.1,2.2,1.1,3.5,1.8c1.8,1.1,2,2.3,2.2,4.3  c0.2,2.1,0.8,4.1,0.8,6.2c0,3.5,0.6,6.9,0.6,10.5c0,1.6,0.2,2.9,0.5,4.4c0.4,1.6,0,3,0.3,4.6c0.1,0.8,0.7,1.3,1.1,2  c0.4,0.9,0.2,2,0.6,2.8c0.3,0.6,0.6,0.9,1,1.3c0.2,0.1,0.6,0,0.8,0.1c0.4,0.3,0.5,0.8,0.9,1.1c0.8,0.6,1.8,0.6,2.7,1.1  c0.7,0.4,0.9,1.2,1.6,1.7c1.2,0.9,3.2,1,3.7-0.6c-1.7-0.9-2.7-1.1-3.7-2.6c-0.4-0.6-0.5-0.5-0.8-1.5c-0.2-0.8-0.2-0.9-0.2-1.7  c0-0.6,0.4-1-0.1-1.7c-0.4-0.7-1.1-0.4-1.6-0.8c-1.5-1.3,0.1-1.5,0.7-2.6c0.7-1.5-1.1-2.2-0.7-3.5c0.3-1.1,2.4-0.6,3-1.6  c0.5-0.8-0.4-1,0.6-1.4c0.7-0.3,1.8,0.3,2.6,0.2c1-0.2,1.5-0.3,1.3-1.6c-0.2-1.1-0.4-0.7-1.3-1.3c-0.6-0.4-1.1-0.3-1.2-1.1  c1.7-0.5,3.3,0.8,4.1-1.4c0.6-1.6,0.4-3.1,1.3-4.7c0.4-0.7,0.7-1.2,0.9-1.9c0.2-0.7-0.2-1.5,0.4-2.1c1-0.9,3.1-0.5,4.3-1.4  c2.2-1.8,1.5-4.9,1.6-7.4c0-3.4,3.9-5.1,3.9-8.7c0-2.1-0.9-3.5-2.6-4.7c-1.7-1.2-3.4-0.4-5.2-1.1c-1-0.4-1.4-1.2-2.2-1.9  c-0.9-0.8-2-0.8-3-1.3c-1.9-1-1.2-2.6-1.9-4.3c-0.9-2.1-2.3-3-4.5-3.2c-1.4-0.1-1.4,0.1-2.4-0.7c-1.1-0.9-1.5-2.8-2.7-3.6  c-1.9-1.3-3.1,0.6-4.9,0.6c-1.1,0-2.8-2.1-3.5-0.9" fill="#000000"></path>
<path d="M88,194.8c-0.7-1.1-3-0.5-1.9,0.6c1.4,1.4,2.7-1.6,0.6-1.1" fill="#000000"></path>
<path d="M66,129.2c-1.5-0.2-2.6,1.7-3.2,2.8c-0.7,1.4-1.8,2.3-1.8,3.9c-0.1,1.8,0.9,3-0.5,4.5c-1.1,1.2-2.3,1.6-2.7,3.5  c-0.2,1.3,0.2,3.1,0.6,4.4c0.5,1.5,2,2.3,2.8,3.8c0.9,1.7,1.5,3.4,2.8,4.8c1.1,1.1,2.2,1.1,3.5,1.8c1.8,1.1,2,2.3,2.2,4.3  c0.2,2.1,0.8,4.1,0.8,6.2c0,3.5,0.6,6.9,0.6,10.5c0,1.6,0.2,2.9,0.5,4.4c0.4,1.6,0,3,0.3,4.6c0.1,0.8,0.7,1.3,1.1,2  c0.4,0.9,0.2,2,0.6,2.8c0.3,0.6,0.6,0.9,1,1.3c0.2,0.1,0.6,0,0.8,0.1c0.4,0.3,0.5,0.8,0.9,1.1c0.8,0.6,1.8,0.6,2.7,1.1  c0.7,0.4,0.9,1.2,1.6,1.7c1.2,0.9,3.2,1,3.7-0.6c-1.7-0.9-2.7-1.1-3.7-2.6c-0.4-0.6-0.5-0.5-0.8-1.5c-0.2-0.8-0.2-0.9-0.2-1.7  c0-0.6,0.4-1-0.1-1.7c-0.4-0.7-1.1-0.4-1.6-0.8c-1.5-1.3,0.1-1.5,0.7-2.6c0.7-1.5-1.1-2.2-0.7-3.5c0.3-1.1,2.4-0.6,3-1.6  c0.5-0.8-0.4-1,0.6-1.4c0.7-0.3,1.8,0.3,2.6,0.2c1-0.2,1.5-0.3,1.3-1.6c-0.2-1.1-0.4-0.7-1.3-1.3c-0.6-0.4-1.1-0.3-1.2-1.1  c1.7-0.5,3.3,0.8,4.1-1.4c0.6-1.6,0.4-3.1,1.3-4.7c0.4-0.7,0.7-1.2,0.9-1.9c0.2-0.7-0.2-1.5,0.4-2.1c1-0.9,3.1-0.5,4.3-1.4  c2.2-1.8,1.5-4.9,1.6-7.4c0-3.4,3.9-5.1,3.9-8.7c0-2.1-0.9-3.5-2.6-4.7c-1.7-1.2-3.4-0.4-5.2-1.1c-1-0.4-1.4-1.2-2.2-1.9  c-0.9-0.8-2-0.8-3-1.3c-1.9-1-1.2-2.6-1.9-4.3c-0.9-2.1-2.3-3-4.5-3.2c-1.4-0.1-1.4,0.1-2.4-0.7c-1.1-0.9-1.5-2.8-2.7-3.6  c-1.9-1.3-3.1,0.6-4.9,0.6c-1.1,0-2.8-2.1-3.5-0.9" fill="#000000"></path>
<path d="M88,194.8c-0.7-1.1-3-0.5-1.9,0.6c1.4,1.4,2.7-1.6,0.6-1.1" fill="#000000"></path>
<path d="M127.5,88.3c0.7-1.3,1.9-0.8,2.5-1.7c0.5-0.7,0.4-2.4,0.1-3.1c-1.2-0.3-2.3,0.6-2,1.8c-1.2-0.5-2.6,0.2-0.9,1.1  c-0.6,0.3-1,1-0.8,1.7c0.6,0.1,1.1-0.1,1.6-0.4" fill="#000000"></path>
<path d="M132.3,80.9c-1.2-0.4-1.6,0-1.7,1.1c-0.1,1.5,0.8,1.3,1.4,2.4c1.2,2.3-2,2.4-1.7,4.5c-0.1,0.1-0.3,0.1-0.4,0.2  c1.4,0,2.4-0.5,3.7-0.8c1.3-0.3,3.1-0.3,1.9-1.9c-0.4-0.5-1.3-0.5-1.7-1c-0.5-0.6-0.2-1-0.4-1.7c-0.2-0.7-0.9-3-1.6-3.3" fill="#000000"></path>
<path d="M145.2,72.9c-0.9,1.4-1.8,3.1-3.5,3.6c-1.5,0.4-2.6-0.1-3.3,1.7c-0.7,1.9,0.5,2.5,2.2,2.4c1.4-0.1,3.2-1.5,3.6,0.2  c0.3,1.2-1.1,2.8,0.9,3.1c1.8,0.3,2.9-2.4,3.3-3.8c0.4-1.3-0.6-2.7,0-3.6c0.2-0.3,1.1-0.6,1.5-0.9c0.4-0.4,0.7-1.5,1.2-1.7  c2.8-0.8-0.3,2.9-0.4,3.3c-0.1,0.5,0.7,1.9,1,2c1,0.5,1.6-0.6,2.4-0.8c1.6-0.5,3.2,1.2,1.3,1.6c-0.8,0.2-4.1-1.4-3.8,1  c0.6,0,1.1,0.1,1.7,0.2c0.1,0.3,0.2,0.9,0.2,1.2c-0.2,0-0.4,0-0.6,0c-0.3-0.4-0.5-0.9-0.7-1.4c-1.5-0.3-1.3,1.5-1.2,2.5  c1.6,0.8-0.8,1.1-1.4,1.1c-1.2,0.1-2.1,0.3-3.3,0.3c-0.5,0-1.1-0.2-1.6-0.2c-0.5,0.1-1.3,0.8-1.7,0.8c-1.8-0.3,0.2-1.5,0.8-1.9  c-0.4-0.2-1.3-0.2-1.6-0.6c-0.2-0.3,0.2-1.4,0.1-1.9c-1.4-0.3-2.1,1.3-2,2.5c0.2,1.9,1.2,1.6-0.8,2.4c-1.6,0.6-1.3,1.2-2.6,2.3  c-0.9,0.8-2.5,1-2.7,2.5c-0.9,0-2-2.7-1.7,0.2c-1.2,0-2.8,0.1-1.4,1.4c0.5,0.5,1.1,0,1.6,0.7c0.4,0.5,0.3,1.1,0.3,1.7  c0,2-0.4,1.6-2,1.3c-1.2-0.2-2.7-0.5-3.9-0.3c-0.1,2.4-1,4.6-0.9,7c1.5,0.5,2.3-1,3.8-0.8c0.6,0.1,0.9,0.8,1.6,0.8  c0.9,0,1.9-1,2.5-1.6c0.9-1,0.7-2,1.5-3c0.8-1,2.6-0.6,2.8-2.2c0.6,0,1.5,0.2,2-0.1c0.7-0.3,0.9-1.2,1.4-1.4c1.5-0.5,2,1.1,2.6,2.1  c0.8,1.4,2,1.1,2.9,2.2c1.2,1.5-0.5,2-0.9,3.2c2,0.3,1.8-2,1.9-3.4c0.8,0.1,1.2,0.7,1.6,0c0.6-1.3-0.8-1.7-1.6-1.9  c-1.6-0.3-2.9,0-3.9-1.7c-0.4-0.7-0.8-1.4,0.4-1.6c0.8-0.1,1.9,1.4,2.5,1.9c0.6,0.4,1.2,0.4,1.7,0.9c0.7,0.6,0.8,1.4,1.4,2  c-2,2.4,2.4,4.7,4.4,4.5c0.1-0.4,0.4-0.9,0.5-1.1c-0.3-0.7-2.1-1.7-1.7-2.6c0.2-0.6,2.7-0.7,3.2-0.9c0.8-0.5,1.9-1.4,2.2-2.2  c0.4-1.2-0.4-2.5,1.6-2.4c1.1,0.1,1.5,1.5,2.4,1.7c0.9,0.2,0.9-0.7,1.4-0.7c0.8-0.1,1.1,0.2,1.8,0.5c2.8,1.2,5.9,1.1,8.8,1.8  c0.1-0.8-0.7-1.1-0.8-1.9c0-0.8,0.5-1.2,1-1.7c-1-0.8-2.2-1.5-2.2-2.8c0-1.6,1.7-2.5,3.2-2.4c1.5,0.1,2.5,1.5,3.8,0.2  c1.3-1.3,0.1-2.5,0.2-4c0.1-2.2,0.6-2.8-0.5-5c-0.8-1.7-1.7-3-0.6-4.6c0.5-0.7,3.3-2.5,2.8-3.5c-0.4-0.9-3.1-0.4-3.9-0.7  c-1.1-0.3-1.8-0.6-3.1-0.6c0.1,0.5,0.4,0.8,0.9,0.9c-0.2,1.6-3.2-0.1-4.3,0.2c-1.4,0.4-2.8,2.3-4.1,2.6c-0.1-0.6,0.2-1.3,0.5-1.7  c-0.3-0.3-1.6-1-2-0.4c-0.5,0.7,1,0.9,0.9,1.7c-1.6,0-2.3,0.3-3.7,1c0.5,0.3,0.6,0.8,0.7,1.2c-0.8,0-0.8-1.4-1.7-1  c-0.6,0.3-0.3,1.4-0.2,1.8c-1.3,0.1-1.4-2-2.2-2.8c1.1-0.1,2.8,0.3,3.8,0c1.5-0.6,1-1.6-0.3-2.3c-1.8-0.9-3.9-0.5-5.8-0.9  c-2.2-0.6-4-1-6.3-0.4c-1.7,0.4-4.6,0.9-6,1.9c0.4,0.4,1,0.4,1.6,0.3c-0.3,0.9-1.5,1-2.2,1.7c-0.7,0.7-0.4,1.5-1.1,2.2" fill="#000000"></path>
<path d="M141.6,97.8c-0.8,0.6-0.9,3.2,0.8,2.8c0.2-0.9-0.1-1.8-1.1-1.8" fill="#000000"></path>
<path d="M156.2,104.2c-0.9,0.1-1.8-0.4-2.5-0.2c0.6,0.6,2.8,1.2,3.6,0.5c-0.9-0.1-1.7-0.6-2-1.5" fill="#000000"></path>
<path d="M172.6,69.6c-0.9,0.2-2.9,0.4-3.2-0.9c-0.3-1.3,1.4-1.4,2.2-2.1c0.4-0.4,0.3-0.9,0.9-1.3c0.6-0.4,1.6-0.5,2.2-0.6  c1-0.2,2.5-0.6,3.6-0.4c-1.5,1.9-5.1,1.2-6.5,3.3c-0.7,1,0,2.6-0.4,3.3" fill="#000000"></path>
<path d="M147.4,62.2c-1.2,0-2.4,0-3.6,0c-0.3,1.2,1.3,4.4,3,3.5c0.9-0.5,0.4-2.3,1.8-2.4c1.1-0.1,0.8,1,1.9,1.2  c0.2-1.2-1.4-1-1.7-1.8c0.8,0,2.5,0.4,2.6-0.8c-1.9-0.1-4.3-0.2-6,0.3" fill="#000000"></path>
<path d="M164.4,61.6c-0.3-0.3-1.4-0.6-1.4,0.2c-0.1,1,2,0.3,2.2-0.2c-0.3-0.3-0.9-0.4-1.4-0.3" fill="#000000"></path>
<path d="M170.5,61c-1.3-0.1-2.6-0.5-3.7,0.5c1.6,1.7,3.7-0.1,5.3-0.2c-1,0-2-0.1-2.9-0.1c0,0.3,0.1,0.3,0.2,0.6  c-0.5-0.2-0.3-0.4-0.4-0.8" fill="#000000"></path>
<path d="M124.9,74c-1.5-0.1-2.9,0.2-4.4,0c-0.6-0.1-2.6-0.7-1.9,0.8c0.4,0.9,3.5,0.5,4.5,0.5c0.9,0,2.5-0.4,1.3-1.4" fill="#000000"></path>
<path d="M168.5,70.7c-0.2,0.1-0.4,0-0.6,0.2c0.2,0.8,1.2,1,2,0.9c-0.2-0.4-0.5-0.6-0.9-0.8" fill="#000000"></path>
<path d="M168.7,97.1c-0.2-0.4-0.4-0.8-0.5-1.2c0.5,1.2,1.1,2-0.1,2.5c-0.8,0.3-2.8,0-3.5-0.3c-1.5-0.5-2-1.1-3.7-0.5  c-0.7,0.3-1.3,0.9-2,1c-0.5,0.1-1.1-0.2-1.6-0.1c-2.5,0.6-0.9,4.9,1.4,5c1.3,0.1,2.1-0.9,3.3-0.6c1.1,0.3,1.3,1.6,2.7,0.5  c0.5,1.2-0.2,3-0.5,4.2c-0.3,1.8-0.5,2.2,0.5,3.8c1,1.4,1.7,2.9,2.8,4.2c1.3,1.6,1.6,3.7,2.8,5.4c0.8,1.2,2.1,2.2,2.6,3.6  c0.4,1.2,0.1,2.9,1.5,3.4c1.6,0.7,3.6-1,4.9-1.6c1.9-0.9,3-1.4,4.2-3.1c1.1-1.5,4.1-2.7,3.6-4.9c-0.2-1-1-1-1.6-1.8  c-0.6-0.8-0.4-1.7-0.5-2.8c-1.7-0.4-2.5,2.2-4.7,1.8c0.2-1-0.8-2.9-1.9-2c-0.5-0.7-2-3.8-0.3-3.9c0.9-0.1,2.2,2.1,2.8,2.7  c1.3,1.1,1.6,0.2,2.8,0.5c0.9,0.2,2.1,1.9,2.9,2.4c1.1,0.6,1.8,0.9,3.2,0.8c1-0.1,2.6-1.2,3.5-1.1c2.1,0.3,1.2,5.5,4.7,3.5  c0.1,1,0.8,1.1,1.4,0.5c0.3,1.5-0.2,3.1,0.7,4.4c0.6,0.9,1.6,1.2,2.2,2.2c0.6,1,0.2,1.6,0.3,2.5c0.1,1.1,0.2,3.1,0.9,3.9  c1,1.2,2.8,0.8,2.9-0.9c1.4,0.1-1.4,4,1.1,4.2c1.1,0.1,1.7-1.5,1.4-2.4c-0.3-0.9-1.2-1.2-2.2-1.4c0-0.8,0.7-1.4,0.8-2.3  c0.1-0.8-0.3-1.4-0.4-2.1c-0.5-2.5,0.7-2.1,2.3-3.5c0.7-0.6,1.2-1.5,1.9-2.2c0.8-0.8,0.9-2.1,1.6-2.6c1-0.7,1.5,0.3,2.5,0.4  c0.7,0,1.2-0.6,2-0.5c0.5,1.5,0.7,2,0.7,3.5c0,0.9,0,2,1,2.5c0.9,0.4,0.6-0.1,1.5-0.3c2.7-0.5,2.1,0.8,2.2,2.6  c0.1,1.4,0.8,2.4,1.7,3.3c1.3,1.3,1,1.4,0.9,3.1c0,1.3,0.6,2.4,0.9,3.6c0.5,1.6,1.5,1.6,2.4,2.9c-0.2-0.3,0.5,1.8,0.5,1.5  c-0.1,0.5-0.1,0.9-1,0.8c-0.2-0.7,0.2-2.4,0-2.8c-0.4-0.7-2.1-0.7-2.8-1.1c-0.5-0.3-1.7-1-2.1-1.4c-0.6-0.7-0.4-2.3-1.5-2.3  c-0.5,2.1,2.3,2.8,3,4.4c0.2,0.6,0,1.6,0.3,2.2c0.5,0.9,1.6,1,2.2,1.9c0.8,1,0.8,3.5,2.2,4.1c2.4,0.9,1.3-2.1,1.4-3.1  c0.8-0.2,1.6,0.2,2.3,0.3c0.2-1.8-2-1.3-3-1.7c-1-0.4-0.7,0-1-1.1c-0.1-0.4,0-1.4,0-1.9c1.3-0.3,0.1-1.6-0.1-2.3  c-0.3-0.7-0.4-1.6-0.7-2.2c-0.4-0.8-1.3-0.9-1.8-1.7c-0.4-0.6-0.7-1.7-0.9-2.4c-0.4-1.3-1-4.4,1.4-2.8c0.4,0.3,0.5,1,0.8,1.3  c0.3,0.3,0.8,0.3,1.1,0.6c0.6,0.6,1.2,1.5,0.6,2.4c1.3,0,1.1-1,1.9-1.7c0.6-0.5,1.7-0.5,2.1-1.1c1.1-1.5-0.5-4.4-1.5-5.5  c-0.9-1.1-3.5-3.6-1.9-5.2c0.3-0.3,1.8-0.6,2.1,0c0.1,0.2-1.2,1.6-1.3,2.1c0.6,0.7,1.5,1,2.3,0.8c0.4-1,0.3-2,0.4-3.1  c1-0.4,1.9-0.2,3-0.3c1.2-0.2,1.7-0.8,2.5-1.6c1.4-1.4,3.4-3.6,3.1-5.7c-0.2-2.2-0.6-3.4-2-5.2c-0.6-0.7-3.6-4-1-3.8  c-1.1-1.1-2.9-0.6-4.4-1.1c0.1-1.2,0.5-2.2,2-2c-0.2,0.5,0,1.2,0.5,1.6c1.1,0.8,0.9-0.2,1.7-0.4c2.3-0.5,1.6,2,3,2.3  c0.2,0.8,1,2.9,1.9,3.1c1.6,0.4,2-1.7,2.3-2.6c-0.8-0.3-1.2-1-1.7-1.6c-0.3-0.4-0.3-0.7-0.5-1c-0.3-0.5-0.8-0.2-0.9-0.8  c-0.7-2.7,3.1-1.4,3.8-2.2c0.7-0.7,0.5-4.2,0.6-5.2c0.2-1.6,0.4-3.8-1.1-4.7c1.6,1.2,1.9,1.8,2.8,3.5c0.5,1,1.1,1.7,1.3,2.8  c1.7,0.3,0.2-1.7-0.2-2.2c1.7-0.7-0.8-2.6-1.4-3.6c-0.9-1.4-1.6-2.2-3.2-2.5c0.1,0.5-0.1,0.9,0.1,1.4c-0.2,0.1-0.7,0.1-0.9,0  c-0.1-2-2.3-2.5-3.8-1.5c-1-1-3.4-3.3-0.9-4.4c1.9-0.9,4.5,0.6,6.4,0.3c0.4-2,5.8,0.9,2.6-3.4c1.3-1.1,1.5,0.5,2.5,0.6  c1.5,0.2,0.1-1.3,1.4-1.5c1.4-0.2,2.7,4.7,0.2,4.6c-1.2,2.4,2.1,3,3.3,4.2c1,1.1,1,2.8,2,3.8c0.3-0.8,0.2-2.1,0.2-3  c0-0.5,0-0.9,0-1.4c0-0.5-0.4-0.8-0.3-1.4c1.2-0.2,0.5-1.6,0-2.2c-0.7-1-1.8-1.3-1.4-2.6c0.6-0.1,1.3,0.2,1.9,0.1  c0.3,0,0.5-0.6,0.7-0.6c0.2,0,0.8,0.3,0.9,0.3c0.9-0.3,0.6-0.3,1.3-0.8c0.6-0.4,1.1-0.9,1.8-1c-0.7-1.2-1.5-1.7-1.5-3.4  c1,0,2-0.1,3,0.2c0.8,0.2,1.2,0.8,2,0.6c-1.6-2.4-6.9-2.7-9.5-3.5c-2.7-0.8-5.6-1-8.3-0.9c0.1,0.6,0.3,1,0.6,1.5  c-1.2,0.3-1.4-0.8-1.3-1.7c-1.9-0.1-3.6,0.8-5.5,0.6c-1.7-0.1-3-1.2-5-1.1c-2.3,0-3-0.9-5-1.5c-2.3-0.7-5.2,1.2-7.4,0.1  c0.7-0.6,1.6-0.5,2.3-0.7c-0.6-0.2-4.1-0.6-3.3,0.3c-0.3-0.4-0.3-0.7-0.4-1.1c2.1,0.1,0.9-1.6-0.5-1.6c-0.4,0-1.5,0.4-1.6,0.8  c-0.1,1,1.8,0.8,2.4,0.8c-0.2,0.7-1,1-1.6,1.4c0.5,0.8,3.3,0.6,3.2,1.3c-0.1,1.2-2.6,0.4-3.2,0.2c-0.4-0.2-0.4-0.6-0.9-0.7  c-0.5-0.1-1,0.3-1.3,0.3c-1.1-0.1-2-0.9-3-1.3c-2.4-1.1-4.5,0.1-6.9,0c-1.1-0.1-2-0.7-3.1-0.6c-1.1,0-2.2,0.4-3.4,0.3  c0.4-0.5,1.6-1.5,2.3-1.7c-0.9-2.5-8.7-1.6-11-1.5c-0.1,1.7-1.8,1.3-3,1.4c-1.8,0.2-2.9,1.2-4.6,1.4c2.5,4.1-4.3-1-3.1,1.9  c-0.5,0-1.6,0.1-1.7,0.7c-0.2,1,1.4,1.1,1.9,1.6c1.1,1.1,1.1,3.5-1.1,2.9c-2.5-0.7,1.5-6.9-2.4-6.2c-2,0.4-1.1,1.7-0.9,3.1  c0.2,1.5-0.1,1.9-1.3,2.9c-1.1,0.9-1.8,1.3-1.4,2.9c0.3,1.1,1.3,1.7,1.6,2.8c0.5,1.8-0.3,4.4-0.2,6.3c0.2,3.5-1.7,2.7-4.3,2.2  c-2.6-0.5-3.1,2-1.9,3.6c0.4,0.5,0.9,0.5,1.1,1.1c0.2,0.8-0.4,0.8-0.5,1.2c-0.1,0.5-0.3,0.7-0.3,1.3c0,0.4,0.6,0.6,0.5,1.3  c-1,0.2-6.1-1.6-6.1-0.3" fill="#000000"></path>
<path d="M255.2,97c-0.2-1.2-2.8-1.9-3.1-0.6c-0.2,0.6,1.6,2.1,2.1,2.8c1,1.5,1.1,2.3,1.1,4.1c0,2.2-0.7,2.1-2.7,2.8  c-0.7,0.2-1.4,0.6-2,1.1c-0.3,0.3-1.3,1.8-1.6,1.9c-1,0.1-1-1.3-0.8-1.9c0.4-1,1.2-0.9,1.9-1.3c0.8-0.3,1.7-0.5,2.1-1.3  c0.5-0.9,0-1.9,0.5-2.8c0.3-0.6,0.9-0.7,1.1-1.4c0.2-0.8-0.6-1.6-0.5-2c0.2-0.9,2-1.4,0.5-2.2" fill="#000000"></path>
<path d="M244,122.1c-0.2-0.1-0.3-0.2-0.5-0.3c-2.1,2.1-0.1,2.4,0.7,4.1c0.4,0.7,0.4,2.2,0.2,2.9c0.7-0.5,0.4-1.4,0.7-1.8  c0.7-0.8,0.5-0.2,1.1,0c0.3,0.1,0.6,1.4,1.4,0.6c0.9-0.9-0.7-1.1-1.1-1.3c-1.1-0.4-2.8,0-2.7-1.7c0.1-0.8,1.1-0.5,0.9-1.4  c-0.1-0.5-1.3-0.9-1.4-0.9" fill="#000000"></path>
<path d="M249.3,131.9c0,0.3,1,1.3,0.9,1.7c-0.1,0.9-0.7,1.1-1.4,0.5c0.1,0.4-0.1,1-0.1,1.4c-1.4,0.2-0.6-1.3-1.5-1.6  c-0.7-0.2-1.2,0.7-1.9,0.8c-0.3-1.7,0.9-1.6,1.9-1.9c1.1-0.4,1.5,0,1.5-1.7c0-0.2-0.2-2.1-0.3-2.2c-0.8-1.1-1.1,0.2-0.9,1.1  c0.2,1.1,1.4,0.7,0,1.4c-0.4,0.2-1.8,0.3-2.2,0c-0.7-0.7-0.2-2.2,0.8-2.1c0.4,0,1.4,1.3,1.7,1.6" fill="#000000"></path>
<path d="M242.3,129.5c1,1.1-0.7,2.1-0.9,3.1c1.1,0,2.6-2.4,1.2-2.8" fill="#000000"></path>
<path d="M240.7,135c-1.2,0.6-0.9,2.5-1.8,3.3c-0.7,0.7-2.2,0.8-3,1.4c-0.9,0.6-2.1,1.5-1.9,2.7c0.3,1.9,1.7,1.7,3.1,1.9  c1,0.1,2.3,1.2,3,1.1c2-0.2,0.7-2.2,0.9-3.3c0.1-0.7,0.8-0.9,1-1.4c0.2-0.6-0.2-1.3-0.2-1.9c0-1.1,0.2-2.5,1.6-2.7  c-0.8-0.7-3.6-3.1-3-0.1" fill="#000000"></path>
<path d="M245.1,140.5c-1.1,0.3-1.3,2.4-1.3,3.5c0,0.3,0.3,0.8,0.3,1.1c0,0.4-0.4,0.9-0.4,1.2c0,0.6-0.3,1.9,0.8,1.3  c0.8-0.4,0.4-1.8,0.5-2.5c0.9,0.2,1.3,3.2,2.3,2.4c1.2-1-1-2.6-1.5-3.2c0.7-0.4,1.2-1.1,1.3-1.8c-1.1-0.3-2.4,1.6-2.3-0.5  c0-1,0.3-1.1,1.3-1.2c1-0.1,0.7,0.4,1.6,0.6c2.7,0.6,1.8-2.6,0-1.9c-1.2,0.5-1.1,2.3-2.6,2.2c0-0.2-0.1-0.5,0-0.8" fill="#000000"></path>
<path d="M251.2,140.2c-0.6,1.7,0.8,2,0.8,3.1c0,0.8-1.1,1.1-1,2c1.2,0.2,2-1.1,3-0.8c-1.1-0.9-2.4-0.5-2.2-2.7  c0.1-0.6,0.8-1.3,0.6-1.9c-0.2-0.6-0.8-0.8-1.1-0.3" fill="#000000"></path>
<path d="M256.4,141.8c-0.5-0.1-1.3,0-1.7,0.5c-1.1,1.4,0.7,1.3,1.2,1.9c0.7,0.7,0.2,1.7,1.4,2.1c0.5,0.2,1.1-0.3,1.7-0.1  c0.2,0.1,1.6,1.3,1.7,1.5c0.8,1.2,0.3,1.7-0.7,2.5c1.5,1.3,2.6,0.2,2.8-1.2c0.2-1.6,0.6-4,0.1-5.5c-0.8,0.5-1.6,0.1-2.5,0.3  c-0.4,0.1-0.7,0-1.1,0.2c-0.3,0.2-0.4,1-0.8,1.1c-1.2,0.3-0.9-0.7-1.4-1.6c-0.6-1.1-0.8-1.5-2.4-1.2c0,0.2,0.1,0.3,0.3,0.3" fill="#000000"></path>
<path d="M260.2,158.6c-0.9,0.2-1.3-0.3-1.7-1c-0.7-1.3,0-0.7,0.3-1.7c0.6-2.2-0.6-2.2-2.7-2.3c-2.4-0.1-2.5,0.2-3.5,2.3  c-0.2,0.5-0.8,1.8-1.5,1.8c-1.1-0.1-0.5-2.2-1.4-2.4c-1.4-0.3-2.5,3.9-3.2,4.7c-1.6,2.1-5,1.3-6.8,3.6c-0.5,0.6-0.8,1.6-1.4,2.2  c-0.7,0.6-1.6,0.7-2.2,1.4c-1.5,2-0.3,4.5-0.6,6.6c-0.3,1.4,0,3-0.7,4.3c3,0.2,4.3-2.3,6.9-3.1c1.2-0.4,2.3-0.8,3.4-1.1  c0.4-0.1,0.7-0.5,1.1-0.5c0.6,0,0.5,0.6,0.9,0.8c1.4,0.4,2.5,0.4,3.6,1.4c1,0.9,1.7,3.9,3.2,2.5c1,2.2,1.6,2.4,3.6,3  c1.5,0.4,3.1,0.6,4.8,0.5c2-0.2,2.5-2.9,3.8-4.4c1.4-1.6,3.9-3.2,4.6-5.1c0.8-2.3,0.9-3.4-0.6-5.4c-1-1.2-1.4-2.9-2.2-4.4  c-0.8-1.6-1.2-3.4-1.6-5.2c-0.3-1.3-0.6-3.6-2-4.3c0,0-0.5-0.4-0.5-0.5c-0.9,1.4-1,5.2-0.5,6.7c-0.7,0.1-1.4,0.3-2,0.5  c0.1-0.9-0.7-1.1-1.4-0.9" fill="#000000"></path>
<path d="M263,149.7c2.9,3,2.2-1.7,4.6-0.8c0.8,0.3,1,2.2,1.9,2.8c1,0.8,0.8,0.2,2-0.2c-2.1-1-2.4-3-3.4-4.5c-0.7-1.2-2-1.5-3-2  c0.3,0.2-1.3-0.4-0.8-0.4c0.4,0-0.7-0.5-0.6-0.5c-0.1,1.8,0,3.4-0.5,5.2" fill="#000000"></path>
<path d="M273.4,146c-0.9,0-4.1,1.4-2.7,2.5c1.6,1.2,3.4-1.9,4.2-2.8c-0.7,0-1.5,0-2.3,0c0-0.7,0-1.4-0.2-2c-1.4,0-0.8,2.9,0.3,2.5" fill="#000000"></path>
<path d="M259.3,184c-1,1.2-1.8,0-2.4,0.3c-0.6,0.3-0.8,2.9-0.2,3.3c0.9,0.7,3.2-2.6,3.2-3.5c0-0.8-0.7-1.8-1.5-0.9" fill="#000000"></path>
<path d="M194.3,62.1c-1.8,0.8-2.5-1-3.8-0.9c-1,0-1.4,0.7-0.4,1.4c0.5,0.3,2.3,0.1,2.9,0.2c0.1,1,1.7,0.9,1.6-0.2" fill="#000000"></path>
<path d="M56.8,69.9c-1,1.2-4.1,0.1-5.5,0.3c-0.9,0.1-1.5,0.5-2.4,0.6c-1.4,0.2-1.5-0.7-2.7-0.9c-1-0.1-1.6,0.9-2.6,1.1  c-1.7,0.4-1.5-0.5-2.9-1.1c-1.6-0.7-5.3-1-6.4,0.6c-2.5-1.6-4.3-0.7-6.6,0.8c-0.9,0.6-2,1.6-3,2c-0.8,0.3-1.3,0.1-2.2,0.2  c-0.7,1.7-2.9-0.2-4.1,0.3c-0.8,0.3-1.5,0.8-1,1.7c0.7,1.4,1.7-0.2,2.3,0.2c1,0.7-0.6,2-1.1,2.2c-1.1,0.3-1.9-0.3-2.9,0.2  c-1.8,0.8-2.2,3,0.1,2.9c0.4,1.7-5.3,2.3-6.2,4.2c2.3-0.5,3.6-3.2,5.6-4c1.6-0.7,2,0.7,3.2,0.8c0.9,0.1,2.6-1.3,3.3-1.8  c1.5-1,2-0.8,3.6-0.9c1.3,0,6.7-2.5,7.8-0.4c0.5,1.1-1.4,2.6-1.4,3.8c-0.1,1.8,0.8,1.6,2,2.2c-0.4,1-1.8,2.8-3.1,2.7  c-0.3-2.2,1.6-2.7,1.4-0.5c1.3-0.3,1.5,0.7,1.4,1.7c-0.4-0.1-0.9,0.1-1.2,0c-0.3,0.9,0.4,0.7,0.6,1.3c0.3,0.8,0.5,0.5,0.4,1.5  c-0.1,1.2-0.7,2.8-1.4,3.8c-0.8,1.2-1.8,2.2-2.4,3.5c-1,2.2,0.3,2.7,0.9,4.7c0.3,1.1,0.2,2.2,0.6,3.3c0.6,1.7,0.3,3.1,0.5,4.8  c0.2,1.3,1.3,2.1,1.7,3.3c0.5,1.4-0.2,2.6,1.4,3.3c1.4-1.3-1.2-4-1.5-5.5c-0.1-0.5,0-1.3-0.2-1.7c-0.2-0.4-0.9-0.4-1.1-0.8  c-0.3-0.7-0.2-1.9,0-2.6c2,0,1.7,2.1,2.5,3.6c0.6,1.3,1.2,2.8,2,3.9c1,1.4,1.8,2.3,2.1,4.1c0.3,1.8-0.5,2.8,1.1,3.8  c1.4,0.9,3.1,0.8,4.4,1.4c0.6,0.3,1.2,0.5,1.9,0.6c1.4,0.3,1.1-0.1,1.9,1c0.4,0.5,0.1,1.3,0.9,1.7c0.6,0.3,1.7,0.2,2.2,0.4  c1.9,0.7,2.9,2,4.5,2.8c0.5,0.3,1,0.6,1.6,0.9c0.4,0.2,0.9,0.2,1.2,0.4c0.2,0.1,0.6,0.8,0.7,0.9c0.6,0.1,3.2-0.9,3.2-1.4  c-2.1-0.1-4,0.7-5.3-1.1c-1.4-1.9,0-3.5-0.2-5.6c-0.6-0.3-1-0.7-1.7-0.7c-1,0-1.1,1-2.2,0.4c-1.8-1.1,0.8-2.8,0.8-4.4  c0.1-2.5-1.5-0.7-2.4,0.6c-1,1.4-2,1.2-3.4,1.1c-0.7,0-1,0.6-1.7-0.3c-0.4-0.5-0.6-1.6-0.6-2.3c-0.1-1.6-0.7-3.6-0.1-5.2  c0.5-1.3,2.2-3.1,3.5-3.5c1.5-0.4,3.3,0,4.7-0.3c0.9-0.2,0.9-0.8,1.4-1.1c1.1-0.8,0.6-0.7,2-0.3c1.1,0.3,2.5,1.2,3.7,1  c0.4,1.9-0.3,3.6,0.2,5.5c2.3,0.4,0.3-5.4,0.6-6.7c0.4-1.9,2-2.4,3.5-3.4c1.1-0.7,2-1.9,2.8-3c1.1-1.4,1.6-1.1,3-1.9  c0.8-0.5,0.9-1.3,1.6-1.9c0.5-0.5,0.9-0.6,1.6-0.9c1.9-1,4.2-4.8,6.4-4.7c0,0.8-0.7,1.1-0.7,1.8c1.2,0.3,2.1-0.9,3.1-1.4  c1-0.4,2.1-0.4,2.8-1.4c-0.9,0-1.8,0-2.6,0c-0.2-0.7-0.2-1.4,0-2.2c-0.6-0.2-1.2-0.2-1.8-0.2c0-0.8,1.3-0.9,2-0.9  c-0.3,1.2,1.2,2,1.6,0.8c-0.5-0.3-0.9-0.5-1.4-0.6c1.3-1.8,5.3,0.1,6.9-2c-0.3,2.2-2.1,2-3,3.4c-1.6,2.4,2.3,0.9,3.1,0.8  c0,0.3,0.1,0.6,0,0.9c3.4,0.4,0.3-3,0.1-3.7c-0.2-0.9,0.4-1.7,0.4-2.5c0-1.2-0.4-1.5-1.1-2.2c-0.6-0.6-0.7-0.3-1-1.4  c-0.1-0.8,0.3-1.8-0.4-2.4c-1-0.9-1.2,0.2-1.9,0.5c-0.8,0.3-1.5,0.3-2.5,0.3c0.2-0.3,0.3-1,0.4-1.4c-1.8-0.7-1.7-3.1-4.2-2.9  c-1.3,0.1-1.6,0.5-2.2,1.7c-0.2,0.3-0.3,1-0.4,1.3c-0.3,0.4-1,0.5-1.1,0.9c-0.3,1.1,0.6,1.5-0.2,2.7c-0.8,1.1-1.9,0.7-2.7,1.4  c-0.7,0.7-0.3,1.6-0.8,2.5c-0.6,0.8-2.3,1.6-3.3,1.4c0-1.2,0.8-2.9,1.5-4c-0.7-0.4-1.7-0.4-2.5-0.1c-0.6-1.4-1.3-1.6-2.8-1.9  c0-0.2,0.1-0.4,0.1-0.6c-1.5-0.2-0.9-1.8-0.3-2.3c0.5-0.5,1.2-0.6,1.7-1.1c0.4-0.5,0.6-1,1.1-1.4c0.7-0.7,2.7-1.9,3.6-2.3  c1.2-0.4,2.2,0.2,3.1-0.9c-1,2.3,0.7,2.1,2.5,1.2c0.1,0.2,0.5,0.3,0.6,0.5c1.3-1.1-1.4-1.4-2-2.4c0.9-0.8,1.7-0.5,2.7-0.8  c0.7-0.2,1.2-0.6,1.8-1.1c1.5-1,3.1-1.6,3.8,0.7c-0.3,0-0.7,0.2-1.1,0.2c0.5,0.5,1.6,0.3,2.3,0.1c0.5,2-3,0.6-2,2.6  c-0.6,0-2.6-0.6-2.9,0.2c-0.8,1.7,2.9,0.4,3.1,0.5c1.6,0.3,1.9,3.5,4.6,1.9c-0.6-0.6-1.4-1.3-2-1.9c1-0.3,2.9,0.8,3.4-0.4  c0.4-1.1-1.1-1.2-0.6-2.2c0.9-0.1,1.4,0.6,2.4,0.6c1,0,2.4-0.5,3-1.3c-0.9-0.9-2.4-0.6-3.6-0.6c0-0.5,0.1-1.1,0.4-1.6  c-1-0.6-1.6-1-2.5-1.8c-0.9-0.8-1-0.9-2.4-0.9c0-0.2-0.1-0.5,0-0.7c-2.8-0.1-4.7,0.8-6.8,2.4c0.5-0.7,1.5-1.3,1.6-2.1  c-2-0.4-3.4,0.8-3.1,2.9c1.5-0.1,1.2,0.9,0.4,1.6c-0.9,0.9-2.2,0.5-3.3,1.1c-0.1-0.7,0.3-1.2,0.2-1.9c-0.3-1.1-1.4-0.2-0.7-1.7  c0.4-0.9,2.2-1.8,3.1-2.3c-1.7-0.1-1.7,0.2-2.8,1.1c-0.8,0.6-1.9,0.7-2.6,1.5c-1,1.1,0.2,1-0.6,2.1c-0.8,1.2-2.6,0.4-0.8-0.7  c-0.5-0.2-1.1-0.4-1.6-0.4c0.2,1.5-0.6,2-1.9,2c-0.2,0-0.2-0.4-0.5-0.5c-0.4,0-0.7,0.3-1.1,0.2c-0.5-0.1-0.9,0-1.4-0.2  c0.4-1.5,2.7,0,3.1-1.9c0.4-1.6-0.8-1.4,1.2-2.6c-0.7-0.1-1.5,0-2.3,0c-0.1,1.8-1.8-0.2-2.5-0.2c-0.5,0-0.7,0.7-1.2,0.7  c-0.4,0-0.3-0.4-0.5-0.5c-0.6,0-1.2-0.2-1.8-0.2c-1.4-0.1-5.6-0.4-5,2.4c1.1,0.2,1.9-0.7,2.8-0.6c1,0.1,0.8,0.8,1.6,1.3  c1.2,0.7,3.3-0.9,2.8,1.6c-1.6,0.1-2.4,1-4.1,0.7c-1-0.2-2.6-1.3-2.2-1.9" fill="#000000"></path>
<path d="M65,120.4c-0.2-0.7-0.9-1.2-1.6-1.5c-0.3-0.2-0.9,0.2-1.2,0c-0.4-0.2-0.3-0.8-0.8-1.1c-0.5-0.4-5.4-1.2-4.9,0.3  c0.1,0.4,4.3,0.1,5.1,0.6c0.6,0.4,0.7,1.1,1.5,1.4c0.7,0.3,2.3,0.7,1.9-0.4" fill="#000000"></path>
<path d="M63.6,122.3c-1.2-0.8-2.9,0.3-1.5,1.1c1.1,0.6,2.1-0.6,1.1-1.4" fill="#000000"></path>
<path d="M73.8,122.3c0.2,0.1-0.2,1.6-1.3,0.9C71.3,122.5,73.3,122.2,73.8,122.3z" fill="#000000"></path>
<path d="M70.1,121.2c-0.8-0.6-4.6-1.1-4.4,0.3c0.2,2.1,3.9-0.2,5,0.3c0.1-0.1,0.1-0.3,0.2-0.5" fill="#000000"></path>
<path d="M75.4,123.4h0.2" fill="#000000"></path>
<path d="M77.1,124.8c0.1,0,0.2,0,0.2,0.2" fill="#000000"></path>
<path d="M68.5,65.7c-0.9-0.5-3.7-3.4-4.7-1.3c-1,2,5.4,1.9,6.6,1.3c0.1,0.1,0.3,0.2,0.4,0.3c0.9-0.6,0.5-1.6-0.6-1.6  c-0.9,0.1-1.6,2.1-2.2,1.1" fill="#000000"></path>
<path d="M71.2,62.7c-0.6-0.2-3.5-0.1-2.2,1.1c0.7,0.6,3.2-0.2,3.3-1c-0.5-0.3-1.1-0.4-1.7-0.3" fill="#000000"></path>
<path d="M73.7,64.4c-2.6,0.2,2.6,3,2.8,0.5c-1-0.4-2.3-0.1-3.4-0.2c0-0.2,0-0.4,0-0.6" fill="#000000"></path>
<path d="M76.8,62.5c-0.8-1-2.2,0-1.4,0.9c0.5,0.5,2.9,0.2,3.2-0.4c-0.8-0.2-1.6-1.2-2.2-0.7" fill="#000000"></path>
<path d="M81.8,65.1c-1-0.1-1.5-1.3-2.5-0.7c-1,0.5-0.8,1.8,0.1,2.4c1,0.6,6.1,0.4,7-0.2c-0.8-0.1-1.2-0.8-1.9-1  c-1-0.3-2.6,0.7-3-0.3" fill="#000000"></path>
<path d="M85.2,61.3c-1.2-0.6-3.1,0.3-3.5,1.7c0.9,0.5,1.9,0.5,2.8,1.1c0.7,0.4,1,1,1.5,1.3c2.2,1.5,2.2-0.3,3.7-1.4  c1.7-1.3,5-1.7,6.9-2.3c1.4-0.4,4.6-0.2,5.4-1.4c-1.9-1.2-5-0.1-7,0.1c-1.5,0.2-2.3-0.1-3.7-0.2c-2.5-0.2-7.6,3-9.4,1.6" fill="#000000"></path>
<path d="M100.7,68.4c-1.1,0.1-1,1.3,0,1.6c-0.2,0.6,0.2,1.3,0,1.7c-0.4,0.8-1.6,1-2,1.7c-0.4,0.9,0.2,1.3,0.3,2  c0.2,0.8,0,1.9,0.2,2.7c0.5,1.7,2.7,1.6,4.1,0.6c1.1-0.8,1.5-3,2.4-3.6c0.8-0.5,1.9,0,3-0.3c3.6-1.1,7.1-3.5,10.7-4.5  c1.2-0.3,1.4,0.4,2.3-0.8c0.4-0.5,0.8-1.5,1.1-2c0.8-1.3-0.2-0.7,1.4-1.3c1.7-0.6,0.9-0.6,1.4-1.9c0.9-2.1,2.7-2.5,4.7-3.1  c-0.8-0.3-1.6-0.8-2.5-0.8c-0.7,0-1.5,0.6-2.1,0.5c-0.4-0.1-0.8-0.8-1.2-1c-0.6-0.3-1-0.2-1.7-0.3c-4.4-0.4-8.8-0.6-13,0.3  c-1.3,0.3-2.9,0.1-4.2,0.5c-0.8,0.2-2,1-3,1.2c-0.5,0.1-1,0.3-1.6,0.4c-1,0.2-0.9,0.1-1.9,0.1c-1.6,0-3.1,0.9-0.5,1.3  c-0.9,1-3.4,0.2-4.7,0.4c-0.6,0.1-1.8,0.2-1.6,0.9c0.3,1,3.3,0.7,4,0.6c0.7-0.1,1.4-0.3,2.1-0.4c1.4-0.1,0.9-0.1,1.6,0.6  c0.6,0.7,0.4,1.5,0.5,1.9" fill="#000000"></path>
<path d="M127.5,88.3c0.7-1.3,1.9-0.8,2.5-1.7c0.5-0.7,0.4-2.4,0.1-3.1c-1.2-0.3-2.3,0.6-2,1.8c-1.2-0.5-2.6,0.2-0.9,1.1  c-0.6,0.3-1,1-0.8,1.7c0.6,0.1,1.1-0.1,1.6-0.4" fill="#000000"></path>
<path d="M132.3,80.9c-1.2-0.4-1.6,0-1.7,1.1c-0.1,1.5,0.8,1.3,1.4,2.4c1.2,2.3-2,2.4-1.7,4.5c-0.1,0.1-0.3,0.1-0.4,0.2  c1.4,0,2.4-0.5,3.7-0.8c1.3-0.3,3.1-0.3,1.9-1.9c-0.4-0.5-1.3-0.5-1.7-1c-0.5-0.6-0.2-1-0.4-1.7c-0.2-0.7-0.9-3-1.6-3.3" fill="#000000"></path>
<path d="M145.2,72.9c-0.9,1.4-1.8,3.1-3.5,3.6c-1.5,0.4-2.6-0.1-3.3,1.7c-0.7,1.9,0.5,2.5,2.2,2.4c1.4-0.1,3.2-1.5,3.6,0.2  c0.3,1.2-1.1,2.8,0.9,3.1c1.8,0.3,2.9-2.4,3.3-3.8c0.4-1.3-0.6-2.7,0-3.6c0.2-0.3,1.1-0.6,1.5-0.9c0.4-0.4,0.7-1.5,1.2-1.7  c2.8-0.8-0.3,2.9-0.4,3.3c-0.1,0.5,0.7,1.9,1,2c1,0.5,1.6-0.6,2.4-0.8c1.6-0.5,3.2,1.2,1.3,1.6c-0.8,0.2-4.1-1.4-3.8,1  c0.6,0,1.1,0.1,1.7,0.2c0.1,0.3,0.2,0.9,0.2,1.2c-0.2,0-0.4,0-0.6,0c-0.3-0.4-0.5-0.9-0.7-1.4c-1.5-0.3-1.3,1.5-1.2,2.5  c1.6,0.8-0.8,1.1-1.4,1.1c-1.2,0.1-2.1,0.3-3.3,0.3c-0.5,0-1.1-0.2-1.6-0.2c-0.5,0.1-1.3,0.8-1.7,0.8c-1.8-0.3,0.2-1.5,0.8-1.9  c-0.4-0.2-1.3-0.2-1.6-0.6c-0.2-0.3,0.2-1.4,0.1-1.9c-1.4-0.3-2.1,1.3-2,2.5c0.2,1.9,1.2,1.6-0.8,2.4c-1.6,0.6-1.3,1.2-2.6,2.3  c-0.9,0.8-2.5,1-2.7,2.5c-0.9,0-2-2.7-1.7,0.2c-1.2,0-2.8,0.1-1.4,1.4c0.5,0.5,1.1,0,1.6,0.7c0.4,0.5,0.3,1.1,0.3,1.7  c0,2-0.4,1.6-2,1.3c-1.2-0.2-2.7-0.5-3.9-0.3c-0.1,2.4-1,4.6-0.9,7c1.5,0.5,2.3-1,3.8-0.8c0.6,0.1,0.9,0.8,1.6,0.8  c0.9,0,1.9-1,2.5-1.6c0.9-1,0.7-2,1.5-3c0.8-1,2.6-0.6,2.8-2.2c0.6,0,1.5,0.2,2-0.1c0.7-0.3,0.9-1.2,1.4-1.4c1.5-0.5,2,1.1,2.6,2.1  c0.8,1.4,2,1.1,2.9,2.2c1.2,1.5-0.5,2-0.9,3.2c2,0.3,1.8-2,1.9-3.4c0.8,0.1,1.2,0.7,1.6,0c0.6-1.3-0.8-1.7-1.6-1.9  c-1.6-0.3-2.9,0-3.9-1.7c-0.4-0.7-0.8-1.4,0.4-1.6c0.8-0.1,1.9,1.4,2.5,1.9c0.6,0.4,1.2,0.4,1.7,0.9c0.7,0.6,0.8,1.4,1.4,2  c-2,2.4,2.4,4.7,4.4,4.5c0.1-0.4,0.4-0.9,0.5-1.1c-0.3-0.7-2.1-1.7-1.7-2.6c0.2-0.6,2.7-0.7,3.2-0.9c0.8-0.5,1.9-1.4,2.2-2.2  c0.4-1.2-0.4-2.5,1.6-2.4c1.1,0.1,1.5,1.5,2.4,1.7c0.9,0.2,0.9-0.7,1.4-0.7c0.8-0.1,1.1,0.2,1.8,0.5c2.8,1.2,5.9,1.1,8.8,1.8  c0.1-0.8-0.7-1.1-0.8-1.9c0-0.8,0.5-1.2,1-1.7c-1-0.8-2.2-1.5-2.2-2.8c0-1.6,1.7-2.5,3.2-2.4c1.5,0.1,2.5,1.5,3.8,0.2  c1.3-1.3,0.1-2.5,0.2-4c0.1-2.2,0.6-2.8-0.5-5c-0.8-1.7-1.7-3-0.6-4.6c0.5-0.7,3.3-2.5,2.8-3.5c-0.4-0.9-3.1-0.4-3.9-0.7  c-1.1-0.3-1.8-0.6-3.1-0.6c0.1,0.5,0.4,0.8,0.9,0.9c-0.2,1.6-3.2-0.1-4.3,0.2c-1.4,0.4-2.8,2.3-4.1,2.6c-0.1-0.6,0.2-1.3,0.5-1.7  c-0.3-0.3-1.6-1-2-0.4c-0.5,0.7,1,0.9,0.9,1.7c-1.6,0-2.3,0.3-3.7,1c0.5,0.3,0.6,0.8,0.7,1.2c-0.8,0-0.8-1.4-1.7-1  c-0.6,0.3-0.3,1.4-0.2,1.8c-1.3,0.1-1.4-2-2.2-2.8c1.1-0.1,2.8,0.3,3.8,0c1.5-0.6,1-1.6-0.3-2.3c-1.8-0.9-3.9-0.5-5.8-0.9  c-2.2-0.6-4-1-6.3-0.4c-1.7,0.4-4.6,0.9-6,1.9c0.4,0.4,1,0.4,1.6,0.3c-0.3,0.9-1.5,1-2.2,1.7c-0.7,0.7-0.4,1.5-1.1,2.2" fill="#000000"></path>
<path d="M141.6,97.8c-0.8,0.6-0.9,3.2,0.8,2.8c0.2-0.9-0.1-1.8-1.1-1.8" fill="#000000"></path>
<path d="M156.2,104.2c-0.9,0.1-1.8-0.4-2.5-0.2c0.6,0.6,2.8,1.2,3.6,0.5c-0.9-0.1-1.7-0.6-2-1.5" fill="#000000"></path>
<path d="M172.6,69.6c-0.9,0.2-2.9,0.4-3.2-0.9c-0.3-1.3,1.4-1.4,2.2-2.1c0.4-0.4,0.3-0.9,0.9-1.3c0.6-0.4,1.6-0.5,2.2-0.6  c1-0.2,2.5-0.6,3.6-0.4c-1.5,1.9-5.1,1.2-6.5,3.3c-0.7,1,0,2.6-0.4,3.3" fill="#000000"></path>
<path d="M147.4,62.2c-1.2,0-2.4,0-3.6,0c-0.3,1.2,1.3,4.4,3,3.5c0.9-0.5,0.4-2.3,1.8-2.4c1.1-0.1,0.8,1,1.9,1.2  c0.2-1.2-1.4-1-1.7-1.8c0.8,0,2.5,0.4,2.6-0.8c-1.9-0.1-4.3-0.2-6,0.3" fill="#000000"></path>
<path d="M164.4,61.6c-0.3-0.3-1.4-0.6-1.4,0.2c-0.1,1,2,0.3,2.2-0.2c-0.3-0.3-0.9-0.4-1.4-0.3" fill="#000000"></path>
<path d="M170.5,61c-1.3-0.1-2.6-0.5-3.7,0.5c1.6,1.7,3.7-0.1,5.3-0.2c-1,0-2-0.1-2.9-0.1c0,0.3,0.1,0.3,0.2,0.6  c-0.5-0.2-0.3-0.4-0.4-0.8" fill="#000000"></path>
<path d="M124.9,74c-1.5-0.1-2.9,0.2-4.4,0c-0.6-0.1-2.6-0.7-1.9,0.8c0.4,0.9,3.5,0.5,4.5,0.5c0.9,0,2.5-0.4,1.3-1.4" fill="#000000"></path>
<path d="M168.5,70.7c-0.2,0.1-0.4,0-0.6,0.2c0.2,0.8,1.2,1,2,0.9c-0.2-0.4-0.5-0.6-0.9-0.8" fill="#000000"></path>
<path d="M168.7,97.1c-0.2-0.4-0.4-0.8-0.5-1.2c0.5,1.2,1.1,2-0.1,2.5c-0.8,0.3-2.8,0-3.5-0.3c-1.5-0.5-2-1.1-3.7-0.5  c-0.7,0.3-1.3,0.9-2,1c-0.5,0.1-1.1-0.2-1.6-0.1c-2.5,0.6-0.9,4.9,1.4,5c1.3,0.1,2.1-0.9,3.3-0.6c1.1,0.3,1.3,1.6,2.7,0.5  c0.5,1.2-0.2,3-0.5,4.2c-0.3,1.8-0.5,2.2,0.5,3.8c1,1.4,1.7,2.9,2.8,4.2c1.3,1.6,1.6,3.7,2.8,5.4c0.8,1.2,2.1,2.2,2.6,3.6  c0.4,1.2,0.1,2.9,1.5,3.4c1.6,0.7,3.6-1,4.9-1.6c1.9-0.9,3-1.4,4.2-3.1c1.1-1.5,4.1-2.7,3.6-4.9c-0.2-1-1-1-1.6-1.8  c-0.6-0.8-0.4-1.7-0.5-2.8c-1.7-0.4-2.5,2.2-4.7,1.8c0.2-1-0.8-2.9-1.9-2c-0.5-0.7-2-3.8-0.3-3.9c0.9-0.1,2.2,2.1,2.8,2.7  c1.3,1.1,1.6,0.2,2.8,0.5c0.9,0.2,2.1,1.9,2.9,2.4c1.1,0.6,1.8,0.9,3.2,0.8c1-0.1,2.6-1.2,3.5-1.1c2.1,0.3,1.2,5.5,4.7,3.5  c0.1,1,0.8,1.1,1.4,0.5c0.3,1.5-0.2,3.1,0.7,4.4c0.6,0.9,1.6,1.2,2.2,2.2c0.6,1,0.2,1.6,0.3,2.5c0.1,1.1,0.2,3.1,0.9,3.9  c1,1.2,2.8,0.8,2.9-0.9c1.4,0.1-1.4,4,1.1,4.2c1.1,0.1,1.7-1.5,1.4-2.4c-0.3-0.9-1.2-1.2-2.2-1.4c0-0.8,0.7-1.4,0.8-2.3  c0.1-0.8-0.3-1.4-0.4-2.1c-0.5-2.5,0.7-2.1,2.3-3.5c0.7-0.6,1.2-1.5,1.9-2.2c0.8-0.8,0.9-2.1,1.6-2.6c1-0.7,1.5,0.3,2.5,0.4  c0.7,0,1.2-0.6,2-0.5c0.5,1.5,0.7,2,0.7,3.5c0,0.9,0,2,1,2.5c0.9,0.4,0.6-0.1,1.5-0.3c2.7-0.5,2.1,0.8,2.2,2.6  c0.1,1.4,0.8,2.4,1.7,3.3c1.3,1.3,1,1.4,0.9,3.1c0,1.3,0.6,2.4,0.9,3.6c0.5,1.6,1.5,1.6,2.4,2.9c-0.2-0.3,0.5,1.8,0.5,1.5  c-0.1,0.5-0.1,0.9-1,0.8c-0.2-0.7,0.2-2.4,0-2.8c-0.4-0.7-2.1-0.7-2.8-1.1c-0.5-0.3-1.7-1-2.1-1.4c-0.6-0.7-0.4-2.3-1.5-2.3  c-0.5,2.1,2.3,2.8,3,4.4c0.2,0.6,0,1.6,0.3,2.2c0.5,0.9,1.6,1,2.2,1.9c0.8,1,0.8,3.5,2.2,4.1c2.4,0.9,1.3-2.1,1.4-3.1  c0.8-0.2,1.6,0.2,2.3,0.3c0.2-1.8-2-1.3-3-1.7c-1-0.4-0.7,0-1-1.1c-0.1-0.4,0-1.4,0-1.9c1.3-0.3,0.1-1.6-0.1-2.3  c-0.3-0.7-0.4-1.6-0.7-2.2c-0.4-0.8-1.3-0.9-1.8-1.7c-0.4-0.6-0.7-1.7-0.9-2.4c-0.4-1.3-1-4.4,1.4-2.8c0.4,0.3,0.5,1,0.8,1.3  c0.3,0.3,0.8,0.3,1.1,0.6c0.6,0.6,1.2,1.5,0.6,2.4c1.3,0,1.1-1,1.9-1.7c0.6-0.5,1.7-0.5,2.1-1.1c1.1-1.5-0.5-4.4-1.5-5.5  c-0.9-1.1-3.5-3.6-1.9-5.2c0.3-0.3,1.8-0.6,2.1,0c0.1,0.2-1.2,1.6-1.3,2.1c0.6,0.7,1.5,1,2.3,0.8c0.4-1,0.3-2,0.4-3.1  c1-0.4,1.9-0.2,3-0.3c1.2-0.2,1.7-0.8,2.5-1.6c1.4-1.4,3.4-3.6,3.1-5.7c-0.2-2.2-0.6-3.4-2-5.2c-0.6-0.7-3.6-4-1-3.8  c-1.1-1.1-2.9-0.6-4.4-1.1c0.1-1.2,0.5-2.2,2-2c-0.2,0.5,0,1.2,0.5,1.6c1.1,0.8,0.9-0.2,1.7-0.4c2.3-0.5,1.6,2,3,2.3  c0.2,0.8,1,2.9,1.9,3.1c1.6,0.4,2-1.7,2.3-2.6c-0.8-0.3-1.2-1-1.7-1.6c-0.3-0.4-0.3-0.7-0.5-1c-0.3-0.5-0.8-0.2-0.9-0.8  c-0.7-2.7,3.1-1.4,3.8-2.2c0.7-0.7,0.5-4.2,0.6-5.2c0.2-1.6,0.4-3.8-1.1-4.7c1.6,1.2,1.9,1.8,2.8,3.5c0.5,1,1.1,1.7,1.3,2.8  c1.7,0.3,0.2-1.7-0.2-2.2c1.7-0.7-0.8-2.6-1.4-3.6c-0.9-1.4-1.6-2.2-3.2-2.5c0.1,0.5-0.1,0.9,0.1,1.4c-0.2,0.1-0.7,0.1-0.9,0  c-0.1-2-2.3-2.5-3.8-1.5c-1-1-3.4-3.3-0.9-4.4c1.9-0.9,4.5,0.6,6.4,0.3c0.4-2,5.8,0.9,2.6-3.4c1.3-1.1,1.5,0.5,2.5,0.6  c1.5,0.2,0.1-1.3,1.4-1.5c1.4-0.2,2.7,4.7,0.2,4.6c-1.2,2.4,2.1,3,3.3,4.2c1,1.1,1,2.8,2,3.8c0.3-0.8,0.2-2.1,0.2-3  c0-0.5,0-0.9,0-1.4c0-0.5-0.4-0.8-0.3-1.4c1.2-0.2,0.5-1.6,0-2.2c-0.7-1-1.8-1.3-1.4-2.6c0.6-0.1,1.3,0.2,1.9,0.1  c0.3,0,0.5-0.6,0.7-0.6c0.2,0,0.8,0.3,0.9,0.3c0.9-0.3,0.6-0.3,1.3-0.8c0.6-0.4,1.1-0.9,1.8-1c-0.7-1.2-1.5-1.7-1.5-3.4  c1,0,2-0.1,3,0.2c0.8,0.2,1.2,0.8,2,0.6c-1.6-2.4-6.9-2.7-9.5-3.5c-2.7-0.8-5.6-1-8.3-0.9c0.1,0.6,0.3,1,0.6,1.5  c-1.2,0.3-1.4-0.8-1.3-1.7c-1.9-0.1-3.6,0.8-5.5,0.6c-1.7-0.1-3-1.2-5-1.1c-2.3,0-3-0.9-5-1.5c-2.3-0.7-5.2,1.2-7.4,0.1  c0.7-0.6,1.6-0.5,2.3-0.7c-0.6-0.2-4.1-0.6-3.3,0.3c-0.3-0.4-0.3-0.7-0.4-1.1c2.1,0.1,0.9-1.6-0.5-1.6c-0.4,0-1.5,0.4-1.6,0.8  c-0.1,1,1.8,0.8,2.4,0.8c-0.2,0.7-1,1-1.6,1.4c0.5,0.8,3.3,0.6,3.2,1.3c-0.1,1.2-2.6,0.4-3.2,0.2c-0.4-0.2-0.4-0.6-0.9-0.7  c-0.5-0.1-1,0.3-1.3,0.3c-1.1-0.1-2-0.9-3-1.3c-2.4-1.1-4.5,0.1-6.9,0c-1.1-0.1-2-0.7-3.1-0.6c-1.1,0-2.2,0.4-3.4,0.3  c0.4-0.5,1.6-1.5,2.3-1.7c-0.9-2.5-8.7-1.6-11-1.5c-0.1,1.7-1.8,1.3-3,1.4c-1.8,0.2-2.9,1.2-4.6,1.4c2.5,4.1-4.3-1-3.1,1.9  c-0.5,0-1.6,0.1-1.7,0.7c-0.2,1,1.4,1.1,1.9,1.6c1.1,1.1,1.1,3.5-1.1,2.9c-2.5-0.7,1.5-6.9-2.4-6.2c-2,0.4-1.1,1.7-0.9,3.1  c0.2,1.5-0.1,1.9-1.3,2.9c-1.1,0.9-1.8,1.3-1.4,2.9c0.3,1.1,1.3,1.7,1.6,2.8c0.5,1.8-0.3,4.4-0.2,6.3c0.2,3.5-1.7,2.7-4.3,2.2  c-2.6-0.5-3.1,2-1.9,3.6c0.4,0.5,0.9,0.5,1.1,1.1c0.2,0.8-0.4,0.8-0.5,1.2c-0.1,0.5-0.3,0.7-0.3,1.3c0,0.4,0.6,0.6,0.5,1.3  c-1,0.2-6.1-1.6-6.1-0.3" fill="#000000"></path>
<path d="M255.2,97c-0.2-1.2-2.8-1.9-3.1-0.6c-0.2,0.6,1.6,2.1,2.1,2.8c1,1.5,1.1,2.3,1.1,4.1c0,2.2-0.7,2.1-2.7,2.8  c-0.7,0.2-1.4,0.6-2,1.1c-0.3,0.3-1.3,1.8-1.6,1.9c-1,0.1-1-1.3-0.8-1.9c0.4-1,1.2-0.9,1.9-1.3c0.8-0.3,1.7-0.5,2.1-1.3  c0.5-0.9,0-1.9,0.5-2.8c0.3-0.6,0.9-0.7,1.1-1.4c0.2-0.8-0.6-1.6-0.5-2c0.2-0.9,2-1.4,0.5-2.2" fill="#000000"></path>
<path d="M244,122.1c-0.2-0.1-0.3-0.2-0.5-0.3c-2.1,2.1-0.1,2.4,0.7,4.1c0.4,0.7,0.4,2.2,0.2,2.9c0.7-0.5,0.4-1.4,0.7-1.8  c0.7-0.8,0.5-0.2,1.1,0c0.3,0.1,0.6,1.4,1.4,0.6c0.9-0.9-0.7-1.1-1.1-1.3c-1.1-0.4-2.8,0-2.7-1.7c0.1-0.8,1.1-0.5,0.9-1.4  c-0.1-0.5-1.3-0.9-1.4-0.9" fill="#000000"></path>
<path d="M249.3,131.9c0,0.3,1,1.3,0.9,1.7c-0.1,0.9-0.7,1.1-1.4,0.5c0.1,0.4-0.1,1-0.1,1.4c-1.4,0.2-0.6-1.3-1.5-1.6  c-0.7-0.2-1.2,0.7-1.9,0.8c-0.3-1.7,0.9-1.6,1.9-1.9c1.1-0.4,1.5,0,1.5-1.7c0-0.2-0.2-2.1-0.3-2.2c-0.8-1.1-1.1,0.2-0.9,1.1  c0.2,1.1,1.4,0.7,0,1.4c-0.4,0.2-1.8,0.3-2.2,0c-0.7-0.7-0.2-2.2,0.8-2.1c0.4,0,1.4,1.3,1.7,1.6" fill="#000000"></path>
<path d="M242.3,129.5c1,1.1-0.7,2.1-0.9,3.1c1.1,0,2.6-2.4,1.2-2.8" fill="#000000"></path>
<path d="M240.7,135c-1.2,0.6-0.9,2.5-1.8,3.3c-0.7,0.7-2.2,0.8-3,1.4c-0.9,0.6-2.1,1.5-1.9,2.7c0.3,1.9,1.7,1.7,3.1,1.9  c1,0.1,2.3,1.2,3,1.1c2-0.2,0.7-2.2,0.9-3.3c0.1-0.7,0.8-0.9,1-1.4c0.2-0.6-0.2-1.3-0.2-1.9c0-1.1,0.2-2.5,1.6-2.7  c-0.8-0.7-3.6-3.1-3-0.1" fill="#000000"></path>
<path d="M245.1,140.5c-1.1,0.3-1.3,2.4-1.3,3.5c0,0.3,0.3,0.8,0.3,1.1c0,0.4-0.4,0.9-0.4,1.2c0,0.6-0.3,1.9,0.8,1.3  c0.8-0.4,0.4-1.8,0.5-2.5c0.9,0.2,1.3,3.2,2.3,2.4c1.2-1-1-2.6-1.5-3.2c0.7-0.4,1.2-1.1,1.3-1.8c-1.1-0.3-2.4,1.6-2.3-0.5  c0-1,0.3-1.1,1.3-1.2c1-0.1,0.7,0.4,1.6,0.6c2.7,0.6,1.8-2.6,0-1.9c-1.2,0.5-1.1,2.3-2.6,2.2c0-0.2-0.1-0.5,0-0.8" fill="#000000"></path>
<path d="M251.2,140.2c-0.6,1.7,0.8,2,0.8,3.1c0,0.8-1.1,1.1-1,2c1.2,0.2,2-1.1,3-0.8c-1.1-0.9-2.4-0.5-2.2-2.7  c0.1-0.6,0.8-1.3,0.6-1.9c-0.2-0.6-0.8-0.8-1.1-0.3" fill="#000000"></path>
<path d="M256.4,141.8c-0.5-0.1-1.3,0-1.7,0.5c-1.1,1.4,0.7,1.3,1.2,1.9c0.7,0.7,0.2,1.7,1.4,2.1c0.5,0.2,1.1-0.3,1.7-0.1  c0.2,0.1,1.6,1.3,1.7,1.5c0.8,1.2,0.3,1.7-0.7,2.5c1.5,1.3,2.6,0.2,2.8-1.2c0.2-1.6,0.6-4,0.1-5.5c-0.8,0.5-1.6,0.1-2.5,0.3  c-0.4,0.1-0.7,0-1.1,0.2c-0.3,0.2-0.4,1-0.8,1.1c-1.2,0.3-0.9-0.7-1.4-1.6c-0.6-1.1-0.8-1.5-2.4-1.2c0,0.2,0.1,0.3,0.3,0.3" fill="#000000"></path>
<path d="M260.2,158.6c-0.9,0.2-1.3-0.3-1.7-1c-0.7-1.3,0-0.7,0.3-1.7c0.6-2.2-0.6-2.2-2.7-2.3c-2.4-0.1-2.5,0.2-3.5,2.3  c-0.2,0.5-0.8,1.8-1.5,1.8c-1.1-0.1-0.5-2.2-1.4-2.4c-1.4-0.3-2.5,3.9-3.2,4.7c-1.6,2.1-5,1.3-6.8,3.6c-0.5,0.6-0.8,1.6-1.4,2.2  c-0.7,0.6-1.6,0.7-2.2,1.4c-1.5,2-0.3,4.5-0.6,6.6c-0.3,1.4,0,3-0.7,4.3c3,0.2,4.3-2.3,6.9-3.1c1.2-0.4,2.3-0.8,3.4-1.1  c0.4-0.1,0.7-0.5,1.1-0.5c0.6,0,0.5,0.6,0.9,0.8c1.4,0.4,2.5,0.4,3.6,1.4c1,0.9,1.7,3.9,3.2,2.5c1,2.2,1.6,2.4,3.6,3  c1.5,0.4,3.1,0.6,4.8,0.5c2-0.2,2.5-2.9,3.8-4.4c1.4-1.6,3.9-3.2,4.6-5.1c0.8-2.3,0.9-3.4-0.6-5.4c-1-1.2-1.4-2.9-2.2-4.4  c-0.8-1.6-1.2-3.4-1.6-5.2c-0.3-1.3-0.6-3.6-2-4.3c0,0-0.5-0.4-0.5-0.5c-0.9,1.4-1,5.2-0.5,6.7c-0.7,0.1-1.4,0.3-2,0.5  c0.1-0.9-0.7-1.1-1.4-0.9" fill="#000000"></path>
<path d="M263,149.7c2.9,3,2.2-1.7,4.6-0.8c0.8,0.3,1,2.2,1.9,2.8c1,0.8,0.8,0.2,2-0.2c-2.1-1-2.4-3-3.4-4.5c-0.7-1.2-2-1.5-3-2  c0.3,0.2-1.3-0.4-0.8-0.4c0.4,0-0.7-0.5-0.6-0.5c-0.1,1.8,0,3.4-0.5,5.2" fill="#000000"></path>
<path d="M273.4,146c-0.9,0-4.1,1.4-2.7,2.5c1.6,1.2,3.4-1.9,4.2-2.8c-0.7,0-1.5,0-2.3,0c0-0.7,0-1.4-0.2-2c-1.4,0-0.8,2.9,0.3,2.5" fill="#000000"></path>
<path d="M259.3,184c-1,1.2-1.8,0-2.4,0.3c-0.6,0.3-0.8,2.9-0.2,3.3c0.9,0.7,3.2-2.6,3.2-3.5c0-0.8-0.7-1.8-1.5-0.9" fill="#000000"></path>
<path d="M194.3,62.1c-1.8,0.8-2.5-1-3.8-0.9c-1,0-1.4,0.7-0.4,1.4c0.5,0.3,2.3,0.1,2.9,0.2c0.1,1,1.7,0.9,1.6-0.2" fill="#000000"></path>
<path d="M56.8,69.9c-1,1.2-4.1,0.1-5.5,0.3c-0.9,0.1-1.5,0.5-2.4,0.6c-1.4,0.2-1.5-0.7-2.7-0.9c-1-0.1-1.6,0.9-2.6,1.1  c-1.7,0.4-1.5-0.5-2.9-1.1c-1.6-0.7-5.3-1-6.4,0.6c-2.5-1.6-4.3-0.7-6.6,0.8c-0.9,0.6-2,1.6-3,2c-0.8,0.3-1.3,0.1-2.2,0.2  c-0.7,1.7-2.9-0.2-4.1,0.3c-0.8,0.3-1.5,0.8-1,1.7c0.7,1.4,1.7-0.2,2.3,0.2c1,0.7-0.6,2-1.1,2.2c-1.1,0.3-1.9-0.3-2.9,0.2  c-1.8,0.8-2.2,3,0.1,2.9c0.4,1.7-5.3,2.3-6.2,4.2c2.3-0.5,3.6-3.2,5.6-4c1.6-0.7,2,0.7,3.2,0.8c0.9,0.1,2.6-1.3,3.3-1.8  c1.5-1,2-0.8,3.6-0.9c1.3,0,6.7-2.5,7.8-0.4c0.5,1.1-1.4,2.6-1.4,3.8c-0.1,1.8,0.8,1.6,2,2.2c-0.4,1-1.8,2.8-3.1,2.7  c-0.3-2.2,1.6-2.7,1.4-0.5c1.3-0.3,1.5,0.7,1.4,1.7c-0.4-0.1-0.9,0.1-1.2,0c-0.3,0.9,0.4,0.7,0.6,1.3c0.3,0.8,0.5,0.5,0.4,1.5  c-0.1,1.2-0.7,2.8-1.4,3.8c-0.8,1.2-1.8,2.2-2.4,3.5c-1,2.2,0.3,2.7,0.9,4.7c0.3,1.1,0.2,2.2,0.6,3.3c0.6,1.7,0.3,3.1,0.5,4.8  c0.2,1.3,1.3,2.1,1.7,3.3c0.5,1.4-0.2,2.6,1.4,3.3c1.4-1.3-1.2-4-1.5-5.5c-0.1-0.5,0-1.3-0.2-1.7c-0.2-0.4-0.9-0.4-1.1-0.8  c-0.3-0.7-0.2-1.9,0-2.6c2,0,1.7,2.1,2.5,3.6c0.6,1.3,1.2,2.8,2,3.9c1,1.4,1.8,2.3,2.1,4.1c0.3,1.8-0.5,2.8,1.1,3.8  c1.4,0.9,3.1,0.8,4.4,1.4c0.6,0.3,1.2,0.5,1.9,0.6c1.4,0.3,1.1-0.1,1.9,1c0.4,0.5,0.1,1.3,0.9,1.7c0.6,0.3,1.7,0.2,2.2,0.4  c1.9,0.7,2.9,2,4.5,2.8c0.5,0.3,1,0.6,1.6,0.9c0.4,0.2,0.9,0.2,1.2,0.4c0.2,0.1,0.6,0.8,0.7,0.9c0.6,0.1,3.2-0.9,3.2-1.4  c-2.1-0.1-4,0.7-5.3-1.1c-1.4-1.9,0-3.5-0.2-5.6c-0.6-0.3-1-0.7-1.7-0.7c-1,0-1.1,1-2.2,0.4c-1.8-1.1,0.8-2.8,0.8-4.4  c0.1-2.5-1.5-0.7-2.4,0.6c-1,1.4-2,1.2-3.4,1.1c-0.7,0-1,0.6-1.7-0.3c-0.4-0.5-0.6-1.6-0.6-2.3c-0.1-1.6-0.7-3.6-0.1-5.2  c0.5-1.3,2.2-3.1,3.5-3.5c1.5-0.4,3.3,0,4.7-0.3c0.9-0.2,0.9-0.8,1.4-1.1c1.1-0.8,0.6-0.7,2-0.3c1.1,0.3,2.5,1.2,3.7,1  c0.4,1.9-0.3,3.6,0.2,5.5c2.3,0.4,0.3-5.4,0.6-6.7c0.4-1.9,2-2.4,3.5-3.4c1.1-0.7,2-1.9,2.8-3c1.1-1.4,1.6-1.1,3-1.9  c0.8-0.5,0.9-1.3,1.6-1.9c0.5-0.5,0.9-0.6,1.6-0.9c1.9-1,4.2-4.8,6.4-4.7c0,0.8-0.7,1.1-0.7,1.8c1.2,0.3,2.1-0.9,3.1-1.4  c1-0.4,2.1-0.4,2.8-1.4c-0.9,0-1.8,0-2.6,0c-0.2-0.7-0.2-1.4,0-2.2c-0.6-0.2-1.2-0.2-1.8-0.2c0-0.8,1.3-0.9,2-0.9  c-0.3,1.2,1.2,2,1.6,0.8c-0.5-0.3-0.9-0.5-1.4-0.6c1.3-1.8,5.3,0.1,6.9-2c-0.3,2.2-2.1,2-3,3.4c-1.6,2.4,2.3,0.9,3.1,0.8  c0,0.3,0.1,0.6,0,0.9c3.4,0.4,0.3-3,0.1-3.7c-0.2-0.9,0.4-1.7,0.4-2.5c0-1.2-0.4-1.5-1.1-2.2c-0.6-0.6-0.7-0.3-1-1.4  c-0.1-0.8,0.3-1.8-0.4-2.4c-1-0.9-1.2,0.2-1.9,0.5c-0.8,0.3-1.5,0.3-2.5,0.3c0.2-0.3,0.3-1,0.4-1.4c-1.8-0.7-1.7-3.1-4.2-2.9  c-1.3,0.1-1.6,0.5-2.2,1.7c-0.2,0.3-0.3,1-0.4,1.3c-0.3,0.4-1,0.5-1.1,0.9c-0.3,1.1,0.6,1.5-0.2,2.7c-0.8,1.1-1.9,0.7-2.7,1.4  c-0.7,0.7-0.3,1.6-0.8,2.5c-0.6,0.8-2.3,1.6-3.3,1.4c0-1.2,0.8-2.9,1.5-4c-0.7-0.4-1.7-0.4-2.5-0.1c-0.6-1.4-1.3-1.6-2.8-1.9  c0-0.2,0.1-0.4,0.1-0.6c-1.5-0.2-0.9-1.8-0.3-2.3c0.5-0.5,1.2-0.6,1.7-1.1c0.4-0.5,0.6-1,1.1-1.4c0.7-0.7,2.7-1.9,3.6-2.3  c1.2-0.4,2.2,0.2,3.1-0.9c-1,2.3,0.7,2.1,2.5,1.2c0.1,0.2,0.5,0.3,0.6,0.5c1.3-1.1-1.4-1.4-2-2.4c0.9-0.8,1.7-0.5,2.7-0.8  c0.7-0.2,1.2-0.6,1.8-1.1c1.5-1,3.1-1.6,3.8,0.7c-0.3,0-0.7,0.2-1.1,0.2c0.5,0.5,1.6,0.3,2.3,0.1c0.5,2-3,0.6-2,2.6  c-0.6,0-2.6-0.6-2.9,0.2c-0.8,1.7,2.9,0.4,3.1,0.5c1.6,0.3,1.9,3.5,4.6,1.9c-0.6-0.6-1.4-1.3-2-1.9c1-0.3,2.9,0.8,3.4-0.4  c0.4-1.1-1.1-1.2-0.6-2.2c0.9-0.1,1.4,0.6,2.4,0.6c1,0,2.4-0.5,3-1.3c-0.9-0.9-2.4-0.6-3.6-0.6c0-0.5,0.1-1.1,0.4-1.6  c-1-0.6-1.6-1-2.5-1.8c-0.9-0.8-1-0.9-2.4-0.9c0-0.2-0.1-0.5,0-0.7c-2.8-0.1-4.7,0.8-6.8,2.4c0.5-0.7,1.5-1.3,1.6-2.1  c-2-0.4-3.4,0.8-3.1,2.9c1.5-0.1,1.2,0.9,0.4,1.6c-0.9,0.9-2.2,0.5-3.3,1.1c-0.1-0.7,0.3-1.2,0.2-1.9c-0.3-1.1-1.4-0.2-0.7-1.7  c0.4-0.9,2.2-1.8,3.1-2.3c-1.7-0.1-1.7,0.2-2.8,1.1c-0.8,0.6-1.9,0.7-2.6,1.5c-1,1.1,0.2,1-0.6,2.1c-0.8,1.2-2.6,0.4-0.8-0.7  c-0.5-0.2-1.1-0.4-1.6-0.4c0.2,1.5-0.6,2-1.9,2c-0.2,0-0.2-0.4-0.5-0.5c-0.4,0-0.7,0.3-1.1,0.2c-0.5-0.1-0.9,0-1.4-0.2  c0.4-1.5,2.7,0,3.1-1.9c0.4-1.6-0.8-1.4,1.2-2.6c-0.7-0.1-1.5,0-2.3,0c-0.1,1.8-1.8-0.2-2.5-0.2c-0.5,0-0.7,0.7-1.2,0.7  c-0.4,0-0.3-0.4-0.5-0.5c-0.6,0-1.2-0.2-1.8-0.2c-1.4-0.1-5.6-0.4-5,2.4c1.1,0.2,1.9-0.7,2.8-0.6c1,0.1,0.8,0.8,1.6,1.3  c1.2,0.7,3.3-0.9,2.8,1.6c-1.6,0.1-2.4,1-4.1,0.7c-1-0.2-2.6-1.3-2.2-1.9" fill="#000000"></path>
<path d="M65,120.4c-0.2-0.7-0.9-1.2-1.6-1.5c-0.3-0.2-0.9,0.2-1.2,0c-0.4-0.2-0.3-0.8-0.8-1.1c-0.5-0.4-5.4-1.2-4.9,0.3  c0.1,0.4,4.3,0.1,5.1,0.6c0.6,0.4,0.7,1.1,1.5,1.4c0.7,0.3,2.3,0.7,1.9-0.4" fill="#000000"></path>
<path d="M63.6,122.3c-1.2-0.8-2.9,0.3-1.5,1.1c1.1,0.6,2.1-0.6,1.1-1.4" fill="#000000"></path>
<path d="M73.8,122.3c0.2,0.1-0.2,1.6-1.3,0.9C71.3,122.5,73.3,122.2,73.8,122.3z" fill="#000000"></path>
<path d="M70.1,121.2c-0.8-0.6-4.6-1.1-4.4,0.3c0.2,2.1,3.9-0.2,5,0.3c0.1-0.1,0.1-0.3,0.2-0.5" fill="#000000"></path>
<path d="M75.4,123.4h0.2" fill="#000000"></path>
<path d="M77.1,124.8c0.1,0,0.2,0,0.2,0.2" fill="#000000"></path>
<path d="M68.5,65.7c-0.9-0.5-3.7-3.4-4.7-1.3c-1,2,5.4,1.9,6.6,1.3c0.1,0.1,0.3,0.2,0.4,0.3c0.9-0.6,0.5-1.6-0.6-1.6  c-0.9,0.1-1.6,2.1-2.2,1.1" fill="#000000"></path>
<path d="M71.2,62.7c-0.6-0.2-3.5-0.1-2.2,1.1c0.7,0.6,3.2-0.2,3.3-1c-0.5-0.3-1.1-0.4-1.7-0.3" fill="#000000"></path>
<path d="M73.7,64.4c-2.6,0.2,2.6,3,2.8,0.5c-1-0.4-2.3-0.1-3.4-0.2c0-0.2,0-0.4,0-0.6" fill="#000000"></path>
<path d="M76.8,62.5c-0.8-1-2.2,0-1.4,0.9c0.5,0.5,2.9,0.2,3.2-0.4c-0.8-0.2-1.6-1.2-2.2-0.7" fill="#000000"></path>
<path d="M81.8,65.1c-1-0.1-1.5-1.3-2.5-0.7c-1,0.5-0.8,1.8,0.1,2.4c1,0.6,6.1,0.4,7-0.2c-0.8-0.1-1.2-0.8-1.9-1  c-1-0.3-2.6,0.7-3-0.3" fill="#000000"></path>
<path d="M85.2,61.3c-1.2-0.6-3.1,0.3-3.5,1.7c0.9,0.5,1.9,0.5,2.8,1.1c0.7,0.4,1,1,1.5,1.3c2.2,1.5,2.2-0.3,3.7-1.4  c1.7-1.3,5-1.7,6.9-2.3c1.4-0.4,4.6-0.2,5.4-1.4c-1.9-1.2-5-0.1-7,0.1c-1.5,0.2-2.3-0.1-3.7-0.2c-2.5-0.2-7.6,3-9.4,1.6" fill="#000000"></path>
<path d="M100.7,68.4c-1.1,0.1-1,1.3,0,1.6c-0.2,0.6,0.2,1.3,0,1.7c-0.4,0.8-1.6,1-2,1.7c-0.4,0.9,0.2,1.3,0.3,2  c0.2,0.8,0,1.9,0.2,2.7c0.5,1.7,2.7,1.6,4.1,0.6c1.1-0.8,1.5-3,2.4-3.6c0.8-0.5,1.9,0,3-0.3c3.6-1.1,7.1-3.5,10.7-4.5  c1.2-0.3,1.4,0.4,2.3-0.8c0.4-0.5,0.8-1.5,1.1-2c0.8-1.3-0.2-0.7,1.4-1.3c1.7-0.6,0.9-0.6,1.4-1.9c0.9-2.1,2.7-2.5,4.7-3.1  c-0.8-0.3-1.6-0.8-2.5-0.8c-0.7,0-1.5,0.6-2.1,0.5c-0.4-0.1-0.8-0.8-1.2-1c-0.6-0.3-1-0.2-1.7-0.3c-4.4-0.4-8.8-0.6-13,0.3  c-1.3,0.3-2.9,0.1-4.2,0.5c-0.8,0.2-2,1-3,1.2c-0.5,0.1-1,0.3-1.6,0.4c-1,0.2-0.9,0.1-1.9,0.1c-1.6,0-3.1,0.9-0.5,1.3  c-0.9,1-3.4,0.2-4.7,0.4c-0.6,0.1-1.8,0.2-1.6,0.9c0.3,1,3.3,0.7,4,0.6c0.7-0.1,1.4-0.3,2.1-0.4c1.4-0.1,0.9-0.1,1.6,0.6  c0.6,0.7,0.4,1.5,0.5,1.9" fill="#000000"></path>
<g>
	<path d="M267.6,231.8H20.2c-9.8,0-17.8-8-17.8-17.8V48.5c0-9.8,8-17.8,17.8-17.8h247.4c9.8,0,17.8,8,17.8,17.8V214   C285.4,223.8,277.4,231.8,267.6,231.8z M20.2,42.1c-3.5,0-6.4,2.9-6.4,6.4V214c0,3.5,2.9,6.4,6.4,6.4h247.4c3.5,0,6.4-2.9,6.4-6.4   V48.5c0-3.5-2.9-6.4-6.4-6.4H20.2z" fill="#000000"></path>
</g>
</svg>