<?xml version='1.0' encoding='utf-8'?>
<svg xmlns="http://www.w3.org/2000/svg" viewBox="0 0 2026 2041" width="397" height="400"><path d="M583 296q23-31 58.5-49t77.5-18h1093q36 0 67.5 13.5T1935 280t37.5 55.5T1986 403v647q0 36-13.5 67.5T1935 1173t-55.5 37.5-67.5 13.5H856v-107h956q28 0 47.5-19.5t19.5-47.5V403q0-28-19.5-47.5T1812 336H719q-20-14-35-22t-29-12-31-5-41-1zm181 560v651q0 35-14 65t-37.5 53-55 36-67.5 13H214q-36 0-67.5-13t-55-36-37.5-53-14-65V523q0-34 14-64.5T91.5 405t55-36 67.5-13h376q36 0 67.5 13t55 36 37.5 53.5 14 64.5v34h-90v-34q0-16-6.5-30.5t-18-25-27-16.5-32.5-6H214q-17 0-32.5 6t-27 16.5-18 25T130 523v505h544V856h90zm-469 382v-88h-87v88h87zm151 0v-88h-88v88h88zm150 0v-88h-87v88h87zm-301 154v-88h-87v88h87zm151 0v-88h-88v88h88zm150 0v-88h-87v88h87zm-301 153v-87h-87v87h87zm151 0v-87h-88v87h88zm150 0v-87h-87v87h87zm811-820l-391-290v221H509v107h507v252z" fill="#000000"></path></svg>