<?xml version='1.0' encoding='utf-8'?>
<svg xmlns="http://www.w3.org/2000/svg" viewBox="0 0 1871 2041" width="367" height="400"><path d="M569 727q18-25 34.5-56t42.5-56q7 0 17.5-5.5T692 604q83-8 144-10.5t96-2.5h39q38 0 90 3.5t118 9.5q3 0 8.5 1.5t11 4 9.5 4 3 1.5q26 25 49 51t40 61H569zm656 143v112h207v122H438V982h208V870H469q0-8 13-23t21-32h863q11 17 18 32t15 23h-174zm-293 346h390v119q0 34 34 34h144q8 0 21-7.5t13-26.5v-199q12-63 11.5-111t-7-82-15.5-54.5-13-29.5h88q4 0 9.5-4t11-9 9.5-11 4-9l-21-77q0-11-19-16.5t-38-5.5h-111q-17-29-32-48t-23-29q-5-9-13.5-20.5t-18-22.5-18.5-21-16-15q-12-13-22-25.5t-23.5-22.5-34-17.5T1188 494q-92-8-156-9.5T932 483q-35 0-102 1.5T678 494q-37 5-58.5 12.5T585 524t-21 22-18 25q-13 14-32 35t-45 53q-7 18-20 34.5T428 727H304q-5 0-12 1.5t-14.5 4T265 739t-5 10l-21 77q0 7 7.5 20t24.5 13h77q-3 10-10 30.5T326.5 944t-3.5 81.5 13 110.5v199q0 34 34 34h142q34 0 34-34v-119h386zm747 204l-101-67q64-97 96.5-206t32.5-220-32.5-220-96.5-207l102-66q74 107 111.5 230.5T1830 919q1 135-37 262t-114 239zM1362 284q-97-65-206-97.5T936 154t-220.5 32.5T509 283l-66-102q108-73 231-110.5T928 32q135-2 262.5 36.5T1429 182zM934 1821q-132 0-257.5-37.5T442 1671l67-103q97 65 206 97.5t220 32.5 220-32 207-97l66 102q-108 73-231 110.5T943 1821h-9zm-743-402q-74-108-111.5-231T41 934q-1-136 37-263t113-238l102 67q-65 97-97 206t-32 220 32 220 97 206z" fill="#000000"></path></svg>