<?xml version='1.0' encoding='utf-8'?>
<svg xmlns="http://www.w3.org/2000/svg" viewBox="0 0 2448 2041" width="480" height="400"><path d="M839 950h772q-20-26-44.5-54t-51.5-60q-4 0-14-.5t-23-2.5q-43-4-82-6t-72-3-58-1h-40q-33 0-99.5 1T972 833q-14 2-27 6t-15 4q-26 31-48 57.5T839 950zm683 158h189q-5-9-12.5-23.5T1680 1050H771q-11 20-20 34.5t-14 23.5h190v121H703q-2 23-.5 53t5.5 69h1029q8-39 9.5-69t1.5-53h-226v-121zm-296 359H822v131q0 34-37 34H639q-15 0-27-8.5t-12-25.5v-190q-3-6-3.5-11.5T595 1384q-10-64-9.5-114t6-86 13.5-60 14-36h-85q-15 0-27-8.5t-12-23.5l25-70q0-15 17.5-25.5T572 950h121q24-29 47-64 15-17 29-35 12-14 25.5-30.5T818 793q11-13 21-25.5t24.5-23.5 37.5-19 61-12q91-8 160-9.5t104-1.5q33 0 103.5 1.5T1488 713q38 4 61.5 12t38.5 19 24.5 23.5T1633 793q8 11 21 27.5t26 30.5q14 18 30 35 13 17 24 33.5t23 30.5h119q16 0 33 10.5t17 25.5l27 70q0 15-10.5 23.5t-25.5 8.5h-85q5 12 13 36t13.5 60 5.5 86-10 114q-2 7-2 12.5t-2 11.5v190q0 17-11.5 25.5t-26.5 8.5h-147q-37 0-37-34v-131h-402zM524 773H389l85-208h110zm-115 405H223l118-288h150zm-37 138l-90 309H40l127-309h205zm1494-751h112l86 208h-140zm92 325h153l116 288h-185zm327 426l123 309h-238l-89-309h204z" fill="#ffd100"></path></svg>