<?xml version='1.0' encoding='utf-8'?>
<!-- Generator: Adobe Illustrator 23.0.1, SVG Export Plug-In . SVG Version: 6.00 Build 0)  --><svg xmlns="http://www.w3.org/2000/svg" xmlns:xlink="http://www.w3.org/1999/xlink" version="1.1" id="Ebene_2" x="0px" y="0px" viewBox="0 0 291 278" style="enable-background:new 0 0 291 278;" xml:space="preserve" width="418.70505" height="400.0">
<g>
	<path d="M51.5,234.5c-7.5,0-14.4-1.7-19.8-5.1C17,220.1,7,213.4,6.9,213.4c-3.3-2.2-4.2-6.8-2-10.1c1-1.5,25-37.9,30.3-45.1   c1.1-1.6,2.9-2.6,4.8-2.9c1.9-0.3,3.9,0.2,5.5,1.3c5.2,3.7,11.6,5.3,17.6,4.2c4.9-0.9,9-3.4,11.4-7c8.7-13,21.4-33.3,30.7-48.7   c3.8-6.3,3.4-12.3,2.4-16.2c-1.6-6.2-5.9-11.8-11.2-14.8c-1.7-1-3-2.6-3.5-4.4c-0.5-1.9-0.3-3.9,0.7-5.6l23.7-41.3   c1-1.7,2.6-2.9,4.5-3.4c1.9-0.5,3.9-0.2,5.6,0.8c0.4,0.2,9.5,5.6,22.6,14c16.3,10.4,28.9,43,11.8,70.4c-7.2,11.5-25,40.4-37.7,60.3   c-13.8,21.6-26.7,42.1-31.3,49.5c-5.4,8.8-16.2,15.8-29,18.8C59.5,234,55.4,234.5,51.5,234.5z M21.2,205.2   c4.3,2.8,10.6,6.9,18.3,11.7c4.9,3.1,12.7,3.8,21,1.8c8.8-2.1,16.6-6.9,19.9-12.2c4.6-7.5,17.6-28,31.4-49.7   c12.6-19.9,30.5-48.8,37.6-60.2c12.6-20.3,2.5-44.1-7.3-50.3c-6.4-4.1-11.9-7.5-15.8-9.9l-16.7,29.1c5.8,5,10.1,12,12.1,19.5   c2.5,9.5,1.1,19.1-4,27.6c-9.4,15.6-22.3,36.1-31,49.2c-4.7,7-12.1,11.7-21,13.3c-7.5,1.3-15.3,0.3-22.3-3   C37.3,181,26.9,196.6,21.2,205.2z" fill="#000000"></path>
</g>
<path d="M129.9,215.2h63.4v31c0,2.6,1.3,4.9,3.4,6.4c2.1,1.3,4.9,1.5,7.3,0.4l76.9-37.2c2.6-1.3,4.3-3.8,4.3-6.8s-1.7-5.6-4.3-6.6  L204,166.3c-1.1-0.4-2.1-0.6-3.2-0.6c-1.5,0-2.8,0.4-4.1,1.1c-2.1,1.3-3.4,3.8-3.4,6.4v27.3h-63.4V215.2z M208.2,184.7l51.9,24.3  l-51.9,25V184.7z" fill="#000000"></path>
</svg>