<?xml version='1.0' encoding='utf-8'?>
<!-- Generator: Adobe Illustrator 23.1.0, SVG Export Plug-In . SVG Version: 6.00 Build 0)  --><svg xmlns="http://www.w3.org/2000/svg" xmlns:xlink="http://www.w3.org/1999/xlink" version="1.1" id="Ebene_1" x="0px" y="0px" viewBox="0 0 480 323.6" style="enable-background:new 0 0 480 323.6;" xml:space="preserve" width="593.3251" height="400.0">
<path d="M146.8,113.1c0-16.7-1.6-31.9-4.8-45.6s-7.7-25.5-13.4-35.2c-5.7-9.7-12.5-17.2-20.2-22.6s-16.4-8-25.9-8  c-12,0-22.8,3.9-32.3,11.8S32.4,32.5,25.7,46.7S13.8,78.1,10.3,98.2s-5.4,42.5-5.4,67.1c0,12.9,0.5,25.7,1.6,38.5s2.8,24.9,5.4,36.5  s5.7,22.3,9.6,32.2c3.8,10,8.7,18.6,14.5,25.9s12.5,13,20.1,17.2s16.3,6.3,25.9,6.3c4,0,8.2-0.5,12.6-1.6c4.4-1,8.8-2.9,13.2-5.6  c4.4-2.7,8.7-6.3,12.8-10.8s8-10.4,11.8-17.6c3.4-7.2,6.1-14.4,8.2-21.7c2.1-7.3,3.6-14.4,4.7-21.4c1-7,1.7-13.7,2.1-20.1  c0.3-6.4,0.7-12.2,1.1-17.3H99.9c-0.3,9.8-1,18.2-2.2,25.4s-2.9,13-4.9,17.6c-2,4.6-4.2,7.9-6.6,10.2c-2.4,2.2-4.9,3.3-7.5,3.3  c-4.3,0-7.9-2-10.7-5.9c-2.9-3.9-5.3-9-7.2-15.1c-2-6.2-3.5-13.1-4.6-20.7c-1.1-7.6-1.9-15-2.3-22.1c-0.5-7.1-0.7-13.6-0.8-19.4  c-0.1-5.9-0.1-10.2-0.1-13.1c0-14.6,0.6-28.3,1.7-41c1.1-12.8,2.8-23.9,5-33.4s5.1-17,8.7-22.5c3.6-5.5,7.9-8.2,12.8-8.2  c2.7,0,5.1,1,7,3.1c2,2.1,3.6,4.8,4.9,8s2.4,7,3.3,11.1c0.9,4.2,1.6,8.2,2.1,12s0.9,7.4,1.1,10.7c0.2,3.3,0.4,5.7,0.5,7.4H146.8z" fill="#000000"></path>
<path d="M210.6,5.2l-58.2,313.2h45.1l11.8-69.8h50.4l11.2,69.8h47L261.4,5.2H210.6z M235.1,106.3l13.9,82.3h-29L235.1,106.3z" fill="#000000"></path>
<path d="M336.7,318h46.5V192.7h22.1c0.9,0,1.9,0.1,2.8,0.2s2,0.7,2.9,1.6s1.9,2.2,2.6,3.8c0.8,1.6,1.5,4.1,2.2,7.3  c0.3,1.3,0.6,4.2,1,8.8c0.4,4.6,0.8,10,1.4,16.4c0.5,6.4,1,13.3,1.6,20.6c0.5,7.4,1,14.5,1.6,21.4c0.1,3.9,0.3,7.9,0.6,11.8  c0.3,4,0.5,7.8,0.7,11.3c0.2,3.6,0.5,6.8,0.8,9.8c0.3,2.9,0.6,7,0.9,12.2h50.8c-0.7-6-1.3-10-2.1-11.9c-0.7-2-1.4-4-2-6.2  c-0.6-2.2-1.1-4.5-1.6-7.1s-0.9-5.6-1.3-9c-0.3-2-0.5-4.3-0.8-7.1c-0.3-2.8-0.6-6.4-0.9-10.9c-0.3-4.4-0.7-9.8-1.3-16  c-0.5-6.3-1-13.8-1.6-22.7c-0.8-8.5-1.5-16.4-2.2-23.8c-0.7-7.4-1.7-13.9-3-19.8c-1.4-5.8-3.3-10.9-5.9-15.2  c-2.5-4.3-6-7.7-10.3-10.2c3-2.5,6-5.6,9-9.3c3-3.7,5.7-8.4,8.1-14c2.4-5.6,4.5-12.3,6.2-20.1c1.7-7.8,2.5-16.9,2.5-27.4  c0-4.8-0.3-9.9-0.9-15.2c-0.6-5.3-1.5-10.6-2.7-15.9c-1.2-5.3-2.9-10.6-4.9-15.6c-2-5.1-4.5-9.9-7.3-14.5c-2.7-5-5.8-8.9-9.3-11.7  s-7.1-5.1-11-6.6c-3.8-1.6-7.8-2.3-11.8-2.3h-83.7V318z M397.5,63.2c2.1,0,4,0,5.8,0.1c1.8,0.1,3.4,0.3,4.8,0.7c1.4,0.4,2.8,1,4,1.8  c1.2,0.8,2.4,2,3.4,3.5c0.5,0.5,1.1,1.4,1.7,2.6s1.2,3,1.8,5.2c0.6,2.2,1,5,1.4,8.2c0.3,3.3,0.5,7.2,0.5,11.9c0,5-0.2,9.2-0.7,12.7  c-0.5,3.5-1,6.4-1.8,8.7c-0.7,2.3-1.4,4.1-2.1,5.4s-1.1,2.3-1.4,2.9c-1.2,1.6-2.4,2.8-3.6,3.8c-1.2,1-2.4,1.7-3.5,2.1  c-1.1,0.4-2.1,0.6-3,0.7c-0.9,0.1-1.8,0.1-2.5,0.1H382V63.2H397.5z" fill="#000000"></path>
</svg>