<?xml version='1.0' encoding='utf-8'?>
<!-- Generator: Adobe Illustrator 23.0.1, SVG Export Plug-In . SVG Version: 6.00 Build 0)  --><svg xmlns="http://www.w3.org/2000/svg" xmlns:xlink="http://www.w3.org/1999/xlink" version="1.1" id="Ebene_2" x="0px" y="0px" viewBox="0 0 291 278" style="enable-background:new 0 0 291 278;" xml:space="preserve" width="418.70505" height="400.0">
<g>
	<path d="M80.2,131.7c-27.3,0-49.5,22.2-49.5,49.5c0,27.3,22.2,49.5,49.5,49.5s49.5-22.2,49.5-49.5   C129.7,153.9,107.5,131.7,80.2,131.7z M80.2,224.7c-24,0-43.5-19.5-43.5-43.5c0-16.5,9.2-30.9,22.8-38.3c0.1,2.7,4.7,6.2,8,6.1   c4.3-0.1,8.2-2.7,10.7-4.7c2-1.7,5.2-4.9,9-6.1c3.3,0.5,6.5,1.4,9.5,2.7c-0.2,2.4-1,5.1-3.1,6.5c-2.5,1.6-4,5.7-7,6.8   c-3.1,1.1-3.1,1.7-6.8,1.3c-3.7-0.4-7.8-0.4-8,1.3c-0.2,1.7-0.4,2.9-2.5,3.1c-2.2,0.2-4.5,2.1-3.2,3.5c1.3,1.4,4,1,5.8,1   s5.7-2,6.6-2.2c1-0.1,1.9-1,2.2,1.2c0.3,2.2-0.4,3,0.5,3.9s1.9-0.1,2-1.6c0.1-1.5,0.4-3.7,1.7-4.4c1.3-0.7,5-1.5,6.7-1.4   c1.7,0.1,3,1.7,2.6,3.4c-0.4,1.7-2.1,3.7-3.1,4.3c-1,0.6-2.3,1.1-2.5,3.1c-0.2,1.9,3.3,2.6,4.5,4.5s1.9,4.6,5.1,5.2   c3.2,0.6,6,0.6,6.5-1.7s-0.2-2.4-3.1-4.2c-2.9-1.9-3.9-2.5-4.2-4.7s6-1.8,7.5-1c1.5,0.7,3.1,3,4.8,3.7c1.7,0.7,2.9-0.4,3.4,2   c0.5,2.4,1.6,6,2.9,6.3s2.5-3.8,2.5-5.2s0.6-2.6,1.8-2.8c1.2-0.2,1.3,1.4,1.4,6.4c0,3.1,0.9,6.1,1,10.3   C119,209.6,101.3,224.7,80.2,224.7z" fill="#000000"></path>
	<path d="M93.1,182.4c-3.1-2.8-1.6-8.7-4.6-9.7c-3-1-12-4.3-18.2-4.4c-6.2-0.1-13.9,3.1-12.7,9.5c1.3,6.5,7.3,8,12.1,9.2   c4.8,1.2,5,3.7,4.7,7.8s3.6,17.5,8.5,16.9c8.3-1,13.8-15.8,14.4-21.2C97.9,185.1,96.2,185.3,93.1,182.4z" fill="#000000"></path>
</g>
<g>
	<path d="M77.4,113.4c3.4-41.8,38.4-74.8,81.1-74.8c44.8,0,81.3,36.5,81.3,81.3s-36.5,81.3-81.3,81.3c-4,0-7.9-0.3-11.8-0.9l0.9-10   c3.6,0.6,7.2,0.8,11,0.8c39.3,0,71.3-32,71.3-71.3s-32-71.3-71.3-71.3c-37.3,0-68,28.7-71.1,65.2L77.4,113.4z" fill="#000000"></path>
</g>
<g>
	<path d="M140.2,151c-2.6-4.6-5.6-7-5.6-7v-60c0-1.8,1-3.5,2.7-4.4c1.6-0.9,3.6-0.8,5.1,0.3l51.4,34.7c1.4,0.9,2.2,2.4,2.2,4.1   c0,1.6-0.8,3.2-2.1,4.1l-50.6,35.9C143.4,158.7,142.4,154.9,140.2,151z M144.6,93.4v52l37.6-26.7L144.6,93.4z" fill="#000000"></path>
</g>
</svg>