<?xml version='1.0' encoding='utf-8'?>
<svg xmlns="http://www.w3.org/2000/svg" viewBox="0 0 1759 2041" width="345" height="400"><path d="M1690 665q10 75 19.5 167t9.5 184q0 71-8 137.5t-28.5 120.5-55 92.5-88.5 53.5q-23 5-40 7.5t-31 2.5q-24 0-44.5-9.5T1371 1387q-23-11-50.5-55t-56-105-56.5-130.5-52-132.5l-10-24-9-23v705h16q25 0 46 14.5t36.5 40 24.5 59 9 71.5H581q0-6 3-24t6-43 6-55.5 3-62.5h454V682H531q-13-19-17.5-34.5T506 621t-8-17-17-6v-34h572V246q0-19-9-37t-23-32.5-32.5-23T951 145H380q-19 0-37 8.5t-32.5 23-23 32.5-8.5 37v50q0-11-8-15-4-2-8-2-12 0-22 1t-19.5 5.5T202 300t-23 28v-82q0-45 17-84.5T241.5 92 306 44.5 380 27h571q38 0 72 17.5t59.5 47.5 40 69.5T1137 246v419h16q24 34 46 61 19 23 38 45t32 28q5 8 20 45t36.5 87.5 47 107 49.5 104 45 79 35 31.5h4q12 0 32-13t39-41.5 32.5-73T1623 1018q0-31-10.5-66.5t-25-76T1559 787t-20-105l-118-102q-6-19-8.5-43t-10.5-50.5-26-54-55-51.5q-12 0-19-6t-10-16-3.5-22-.5-24v-34q8-17 27-32t40-15q19 0 33 14l13.5 9 15.5 10q40 26 87.5 59t88.5 73 69 86 28 97v85zM246 530q-25 0-41.5 12.5T163 580q0-18-2.5-34t-2.5-30 4.5-27 16.5-26q13-25 29.5-37.5T263 413q12 0 32.5 12.5T329 463q6 13 9.5 26t5 29 2 35.5.5 44.5q-26-38-50.5-53T246 530zm0 50q25 0 49.5 15t48.5 42 45.5 64 40.5 81q13 38 20 88t10 108.5 3.5 123.5.5 134v67l-.5 104.5-1.5 123-3 122.5-5 104-7 67-403-17v-571q0-63-2-122t-2-116 4-111 17-105q19-44 40.5-81t45.5-64 49-42 50-15z" fill="#000000"></path></svg>