<?xml version='1.0' encoding='utf-8'?>
<!-- Generator: Adobe Illustrator 23.0.1, SVG Export Plug-In . SVG Version: 6.00 Build 0)  --><svg xmlns="http://www.w3.org/2000/svg" xmlns:xlink="http://www.w3.org/1999/xlink" version="1.1" id="Ebene_2" x="0px" y="0px" viewBox="0 0 291 278" style="enable-background:new 0 0 291 278;" xml:space="preserve" width="418.70505" height="400.0">
<g>
	<path d="M254.2,193.1c1.5,4.6,2.1,9.1,2.4,13.5c0,0.3,0,25.5,0,25.6c-0.3,4.4-4.1,7.7-8.5,7.5c-2-0.1-51.2,1-61,0   c-2.1-0.2-4.1-1.3-5.4-2.9c-1.4-1.6-2-3.8-1.8-5.9c0.7-7-1.4-12.7-5.7-17.8c-3.5-4.2-8.2-6.6-13-7c-17.1-1.1-40.4-0.4-60-0.8   c-8.1-0.2-13.5,3.6-16.7,6.7c-4.9,4.9-6.4,12.1-6.3,18.8c0,2.1-0.8,4.2-2.3,5.8c-1.5,1.5-3.6,2.4-5.7,2.4l-56.8,0.2   c-2.1,0-4.2-0.8-5.7-2.4c-1.5-1.5-2.4-3.6-2.3-5.7c0-0.5,0.1-12.1,0.8-29.1c0.9-21.1,24.8-44.8,60.3-43.6   c5.8,0.2,14.9,0.1,25.5,0.1c0,0,6.5,13.4,14.4,17c0,0-32.1-0.8-40.5-1c-26.2-0.8-43.2,15.6-43.7,28.3c-0.4,8.3-0.6,15.4-0.7,20.4   L63,223c1.6-8.3,4.2-16.2,10.3-22.3c7.7-7.7,17.5-11.6,28.3-11.4c20,0.4,43.5-0.3,60.7,0.8c9.2,0.6,17.8,5.1,24.2,12.6   c5.4,6.3,8.7,11.8,9.5,20.2c0.5,0,43.5,0.2,43.5,0.2c0.3-5.6,0.7-7.3,1-17.2c0.1-4-1.2-8.5-3.8-12.9L254.2,193.1z" fill="#000000"></path>
</g>
<path d="M154.2,176.6H245v-15.4h-90.8c-22.7,0-33-16.1-33-31s10.1-29.9,33-29.9h38.3v30.6c0,2.6,1.3,5.1,3.5,6.6  c2.2,1.3,5.1,1.5,7.5,0.4l79.3-38.3c2.6-1.3,4.4-4,4.4-7s-1.8-5.7-4.4-6.8l-79.3-37.2c-1.1-0.4-2.2-0.7-3.3-0.7  c-1.5,0-2.9,0.4-4.2,1.1c-2.2,1.3-3.5,4-3.5,6.6V85h-38.3c-33.2,0-48.4,23.6-48.4,45.4C105.8,153.3,122.5,176.6,154.2,176.6z   M208,67.4l53.5,25.1L208,118.3V67.4z" fill="#000000"></path>
</svg>