<?xml version='1.0' encoding='utf-8'?>
<!-- Generator: Adobe Illustrator 20.1.0, SVG Export Plug-In . SVG Version: 6.00 Build 0)  --><svg xmlns="http://www.w3.org/2000/svg" xmlns:xlink="http://www.w3.org/1999/xlink" version="1.1" id="Ebene_1" x="0px" y="0px" viewBox="0 0 400 400" style="enable-background:new 0 0 400 400;" xml:space="preserve" width="400.0" height="400.0">
<style type="text/css">
	.st0{fill:none;stroke:#1D1D1B;stroke-width:13;stroke-miterlimit:10;}
	.st1{fill:#1D1D1B;stroke:#1D1D1B;stroke-width:2;stroke-miterlimit:10;}
	.st2{fill:#1D1D1B;stroke:#1D1D1B;stroke-width:6;stroke-linecap:round;stroke-linejoin:round;stroke-miterlimit:10;}
</style>
<g>
	<g>
		<path class="st0" d="M197.7,157.4c-29.1-21.5-35.2-62.6-13.6-91.6c7.5-10.1,17.3-17.4,28.2-21.8" fill="#000000"></path>
		<path class="st0" d="M169.2,201.1c-52.2-38.7-66.5-108-31.8-154.9c12.1-16.3,28.4-27.7,46.9-34" fill="#000000"></path>
	</g>
	<g>
		<path class="st0" d="M294.1,157.4c29.1-21.5,35.2-62.6,13.6-91.6c-7.5-10.1-17.3-17.4-28.2-21.8" fill="#000000"></path>
		<path class="st0" d="M322.5,201.1c52.2-38.7,66.5-108,31.8-154.9c-12.1-16.3-28.4-27.7-46.9-34" fill="#000000"></path>
	</g>
	<circle class="st1" cx="244.3" cy="100.7" r="30.1" fill="#000000"></circle>
	<rect x="212.2" y="86.5" class="st1" width="9.8" height="28.1" fill="#000000"></rect>
	<rect x="267" y="86.5" class="st1" width="9.8" height="28.1" fill="#000000"></rect>
	<polygon class="st1" points="268.5,393 224.3,393 232.6,121.5 257,121.5  " fill="#000000"></polygon>
</g>
<circle class="st0" cx="111.6" cy="300.7" r="88.4" fill="#000000"></circle>
<polygon class="st2" points="73.7,358.5 73.7,240 149.6,301.4 " fill="#000000"></polygon>
</svg>