<?xml version='1.0' encoding='utf-8'?>
<!-- Generator: Adobe Illustrator 23.0.1, SVG Export Plug-In . SVG Version: 6.00 Build 0)  --><svg xmlns="http://www.w3.org/2000/svg" xmlns:xlink="http://www.w3.org/1999/xlink" version="1.1" id="Ebene_2" x="0px" y="0px" viewBox="0 0 291 278" style="enable-background:new 0 0 291 278;" xml:space="preserve" width="418.70505" height="400.0">
<g>
	<path d="M137.6,98.2l18.4-16c1.8-1.6,4.4-2,6.7-1c2.2,1,3.6,3.2,3.6,5.7v25.3L205.2,82c1.9-1.5,4.4-1.7,6.5-0.7   c2.1,1,3.5,3.2,3.5,5.6v30.8c0,0.1,0,0.1,0,0.1c0.4,0.6,3.3,1.7,7,0.9c2.4-0.5,3.9-1.6,4-2.3c0.9-6.7,3-31.1,5.1-54.7   c1.3-14.9,2.5-28.9,3.4-38.1C236.1,9.8,246,4,255.2,4.5c9.8,0.5,17.4,7.7,17.4,16.3v174.3c0,3.4-2.8,6.2-6.2,6.2H141.9v-12.4h118.3   V20.8c0-2.2-2.9-3.8-5.6-3.9c-2.5-0.1-6.7,0.8-7.4,8c-0.9,9.1-2.1,23.1-3.4,38c-2.1,23.8-4.2,48.3-5.2,55.3   c-1.3,9.5-11.6,13.9-20.6,13.3c-9.1-0.6-15.2-6.2-15.2-13.7V99.6L164,129.9c-1.9,1.5-4.4,1.7-6.5,0.7c-2.1-1-3.5-3.2-3.5-5.6v-24.5   l-11.8,10.2C142.2,110.7,141.2,99.2,137.6,98.2z" fill="#000000"></path>
</g>
<g>
	<path d="M109.8,270.2H39.6c-8.7,0-15.7-7-15.7-15.7V114.2c0-8.7,7-15.7,15.7-15.7h70.2c8.7,0,15.7,7,15.7,15.7v140.3   C125.5,263.2,118.4,270.2,109.8,270.2z M39.6,110.9c-1.8,0-3.3,1.5-3.3,3.3v140.3c0,1.8,1.5,3.3,3.3,3.3h70.2   c1.8,0,3.3-1.5,3.3-3.3V114.2c0-1.8-1.5-3.3-3.3-3.3H39.6z" fill="#000000"></path>
</g>
<g>
	<path d="M97.1,231H51.1c-3.4,0-6.2-2.8-6.2-6.2v-96.9c0-3.4,2.8-6.2,6.2-6.2h46.1c3.4,0,6.2,2.8,6.2,6.2v96.9   C103.4,228.2,100.6,231,97.1,231z M57.3,218.5h33.7v-84.4H57.3V218.5z" fill="#000000"></path>
</g>
<circle cx="74.1" cy="246.1" r="7.6" fill="#000000"></circle>
</svg>