<?xml version='1.0' encoding='utf-8'?>
<!-- Generator: Adobe Illustrator 23.0.3, SVG Export Plug-In . SVG Version: 6.00 Build 0)  --><svg xmlns="http://www.w3.org/2000/svg" xmlns:xlink="http://www.w3.org/1999/xlink" version="1.1" id="Ebene_1" x="0px" y="0px" viewBox="0 0 614.8 323.6" style="enable-background:new 0 0 614.8 323.6;" xml:space="preserve" width="759.95056" height="400.0">
<path d="M4.9,208.7c0,5.3,0.1,11.9,0.3,19.6c0.2,7.7,1,15.7,2.3,24.1c1.4,8.4,3.4,16.8,6.1,25.1s6.4,15.8,11.2,22.5  c4.8,6.6,11,12.1,18.5,16.2c7.5,4.2,16.7,6.3,27.5,6.3c11.6,0,21.9-2.7,30.9-8.1s16.5-12.7,22.5-22c6-9.3,10.5-20.1,13.6-32.6  c3.1-12.4,4.6-25.7,4.6-39.8c0-10.2-0.7-19.1-2.2-26.9s-3.6-14.6-6.3-20.5c-2.7-5.9-5.8-11-9.4-15.3c-3.6-4.3-7.5-8.1-11.7-11.3  c-4.2-3.3-8.7-6.1-13.5-8.6c-4.8-2.5-9.5-4.8-14.4-7h0.2c-4.7-2.2-8.8-4.3-12.4-6.3c-3.6-2-6.6-4.2-9-6.7c-2.4-2.5-4.2-5.7-5.4-9.5  c-1.2-3.8-1.8-8.7-1.8-14.7c0-10.3,1.7-18.6,5.2-24.8s8-9.4,13.6-9.4c2.7,0,5.1,0.9,6.9,2.6c1.9,1.8,3.6,4,5,6.7s2.5,5.8,3.3,9.3  c0.8,3.5,1.4,6.9,1.8,10.3c0.4,3.4,0.7,6.5,0.9,9.3s0.3,5.1,0.3,6.9h44.8c0-3-0.1-6.9-0.2-11.7c-0.1-4.8-0.5-10.1-1.2-15.9  c-0.7-5.8-1.6-11.9-2.9-18.3s-3.3-12.6-5.9-18.8c-3-7.4-6.5-13.5-10.7-18.3c-4.1-4.8-8.4-8.5-12.9-11.3s-9.2-4.7-14-5.7  c-4.8-1-9.4-1.5-13.7-1.5c-11.9,0-22,2.6-30.5,7.7S31,22.5,25.6,31.5s-9.4,19.4-12,31.1S9.6,86.7,9.6,99.8c0,13.6,1.3,25.3,4,35.1  c2.7,9.8,6.6,18.5,11.8,25.9c5.2,7.4,11.6,13.9,19.3,19.4s16.4,10.5,26.3,15.1c3.9,2.1,7.4,3.9,10.5,5.6c3.1,1.6,5.6,3.6,7.5,5.9  s3.4,5.2,4.3,8.8c0.9,3.6,1.4,8.2,1.4,14c0,10.8-1.9,19.4-5.8,25.7c-3.8,6.3-9.3,9.5-16.3,9.5c-3.5,0-6.5-0.9-9-2.7  c-2.5-1.8-4.5-4.1-6-6.9c-1.5-2.8-2.7-6-3.5-9.6c-0.8-3.6-1.5-7.2-1.9-10.9s-0.7-7.1-0.8-10.4c-0.1-3.3-0.2-5.9-0.2-8v-7.4H4.9z" fill="#000000"></path>
<path d="M136.8,6.3l54.5,194.9l-0.8-2.7v120.2h45.9V199.3l-0.8,2.9L290.2,6.3h-47.5l-27.2,113L189,6.3H136.8z" fill="#000000"></path>
<path d="M301.6,318.8H346V116.2l47.7,202.6H451V6.2h-44v184.1L360.8,6.2h-59.3V318.8z" fill="#000000"></path>
<path d="M608.7,113.9c0-16.7-1.6-31.9-4.8-45.6s-7.7-25.5-13.4-35.2s-12.5-17.2-20.2-22.6c-7.8-5.3-16.4-8-25.9-8  c-12,0-22.8,3.9-32.3,11.8s-17.7,18.9-24.4,33.1s-11.9,31.4-15.4,51.5s-5.4,42.5-5.4,67.1c0,12.9,0.5,25.7,1.6,38.5  c1,12.8,2.8,24.9,5.4,36.5s5.7,22.3,9.6,32.2s8.7,18.6,14.5,25.9s12.5,13,20.1,17.2c7.6,4.2,16.3,6.3,25.9,6.3c4,0,8.2-0.5,12.6-1.6  c4.4-1,8.8-2.9,13.2-5.6s8.7-6.3,12.8-10.8c4.1-4.6,8-10.4,11.8-17.6c3.4-7.2,6.1-14.4,8.2-21.7s3.6-14.4,4.7-21.4  c1-7,1.7-13.7,2.1-20.1c0.3-6.4,0.7-12.2,1.1-17.3h-48.5c-0.3,9.8-1,18.2-2.2,25.4c-1.2,7.2-2.9,13-4.9,17.6  c-2,4.6-4.2,7.9-6.6,10.2c-2.4,2.2-4.9,3.3-7.5,3.3c-4.3,0-7.9-2-10.7-5.9c-2.9-3.9-5.3-9-7.2-15.1c-2-6.2-3.5-13.1-4.6-20.7  c-1.1-7.6-1.9-15-2.3-22.1c-0.5-7.1-0.7-13.6-0.8-19.4c-0.1-5.9-0.1-10.2-0.1-13.1c0-14.6,0.6-28.3,1.7-41c1.1-12.8,2.8-23.9,5-33.4  s5.1-17,8.7-22.5c3.6-5.5,7.9-8.2,12.8-8.2c2.7,0,5.1,1,7,3.1c2,2.1,3.6,4.8,4.9,8c1.3,3.3,2.4,7,3.3,11.1c0.9,4.2,1.6,8.2,2.1,12  c0.5,3.8,0.9,7.4,1.1,10.7c0.2,3.3,0.4,5.7,0.5,7.4H608.7z" fill="#000000"></path>
</svg>