<?xml version='1.0' encoding='utf-8'?>
<!-- Generator: Adobe Illustrator 20.1.0, SVG Export Plug-In . SVG Version: 6.00 Build 0)  --><svg xmlns="http://www.w3.org/2000/svg" xmlns:xlink="http://www.w3.org/1999/xlink" version="1.1" id="Ebene_1" x="0px" y="0px" viewBox="0 0 400 400" style="enable-background:new 0 0 400 400;" xml:space="preserve" width="400.0" height="400.0">
<style type="text/css">
	.st0{fill:none;stroke:#1D1D1B;stroke-width:20;stroke-linecap:round;stroke-linejoin:round;stroke-miterlimit:10;}
</style>
<circle class="st0" cx="199.6" cy="199.3" r="184.9" fill="#000000"></circle>
<g>
	<path d="M185.9,237.8V197c24.3-10.3,41.1-20.2,41.1-45.5c0-19.7-11.1-34.6-30.2-34.6c-15.3,0-28.7,7-39.3,15.3l-10.6-17   c10.6-8.8,28.7-20.5,49.9-20.5c35.5,0,55.4,22.3,55.4,57.2c0,31.1-23.2,48.7-44,58.7l-3.2,27.3H185.9z M195.2,266.2   c10.3,0,17,7.6,17,18.2c0,10.9-6.7,18.5-17,18.5c-10.6,0-17.3-7.6-17.3-18.5C177.9,273.9,184.7,266.2,195.2,266.2z" fill="#000000"></path>
</g>
</svg>