<?xml version='1.0' encoding='utf-8'?>
<!-- Generator: Adobe Illustrator 23.1.0, SVG Export Plug-In . SVG Version: 6.00 Build 0)  --><svg xmlns="http://www.w3.org/2000/svg" xmlns:xlink="http://www.w3.org/1999/xlink" version="1.1" id="Ebene_1" x="0px" y="0px" viewBox="0 0 334.3 323.6" style="enable-background:new 0 0 334.3 323.6;" xml:space="preserve" width="413.2262" height="400.0">
<g>
	<path d="M239.8,306.6h-160c-14.2,0-25.8-11.6-25.8-25.8v-236c0-14.2,11.6-25.8,25.8-25.8h160c14.3,0,25.8,11.6,25.8,25.8v236   C265.6,295,254,306.6,239.8,306.6z M79.7,30.9c-7.6,0-13.8,6.2-13.8,13.8v236c0,7.6,6.2,13.8,13.8,13.8h160   c7.6,0,13.8-6.2,13.8-13.8v-236c0-7.6-6.2-13.8-13.8-13.8H79.7z" fill="#000000"></path>
</g>
<g>
	<rect x="106.2" y="63.5" width="107.2" height="12" fill="#000000"></rect>
</g>
<g>
	<rect x="106.2" y="89.2" width="107.2" height="12" fill="#000000"></rect>
</g>
<g>
	<rect x="106.2" y="115" width="107.2" height="12" fill="#000000"></rect>
</g>
<g>
	<rect x="106.2" y="140.8" width="107.2" height="12" fill="#000000"></rect>
</g>
<g>
	<polygon points="148.5,254.6 122.1,228.3 130.6,219.8 148.5,237.7 189,197.2 197.5,205.7  " fill="#000000"></polygon>
</g>
</svg>