<?xml version='1.0' encoding='utf-8'?>
<svg xmlns="http://www.w3.org/2000/svg" viewBox="0 0 825 2041" width="162" height="400"><path d="M585 246q0 40-16.5 74.5t-44 59.5-62.5 39.5-71 14.5-70.5-14.5-61.5-40-44-60-17-73.5q0-40 16.5-75t43.5-61 61-40.5T389 55t71.5 15 63 41 44.5 60.5 17 74.5zm187 1574q-34-3-67.5-4t-65.5-1q-66 0-123.5 2.5T411 1820q-46 0-104-3t-123-3q-32 0-65.5 1t-68.5 5l2-134q55-2 93-3.5t61-12 33-33.5 10-68l-2-630q0-55-10-85.5t-32.5-44-60.5-16-94-2.5V658q17-2 37-2h41q74 0 159.5 3.5T452 663q34 0 64.5-1t56.5-4v911q0 46 10.5 69t34.5 33 62.5 11.5 94.5 3.5z" fill="#000000"></path></svg>