<?xml version='1.0' encoding='utf-8'?>
<svg xmlns="http://www.w3.org/2000/svg" viewBox="0 0 1895 2041" width="371" height="400"><path d="M1547 933l-4-66-11-66-19-65-26-63-32-57-40-54-45-51-49-45-55-38-58-34-63-25-64-19-66-13-68-3-66 3-67 13-66 19-59 25-60 34-56 38-50 45-45 51-38 54-32 57-26 63-19 65-10 66-4 66 4 68 10 66 19 66 26 62 32 57 38 55 45 51 50 45 56 39 60 31 59 25 66 19 67 11 66 4 68-4 66-11 64-19 63-25 58-31 55-39 49-45 45-51 40-55 32-57 26-62 19-66 11-66zm-495 345l-4 29-12 26-17 22-24 17-26 9-29 2-28-5-25-13-21-20-16-25-7-27v-29l7-28 16-24 21-19 25-12 28-7 29 2 26 10 24 16 17 22 12 27zM842 963V589l4-28 13-28 20-22 24-17 30-9h30l28 9 25 17 19 22 12 28 5 28v374l-5 31-12 27-19 23-25 16-28 8h-30l-30-8-24-16-20-23-13-27zm210 844l-27-56-21-62-11-16-18-7h-54l-21 7-10 16-20 62-29 56-12 11-19 3-51-10-49-11-14-10-7-15-3-65 7-62-4-21-15-13-26-10-24-13-20-2-16 12-43 47-50 41-17 6-18-6-42-29-40-31-10-15v-18l24-59 32-55 5-19-9-18-17-19-18-21-19-10-18 2-59 27-63 17-16-2-14-12-27-44-24-45-3-17 7-17 45-44 52-38 12-16v-19l-8-26-9-25-12-17-18-5-64-1-64-9-15-9-6-16-8-51-4-52 5-17 12-11 59-23 63-13 18-9 7-18 3-27 3-28-4-19-14-12-58-27-55-35-11-14-1-16 16-50 18-48 10-15 17-5 64 4 61 14 21-2 15-14 12-23 14-24 5-18-9-19-43-48-34-53-4-18 6-15 33-41 35-36 16-9 19 2 56 31 50 36 20 7 20-7 20-16 23-15 13-15-1-21-21-58-11-65 4-18 14-10 46-24 48-19 18-2 14 9 39 50 33 56 14 15 20 2 26-7 27-5 18-10 7-18 6-64 17-63 11-14 16-5 51-2 52 2 17 5 10 14 15 63 7 64 7 18 18 10 26 5 27 7 19-2 15-15 32-56 40-50 16-9 17 2 47 19 47 24 13 10 2 18-10 65-20 58v21l12 15 22 15 22 16 19 7 18-7 52-36 58-31 17-2 16 9 35 36 33 41 7 15-4 18-36 53-41 48-9 19 4 18 14 24 14 23 14 14 19 2 63-14 64-4 17 5 11 15 17 48 14 50-1 16-9 14-54 35-59 27-15 12-4 19 3 28 3 27 7 18 18 9 62 13 61 23 13 11 4 17-4 52-7 51-7 16-16 9-63 9-65 1-19 5-12 17-8 25-8 26v19l12 16 52 38 45 44 8 17-3 17-24 45-28 44-13 12-18 2-62-17-57-27-20-2-17 10-19 21-18 19-8 18 5 19 32 55 23 59v18l-9 15-42 31-42 29-17 6-17-6-49-41-42-47-18-12-20 2-25 13-24 10-15 13-3 21 6 62-3 65-7 15-15 10-51 11-50 10-17-3z" fill="#ffd100"></path></svg>