<?xml version='1.0' encoding='utf-8'?>
<svg xmlns="http://www.w3.org/2000/svg" viewBox="0 0 1891 2041" width="371" height="400"><path d="M1568 286q66 63 117 138t85.5 157.5 52 170.5 17.5 178q0 78-13.5 155.5T1785 1238q-24 69-64 136.5t-92 128.5-113 113-128 90q-98 56-213 85.5T940 1821q-59 0-117-7.5T708 1790q-77-21-151-56.5T416 1649t-125-110.5T188 1405q-66-106-102.5-227.5T50 924q0-124 33-244 22-83 65-163.5T249.5 365 379 234.5 529 134q91-50 200-76.5T950 31q57 0 111.5 7T1169 59q112 30 211 85t188 142zM960 576l-148-44v520l148-32V576zm195 400l136-29V676l-136-41v341zm-537 616q152 76 329 76 95 0 186.5-25t174-72 152-113.5 120-149 79-179T1687 926q0-101-26.5-195T1585 554.5 1467 404t-154-117-183.5-76T924 184q-163 11-300 74.5T379 452q-86 103-131 222.5T203 931q0 168 70 313.5T476 1501q15 12 33 24V395h109v28l969 287v213l-969 224v445z" fill="#000000"></path></svg>