<?xml version='1.0' encoding='utf-8'?>
<!-- Generator: Adobe Illustrator 22.1.0, SVG Export Plug-In . SVG Version: 6.00 Build 0)  --><svg xmlns="http://www.w3.org/2000/svg" xmlns:xlink="http://www.w3.org/1999/xlink" version="1.1" id="Ebene_1" x="0px" y="0px" viewBox="0 0 291 256" style="enable-background:new 0 0 291 256;" xml:space="preserve" width="454" height="400">
<polygon points="94.7,153.3 110.5,153.1 47.6,240.4 22.3,240.4 " fill="#ffffff"></polygon>
<polygon points="175.6,122.4 167.3,127.2 247.1,240.4 272.2,240.4 " fill="#ffffff"></polygon>
<rect x="137.3" y="203.2" width="19.8" height="37.3" fill="#ffffff"></rect>
<rect x="138" y="157.5" width="18.7" height="28.3" fill="#ffffff"></rect>
<g>
	<path d="M93.9,119.3c7.8-0.1,14.7-1.4,21-3.5l-10.8-25.7c-6.3,2-13.3,3.1-21.2,3.1L93.9,119.3z" fill="#ffffff"></path>
	<path d="M96.6,72.3l7.5,17.8c9.4-2.9,17.4-7.5,24.4-12.3l-7.4-18.7C114.1,64.1,106.1,69,96.6,72.3z" fill="#ffffff"></path>
	<path d="M122.6,134.3l-7.8-18.5c9.1-3,16.9-7.6,23.7-12.3l7.6,19.4C139.4,127.4,131.7,131.7,122.6,134.3z" fill="#ffffff"></path>
	<path d="M138.6,103.5l-10.1-25.7c2.9-2,5.7-4,8.4-5.9c4.1-3,8.7-6.3,13.7-9.5L160.8,88c-5.3,3.4-10.1,6.8-14.4,10   C143.9,99.8,141.3,101.7,138.6,103.5z" fill="#ffffff"></path>
	<path d="M168.6,107.2L160.8,88c7.2-4.6,15.5-9.3,25.3-13.7l7.6,18.9C183.9,97.7,175.7,102.5,168.6,107.2z" fill="#ffffff"></path>
	<path d="M175.8,48.6c-9.9,4.4-18.1,9.2-25.3,13.8L143,43.9c7.3-4.6,15.6-9.2,25.5-13.5L175.8,48.6z" fill="#ffffff"></path>
	<path d="M203.4,67.7l-10.3-25.8c-6.3,2.1-12.1,4.4-17.4,6.7l10.3,25.7C191.4,72,197.2,69.7,203.4,67.7z" fill="#ffffff"></path>
</g>
<g>
	<path d="M94.5,147.2L63.5,66.6l7.2-0.1c0.3,0,31-0.7,55-20.4c26.3-21.5,51.9-29.4,61.7-31.7l4.2-1l1.6,4   c2.9,7.1,26.4,67.8,27.4,70.3l2.2,5.6l-5.8,1.2c-0.3,0.1-29.5,6.2-51.8,24.4c-22.4,18.3-43,27-67,28.2L94.5,147.2z M77.9,76   l23.4,60.7c20.2-1.8,38-9.8,57.5-25.7c18.3-15,40.2-22.3,50.5-25.1c-5.2-13.4-18.6-48-23.7-60.7c-11.1,3.2-32,11-53.5,28.6   C112.3,70,89.2,74.6,77.9,76z" fill="#ffffff"></path>
</g>
<g>
	<path d="M249.7,178.6c-2,0-3.9-1.2-4.7-3.2l-33.6-83.6c-1-2.6,0.2-5.5,2.8-6.5c2.6-1,5.5,0.2,6.5,2.8l33.6,83.6   c1,2.6-0.2,5.5-2.8,6.5C250.9,178.5,250.3,178.6,249.7,178.6z" fill="#ffffff"></path>
</g>
</svg>