<?xml version='1.0' encoding='utf-8'?>
<svg xmlns="http://www.w3.org/2000/svg" viewBox="0 0 1936 2041" width="379" height="400"><path d="M907 459q0-15-3-32.5t-8.5-34.5-13-31.5T866 336q14-21 34.5-48t41.5-56l6-8q0 7 4.5 9.5T963 236q10 0 20.5-3.5T999 224q15 23 36.5 51t44.5 51q-24 25-37.5 62t-13.5 71H907zM580 245q-7 8-16 14t-24 6l-82-92q15-15 35.5-24t35.5-17q32-15 68.5-22.5T672 102q46 0 86.5 9t87.5 32q0 8 6 9t14 1l-82 112q-22-22-52.5-31.5T672 224q-23 0-46 6.5T580 245zm904 118q-6-7-11-13.5t-5-13.5l91-81q15 15 28.5 39t23 52.5 15 60 5.5 62.5q0 9-5 19.5t-14.5 20-23 15.5-29.5 6q-9 0-19.5-6t-19.5-15-15-19.5-6-20.5q0-31-1.5-55t-9.5-47zm-312-118q0 8-1.5 9t-9.5 1l-81-102q21-11 40.5-20.5t41-16T1208 106t55-4q38 0 75 7.5t68 22.5l82 41-102 92q-9-9-23.5-16.5t-31.5-13-35-8.5-33-3zM376 530q-16 0-29-6t-22.5-15-14.5-20-5-20q0-79 31-143 8-23 20.5-39.5T376 255l93 92q0 6-6 14-3 4-5 6-15 23-17.5 47t-2.5 55q0 10-6 21t-15 20-20 14.5-21 5.5zm1540 234l-519 806-42-10q-38-15-81-29t-81-22q-29 0-58-6t-57-12l-8-2H876q-31 7-66.5 13.5T744 1509q-38 8-77.5 22t-86.5 29l-51 10L20 764l61-30q100-46 200-82.5T489 591q100-23 205.5-38T907 530h122q82 9 159 20 33 5 68.5 10t69.5 10 65.5 10.5T1448 591q107 23 207 60t200 83zm-530 592q14-23 35.5-51.5t35.5-60.5q-32 0-63.5-12t-58.5-39q-8 15-21.5 24t-29.5 17q-16 15-32 17.5t-40 2.5q-10 0-22-1t-26.5-7-32.5-18-40-35q-13 13-29.5 24t-33 19.5-32.5 13-28 4.5q-21 0-38-5.5t-31-13.5-27-16.5-26-15.5l-51 31q-16 15-36 17.5t-36 2.5q-23 0-39.5-2.5T652 1234q-16-8-31-17t-30-24q-8 14-20.5 23.5T542 1232t-32.5 9-31.5 3q23 31 40.5 60.5t31 54.5 23.5 43 18 26q46-16 93-30t100-22q47-8 92.5-9t91.5-1 93 1.5 100 9.5q47 8 92.5 21.5t92.5 29.5q7-8 15.5-28.5t24.5-43.5zm306-479q15-15 24-30.5t17-31.5q-4-2-7.5-2.5t-7.5-2.5q-81-29-162.5-56.5T1386 704q-85-16-174.5-29T1029 662v62H907v-62q-93 0-182.5 13T550 704q-93 23-177.5 52T203 815q1 2 1.5 2.5t1.5 2.5q8 14 16 28.5t22 28.5q8 11 14 21t13 20.5l15 22.5 19 27q7 21 23 46t35.5 52.5 39.5 57 35 59.5h31q31 0 58-10t44-41l30-30 30 40q0 3 8.5 11.5t22 17 30 15.5 31.5 7 31.5-7 30-15.5 22.5-17 9-11.5l30-51 30 51q8 8 17 15.5t24 15.5q-8-8-9-10.5t-1-10.5v-92h122v113l41-41 21-30 30 40q5 5 14 13.5t21 17 26.5 14.5 29.5 6q12 0 26.5-4.5t28.5-11.5 26-16 21-19l21-40 30 30q10 20 24 30t30.5 15 33.5 5.5 34 .5h12q23-31 39.5-56.5t31.5-56.5q23-30 39.5-54t31.5-48q15-30 29-49t22-42zm-785 673h122v82q0 7-1 19.5t-9 20.5q-15 8-25.5 14t-25.5 6q-13 0-24-6.5t-19.5-15.5-13-19.5-4.5-18.5v-82zm0-724h122v123H907V826z" fill="#ffd100"></path></svg>