<?xml version='1.0' encoding='utf-8'?>
<!-- Generator: Adobe Illustrator 23.0.1, SVG Export Plug-In . SVG Version: 6.00 Build 0)  --><svg xmlns="http://www.w3.org/2000/svg" xmlns:xlink="http://www.w3.org/1999/xlink" version="1.1" id="Ebene_4" x="0px" y="0px" viewBox="0 0 291 278" style="enable-background:new 0 0 291 278;" xml:space="preserve" width="418.70505" height="400.0">
<style type="text/css">
	.st0{fill:none;stroke:#000000;stroke-width:9;stroke-miterlimit:10;}
</style>
<path d="M75.8,139c-11.7,0-23.2,3.1-33.3,9l-8-13.8l-9.1,34.4l30,1.9l-7.1-12.3c8.3-4.8,17.8-7.4,27.4-7.4c30,0,54.4,24.4,54.4,54.4  c0,30-24.4,54.4-54.4,54.4s-54.4-24.4-54.4-54.4c0-8.1,1.8-16,5.2-23.3l-10.6-5c-4.2,8.9-6.3,18.4-6.3,28.3  c0,36.5,29.7,66.2,66.2,66.2s66.2-29.7,66.2-66.2C142,168.6,112.3,139,75.8,139z" fill="#000000"></path>
<g>
	<path d="M81.2,215.8H49.3c-3.2,0-5.9-2.6-5.9-5.9s2.6-5.9,5.9-5.9h26v-36.5c0-3.2,2.6-5.9,5.9-5.9s5.9,2.6,5.9,5.9V210   C87.1,213.2,84.5,215.8,81.2,215.8z" fill="#000000"></path>
</g>
<g>
	<path d="M215.1,169.5c-23,0-41.8-18.7-41.8-41.8c0-23,18.7-41.8,41.8-41.8s41.8,18.7,41.8,41.8   C256.9,150.8,238.2,169.5,215.1,169.5z M215.1,97.7c-16.6,0-30.1,13.5-30.1,30.1c0,16.6,13.5,30.1,30.1,30.1   c16.6,0,30.1-13.5,30.1-30.1C245.2,111.2,231.7,97.7,215.1,97.7z" fill="#000000"></path>
</g>
<g>
	<rect x="98.1" y="86" width="57.4" height="11.7" fill="#000000"></rect>
</g>
<g>
	<polygon points="98.1,114.1 98.1,108.2 155.5,108.2 155.5,119.9 115.6,119.9  " fill="#000000"></polygon>
</g>
<g>
	<polygon points="138.5,130.4 155.5,130.4 155.5,142.2 145.5,142.2  " fill="#000000"></polygon>
</g>
<g>
	<path d="M170.8,187.4h98c2.9,0,5.2-2.3,5.2-5.2V75c0-2.9-2.3-5.2-5.2-5.2h-180c-2.9,0-5.2,2.3-5.2,5.2v34.8l-11.7-0.1V75   c0-9.3,7.6-16.9,16.9-16.9h180c9.3,0,16.9,7.6,16.9,16.9v107.2c0,9.3-7.6,16.9-16.9,16.9h-98V187.4z" fill="#000000"></path>
</g>
<g>
	<line class="st0" x1="162.6" y1="23.4" x2="177.9" y2="12.5" fill="#000000"></line>
</g>
<g>
	<line class="st0" x1="107.6" y1="62.6" x2="155.5" y2="28.5" fill="#000000"></line>
</g>
</svg>