<?xml version='1.0' encoding='utf-8'?>
<svg xmlns="http://www.w3.org/2000/svg" viewBox="0 0 2108 2041" width="413" height="400"><path d="M1934 372q27 0 51.5 12t43 33 29 49 10.5 60v650q0 32-10.5 60t-29 48.5-43 32.5-51.5 12q-28 0-53-12t-43.5-32.5-29-48.5-10.5-60V526q0-32 10.5-60t29-49 43.5-33 53-12zm-137 1253q0-28 10.5-52.5t29.5-43 43.5-29 53.5-10.5q27 0 51 10.5t42.5 29 29 43 10.5 52.5-10.5 52.5-29 43-42.5 29-51 10.5q-29 0-53.5-10.5t-43.5-29-29.5-43-10.5-52.5zM1142 533v-35H946V396h165q-6-11-14-25l-16-28H284q-11 14-17 28t-14 25h168v102H224q0 18 .5 46t3.5 60h629q-1-1-14 6t-31.5 18-39.5 24-39 25-29.5 20.5T693 707H331v114q0 14-11 21.5t-23 7.5H166q-14 0-23-9t-9-20V656q-5-6-7.5-23t-4-35-1.5-32v-14q0-36 2-61.5t6-44.5 8.5-32.5T148 389l3-9H74q-12 0-23-11t-11-21l26-66q0-7 10-18t33-11h104q33-35 59.5-71t55.5-70l3-6q8-10 15.5-20t20-18.5 32-15T450 44q9 0 29-1.5t44.5-2.5 51-2.5 49-3 38.5-2 20-.5q30 0 91.5 2.5T916 44q25 2 43.5 8t32 14 23 18 17.5 21l7 7q13 20 30 40.5t33 39.5 28.5 35 15.5 26h109q24 0 35.5 11t11.5 18l20 66q0 18-11.5 25t-20.5 7h-74q7 7 12 24.5t8.5 40 5 46 1.5 42.5h-21q-10 0-21.5-.5t-25.5-.5q-8 0-13.5.5t-10.5.5h-9zM342 253h681q-18-21-39-46.5T937 150q-29 0-61-1.5t-62.5-4-56-4T718 139h-99q-33 0-72.5 2.5T458 149q-8 0-19.5 2.5T422 154q-23 29-42 53.5T342 253zm778 1113q-14-14-20.5-31t-6.5-35q0-14 4-25l-209-209-30-92 92 31 207 209q5-2 13.5-3t16.5-1q18 0 34 7.5t28.5 20 19.5 29 7 35.5q0 38-26.5 64t-64.5 26q-37 0-65-26zm431-553q-69-51-150.5-81.5T1228 695v104h-86V695q-103 8-193 45.5T787 841l74 75-61 61-74-75q-63 75-101 164t-44 192h103v85H581q6 103 44 193t101 163l76-76 61 60-137 137q-54-48-97-106t-74-124-47.5-139-16.5-151q0-96 25-184.5T586 950t108.5-140.5 141-108.5 166.5-69.5 185-24.5q116 0 221.5 36T1602 745z" fill="#ffd100"></path></svg>