<?xml version='1.0' encoding='utf-8'?>
<svg xmlns="http://www.w3.org/2000/svg" viewBox="0 0 1900 2041" width="372" height="400"><path d="M20 1360V218h314q86 0 143.5 4t84.5 12q43 13 80 42.5t63 73 41 99.5 15 121q0 62-13.5 114T711 777.5 657 849t-66 46q-72 33-249 33H215v432H20zm195-948v324h108q53 0 87-3t57-10.5 38-21 30-33.5q24-39 24-95 0-60-26-98t-63-50q-20-6-59-9.5T310 412h-95zm800 667H893q-8 0-14.5.5t-11.5 4-8 11-3 21.5q0 55 13.5 105.5T906 1319l1 4q14 29 33 29 7 0 15-5l99-87q-19-34-29-71.5t-10-79.5v-30zm627 0v30q0 42-10 79.5t-29 71.5l100 87q7 5 14 5 18 0 33-29l1-4q47-92 52-203-2-28-13-32.5t-27-4.5h-121zm-313 249q33 0 61.5-13t49.5-35 33.5-51.5 12.5-63.5q0-33-12.5-62t-33.5-51.5-49.5-35.5-61.5-13-61.5 13-50 35.5-33.5 51.5-12 62q0 34 12 63.5t33.5 51.5 50 35 61.5 13zm0 253q77 0 145.5-23t128.5-66l9.5-9.5 4.5-11.5q0-8-6.5-17.5T1589 1430l-77-68q-38 29-84.5 44.5T1329 1422q-53 0-99.5-15.5T1145 1362l-77 68q-15 14-20.5 24t-6.5 17q0 8 4 12t10 9q59 43 127.5 66t146.5 23zm1-951q-72 0-138.5 21t-123 58T968 797t-71 112q-3 6-3 12 0 9 8 15.5t24 6.5h805q17 0 25-7t8-16q0-5-3-11-29-61-73-112t-100-88-121.5-58-136.5-21zm0 1028q-115 0-216-43.5T938 1496t-118-176-43-215 43-214.5T938 715t175.5-119 215.5-44q114 0 214.5 44T1719 715t118 175.5 43 214.5-43 215-118 176-175 118.5-214 43.5z" fill="#000000"></path></svg>