<?xml version='1.0' encoding='utf-8'?>
<!-- Generator: Adobe Illustrator 23.0.1, SVG Export Plug-In . SVG Version: 6.00 Build 0)  --><svg xmlns="http://www.w3.org/2000/svg" xmlns:xlink="http://www.w3.org/1999/xlink" version="1.1" x="0px" y="0px" viewBox="0 0 291 278" style="enable-background:new 0 0 291 278;" xml:space="preserve" width="418.70505" height="400.0">
<g id="Ebene_2">
</g>
<g id="Ebene_1">
	<path d="M202.5,164.9v-63.1h35v74.6c0,0,10.8,0.8,17.6,3.3V93c0-4.9-3.9-8.8-8.8-8.8H50.5c-4.9,0-8.8,3.9-8.8,8.8v119.8   c0,4.9,3.9,8.8,8.8,8.8h48.9C83.6,215.4,78.7,204,78.7,204H59.3V101.8h125.6V158C184.9,158,195.2,160.6,202.5,164.9z" fill="#000000"></path>
	<path d="M214.5,79.7V39.6c0-4.7-3.8-8.5-8.5-8.5H17.1c-4.7,0-8.5,3.8-8.5,8.5v115.6c0,4.7,3.8,8.5,8.5,8.5h19l0-17H25.6V48.1h121.2   v31.6h17V48.1h33.8v31.6L214.5,79.7z" fill="#000000"></path>
	<g>
		<path d="M259.6,184.7c16.1,5.5,27.6,14.8,27.6,27.6c0,22-33.8,33.5-67.3,33.5c-33.4,0-67.3-11.5-67.3-33.5    c0-22,33.8-33.5,67.3-33.5C234,178.8,248,180.8,259.6,184.7 M220,196.4c-32.8,0-49.6,11.2-49.6,15.9s16.9,15.9,49.6,15.9    c32.8,0,49.6-11.2,49.6-15.9S252.7,196.4,220,196.4z" fill="#000000"></path>
	</g>
	<g>
		<path d="M188,163.5c8.1,2.8,15,6.4,19.8,11c0,0-18.1,2.4-25.6,5.6c-8.2-2.7-19.5-5-33.9-5c-32.8,0-49.6,11.2-49.6,15.9    c0,4.8,16.9,15.9,49.6,15.9c0.3,0,0.6,0,0.9,0c0,0-3.1,7.3,2.1,17.6c-0.8,0.1-2,0-3,0c-33.4,0-67.3-11.5-67.3-33.5    c0-22,33.8-33.5,67.3-33.5C162.4,157.5,176.4,159.5,188,163.5" fill="#000000"></path>
	</g>
</g>
</svg>