<?xml version='1.0' encoding='utf-8'?>
<svg xmlns="http://www.w3.org/2000/svg" viewBox="0 0 1553 2041" width="304" height="400"><path d="M196 368V209h158v162q-17-2-34-2.5t-34-.5h-90zm-2 153q53 0 93 .5t64 2.5v165q-14-1-31-2t-34-1h-92V521zm267 27q-22-8-48-14.5t-59-9.5V371q31 2 57 6t50 9v162zm1052 81v775l-49-2h-3q-9 0-37-1t-66-1.5-79.5-1-77.5-.5q-23 0-43-7.5t-38-19.5-34.5-27-31.5-30l-10-9q-17-16-33-31t-35-26.5-40.5-18.5-48.5-7H615v599h-94V423h257q81 0 139 14t99.5 35 71 46 53.5 47q33 32 55.5 48t55.5 16h261zm-93 91h-167q-32 0-57-7.5t-46-19.5-38.5-28-34.5-33q-22-22-46.5-43T972 551.5t-81-27T778 514H615v615h273q42 0 76.5 11.5t62.5 28.5 50.5 37.5 40.5 38.5q27 29 46 44t37 15q27 0 56.5.5t59 1.5 56 1.5 47.5 1.5V720zm-743 36V597h126l33 2v160q-17-2-34-2.5t-34-.5h-91zm-2 154h94l66 2v165q-17-1-33.5-1H675V910zm693 26v155h-158l-10-3v161l-1-4q-12-7-30-23t-42-34.5-54.5-36.5-67.5-29V969q-29-20-69-35t-100-22V759q53 3 93.5 12t75.5 22v171q40 10 70 28t53.5 37 40.5 35 30 23h1V930l-1-6 1 1-1-1q-11-6-28.5-22t-41.5-35-55-37.5-69-29.5V641q38 11 68 28.5t53.5 35.5 41 34 31.5 25h1v161q11 7 20 9t22 2h126zm-337-697v174l-73-19v-64l-186 1q-32 0-57.5-7.5t-46.5-20-39-28.5-36-33q-21-21-45-42t-58-37.5-81-27T295 125H131v615h275q17 1 29 2t26 4v96q-27-8-55-8H131v597H40V33h255q82 0 139.5 14T534 82t71.5 46.5T660 177q16 16 29.5 27.5t25.5 19 25 11.5 30 4h261z" fill="#000000"></path></svg>