<?xml version='1.0' encoding='utf-8'?>
<!-- Generator: Adobe Illustrator 22.1.0, SVG Export Plug-In . SVG Version: 6.00 Build 0)  --><svg xmlns="http://www.w3.org/2000/svg" xmlns:xlink="http://www.w3.org/1999/xlink" version="1.1" id="Ebene_1" x="0px" y="0px" viewBox="0 0 291 256" style="enable-background:new 0 0 291 256;" xml:space="preserve" width="454" height="400">
<path d="M24.5,193h29c0,0,11.7-31.2,43.1-59.3s58.8-56.6,60.2-75.9c0-0.2-8.3,0-8.3,0s-4.9,20-20.7,33.2S32.8,164.8,24.5,193z" fill="#000000"></path>
<path d="M183.2,57.8c0,0,14.1,12.2,18,47.3s11.1,63.2,40.3,88c13.8,0,32.5,0,32.5,0s-35.3-19.5-49.2-49.4  c-13.9-29.9-13.2-51.6-19-65.1c-5.8-13.5-15.5-20.8-15.5-20.8H183.2z" fill="#000000"></path>
<path d="M132,193c0,0-0.9-15.2-0.2-24.2c0.1,0.1,21.7,0,21.7,0s1.1,15.5,2.5,24.2H132z" fill="#000000"></path>
<path d="M136,148.4c0,0,5.3-12.3,11.1-21.8c0,0.1,14.8,0,14.8,0s-4,12.5-6.3,21.7C155.5,148.4,136,148.4,136,148.4z" fill="#000000"></path>
<path d="M158.1,107.8H169c0,0,4.6-10.1,6.4-17.7h-8.4C166.9,90.1,165.1,95.9,158.1,107.8z" fill="#000000"></path>
<path d="M170.6,73.5c0,0-0.2-8.2-2-15.7h6.2c0,0,2.7,9.4,2.7,16.1C177.6,73.9,170.6,73.5,170.6,73.5z" fill="#000000"></path>
</svg>