<?xml version='1.0' encoding='utf-8'?>
<svg xmlns="http://www.w3.org/2000/svg" viewBox="0 0 3115 2041" width="610" height="400"><path d="M55 924q0-121 54-233t151.5-209.5 235-177.5T800 167t359-88.5T1558 47t398.5 31.5T2315 167t304 137 235 177.5T3005.5 691t53.5 233q0 89-29 174t-85.5 164-139.5 150.5-190 133.5q-106 62-228.5 109t-256.5 79.5-278 49-294 16.5q-304 0-574-65.5T500 1546q-108-61-191-133t-139.5-151T84 1098 55 924zm467 583q104 60 223.5 106t251 77.5 273 47.5 288.5 16 288-16 272-47.5 250.5-77.5 223.5-106q205-118 313.5-268T3014 924q0-115-52-221t-147-198.5-228-168-294.5-130-347.5-84T1558 93t-387.5 29.5-348 84-294.5 130-228 168T153 703t-52 221q0 165 108 315t313 268zm692-487V899h311v285q-22 23-57 43t-76 35-86 24-87 9q-83 0-150-26t-114.5-75-73-117.5T856 922q0-73 22-139.5t66-117 110.5-80.5 155.5-30q134 0 209 55.5t96 155.5l-143 26q-15-53-57-83t-103-30q-96 0-151.5 60T1005 917q0 65 15 112.5t42 79.5 64.5 47.5 83.5 15.5q23 0 46.5-5t46-13.5 42-19.5 34.5-23v-91h-165zm445-452h285q62 0 104 4.5t70.5 15.5 47 29.5T2200 664q22 40 22 83 0 52-26.5 92.5T2122 903q62 17 99 63t37 109q0 38-13 72.5t-36.5 62-57 46-75.5 22.5q-18 2-61.5 3t-112.5 3h-243V568zm143 118v166h96q53 0 88.5-2.5T2043 838t30-25.5 9-44.5q0-32-18.5-53.5T2009 689q-11-2-41.5-2t-82.5-1h-83zm0 284v192h134q45 0 70.5-1t40-4.5 22.5-10 19-17.5q21-22 21-61 0-27-8-45.5t-29.5-30.5-58-17-93.5-5h-118z" fill="#000000"></path></svg>