<?xml version='1.0' encoding='utf-8'?>
<!-- Generator: Adobe Illustrator 20.1.0, SVG Export Plug-In . SVG Version: 6.00 Build 0)  --><svg xmlns="http://www.w3.org/2000/svg" xmlns:xlink="http://www.w3.org/1999/xlink" version="1.1" id="Ebene_1" x="0px" y="0px" viewBox="0 0 529.5 400" style="enable-background:new 0 0 529.5 400;" xml:space="preserve" width="529.5" height="400.0">
<style type="text/css">
	.st0{fill:none;stroke:#1D1D1B;stroke-width:20;stroke-linecap:round;stroke-linejoin:round;stroke-miterlimit:10;}
</style>
<g>
	<line class="st0" x1="370.6" y1="352.9" x2="156.8" y2="352.9" fill="#000000"></line>
	<path class="st0" d="M81.9,352.9H41.8c-10,0-18.2-8.2-18.2-18.2V36c0-10,8.2-18.2,18.2-18.2h451.4c10,0,18.2,8.2,18.2,18.2v298.6   c0,10-8.2,18.2-18.2,18.2h-47.7" fill="#000000"></path>
	<line class="st0" x1="321.2" y1="94.2" x2="428.3" y2="94.2" fill="#000000"></line>
	<line class="st0" x1="321.2" y1="165.9" x2="428.3" y2="165.9" fill="#000000"></line>
	<line class="st0" x1="120.7" y1="317" x2="120.7" y2="388" fill="#000000"></line>
	<line class="st0" x1="410.6" y1="317" x2="410.6" y2="388" fill="#000000"></line>
	<circle class="st0" cx="189.1" cy="126.5" r="32.3" fill="#000000"></circle>
	<path class="st0" d="M120.7,264.7v-46.5c0-10,8.2-18.2,18.2-18.2H240c10,0,18.2,8.2,18.2,18.2V264" fill="#000000"></path>
</g>
</svg>