<?xml version='1.0' encoding='utf-8'?>
<!-- Generator: Adobe Illustrator 23.0.3, SVG Export Plug-In . SVG Version: 6.00 Build 0)  --><svg xmlns="http://www.w3.org/2000/svg" xmlns:xlink="http://www.w3.org/1999/xlink" version="1.1" id="Ebene_1" x="0px" y="0px" viewBox="0 0 772.7 345.7" style="enable-background:new 0 0 772.7 345.7;" xml:space="preserve" width="894.06995" height="400.0">
<path d="M420.2,178.6c0,6.6,0.2,14.6,0.7,23.9s1.4,19.2,2.8,29.5c1.4,10.3,3.6,20.9,6.4,31.5c2.8,10.6,6.5,20.6,11,30  c3.6,7.3,7.8,13.6,12.3,18.9s9.4,9.8,14.7,13.5c5.2,3.7,10.6,6.3,16,7.7c5.4,1.4,11.1,2.2,16.8,2.2c3.6,0,8-0.5,13-1.5  c5-1,10.3-3,15.8-6.2c5.5-3.1,11-7.6,16.5-13.4s10.4-13.5,14.9-23.2c3.5-7.4,6.6-15.8,9.3-25.2c2.7-9.4,4.9-19.3,6.6-29.7  c1.8-10.4,3.1-21.2,4.1-32.3s1.5-22.1,1.5-33c0-7.2-0.3-15.4-0.9-24.6s-1.6-19-3.1-29.1s-3.7-20.5-6.5-31  c-2.8-10.5-6.6-20.7-11.1-30.6c-3.9-8.6-8.4-15.6-13.4-21s-10.2-9.7-15.5-12.8c-5.3-3.1-10.7-5.2-15.9-6.4  c-5.3-1.1-10.1-1.7-14.4-1.7c-10.2,0-19.3,2.2-27.3,6.5S459.4,31,453.3,38.7S442.2,55.4,438,65.8c-4.2,10.4-7.6,21.8-10.3,33.9  c-2.7,12.1-4.6,25-5.8,38.3S420.2,164.9,420.2,178.6z M468.7,176.5c0-8.3,0.2-16.5,0.5-24.3c0.3-7.9,0.8-15.4,1.5-22.6  c0.7-7.2,1.6-13.7,2.9-19.7c1.3-6,2.9-11.1,4.7-15.4c2.9-7.2,6.3-12.8,10.3-16.8c4-4,8.4-6.1,13.4-6.1c6.3,0,11.9,3.9,16.8,11.6  c4.9,7.7,8.9,20,11.9,36.7c0.8,4.2,1.4,8.5,1.9,13s0.8,9,1,13.4c0.2,4.4,0.4,8.7,0.5,12.8c0.1,4.1,0.2,8,0.2,11.6  c0,11.9-0.3,22.2-0.8,30.9s-1.2,16.3-2.1,22.8c-0.9,6.5-1.9,11.9-3,16.4c-1.2,4.5-2.3,8.4-3.5,11.6c-5.6,16.3-13.3,24.6-23.2,24.6  c-3.1,0-5.9-0.6-8.2-1.8c-2.3-1.2-4.5-2.7-6.4-4.7c-1.9-2-3.5-4.2-4.9-6.7c-1.4-2.5-2.6-5.2-3.6-7.9c-2-5.1-3.6-10.8-5-17  c-1.4-6.3-2.4-12.9-3-19.8c-0.7-7-1.1-14.1-1.5-21.3C468.8,190.5,468.7,183.4,468.7,176.5z" fill="#000000"></path>
<path d="M610,331.3h44.4V128.7l47.7,202.6h57.3V18.7h-44v184.1L669.2,18.7h-59.3v312.6H610z" fill="#000000"></path>
<path d="M173.6,21c-19.1,0-37.1,3.3-54,9.9S87.5,46.7,74,58.4l214.2,214.2c11.8-13.5,20.9-28.6,27.4-45.6c6.5-16.9,9.8-35,9.8-54.2  c0-14-1.8-27.4-5.4-40.4c-3.6-12.9-8.7-25-15.3-36.3c-6.5-11.1-14.5-21.3-23.8-30.5s-19.5-17.1-30.8-23.7s-23.2-11.8-36.2-15.4  C201,22.8,187.5,21,173.6,21z M59.1,73.3c-11.8,13.5-20.9,28.6-27.5,45.6s-9.9,34.9-9.9,54c0,14,1.8,27.4,5.5,40.4  c3.7,12.9,8.8,25,15.4,36.3c6.6,11.2,14.5,21.5,23.7,30.7S85.7,297.4,97,304c11.2,6.6,23.3,11.7,36.3,15.4  c12.9,3.7,26.4,5.5,40.4,5.5c19.2,0,37.3-3.3,54.2-9.9s32.1-15.7,45.6-27.3L59.1,73.3z M295.8,50.6c16.5,16.5,29,35.2,37.7,56.1  c8.7,21,13,43,13,66.1c0,23.3-4.3,45.3-13,66.2s-21.3,39.6-37.7,56.1c-16.3,16.5-35,29-56,37.6s-43.1,12.9-66.3,12.9  c-23.1,0-45.2-4.3-66.1-12.9c-21-8.6-39.6-21.2-56-37.6c-16.5-16.5-29-35.1-37.7-56.1c-8.7-20.9-13-43-13-66.2  c0-23.1,4.3-45.2,13-66.1C22.4,85.7,35,67,51.4,50.6c16.3-16.3,35-28.8,56-37.5s43-13,66.1-13C196.8,0,218.9,4.3,239.9,13  S279.5,34.2,295.8,50.6z M211.6,184.8c3.7-5.4,6.8-11.3,9.5-17.7s5-12.6,6.9-18.5s3.4-11.1,4.4-15.7c1-4.6,1.8-7.6,2.2-9  c0.4-2.9,1.2-5.1,2.4-6.8c1.2-1.6,2.5-2.9,3.9-3.7c1.4-0.8,3-1.4,4.6-1.6s3.1-0.3,4.4-0.3c4.2,0,7.3,0.2,9.3,0.6s3,1.8,3,4.1  c0,0.9-0.4,4.2-1.1,9.8c-0.7,5.6-2,12.8-3.8,21.5S253,166,249.9,177s-7,22.3-11.7,34.1L211.6,184.8z M137.3,164.4  c1.2,1.2,2.6,2.6,4.4,4.3s3.5,3.4,5.3,5.2s3.4,3.5,5,5.1s2.8,2.9,3.7,3.8c-2.2,0-4,0-5.4,0.1s-2.6,0.2-3.6,0.4s-2,0.5-2.7,0.9  l-2.7,1.4l-2.9,2.4l-2.7,3l-2.6,2.6l-2.6,1.2c-1.4,0-2.5-0.8-3.1-2.4s-1-3.3-1-5.1c0-3.4,0.9-7.2,2.7-11.5  C130.7,171.6,133.5,167.8,137.3,164.4z M198.8,225.6c-0.8-0.1-1.9-0.2-3.3-0.2h-5.1c-2.9,0-6.2,0.1-10.1,0.2s-8,0.4-12.5,0.9  s-9.2,1-14.2,1.8s-10,1.7-15.1,2.8c-0.1-1.7-0.2-3.3-0.2-4.8v-4.4c0-5.6,0.3-10.4,1-14.3s1.7-7.1,3.1-9.4s3.3-4.1,5.7-5.1  s5.2-1.6,8.6-1.6c1.3,0,2.6,0.1,4,0.2c1.4,0.1,2.9,0.3,4.6,0.6L198.8,225.6z M207.7,234.4c3.7,3.7,7.6,7.6,12,11.9  c4.3,4.2,8.6,8.5,12.7,12.6l11.8,11.8l9.4,9.2c-0.7,2.6-1.8,4.6-3.4,6c-1.6,1.4-3.4,2.4-5.2,3c-2.1,0.8-4.3,1.2-6.7,1.4  c-20.9,0.1-39.9,0.2-57,0.2c-7.3,0-14.6,0-21.8,0.1s-13.8,0.1-19.7,0.1h-23.4c-2.5,0-4.5-0.2-6.1-0.7s-2.9-1.1-4.1-2s-2.2-1.9-3-3  c-0.8-1.2-1.7-2.5-2.6-3.9c-0.1-0.1-0.2-0.3-0.2-0.4s-0.1-0.3-0.2-0.4c-10.5-17-19.1-32.9-26.1-47.7c-6.9-14.8-12.5-29-16.8-42.4  c-4.2-13.5-7.3-26.4-9-38.8c-1.8-12.4-2.6-24.7-2.6-36.8c0-3,0.3-5.4,0.8-7.1s1.3-3,2.4-3.9c1-0.9,2.3-1.5,3.8-1.7s3.2-0.3,5.2-0.3  c3.9,0,7.1,0.2,9.4,0.7c2.4,0.5,4.1,1.1,5.4,2.1c1.2,0.9,2.2,2,2.7,3.2s1.2,2.7,1.9,4.4c0.3,0.9,0.7,2.9,1.2,6.1s1.5,7.1,3,12  c1.5,4.8,3.7,10.4,6.5,16.7s6.6,12.9,11.5,20c3.1,4.6,6.4,9.3,9.7,14.2s6.4,10,9.2,15.3s5.1,10.7,6.9,16.3s2.6,11.3,2.6,17.1  c0,2.5-0.2,4.9-0.5,7.3c-0.3,2.4-0.9,4.9-1.7,7.5c3.1-0.8,7.2-1.8,12.2-2.9c5-1.2,10.6-2.4,16.7-3.5c6.1-1.2,12.5-2.2,19.3-3  s13.6-1.3,20.4-1.3c2.2,0,4.5,0.1,6.8,0.2C203.2,233.9,205.4,234.1,207.7,234.4z M303.1,229.9c-2.5,0-4.6-0.7-6.5-2.1  c-1.8-1.4-3.5-3-4.9-4.8c-1.6-2-3-4.2-4.3-6.9c-0.1-0.5-0.8-1.8-2.2-3.7c-1.3-2-2.9-4.3-4.7-7.2c-1.8-2.8-3.8-5.9-5.9-9.4  c-2.1-3.5-4.1-7-5.9-10.5c-1.8-3.5-3.3-7-4.5-10.3s-1.8-6.4-1.8-9.1c0-6.4,1.9-13.5,5.7-21.2c2-3.9,3.9-7.3,5.7-10.1  s4.1-5.2,6.9-7.1c2.7-1.9,6.2-3.4,10.3-4.4s9.4-1.9,16-2.5c3.4,9.3,5.8,18.2,7.2,26.8s2.1,16.8,2.1,24.6c0,6.5-0.4,12.7-1.2,18.5  s-1.8,11.2-2.9,16.1c-1.2,4.9-2.4,9.3-3.8,13.1s-2.6,7.2-3.8,9.9L303.1,229.9z M218.8,127.4c2.1,1.2,3.1,3.6,3.1,7.3  c0,2.4-0.3,4.9-0.8,7.7s-1.4,5.9-2.6,9.3s-3,7.3-5.2,11.6s-5.1,9.2-8.6,14.7c-3-3.1-6-6.2-9.1-9.2s-6.7-6.6-10.9-10.8  c2.1-3.8,3.9-7.2,5.3-10.2c1.4-3,2.7-5.7,3.7-7.9s2-4.2,2.9-5.8s2-2.9,3.1-3.9c-2.9-1.4-5.2-3.5-6.9-6.2s-2.5-5.7-2.5-9.1  c0-4.7,1.6-8.7,4.9-12.1c3.3-3.3,7.3-5,12-5s8.7,1.7,12.1,5c3.3,3.3,5,7.3,5,12.1c0,2.5-0.5,4.8-1.5,7S220.5,125.8,218.8,127.4z" fill="#000000"></path>
</svg>