<?xml version='1.0' encoding='utf-8'?>
<!-- Generator: Adobe Illustrator 23.0.1, SVG Export Plug-In . SVG Version: 6.00 Build 0)  --><svg xmlns="http://www.w3.org/2000/svg" xmlns:xlink="http://www.w3.org/1999/xlink" version="1.1" id="Ebene_2" x="0px" y="0px" viewBox="0 0 291 278" style="enable-background:new 0 0 291 278;" xml:space="preserve" width="418.70505" height="400.0">
<g>
	<path d="M39.7,23h-35V10.4H90V23H54.8v102.6h-15V23z" fill="#000000"></path>
	<path d="M196.7,66.8c0,39.7-24.1,60.7-53.5,60.7c-30.4,0-51.8-23.6-51.8-58.5c0-36.6,22.7-60.5,53.5-60.5   C176.3,8.5,196.7,32.6,196.7,66.8z M107.3,68.7c0,24.6,13.3,46.7,36.8,46.7c23.6,0,36.9-21.7,36.9-47.9c0-22.9-12-46.8-36.8-46.8   C119.6,20.6,107.3,43.3,107.3,68.7z" fill="#000000"></path>
	<path d="M216,11.7c7.2-1.2,16.6-2.2,28.6-2.2c14.7,0,25.5,3.4,32.3,9.6c6.3,5.5,10.1,13.8,10.1,24.1c0,10.4-3.1,18.6-8.9,24.6   c-7.9,8.4-20.7,12.7-35.2,12.7c-4.4,0-8.6-0.2-12-1v46.2H216V11.7z M230.9,67.3c3.2,0.9,7.4,1.2,12.3,1.2c18,0,28.9-8.7,28.9-24.6   c0-15.2-10.8-22.6-27.2-22.6c-6.5,0-11.5,0.5-14,1.2V67.3z" fill="#000000"></path>
	<path d="M45.2,170.6h-0.3l-19.3,10.4l-2.9-11.5l24.3-13h12.8v111.1H45.2V170.6z" fill="#000000"></path>
	<path d="M174.1,211c0,37.8-14,58.6-38.6,58.6c-21.7,0-36.4-20.3-36.8-57.1c0-37.3,16.1-57.8,38.6-57.8   C160.8,154.7,174.1,175.6,174.1,211z M113.8,212.7c0,28.9,8.9,45.3,22.6,45.3c15.4,0,22.7-18,22.7-46.3c0-27.4-7-45.3-22.6-45.3   C123.3,166.4,113.8,182.4,113.8,212.7z" fill="#000000"></path>
	<path d="M278,211c0,37.8-14,58.6-38.6,58.6c-21.7,0-36.4-20.3-36.8-57.1c0-37.3,16.1-57.8,38.6-57.8C264.7,154.7,278,175.6,278,211   z M217.7,212.7c0,28.9,8.9,45.3,22.6,45.3c15.4,0,22.7-18,22.7-46.3c0-27.4-7-45.3-22.6-45.3C227.2,166.4,217.7,182.4,217.7,212.7z   " fill="#000000"></path>
</g>
</svg>