<?xml version='1.0' encoding='utf-8'?>
<!-- Generator: Adobe Illustrator 20.1.0, SVG Export Plug-In . SVG Version: 6.00 Build 0)  --><svg xmlns="http://www.w3.org/2000/svg" xmlns:xlink="http://www.w3.org/1999/xlink" version="1.1" id="Ebene_1" x="0px" y="0px" viewBox="0 0 548.5 400" style="enable-background:new 0 0 548.5 400;" xml:space="preserve" width="548.5" height="400.0">
<style type="text/css">
	.st0{fill:none;stroke:#1D1D1B;stroke-width:15;stroke-linecap:round;stroke-linejoin:round;stroke-miterlimit:10;}
	.st1{fill:#1D1D1B;stroke:#1D1D1B;stroke-width:8;stroke-linecap:round;stroke-linejoin:round;stroke-miterlimit:10;}
	.st2{fill:#1D1D1B;stroke:#1D1D1B;stroke-width:5;stroke-linecap:round;stroke-linejoin:round;stroke-miterlimit:10;}
	.st3{fill:none;stroke:#1D1D1B;stroke-width:16;stroke-linecap:round;stroke-linejoin:round;stroke-miterlimit:10;}
	.st4{fill:none;stroke:#1D1D1B;stroke-width:12;stroke-linecap:round;stroke-linejoin:round;stroke-miterlimit:10;}
</style>
<g>
	<g>
		<path class="st0" d="M136.6,303.6l-0.1,40.9H60.1c0,0-2.1-151.7,0-169.2c1.8-15.7,74.4-117.3,83.1-121s254.7-2,260.7,0.7    c6,2.6,87.2,108.6,89.4,120.6s0,165.5,0,165.5l-80.8,1.1l-1.2-37.2L136.6,303.6z" fill="#000000"></path>
	</g>
</g>
<path class="st1" d="M66.7,146.4c3.4-4.3,2.2-21.3-0.9-23c-3.7-2-13.7-5.6-26.2-0.7c-11.7,4.5-15.1,9.7-15.1,14.3s2.8,8.4,5.3,9.3  C33.7,147.7,63.2,150.9,66.7,146.4z" fill="#000000"></path>
<path class="st1" d="M483.2,144.4c-3.4-4.3-2.2-21.3,0.9-23c3.7-2,13.7-5.6,26.2-0.7c11.7,4.5,15.1,9.7,15.1,14.3s-2.8,8.4-5.3,9.3  C516.3,145.7,486.7,148.9,483.2,144.4z" fill="#000000"></path>
<path class="st2" d="M161.2,209.5c-0.6-2.9-15.9-18-21.3-19.8c-5.4-1.8-34.5-2.7-37-1.5c-2.4,1.2-4.8,27-2.1,28.5  c2.7,1.5,55.6,5.4,58,4.5C161.2,220.3,161.8,212.3,161.2,209.5z" fill="#000000"></path>
<path class="st2" d="M388.3,210c0.6-2.9,15.9-18,21.3-19.8c5.4-1.8,34.5-2.7,37-1.5c2.4,1.2,4.8,27,2.1,28.5s-55.6,5.4-58,4.5  C388.3,220.8,387.7,212.9,388.3,210z" fill="#000000"></path>
<line class="st3" x1="154" y1="216" x2="403.5" y2="216" fill="#000000"></line>
<path class="st4" d="M273.1,232.5L273.1,232.5c-3.1,0-5.6-2.5-5.6-5.6V204c0-3.1,2.5-5.6,5.6-5.6l0,0c3.1,0,5.6,2.5,5.6,5.6v22.9  C278.8,230,276.2,232.5,273.1,232.5z" fill="#000000"></path>
</svg>