<?xml version='1.0' encoding='utf-8'?>
<svg xmlns="http://www.w3.org/2000/svg" viewBox="0 0 2298 2041" width="450" height="400"><path d="M1053 722q27-17 96-62.5t181-99.5l35 58q-35 14-72.5 33t-74.5 40.5-70.5 44T1088 780zm-57 11v128q-57 30-104.5 63.5t-83.5 63-59 51.5-30 29l-12 11q-8 9-21.5 22t-23.5 13h-47q-43 5-90 11.5t-94.5 13T336 1151t-91 10q-34 8-45.5 23t-11.5 23q0 3-2.5 14.5t-5 26.5-5 33-2.5 35q0 14 1.5 27.5T188 1357h161v11q0 31 12 56.5t33 44 48.5 28.5 57.5 10 57-10 47.5-28.5 32.5-44 12-56.5v-23q104 0 207.5 2t196.5 4 170.5 4 130.5 2h323v23q0 30 12 55.5t32.5 44 48 28.5 57.5 10 57-10 47.5-28.5 32.5-44 12-55.5v-23h139l12-12q1-7 1.5-13.5t.5-14.5q0-52-15-100.5t-33-86-33-60l-15-22.5q0-1 .5-1.5t.5-1.5h-173q-7 0-13.5-6.5L1833 1024l-18-15.5-23-9.5q0-4-10.5-14t-30-24-47-31-61.5-35v-58q-3-11-27-20.5t-57-18-69.5-16T1423 768v-57q62 10 128.5 28.5t130.5 46 122 63.5 103 81q17 0 40-2.5t43-2.5q31 0 57 5.5t49 21 44.5 43.5 44.5 73q11 23 22.5 51.5t20.5 61 14.5 66.5 5.5 68q0 51-13.5 81.5t-35 46.5-47 21-49.5 5h-26q-16 0-19 3-11 27-32.5 54t-51.5 48-68 34-81 13q-74 0-134.5-40t-94.5-109q0-3-28-4t-81-1-129 1-172 1.5-210.5 1.5-244.5 1q-16 30-38 58.5t-50.5 50-63 34.5-75.5 13q-38 0-74-11t-67-31.5-55.5-49T269 1472H142q-26 0-42.5-11.5t-26-28.5-14.5-37.5-9-37.5q0-97 13-156t37-92 58-45.5 76-18.5q43-6 91.5-13.5t98.5-14 99-12 92-6.5q6 0 14.5-6t13.5-11l6-6q10-8 39-37t73-65 101-71.5T984 746z" fill="#000000"></path></svg>