<?xml version='1.0' encoding='utf-8'?>
<svg xmlns="http://www.w3.org/2000/svg" viewBox="0 0 1905 2041" width="373" height="400"><path d="M1693 163q20 40 20 87t-17.5 85.5T1649 401t-66 42-76 15-76-15.5-66.5-43-47-65.5-17.5-83q0-38 15.5-75t42.5-66 65-46.5 83-17.5q28 0 56.5 8.5t53 23.5 45 36.5T1693 163zm-110 43q-14-20-34-31t-43-11q-18 0-34 7t-28 19-19 28-7 34q0 17 7 33t19 28 28 19.5 33 7.5q18 0 34.5-7t28.5-19.5 19.5-29 7.5-35.5q0-25-12-43zm-53 338q26 4 48.5 17.5t39 33.5 26 44.5 9.5 50.5q0 18-3 31l-150 560q-13 58-45.5 107t-79 85-104 56.5T1151 1550q-16 0-31.5-1t-30.5-4l-312-60q-20-7-46-7-15 0-30 2.5t-27 10.5l-250 150q-19 12-38.5 24.5T346 1688t-41.5 16.5-44.5 6.5q-60 0-109.5-25T71 1609q-8-14-14-31t-6-33q0-21 12-38t32-28l263-162 236-140q37-23 74.5-38.5T751 1123h11l12 1 44 7 189 38q33 0 54-25l8-15 114-419q12-40 38-73t59.5-56.5 73-36.5 80.5-13q25 0 48.5 5t47.5 8zm-13 118q-22-3-43-7.5t-44-4.5q-22 0-43 7.5t-39 20-32 30-21 37.5l-112 413q-23 63-66.5 95.5T1016 1286h-15l-15-2-229-44q-7-2-13-2h-11q-32-1-58 13.5t-53 30.5l-256 151-180 111q-10 9-10 19 0 23 22 36.5t48 13.5q11 0 21-2t18-7l363-219q23-11 49.5-17t53.5-6q12 0 23.5 1.5t22.5 3.5l311 60q12 2 23.5 3.5t23.5 1.5q36 0 71-11t64.5-31.5 52.5-48.5 35-63l56-201 101-386q0-9-5-17.5t-13-11.5zm331 191q6 17 6 33 0 37-26 61.5t-60 24.5q-17 0-32.5-7t-27-19-18-27-6.5-31 6.5-31.5 17.5-28 27-20 35-7.5q23 0 45 14t33 38zm-80 281q10 17 10 42 0 18-7 33t-18 26-25.5 17.5-30.5 6.5-32-5.5-28.5-16.5-20.5-27-8-36q0-18 7-33.5t19-27 27.5-18 31.5-6.5q25 0 44.5 12.5t30.5 32.5zm-99 277q11 19 11 42 0 19-7.5 34.5T1653 1514t-27.5 17-30.5 6q-17 0-32.5-6.5t-27.5-18-19-27.5-7-35q0-15 6.5-30t18-27 27.5-19 34-7q22 0 42.5 12t31.5 32zm-175 214q15 23 15 51 0 37-26 59.5t-60 22.5q-18 0-33-7t-26.5-19-18-27.5-6.5-32.5q0-19 7.5-34.5t19.5-26.5 27.5-17 31.5-6q17 0 37.5 9.5t31.5 27.5zm-259 73q6 15 6 32 0 18-7 33.5t-18.5 27-27 18.5-33.5 7q-17 0-32.5-7t-27-19-18.5-27.5-7-32.5q0-34 24.5-59.5t61.5-25.5q26 0 47 14.5t32 38.5z" fill="#000000"></path></svg>