<?xml version='1.0' encoding='utf-8'?>
<!-- Generator: Adobe Illustrator 23.0.1, SVG Export Plug-In . SVG Version: 6.00 Build 0)  --><svg xmlns="http://www.w3.org/2000/svg" xmlns:xlink="http://www.w3.org/1999/xlink" version="1.1" id="Ebene_2" x="0px" y="0px" viewBox="0 0 291 278" style="enable-background:new 0 0 291 278;" xml:space="preserve" width="418.70505" height="400.0">
<g>
	<path d="M75.7,211.6H19.5c-8.6,0-14-5.4-14-14v-27.8c0-9.3,7.7-14.9,10-16.3c1.6-1,6.3-3.6,13.9-7.6c6-3.3,12.3-6.6,14.6-8   c0.9-0.5,1.6-1.6,1.8-2.9c0.4-2.1-0.3-4.6-2.1-7c-6.8-9.2-11.9-28.1,2.4-42.5c6.1-6.1,15.1-8.4,24.7-6.1c9.3,2.2,16.7,8,19,14.8   c3.3,10.2,3.1,25.4-0.7,36.1c-1.7,4.8-3.6,7.6-5,9.7c-1.4,2-1.7,2.5-1.7,4.2c0,4.9,0,4.9,4,9c3.3,3.4,8,7.9,11.7,11.5   c2.1,2.1,3.9,3.8,4.9,4.8c4.7,4.7,4.7,11.3,4.7,14.5v26.4H96v-26.4c0-2.5-0.2-5.1-1.3-6.2c-1-1-2.7-2.6-4.8-4.6   c-3.8-3.7-8.6-8.3-12-11.7c-6.1-6.3-7.3-9-7.3-17.1c0-5.3,2-8.2,3.8-10.8c1.2-1.8,2.5-3.6,3.6-6.9c2.9-8.3,3.2-20.9,0.6-28.7   c-0.8-2.4-5-5.8-10.5-7.1c-2.6-0.6-9.2-1.6-13.7,3C44.2,104,50,116.9,53,121c3.8,5.1,5.3,10.9,4.2,16.3c-0.9,4.5-3.6,8.4-7.3,10.7   c-2.5,1.5-8.9,4.9-15,8.2c-5.5,3-11.8,6.4-13.2,7.2c-2.1,1.3-4.5,3.8-4.5,6.4v27.8c0,1.3,0.2,1.9,0.3,2l0,0c0,0,0.5,0.3,2,0.3h56.2   V211.6z" fill="#000000"></path>
</g>
<g>
	<path d="M215.2,211.6H159c-8.6,0-14-5.4-14-14v-27.8c0-9.3,7.7-14.9,10-16.3c1.6-1,6.3-3.6,13.9-7.6c6-3.3,12.3-6.6,14.6-8   c0.9-0.5,1.6-1.6,1.8-2.9c0.4-2.1-0.3-4.6-2.1-7c-6.8-9.2-11.9-28.1,2.4-42.5c6.1-6.1,15.1-8.4,24.7-6.1c9.3,2.2,16.7,8,19,14.8   c3.3,10.2,3.1,25.4-0.7,36.1c-1.7,4.8-3.6,7.6-5,9.7c-1.4,2-1.7,2.5-1.7,4.2c0,4.9,0,4.9,4,9c3.3,3.4,8,7.9,11.7,11.5   c2.1,2.1,3.9,3.8,4.9,4.8c4.7,4.7,4.7,11.3,4.7,14.5v26.4h-11.7v-26.4c0-2.5-0.2-5.1-1.3-6.2c-1-1-2.7-2.6-4.8-4.6   c-3.8-3.7-8.6-8.3-12-11.7c-6.1-6.3-7.3-9-7.3-17.1c0-5.3,2-8.2,3.8-10.8c1.2-1.8,2.5-3.6,3.6-6.9c2.9-8.3,3.2-20.9,0.6-28.7   c-0.8-2.4-5-5.8-10.5-7.1c-2.6-0.6-9.2-1.6-13.7,3c-10.1,10.2-4.4,23.2-1.3,27.3c3.8,5.1,5.3,10.9,4.2,16.3   c-0.9,4.5-3.6,8.4-7.3,10.7c-2.5,1.5-8.9,4.9-15,8.2c-5.5,3-11.8,6.4-13.2,7.2c-2.1,1.3-4.5,3.8-4.5,6.4v27.8c0,1.3,0.2,1.9,0.3,2   l0,0c0,0,0.5,0.3,2,0.3h56.2V211.6z" fill="#000000"></path>
</g>
<g>
	<path d="M244.2,90.3c0.7,0.1,2.2,0.3,3,0.5c5.6,1.3,9.7,4.6,10.5,7.1c2.5,7.7,2.3,20.3-0.6,28.7c-1.2,3.4-2.4,5.2-3.6,6.9   c-1.8,2.6-3.8,5.5-3.8,10.8c0,8.1,1.2,10.9,7.3,17.1c3.4,3.5,8.2,8.1,12,11.7c2.1,2,3.8,3.7,4.8,4.6c1.1,1.1,1.3,3.6,1.3,6.2v26.4   h11.7v-26.4c0-3.2,0-9.7-4.7-14.5c-1-1-2.8-2.7-4.9-4.8c-3.8-3.6-8.5-8.1-11.7-11.5c-4-4.1-4-4.1-4-9c0-1.7,0.3-2.2,1.7-4.2   c1.4-2.1,3.3-4.9,5-9.7c3.7-10.8,4-26,0.7-36.1c-2.2-6.8-9.7-12.6-19-14.8c-4.6-1.1-9-1.1-13.1-0.2   C236.8,79.1,240.8,82.7,244.2,90.3z" fill="#000000"></path>
</g>
<path d="M150.7,125.6h-15.4v-15.4c0-3.9-3.1-7-7-7s-7,3.1-7,7v15.4h-15.4c-3.9,0-7,3.1-7,7c0,3.9,3.1,7,7,7h15.4v15.4  c0,3.9,3.1,7,7,7s7-3.1,7-7v-15.4h15.4c3.9,0,7-3.1,7-7C157.7,128.8,154.6,125.6,150.7,125.6z" fill="#000000"></path>
</svg>