<?xml version='1.0' encoding='utf-8'?>
<svg xmlns="http://www.w3.org/2000/svg" viewBox="0 0 3115 2041" width="610" height="400"><path d="M55 924q0-121 54-233t151.5-209.5 235-177.5T800 167t359-88.5T1558 47t398.5 31.5T2315 167t304 137 235 177.5T3005.5 691t53.5 233q0 89-29 174t-85.5 164-139.5 150.5-190 133.5q-106 62-228.5 109t-256.5 79.5-278 49-294 16.5-294.5-16.5-279-49-256.5-80T500 1546q-108-61-191-133t-139.5-151T84 1098 55 924zm467 583q104 60 223.5 106t251 77.5 273 47.5 288.5 16 288-16 272-47.5 250.5-77.5 223.5-106q205-118 313.5-268T3014 924q0-115-52-221t-147-198.5-228-168-294.5-130-347.5-84T1558 93t-387.5 29.5-348 84-294.5 130-228 168T153 703t-52 221q0 165 108 315t313 268zm604-223V689H914V568h568v121h-212v595h-144zm449 0V568h303q60 0 100.5 4.5t68.5 15 46.5 27T2128 656t24.5 52.5 7.5 59.5q0 81-47 133t-142 67q25 15 43.5 28.5t35.5 32 36 45.5 45 69l87 141h-173l-105-156q-27-43-44.5-68t-30-38.5-22-19-21.5-9.5q-24-9-74-9h-29v300h-144zm144-414h107q55 0 86-2t47-6.5 22.5-12T1995 831t11.5-24 4.5-30q0-33-19.5-57.5T1938 692q-10-2-36-2.5t-71-.5h-112v181z" fill="#000000"></path></svg>