<?xml version='1.0' encoding='utf-8'?>
<svg xmlns="http://www.w3.org/2000/svg" viewBox="0 0 2185 2041" width="428" height="400"><path d="M235 931h291q21 0 55.5-6.5t67-27.5 56-59.5T728 734t-23.5-104-56-60-67-27.5T526 536H235v395zM50 1634V388h432q34-3 67-3 76 0 142.5 20t116 62.5T885 576t28 158q0 98-36.5 164T779 1004.5 637.5 1062 469 1079H235v555H50zm1048-913v13q0 75-15 137.5t-41.5 113-62.5 90-78 67.5l-62-63q36-27 68-62t55-78 36.5-94 13.5-111q0-9-1.5-11t-10.5-2h98zm222 0v13q0 101-19.5 187t-54 156-81.5 123-103 89l-62-62q46-37 86.5-85.5t70.5-110 47.5-135.5 17.5-162v-13h98zm209 0q0 135-23.5 244.5t-65 199T1343 1324t-121 125l-74-61q65-51 119.5-116t93.5-146 61-178.5 22-213.5v-13h85zm-48 913h629q10 0 17.5-9t7.5-28l-25-86h-641l-13 74q-10 0-11 6t-1 25q0 18 37 18zm309-913v111l-124 494h259l-123-481zm-235 704l184-765q0-18 16.5-34t34.5-16 35 16 25 34l186 765h-481z" fill="#000000"></path></svg>