<?xml version='1.0' encoding='utf-8'?>
<svg xmlns="http://www.w3.org/2000/svg" viewBox="0 0 2057 2041" width="403" height="400"><path d="M1786 695q-85-48-175-77t-193-29q-16 2-31.5 3t-29.5 6q-28 69-44.5 148T1296 904q0 81 16.5 157t44.5 147q17 5 36 6t37 1q91 0 172.5-26t159.5-65q30-15 58.5-37.5t51-50.5 36-60 13.5-67q0-72-38-124.5t-97-89.5zm-686-170l-126 41q-62-38-122-61t-135-23-145 28.5-129.5 77T339 700t-66 136q-20 63-32.5 128.5T217 1096l-19 135-27 287h1101l-10-120 114 12 16 212v9H51l8-130 15-170 18-154 19-133q10-54 20.5-109T158 827t38.5-103 56.5-95q42-60 94-108t112-82 126.5-52T722 369q35 0 70.5 4.5T864 388q131 38 236 137zm712 86q41 24 76.5 54.5t62 67.5 41.5 79.5 15 90.5q0 81-36.5 141.5t-92 104T1758 1221t-123 47q-48 15-99.5 24t-103.5 9q-18 0-39.5-1t-42-5-37.5-12.5-25-23.5l-11-20q-30-79-47.5-163T1210 901q3-91 20.5-174.5T1279 562q7-22 24.5-34t38.5-17 43-6 39-1q107 0 203 31.5t185 75.5zm-668 107L795 832h-1q47 44 76 94h5l251-82q1 0 1-1-1 16-1.5 31t-.5 30v15q0 6 1 14l-223 72q7 28 13.5 55.5T928 1117l209-68 8 42 9 42-211 68 15 112 228-73q8 20 15.5 39.5t21.5 36.5l-1 2-248 79-19 3H305l23-181 21-123q7-36 16-71.5t23.5-68.5 35.5-63 51-56q35-31 75.5-51t87.5-20q29 0 59 9l470-153q-6 24-12 47t-11 49z" fill="#ffd100"></path></svg>