<?xml version='1.0' encoding='utf-8'?>
<!-- Generator: Adobe Illustrator 23.0.1, SVG Export Plug-In . SVG Version: 6.00 Build 0)  --><svg xmlns="http://www.w3.org/2000/svg" xmlns:xlink="http://www.w3.org/1999/xlink" version="1.1" id="Ebene_2" x="0px" y="0px" viewBox="0 0 291 278" style="enable-background:new 0 0 291 278;" xml:space="preserve" width="418.70505" height="400.0">
<g>
	<path d="M61.2,258.7c-9.3,0-17.9-2.2-24.6-6.4C18.4,240.9,6.1,232.6,6,232.5c-4.1-2.8-5.3-8.4-2.5-12.5c1.3-1.9,31.1-47,37.6-56   c1.4-2,3.5-3.3,5.9-3.7c2.4-0.4,4.8,0.2,6.8,1.6c6.4,4.6,14.4,6.5,21.8,5.2c6.1-1.1,11.1-4.2,14.2-8.7c10.8-16.1,20.6-31,32.1-50   c4.7-7.8,4.2-15.3,2.9-20.1c-2-7.6-7.3-14.7-13.9-18.3c-2.1-1.2-3.7-3.2-4.3-5.5c-0.6-2.3-0.3-4.8,0.9-7l29.5-51.2   c1.2-2.1,3.2-3.6,5.6-4.3c2.3-0.6,4.8-0.3,6.9,0.9c0.5,0.3,11.8,6.9,28.1,17.3c20.2,12.9,35.9,53.3,14.7,87.4   c-8.9,14.2-25.1,39.8-40.8,64.5c-17.1,26.9-33.2,52.2-38.8,61.4c-6.7,10.9-20.1,19.6-36,23.3C71.3,258.1,66.2,258.7,61.2,258.7z    M23.6,222.4c5.3,3.5,13.2,8.6,22.7,14.5c6.1,3.8,15.8,4.7,26,2.3c10.9-2.6,20.6-8.5,24.7-15.1c5.7-9.3,21.8-34.7,39-61.6   c15.7-24.7,31.9-50.2,40.7-64.3c15.7-25.1,3.1-54.7-9-62.5c-8-5.1-14.8-9.3-19.6-12.3l-20.7,36.1c7.2,6.3,12.6,14.8,15.1,24.2   c3.1,11.8,1.4,23.7-5,34.2c-11.7,19.3-21.7,34.4-32.5,50.7c-5.8,8.7-15.1,14.5-26.1,16.5c-9.3,1.7-19,0.3-27.6-3.7   C43.6,192.4,30.7,211.8,23.6,222.4z" fill="#000000"></path>
</g>
<path d="M239.9,204c19.3-18.2,25.1-28.8,28.3-37.6c3-8.1,2.2-23.9,2.1-25.7c-0.2-3.4-3-6.1-6.5-6.1h-64c-3.4,0-6.3,2.7-6.5,6.1  c-0.1,1.8-0.9,17.5,2.1,25.7c3.2,8.8,8.9,19.4,28.3,37.6c-7.5,4.7-21.7,16.1-27.7,38.3c-2.1,7.7-1.7,24.6-1.7,26.5  c0.1,3.5,3,6.3,6.5,6.3h61.9c3.5,0,6.4-2.8,6.5-6.3c0-1.9,0.4-18.9-1.7-26.5C261.7,220.2,247.4,208.7,239.9,204z M207.8,161.9  c-1.1-3-1.5-9-1.5-14.4h51.3c0,5.3-0.4,11.4-1.5,14.4c-1.8,4.9-5,13.7-24.2,31.8C212.8,175.6,209.5,166.8,207.8,161.9z M242.3,262.2  c-0.3-11.5-2.2-29.4-10.4-29.4c-8.5,0-11,18.4-11.4,29.4h-13.1c0.1-6.2,0.4-13.3,1.3-16.5c5.3-19.6,18.4-28.6,23.3-31.4  c4.9,2.8,18,11.8,23.3,31.4c0.9,3.2,1.2,10.3,1.3,16.5H242.3z" fill="#000000"></path>
</svg>