<?xml version='1.0' encoding='utf-8'?>
<svg xmlns="http://www.w3.org/2000/svg" viewBox="0 0 3115 2041" width="610" height="400"><path d="M55 924q0-121 54-233t151.5-209.5 235-177.5T800 167t359-88.5T1558 47t398.5 31.5T2315 167t304 137 235 177.5T3005.5 691t53.5 233q0 89-29 174t-85.5 164-139.5 150.5-190 133.5q-106 62-228.5 109t-256.5 79.5-278 49-294 16.5q-304 0-574-65.5T500 1546q-108-61-191-133t-139.5-151T84 1098 55 924zm467 583q104 60 223.5 106t251 77.5 273 47.5 288.5 16 288-16 272-47.5 250.5-77.5 223.5-106q205-118 313.5-268T3014 924q0-115-52-221t-147-198.5-228-168-294.5-130-347.5-84T1558 93t-387.5 29.5-348 84-294.5 130-228 168T153 703t-52 221q0 165 108 315t313 268zm360-939h285q58 0 98.5 4t69.5 14.5 49.5 29T1423 664q22 37 22 83 0 51-28 93t-73 63q63 17 99 62.5t36 109.5q0 38-12 72.5t-35 62-56.5 46-76.5 22.5q-18 2-61.5 3t-112.5 3H882V568zm143 118v166h94q54 0 89.5-3t57-12 30-25.5 8.5-43.5q0-36-22.5-57.5T1208 689q-16 0-41-.5t-59-2.5h-83zm0 284v192h134q43 0 68-1t40-4 24-9.5 20-18.5q11-11 15-26.5t4-34.5q0-27-7.5-45.5t-28-30.5-57.5-17-96-5h-116zm911 50V899h311v285q-23 23-57.5 43t-76 35-86 24-87.5 9q-80 0-146.5-25.5T1679 1196t-75-117-27-157q0-75 23-142t68-117 111.5-79 153.5-29q133 0 208.5 57.5T2237 766l-144 26q-14-54-57-83.5T1933 679q-94 0-150.5 60T1726 917q0 64 15 112t42 79.5 65 47.5 84 16q45 0 90.5-18.5t77.5-42.5v-91h-164z" fill="#000000"></path></svg>