<?xml version='1.0' encoding='utf-8'?>
<!-- Generator: Adobe Illustrator 24.0.2, SVG Export Plug-In . SVG Version: 6.00 Build 0)  --><svg xmlns="http://www.w3.org/2000/svg" xmlns:xlink="http://www.w3.org/1999/xlink" version="1.1" id="Ebene_1" x="0px" y="0px" viewBox="0 0 439.8 400" style="enable-background:new 0 0 439.8 400;" xml:space="preserve" width="439.8" height="400.0">
<g>
	<path d="M272.1,339.4c91.7,0,166.2-74.6,166.2-166.2C438.2,81.2,363.6,6.7,272,6.7c-77.4,0-142.5,53.1-161,124.7l21.3,5.9   C148.3,75,204.9,28.7,272.1,28.7c19.2,0,37.5,3.8,54.3,10.6c0.9,14-10.1,25.7-11.2,26.3c-1.1,0.6-9-0.2-11.4-1.3   c-2.4-1.1-9.8-6.4-13.9-7.2c-4.2-0.8-12.6,3.5-16.3,4.3c-3.7,0.8-1.8,8.6,0.2,10.6c1.9,1.9,10.7,1.8,14.1,1.8s6.9,3.8,5.9,6.7   c-1,2.9-8,4.5-10.7,4.8s-19.2,1-27.2,1.3s-6.2,7.4-6.9,8.5c-0.6,1.1-5.1,1-8.2-0.5c-3-1.4-12.5,0.2-15.4,3.2s-2.2,9.1-1.4,12.2   c0.8,3,7.5,11.2,11.2,11s5.9-4.8,7.7-8.6c1.8-3.8,8.6-4.5,12.6-4.6c4-0.2,7.4,5.6,9.1,8.3c1.8,2.7,8.5,4.6,11.7,4.6   s7.5,0.2,9.9-1.8c2.4-1.9,11.8-11.7,14.7-15.2c2.9-3.5,12.5,0.2,16.2,0.6c3.7,0.5,4.6,7.8,3.7,11.7c-1,3.8-8.3,6.1-11.7,7.4   c-3.4,1.3-11.5,10.4-11.4,12.6c0.2,2.2,2.9,7.2,5.6,5.4c5-3.4,9.8-1.8,11.5,0.2c1.8,1.9,1.8,7.2,3.7,12.5c1.9,5.3,7.2,9.3,9.9,12.2   c2.7,2.9,12.5,7,16.3,6.6s14.1-1.8,14.9-7.4c0.8-5.6-5.9-10.4-16.2-14.7c-10.2-4.3-11.8-8.3-15.5-14.4c-3.7-6.1,6.6-5.4,10.3-7.5   c3.8-2.1,16.7-0.2,19.6,2.1c2.9,2.2,16.5,7.2,21.3,7.4s5.1,3.2,6.1,6.6c1,3.4,7.2,13.1,9.3,19.7c2.1,6.6,3.4,10.7,4.5,10.9   s5.8-0.5,6.4-2.5s1.4-22.1,2.9-24.7c0.6-1.1,3.2-0.9,5.7-0.8c1.5,8.3,2.3,16.8,2.3,25.5c0,79.5-64.7,144.2-144.2,144.2   c-4.7,0-9.4-0.2-14.1-0.7L272.1,339.4z" fill="#000000"></path>
	<path d="M196.4,167.9c0,4.8,6.7,6.2,7.9,14.9c1.2,8.6,14.2,8.4,27.3,8.9c12.7,0.5,12.2,7,13,12.3s1.4,7.6,4.8,9.3   c3.4,1.7,5,9.6,4.6,17.8c-0.5,8.2,4.1,19.4,12.2,31.7c8.2,12.2,15.1,12.7,22.8,12c7.7-0.7,13.2-15.4,16.6-21.3   c3.4-6,15.8-14.4,16.8-19.4s-1.7-8.9-4.6-11.5s4.3-5.5,7-8.9c2.6-3.4,13.2-12.7,13.4-19.9c0.2-7.2-21.8-10.1-24.9-10.1   s-5.8-9.4-6.5-11.5c-0.7-2.2-4.8-7.9-7.4-9.4c-2.6-1.4,0.7-19.4-2.4-21.1c-3.1-1.7-22.3-0.5-28.5-0.7s-13.4,2.4-14.2-2.6   c-0.7-5-4.6-7.9-8.6-7.9c-4.1,0-7.4,0-9,6.7c-1.5,6.7-15.3,3.4-28.7,5.8C194.5,145.1,196.4,163.1,196.4,167.9z" fill="#000000"></path>
	<path d="M354.6,238.4c-1.9-0.6-10.4,1.8-12.5,3.8c-2.1,2.1-5.5,12.9,0,14.6c5,1.4,16.8-1.1,17.6-3.5c0.8-2.4,0.2-6.2,0.6-8.3   C360.8,242.9,356.5,239,354.6,238.4z" fill="#000000"></path>
	<path d="M242.9,65.2c3.5-3.4,16.7-6.2,22.7-9c6.1-2.7,5.1-11.7,1.6-13.1c-3.5-1.4-12.5-1-19.3,1c-6.9,1.9-28.5,10.3-32.1,18.2   c-1.9,4.2,4.3,6.9,9.4,7.5C230.3,70.5,239.4,68.5,242.9,65.2z" fill="#000000"></path>
</g>
<path d="M126.5,198.4L225,370.1H29.3L126.5,198.4 M126.5,178.4C126.5,178.4,126.4,178.4,126.5,178.4c-7.2,0-13.9,3.9-17.4,10.2  L11.9,360.3c-3.5,6.2-3.5,13.8,0.1,19.9s10.2,9.9,17.3,9.9H225c7.1,0,13.7-3.8,17.3-10c3.6-6.2,3.6-13.8,0-20l-98.5-171.8  C140.3,182.2,133.6,178.4,126.5,178.4L126.5,178.4z" fill="#000000"></path>
<g>
	<circle cx="125.8" cy="348" r="12.3" fill="#000000"></circle>
</g>
<g>
	<path d="M138.1,312.6c0,6.8-5.5,12.3-12.3,12.3c-6.8,0-12.3-5.5-12.3-12.3v-62.2c0-6.8,5.5-12.3,12.3-12.3   c6.8,0,12.3,5.5,12.3,12.3V312.6z" fill="#000000"></path>
</g>
</svg>