<?xml version='1.0' encoding='utf-8'?>
<svg xmlns="http://www.w3.org/2000/svg" viewBox="0 0 1435 2041" width="281" height="400"><path d="M50 1673h1335v149H50v-149zm239-451l-59-150-31-76q-11-11-12.5-24t-1.5-36q0-21 7-36.5t7-37.5l121-196q15-17 15-29v-15l-60-241h-76q-11 0-5.5-9t5.5-20L335 51q4-10 16 0l118 301q12 11 12 20t-12 9h-44l60 226v46q0 21-10 35.5T455 726L351 922q-16 18-16 29l16 16 29 105 60 150 15 45q10 23 12 36.5t2 23.5q0 23-7 38t-7 38l-90 149-135-76 75-134 15-15q0-10-7.5-20t-23.5-85zm857-150l45 150 28 45q0 23 8 36.5t8 23.5q0 23-10 38t-19 38l-76 149-135-76 75-134v-45l-30-75-60-165-15-61q-11-11-13-24t-2-36q0-21 2-36.5t13-37.5l120-196v-44l-60-241h-60q-11 0-11-9t11-20l120-301q16-10 16 0l134 301q0 11 5.5 20t-5.5 9h-60l60 226v46q0 21-2 35.5t-14 37.5l-104 196q-10 0-12 9t-2 20v16zM725 967l30 105 60 150 14 45q12 23 14 36.5t2 23.5q0 23-2 38t-14 38l-90 149-134-76 75-134q11 0 13-7.5t2-37.5l-29-75-61-165-30-61q0-11-8-24t-8-36q0-21 10-36.5t21-37.5l120-196v-44l-60-241h-60q-11 0-13-9t-2-20L710 51q15-10 15 0l135 301v29h-60l60 226v46q0 21-2 35.5T845 726L725 922v45z" fill="#000000"></path></svg>