<?xml version='1.0' encoding='utf-8'?>
<svg xmlns="http://www.w3.org/2000/svg" viewBox="0 0 1983 2041" width="389" height="400"><path d="M1916 1652q9 15 13 28t4 23q0 48-84 48H128q-78 0-78-41 0-20 19-54L935 161q32-52 60-52 29 0 60 52zM995 392L302 1597h1391zm171 434q0 31-21.5 53t-53.5 22q-31 0-53-22t-22-53 22-53 53-22q32 0 53.5 22t21.5 53zm-265 344q15 25 27 44 11 17 20 31.5t12 17.5q8 10 10.5 20t2.5 22v202q0 12-3 21.5t-23 9.5q-11 0-19.5-4.5t-15-11-10-13.5-3.5-13v-167q0-16-9-32t-21.5-30.5T843 1238t-20-26q-42 77-75 139-14 27-28 52.5t-25.5 46.5-19.5 35.5-10 17.5q-7 12-18 23.5t-25 11.5q-19 0-26.5-13t-7.5-24 3.5-20.5 6.5-15.5q2-3 11.5-21t24-45 32.5-60.5 36-68.5q43-81 97-181zm94 367l159-180-151-126q-5 12-15 12-11 0-17.5-4.5T960 1227t-5-14-1-12l1-10-47-39q-2 2-3 3.5t-2 3.5-1 3l-100-80q1-1 2-3l5-10-48-40q0 2 .5 5t.5 8q0 10-4 19t-18 9q-10 0-16-4.5t-9-12-4-16-1-16.5.5-15 .5-9q0-12 7-28t17-31.5 20-29 16-21.5q8-10 24.5-20t35.5-10h173q-2 0-2 2 0 3 5.5 11t12 16.5 12.5 15 7 6.5v-1 37q0 17-1 40t-2 49q0 9-4 26.5t-9 36-9 34.5-4 23q-1 17-1 24v15l168 139 61-68q11-10 24-18 11-7 25.5-13t31.5-6 30.5 6 23.5 13q11 8 21 18l215 274H995zM767 990l58 48 51-107q0-6-5.5-11t-22.5-5q-16 0-29 8t-23.5 19.5T778 967t-11 23zm181 81q-2 4-9 18.5t-15 30.5l31 26v-1q0-4 2.5-15t6.5-22q4-13 9-29v-2q0-1 .5-2t.5-3q0-4-2.5-8.5T961 1059q-7 0-13 12z" fill="#000000"></path></svg>