<?xml version='1.0' encoding='utf-8'?>
<!-- Generator: Adobe Illustrator 23.0.1, SVG Export Plug-In . SVG Version: 6.00 Build 0)  --><svg xmlns="http://www.w3.org/2000/svg" xmlns:xlink="http://www.w3.org/1999/xlink" version="1.1" id="Ebene_4" x="0px" y="0px" viewBox="0 0 291 278" style="enable-background:new 0 0 291 278;" xml:space="preserve" width="418.70505" height="400.0">
<path d="M276,138.9L245.4,107V15.1c0-7.2-5.8-13.1-13.1-13.1h-42.8c-7.2,0-13.1,5.8-13.1,13.1v16.7L152.3,11  c-5.3-4.6-13.2-4.2-17.9,0.8L12.8,138.9c-2.4,2.5-3.6,5.7-3.6,9V257c0,7.2,5.8,13.1,13.1,13.1h82.6c7.2,0,13.1-5.8,13.1-13.1v-79.4  h53V257c0,7.2,5.8,13.1,13.1,13.1h82.6c7.2,0,13.1-5.8,13.1-13.1V147.9C279.6,144.6,278.4,141.4,276,138.9z M253.3,244h-56.4v-79.4  c0-7.2-5.8-13.1-13.1-13.1h-78.9c-7.2,0-13,5.8-13,13.1V244H35.5v-90.8L144.4,38.8L181,70.1c3.9,3.3,9.3,4.2,13.9,1.9  c4.6-2.1,7.6-6.8,7.6-11.8v-32h16.7v84.1c0,3.3,1.3,6.5,3.6,9l30.4,31.8V244z" fill="#000000"></path>
</svg>