<?xml version='1.0' encoding='utf-8'?>
<svg xmlns="http://www.w3.org/2000/svg" viewBox="0 0 2056 2041" width="403" height="400"><path d="M1565 1632H183q-30 0-56-11.5t-45.5-31T51 1544t-11-56V637q0-30 11-56t30.5-45.5 45.5-31 56-11.5h1405q30 0 56 11.5t45.5 31 31 45.5 11.5 56v851q0 30-11.5 56t-31 45.5-45.5 31-56 11.5h-23zm0-167V659H206v806h1359zm303-1108H532v-21q0-27 10-50t27-40 40-27 50-10h1229q27 0 50 10t40.5 27 27.5 40 10 50v746q0 26-10 49t-27.5 40.5-40.5 27.5-50 10h-20V357z" fill="#000000"></path></svg>