<?xml version='1.0' encoding='utf-8'?>
<!-- Generator: Adobe Illustrator 23.0.3, SVG Export Plug-In . SVG Version: 6.00 Build 0)  --><svg xmlns="http://www.w3.org/2000/svg" xmlns:xlink="http://www.w3.org/1999/xlink" version="1.1" id="Ebene_1" x="0px" y="0px" viewBox="0 0 929.4 323.6" style="enable-background:new 0 0 929.4 323.6;" xml:space="preserve" width="1148.8257" height="400.0">
<path d="M63.3,6.6L5.1,319.8h45.1L61.9,250h50.4l11.2,69.8h47L114.1,6.6H63.3z M87.8,107.7l13.9,82.3h-29L87.8,107.7z" fill="#000000"></path>
<path d="M219.7,7.2v48h-42.1v-48H219.7z M219.7,319.8h-42.1V101h42.1V319.8z" fill="#000000"></path>
<path d="M283,101.8V130h0.4c2-6.2,4.3-11.5,7-15.6s5.8-7.5,9.1-10c3.3-2.5,6.9-4.2,10.7-5.3c3.8-1,7.9-1.6,12.2-1.6V152  c-6.1-0.5-11.3-0.2-15.5,1s-7.7,3-10.5,5.4c-2.8,2.4-5,5.3-6.5,8.8c-1.6,3.4-2.7,7.1-3.4,10.8s-1.1,7.7-1.3,11.7  c-0.1,4-0.2,7.8-0.2,11.3v118.7h-42V101.8H283z" fill="#000000"></path>
<path d="M546.5,114c0-16.7-1.6-31.9-4.8-45.6c-3.2-13.7-7.7-25.5-13.4-35.2c-5.7-9.7-12.5-17.2-20.2-22.6c-7.8-5.3-16.4-8-25.9-8  c-12,0-22.8,3.9-32.3,11.8c-9.6,7.9-17.7,18.9-24.4,33.1c-6.7,14.2-11.9,31.4-15.4,51.5s-5.4,42.5-5.4,67.1  c0,12.9,0.5,25.7,1.6,38.5c1,12.8,2.8,24.9,5.4,36.5c2.5,11.5,5.7,22.3,9.6,32.2c3.8,10,8.7,18.6,14.5,25.9s12.5,13,20.1,17.2  c7.6,4.2,16.3,6.3,25.9,6.3c4,0,8.2-0.5,12.6-1.6c4.4-1,8.8-2.9,13.2-5.6c4.4-2.7,8.7-6.3,12.8-10.8s8-10.4,11.8-17.6  c3.4-7.2,6.1-14.4,8.2-21.7c2.1-7.3,3.6-14.4,4.7-21.4c1-7,1.7-13.7,2.1-20.1c0.3-6.4,0.7-12.2,1.1-17.3h-48.5  c-0.3,9.8-1,18.2-2.2,25.4c-1.2,7.2-2.9,13-4.9,17.6c-2,4.6-4.2,7.9-6.6,10.2c-2.4,2.2-4.9,3.3-7.5,3.3c-4.3,0-7.9-2-10.7-5.9  c-2.9-3.9-5.3-9-7.2-15.1s-3.5-13.1-4.6-20.7c-1.1-7.6-1.9-15-2.3-22.1c-0.5-7.1-0.7-13.6-0.8-19.4s-0.1-10.2-0.1-13.1  c0-14.6,0.6-28.3,1.7-41s2.8-23.9,5-33.4s5.1-17,8.7-22.5c3.6-5.5,7.9-8.2,12.8-8.2c2.7,0,5.1,1,7,3.1c2,2.1,3.6,4.8,4.9,8  c1.3,3.3,2.4,7,3.3,11.1s1.6,8.2,2.1,12c0.5,3.8,0.9,7.4,1.1,10.7c0.2,3.3,0.4,5.7,0.5,7.4H546.5z" fill="#000000"></path>
<path d="M680.4,277.8c0,6.8,0.2,13.6,0.7,20.3c0.5,6.8,0.9,13.6,1.3,20.3h-38.9l-1.8-28.9h-0.6c-4.6,11.3-10,19.7-16.2,25.1  c-6.3,5.4-13.9,8.1-23.1,8.1c-7.3,0-13.5-1.8-18.6-5.5s-9.2-8.6-12.3-15s-5.4-13.7-6.8-22.2c-1.4-8.5-2.2-17.5-2.2-27  c0-12,1-22.2,3-30.6c2-8.4,4.8-15.4,8.4-20.9s7.8-9.9,12.6-13c4.8-3.1,10.1-5.4,15.8-6.9c5.7-1.5,11.8-2.4,18.2-2.6  c6.4-0.3,12.8-0.3,19.4-0.2V162c0-4.7-0.2-9-0.6-12.8s-1.2-7.2-2.3-10.1c-1.2-2.9-2.9-5.1-5.1-6.6c-2.2-1.6-5.2-2.3-9-2.3  c-3.6,0-6.5,0.9-8.6,2.7c-2.1,1.8-3.7,4.3-4.8,7.3c-1.1,3.1-1.8,6.6-2.1,10.7c-0.3,4-0.4,8.2-0.4,12.5h-41.1c0-13.3,1.3-24.2,4-32.8  c2.7-8.6,6.5-15.4,11.4-20.3c4.8-5.2,10.6-8.9,17.2-11c6.6-2.2,14-3.2,22.1-3.2c13.3,0,23.9,2,31.9,5.9s14,9.2,18.3,15.8  c4.2,6.6,7,14.4,8.2,23.3c1.2,8.9,1.9,18.2,1.9,28.2V277.8z M603,250.6c0,3.9,0.2,7.9,0.5,12c0.3,4.1,1,7.8,2.1,11.1  c1,3.3,2.6,6.1,4.7,8.2c2.1,2.2,4.8,3.2,8.2,3.2c4,0,7.4-1.2,10.1-3.7s4.8-5.7,6.4-9.8c1.6-4,2.7-8.6,3.3-13.8  c0.7-5.1,1.1-10.4,1.3-15.7c0.2-5.3,0.2-10.6,0.1-15.6c-0.1-5.1-0.2-9.6-0.2-13.5c-5.2,0.3-10,0.6-14.5,0.9s-8.3,1.6-11.5,3.7  c-3.3,2.2-5.8,5.7-7.6,10.8S603,240.8,603,250.6z" fill="#000000"></path>
<path d="M745.5,101.8V130h0.4c2-6.2,4.3-11.5,7-15.6c2.7-4.2,5.8-7.5,9.1-10c3.3-2.5,6.9-4.2,10.7-5.3c3.8-1,7.9-1.6,12.2-1.6V152  c-6.1-0.5-11.3-0.2-15.5,1s-7.7,3-10.5,5.4c-2.8,2.4-5,5.3-6.5,8.8s-2.7,7.1-3.4,10.8c-0.7,3.8-1.1,7.7-1.3,11.7  c-0.1,4-0.2,7.8-0.2,11.3v118.7h-42V101.8H745.5z" fill="#000000"></path>
<path d="M837.6,217.9c0,6.5,0.1,13.6,0.4,21.1c0.3,7.5,1,14.5,2.3,21.1c1.2,6.5,3.1,12,5.7,16.3c2.5,4.3,6.1,6.5,10.7,6.5  c3.8,0,6.9-1.2,9.2-3.5c2.4-2.4,4.2-5.4,5.5-9.1c1.3-3.7,2.2-7.9,2.6-12.5c0.5-4.6,0.7-9.2,0.7-13.8h42.5  c-0.4,24.2-5.7,43.1-16.1,56.8c-5,6.8-11.1,12-18.5,15.7s-16,5.5-26,5.5c-13.6,0-24.4-2.8-32.5-8.5c-8.1-5.7-14.3-13.7-18.5-24  c-4.2-10.3-7-22.6-8.3-36.8c-1.3-14.2-2-29.9-2-47c0-9.9,0.2-19.6,0.7-28.9c0.5-9.3,1.4-18.1,2.8-26.4s3.5-15.8,6.3-22.6  c2.7-6.9,6.4-12.7,11-17.6s10.2-8.7,16.8-11.4c6.6-2.7,14.5-4,23.8-4c14.2,0,25.5,3.1,33.8,9.4s14.6,14.9,18.8,26  c4.2,11,6.9,24.1,7.9,39.2c1,15.1,1.4,31.4,1,48.9H837.6z M876,183.6c0-5.2-0.1-10.8-0.2-16.9c-0.1-6-0.8-11.6-2-16.7  s-3.1-9.3-5.8-12.7c-2.7-3.4-6.5-5.1-11.5-5.1c-4.8,0-8.6,1.8-11.2,5.4c-2.6,3.6-4.5,8-5.7,13.3c-1.2,5.3-1.8,10.9-2,16.8  c-0.1,5.9-0.2,11.2-0.2,15.9H876z" fill="#000000"></path>
</svg>