<?xml version='1.0' encoding='utf-8'?>
<svg xmlns="http://www.w3.org/2000/svg" viewBox="0 0 3115 2041" width="610" height="400"><path d="M55 924q0-121 54-233t151.5-209.5 235-177.5T800 167t359-88.5T1558 47t398.5 31.5T2315 167t304 137 235 177.5T3005.5 691t53.5 233q0 89-29 174t-85.5 164-139.5 150.5-190 133.5q-106 62-228.5 109t-256.5 79.5-278 49-294 16.5-294.5-16.5-279-49-256.5-80T500 1546q-108-61-191-133t-139.5-151T84 1098 55 924zm467 583q104 60 223.5 106t251 77.5 273 47.5 288.5 16 288-16 272-47.5 250.5-77.5 223.5-106q205-118 313.5-268T3014 924q0-115-52-221t-147-198.5-228-168-294.5-130-347.5-84T1558 93t-387.5 29.5-348 84-294.5 130-228 168T153 703t-52 221q0 165 108 315t313 268zm738-456l141-14q24 138 156 138 69 0 104.5-29t35.5-71q0-22-7-36t-26.5-25-55.5-21-93-24q-68-17-112-38.5t-70-48.5-36.5-58.5T1286 755q0-43 18-79.5t51.5-63.5 82-42 109.5-15q135 0 202.5 59.5T1822 773l-144 6q-11-59-41.5-81.5T1546 675q-25 0-47.5 4.5t-39 13.5-26 22-9.5 31q0 14 6 25.5t23 22.5 47.5 21.5T1579 837q75 18 125.5 39t81 48.5 43.5 64 13 85.5q0 48-18.5 89t-54.5 70.5-89.5 46T1555 1296q-136 0-208-62t-87-183z" fill="#000000"></path></svg>