<?xml version='1.0' encoding='utf-8'?>
<svg xmlns="http://www.w3.org/2000/svg" viewBox="0 0 1978 2041" width="388" height="400"><path d="M881 963l14-232h153l16 232H881zm23-352l13-217h110l14 217H904zm20-317l8-135h81l8 135h-97zm253-127l761 1311h-288L1083 167h94zM313 949l454-782h95L524 949H313zm938 446q-35 75-96 137t-141 106-174.5 68-196.5 24q-94 0-184-23t-168-65-140.5-101T48 1410l-8-15v-30l8-13q35-63 92.5-124t134-109 170-77.5T643 1012q101 0 195.5 24t174.5 68 141.5 105.5T1251 1346l6 12v25zm-748-25q0 28 11.5 52.5t31.5 43 46 29 56 10.5q31 0 57.5-10.5t46-29 30.5-43 11-52.5-11-52-30.5-42-46-28.5T648 1237q-30 0-56 10.5t-46 28.5-31.5 42-11.5 52zm-340 12q33 49 80.5 90t105 71.5 122.5 49 133 21.5q-45-7-84.5-29t-68-54.5-45-73.5-16.5-87 16-86.5 44.5-73 68-54T604 1127q-75 6-142.5 29.5t-124 58.5-101 78.5T163 1382zm535 232q73-6 140-25.5t124-51 102-73 73-92.5q-29-51-74-93t-102-74-123.5-52-139.5-26q45 8 83.5 30.5t67 54.5 44.5 72.5 16 85.5-16 86-44.5 73-67 54.5T698 1614z" fill="#000000"></path></svg>