<?xml version='1.0' encoding='utf-8'?>
<!-- Generator: Adobe Illustrator 20.1.0, SVG Export Plug-In . SVG Version: 6.00 Build 0)  --><svg xmlns="http://www.w3.org/2000/svg" xmlns:xlink="http://www.w3.org/1999/xlink" version="1.1" id="Ebene_1" x="0px" y="0px" viewBox="0 0 400 400" style="enable-background:new 0 0 400 400;" xml:space="preserve" width="400.0" height="400.0">
<style type="text/css">
	.st0{fill:#FFFFFF;stroke:#1D1D1B;stroke-width:15;stroke-miterlimit:10;}
	.st1{fill:#1D1D1B;stroke:#1D1D1B;stroke-width:0.25;stroke-miterlimit:10;}
</style>
<circle class="st0" cx="201.7" cy="196" r="174.7" fill="#808080"></circle>
<g>
	<path class="st1" d="M266.1,298.8c-1.2-1.8-0.7-7.6,2.1-10.8c2.7-3.2,4.2-5,6.2-7.8c1.9-2.8,6.2-4.2,8.5-5.8   c2.3-1.6,9.2-5.5,10.8-2.3c1.6,3.2,1.3,9.4,0.9,11c-0.4,1.7-3.6,6.1-5.1,8.5c-1.6,2.4-4.9,3.8-9.9,6.2c-5,2.4-6,3-6,3   S267.3,300.7,266.1,298.8z" fill="#808080"></path>
	<path class="st1" d="M121.3,79.9c-1.4-2.5,1.3-12.6,7.3-15.9c6-3.3,20.2-6.9,23.8-8.6c4.4-2,4.6-11.3,10.6-11.9   c6-0.7,31.1-1.3,32.4,0c1.3,1.3-1.3,14.5-6,17.8c-4.6,3.4-6.6,6.7-9.9,8c-3.3,1.3-5.6-1.4-12.9,2s-3.9,6.2-10.7,9.5   C149.1,84.1,122.7,82.5,121.3,79.9z" fill="#808080"></path>
	<path class="st1" d="M147.3,146.9c-3.9,1.7-3.6,9-6.7,10.6c-3.1,1.6-19,0-26.2,4.7c-4.3,2.8-2.7,12.4-2.7,14.4s-6.2,5-6.2,5.4   c0,0.4,1.8,11,4.3,11.9c1.2,0.5,3.5,2.2,5,4.3c1.6,2,1.6,15.4,9,17.3c10.3,2.7,32.7,1.5,34.5,3.4c2.3,2.4-0.8,25.6,3.1,29.1   c3,2.7,9.3,3.9,10.1,5c0.8,1.2-2.2,29.4,0,34.9c2.3,5.8,8.5,5,8.5,7c0,1.9-0.4,10.4,3.9,12.8c4.6,2.6,9,2.5,11.7,3.2   c2.7,0.7,2,6.7,4.8,7.1c2.9,0.4,13.3-1.4,14.9-2.1s4.3-6.2,5-8.5c0.8-2.3,7.8-13.2,7.8-15.9c0-2.7,15.4-9.4,18.6-17.7   c2.5-6.5-4.6-14.1-4.6-21.5c0-7.4,17.5-15.1,19.4-19.2s8.1-13.8,9.4-15.3c1.3-1.6-18.5-2.3-24.3-6.2s-14.9-8.4-18.4-13.4   c-3.5-4.9-5.5-10.4-5.8-13.1c-0.6-4.5,1.6-21.4,3.9-21.4c2.3,0,12.1,3.8,12.8,6.5c0.8,2.7,3.9,15.7,10.5,20.7   c6.6,5,9.2,16.6,13.9,15c4.7-1.6,19.1-8.6,20.3-12c1.2-3.4,3.9-11.6,2.3-13.9c-1.6-2.3-13.2-3.9-16.3-4.7s-9.7-6.2-12.4-9.3   c-2.7-3.1-9.3-15.5-7-16.3c2.3-0.8,18.6-4.3,22.9,0c4.3,4.3,8.7,9.3,13.3,8.9c4.6-0.4,5.6,6.2,9.2,7.4c3.6,1.2,19.1-0.8,19.9,1.2   c0.8,1.9,3.9,5.8,4.3,8.9c0.4,3.1,0.6,18.8,2.6,22c1.9,3.2,7.9,4.8,11,2.4c3.1-2.3,3.9-6.2,3.9-11.3s-1.6-11.3,0-14.8   c1.6-3.5,1.6-6.6,4.3-7c2.7-0.4,7.8,0.4,8.2-3.5s1-22.5,0-29.1c-0.8-5.4-8.5-32.4-30.2-53.3c-22.9-22-40.2-30.2-44.8-31   c-4.7-0.8-18.9-2.3-20.5,1.2c-1.6,3.5-3.1,14.4-4.7,16.3c-1.6,1.9-7.8,1.9-10.1,4.7c-2.3,2.7-2.7,7-6.2,7s-3.5-8.2-8.9-8.9   c-5.4-0.8-20.1-2.3-23.8,0.8s1.3,5-4.7,7s-9.8,2.1-12.6,4c-1,0.6-1.3,4.9,1.7,7c2.1,1.4,7,0.5,8.8,0.3c4.3-0.4,6.8,4.2,10.6,3.8   c1.8-0.2,3.9-4.5,6.9-5c2.4-0.4,4.4,3,4.8,4.2c0.7,1.9-11.2,2.4-14.4,5.8c-1.4,1.4-1,6.6-5.7,6c-4.2-0.5-10.7-3.9-14.2-1.6   c-3.5,2.3-8.5,0.8-11.6,1.6c-3.1,0.8-12-2.3-11.6,0.4c0.3,2.7,1.9,6.2-3.1,7.4c-5,1.2-13.6,0.8-15.1,3.5   c-1.6,2.7-1.9,14.8-0.4,17.5c1.6,2.7,5.5,10,9.8,7.7c4.3-2.3,14.3-9.6,14.3-11.9s0-4.7,0-4.7s-2.7-3.9,0.4-4.3   c3.1-0.4,7.8-1.9,10.5,0s5.8,3.9,5.8,5.4c0,1.6-1.6,10.1,0.8,12.4s6.6,2.7,8.9,2.3c2.3-0.4,11,0.4,12.1-0.8s-0.5-10.5,5.4-9.3   c5.8,1.2,12.8-1.6,12.8-1.6s1.6-6.2,3.9-6.2s13.2-2.7,14.4,0.4s3.5,11.6,1.2,14.4c-2.3,2.7-10.7,3.5-11.8,4.3   c-1.1,0.8-4.6,4.7-6.9,6.2c-2.3,1.6-7,3.9-7,6.2s-1.2,5.8-3.9,5.8c-2.7,0-29.3,0.7-32.4-2.4c-3.1-3.1,0.9-6.1-6.5-7.7   C164.1,148.2,151.2,145.1,147.3,146.9z" fill="#808080"></path>
</g>
</svg>