<?xml version='1.0' encoding='utf-8'?>
<svg xmlns="http://www.w3.org/2000/svg" viewBox="0 0 729 2041" width="143" height="400"><path d="M266 1194q0 50 2 107.5t11.5 107.5 29 83 54.5 33q29 0 47-18t28-46.5 13.5-64 3.5-70.5h217q-3 185-82 290-38 52-94.5 80T363 1724q-104 0-166-43.5T102.5 1558 60 1370t-10-240q0-76 3.5-147.5T68 848t32-115.5 56-90 85.5-58T363 564q109 0 172.5 48t96 132.5 40.5 200 5 249.5H266zm196-175q0-40-1-86t-10-85-29.5-65-58.5-26q-37 0-57 27.5t-29 68-10 85.5-1 81h196z" fill="#000000"></path></svg>