<?xml version='1.0' encoding='utf-8'?>
<svg xmlns="http://www.w3.org/2000/svg" viewBox="0 0 2776 2041" width="544" height="400"><path d="M1723 1485l406-480-553 146-130-146H704v480h1019zM224 888l335 88V831l-291-74zm946-174v146h335l115 131 947-248 159 161-102 101-101-101-131 28-596 699H559v-509L50 991l115-422 539 145v146h321V714H879V569h436v145h-145zm1425 408q0-10 9.5-20t19.5-10q11 0 20.5 10t9.5 20q0 43 12 90.5t46 113.5q10 10 12 21t2 22q0 44-29 73t-73 29q-43 0-72-29t-29-73q0-11 7-22t7-21q22-32 33.5-60.5t17.5-53 6.5-46.5.5-44z" fill="#e4002c"></path></svg>