<?xml version='1.0' encoding='utf-8'?>
<svg xmlns="http://www.w3.org/2000/svg" viewBox="0 0 1954 2041" width="383" height="400"><path d="M1527 501q0 44-12 84t-33.5 74.5-52 62T1363 768v127q0 22-1 44.5t-6 45.5-15.5 45-30.5 42q-22 21-46.5 32.5T1215 1121t-47 6-42 1H40V856h1050v-88q-36-19-66-46.5t-51.5-62T939 585t-12-84q0-62 23.5-117t64-95.5 95-64T1225 201q63 0 118 23.5t96 64 64.5 95.5 23.5 117zm258 450q-3 135-54 258-54 124-149 221-97 97-221 149-129 54-271 54h-9v134l-269-221 269-222v125q3 1 9 1 104 0 196-39t161.5-107 110.5-158.5 43-194.5h-129l221-269 221 269h-129z" fill="#000000"></path></svg>