<?xml version='1.0' encoding='utf-8'?>
<svg xmlns="http://www.w3.org/2000/svg" viewBox="0 0 1949 2041" width="382" height="400"><path d="M40 153V43h1849v110h-440q-8 94-48.5 176T1294 472t-152 96-183 35q-93 0-177-35t-149.5-96T524 329t-54-176H40zm540 10q11 71 45 133t84.5 108T824 476.5 959 503q75 0 142.5-26.5t120-73.5 86-111 41.5-139zM430 343l50 80-380 210-40-90zm60 619l-90-59 220-350 80 50zm410-299h99v419h-99V663zm359-80l190 359-80 50-200-359zm150-150l50-90 340 200-50 90zm-180 869l210 520h-90l-70-170h-210l-70 170h-80l210-520h100zm40 300l-60-150q-30-45-30-90h-10q0 23-11 45t-19 45l-60 150h190zm-979-30q38 8 56.5 36.5T379 1682q16 53 29.5 89t21.5 51h-90q-8-15-16.5-46t-23.5-84-41-76.5-79-23.5h-80v230H20v-520q38 0 76.5-5t83.5-5q60 0 103.5 13.5T350 1342q30 15 40 38.5t10 61.5q0 45-32.5 80t-77.5 50zm-100-30q60 0 95-27.5t35-72.5q0-32-15.5-50t-44-27-69.5-11-91-2v190h90zm1599 30q38 8 60 36.5t30 73.5q15 53 28.5 89t21.5 51h-90q0-15-12.5-46t-27.5-84q-8-53-37.5-76.5T1679 1592h-80v230h-70v-520q30 0 71-5t79-5q68 0 108.5 14t71.5 36q23 16 31.5 39t8.5 61q0 45-32.5 80t-77.5 50zm-100-30q60 0 100-27.5t40-72.5q0-32-17.5-50t-48.5-27-73-11-91-2v190h90zM600 1762h260v60H520v-520h330v50H600v170h230v60H600v180z" fill="#000000"></path></svg>