<?xml version='1.0' encoding='utf-8'?>
<svg xmlns="http://www.w3.org/2000/svg" viewBox="0 0 1875 2041" width="367" height="400"><path d="M408 1475q-19-45-36-83.5t-26-75.5q-19-47-28-85t-9-75L50 1291v-123l284-161q8-37 25.5-73.5T396 859q8-37 15.5-73t7.5-74q0-29-7.5-62T396 589L50 785V651l309-161q-10-27-21-53t-20-52-15-51.5-6-53.5q0-46 9-76t28-59q8-18 18-30.5T371 83q8-8 18-19t19-29h147q-65 73-100.5 131.5T419 280q0 28 16 65t34 83l333-197v123L506 527q37 95 37 185 0 46-15.5 98.5T493 909l309-172v122l-369 210v74q0 38 7.5 68.5T456 1279q10 28 25.5 63t24.5 73l296-173v123l-259 147v62q0 47-8 77.5t-17 58.5q-18 28-37.5 51t-47.5 60H297v-12q18-18 36.5-46t37.5-65q18-28 33-55.5t15-56.5L50 1796v-123zm775 185q116-41 211.5-113.5t164-167 106-208T1702 933q0-129-37.5-245t-106-210.5-164-164.5T1183 206q-65 168-93.5 350T1061 933t29 373.5 93 353.5zm642-727q0 108-24.5 209.5t-71 193-111.5 170-145.5 140T1297 1749t-199 60q-84-205-122-424t-38-452q0-232 42.5-450.5T1098 58q104 19 199 60t175.5 101.5T1618 357t111 168.5 71 194 25 213.5z" fill="#000000"></path></svg>