<?xml version='1.0' encoding='utf-8'?>
<svg xmlns="http://www.w3.org/2000/svg" viewBox="0 0 2720 2041" width="533" height="400"><path d="M1771 742q36 0 63 19.5t44.5 56 26 88.5 8.5 116q-14 139-55 203.5t-108 64.5h11q-223-6-399-10-75-2-147.5-4t-129.5-3.5-92.5-2.5-37.5-1q-2 2-9.5 3.5T927 1274q-29 0-71.5-12.5T772 1214q-40-33-57-85.5T698 1010q8-64 26-117.5t60-87.5q21-21 45.5-33.5t47.5-19 42.5-8.5 31.5-2h820zm12 451q4-8 11-20.5t14-32.5 12.5-49 5.5-69q0-57-7-94t-16-59.5-18.5-31.5-13.5-9H961q-2 0-5-.5t-6-.5q-9 0-22 1.5t-27 6-28 13.5-25 23q-32 16-44.5 53.5T784 1010q0 54 12.5 87.5t31.5 53 41 28 41 12 32 5.5 13 7h806q2 0 6-1 7-2 16-9zm-85-312q6 14 10 34 4 17 7.5 44t3.5 63q0 28-5.5 51.5T1702 1114q-7 20-16 36h-75V881h87zm-743 129q0-32 10-55.5t22-40.5q14-19 33-33h150v269h-161q-16-17-27-38-11-18-19-44t-8-58zm-645 269H20v-86l290 10h1q3 0 13-6t21.5-25 20-55 8.5-95q0-57-6.5-94T353 868q-10-26-21-40H20v-86h301q72 0 105.5 75.5T460 1022q0 72-14 122.5t-37 83-51.5 47.5-57.5 15zm-64-398q9 14 16 34 6 17 11.5 44t5.5 63q0 28-7 51.5t-15 40.5q-10 20-22 36h-76V881h87zm1816 301q0 25 17 47t43 40 56.5 32 58.5 23.5 49 15 27 6.5v-1q-1 0-3.5 7.5t-4.5 36-4 84.5-2 153H295l4-274 87-29q45-16 80-56 15-17 29.5-40t26-54.5T540 1101t7-91q0-52-6.5-93t-17-72-24.5-53.5-28-37.5q-33-36-75-46H20V562h2674q3 2 4.5 18.5t1.5 38.5q0 26-1 50t-3 29h-375q-91 4-143 22t-77.5 39.5-32 42.5-6.5 31v349zm-225 162q42-21 75-61 28-34 51.5-94.5T1987 1035q0-112-19.5-182t-43-109-44-53-22.5-14H858q-81 0-128 17t-71.5 41-31 48.5T621 823v12q0 3 1 4-3 70-6 135-1 28-2 57t-1.5 56.5-1 52-.5 42.5q0 20 11.5 38t30.5 33 43 28 49 23q59 24 134 40h958zm558-334q0-32 10-56t22.5-40 22.5-23.5 10-6.5h236l-9 266h-238q-16-17-27-38-11-18-19-44t-8-58zm301 269l-290-10q-5 2-13 3.5t-22 1.5q-15 0-34-2.5t-40.5-9.5-43-18.5-40.5-29.5q-34-31-49.5-84.5T2148 1010t17.5-111.5T2210 823t59-46.5 62-24 53-9 31-1.5h281v86h-294q-2 0-5-.5t-6-.5q-22 0-49.5 8.5t-52 32-41 65.5-16.5 110q0 37 12 63t29.5 42.5 38.5 25.5 39 13.5 30.5 5 13.5.5h301v86z" fill="#000000"></path></svg>