<?xml version='1.0' encoding='utf-8'?>
<!-- Generator: Adobe Illustrator 20.1.0, SVG Export Plug-In . SVG Version: 6.00 Build 0)  --><svg xmlns="http://www.w3.org/2000/svg" xmlns:xlink="http://www.w3.org/1999/xlink" version="1.1" x="0px" y="0px" viewBox="0 0 610 400" style="enable-background:new 0 0 610 400;" xml:space="preserve" width="610.0" height="400.0">
<g id="Ebene_2">
	<path d="M304.8,352c-78.1,0-151.5-17.6-206.8-49.5c-56-32.3-86.8-75.6-86.8-121.8S42,91.3,98,59C153.3,27,226.8,9.4,304.8,9.4   C382.9,9.4,456.4,27,511.7,59c56,32.3,86.8,75.6,86.8,121.8s-30.8,89.4-86.8,121.8C456.4,334.4,382.9,352,304.8,352z M304.8,17.4   c-157.5,0-285.7,73.3-285.7,163.3c0,90,128.1,163.3,285.7,163.3c157.5,0,285.7-73.3,285.7-163.3C590.5,90.7,462.4,17.4,304.8,17.4z   " fill="#000000"></path>
	<g>
		<path d="M314.8,111.4h28.1v88.4c0,11.6-1,20.4-3,26.7c-2.7,8.1-7.7,14.6-14.9,19.6c-7.2,4.9-16.6,7.4-28.4,7.4    c-13.8,0-24.4-3.9-31.8-11.6c-7.4-7.7-11.2-19-11.2-33.9l26.6-3c0.3,8,1.5,13.6,3.5,16.9c3,5,7.7,7.5,13.9,7.5    c6.3,0,10.7-1.8,13.3-5.4c2.6-3.6,3.9-11,3.9-22.3V111.4z" fill="#000000"></path>
	</g>
</g>
<g id="Ebene_3">
</g>
</svg>