<?xml version='1.0' encoding='utf-8'?>
<svg xmlns="http://www.w3.org/2000/svg" viewBox="0 0 1955 2041" width="383" height="400"><path d="M40 1458q46 35 108 35 38 0 71.5-14.5T278 1439t39.5-58.5T332 1309q0-39-14.5-72.5T278 1178t-58.5-39.5T148 1124q-59 0-103 32l-5-185q26-8 53-13t55-5q61 0 116 19.5t100 54 77.5 82.5 48.5 104l8-1q9-3 24.5-10.5T556 1182t37.5-28.5T630 1116q11-11 17-23-12-12-21-22.5t-15.5-21.5-11.5-24-11-31l-5-18-3-16q-2-15-3-34.5t-1.5-45-1-59T573 744q-1-19-15-47.5T523 637t-46-61.5-48-56-41-42-25-19.5q-45-13-129-23T40 419V233q126 8 224.5 20T417 282q24 7 58 32t71.5 62 75 82.5T689 552t49 96 20 89q3 80 2 125.5t3 71.5q3 8 5.5 13.5t6.5 10 9 9.5l12 12q38 38 43 82t-12.5 88.5-53.5 86-79 75-88.5 56T522 1395l-13 1-17-1q-15 59-47 108t-77 85-101 56-119 20q-28 0-55-4t-53-12v-190zm1875-378L882 981q26 46 30.5 78.5T900 1121q-2 3 29.5 28t83.5 63.5 119 87 138 98.5q165 118 376 265h269v-583z" fill="#000000"></path></svg>