<?xml version='1.0' encoding='utf-8'?>
<svg xmlns="http://www.w3.org/2000/svg" viewBox="0 0 2071 2041" width="406" height="400"><path d="M1822 59q20 2 39.5 7t37.5 12l34 20q32 24 54 56.5t30 70.5l4 43v1330l-6 39q-9 36-29 65t-48 50-62 32-70 11H250q-43-1-79-18t-62.5-46-42-69-16.5-87V983l22-76 29-71 47-65 653-630 63-42 70-27 75-11h661zm48 172q-23-32-59-32h-788q-75 4-131 48L254 864l-13 19q-4 7-4 19 0 26 15 38.5t33 16.5h164l453-422 53-38 57-23 58-10h813V275q-1-24-13-44zm-201 425l-323 321-322-323-115 114 319 326h233l323-323zm-764 758l316-315H225l-12 2q-20 9-22 30v420q0 8-.5 15t-.5 15q0 13 5 26t13.5 23.5T229 1648t26 7h1548q30 0 53.5-16.5t24.5-45.5v-453l10-20q-8-17-28-21h-394l315 317-117 116-321-322-325 321z" fill="#000000"></path></svg>