<?xml version='1.0' encoding='utf-8'?>
<svg xmlns="http://www.w3.org/2000/svg" viewBox="0 0 4936 2041" width="967" height="400"><path d="M1964 1267q-2-26-6-62t-9.5-68.5-11.5-55-12-22.5q-18-3-45-8.5t-58-14.5-63.5-21-62.5-28q-43-23-84.5-45.5t-79-42-71-34T1401 845q-55-13-127-20.5t-147-7.5q-59 0-112 5t-95 17q-32 9-64 30.5t-63.5 48T731 971t-56 48q-16 14-25.5 22t-14.5 13q-6 5-10 8-5 2-18.5 3.5T584 1069q-105 17-178 29.5t-121 24-75.5 24-41 28.5-16.5 38-3 53q0 7 1 12.5t8 5.5q26 4 52 4.5t47 1 34 2 13 7.5q0 29 11 55t30.5 45 45 30 55.5 11q28 0 53-10.5t44-29 30.5-43T587 1305v-9l1-12h953v9q0 29 11 55.5t30.5 46.5 45.5 32 56 12q34 0 60.5-12.5t44.5-34 27-50 9-59.5q20 0 41-1 18-1 41-2t47-3q10-2 10-10zm-496 125q-43 1-101 1h-281q-91 0-197-.5t-228-.5q-13 30-34 56t-49 44.5-61.5 29.5-70.5 11q-69 0-126.5-37t-86.5-97q-7 0-32.5-2t-82.5-4q-23-1-38-12.5t-24-28-12.5-35.5-3.5-35q0-69 13-109t25-55q13-17 28.5-32t39.5-28 59-24.5 88-23.5q15-3 34-6.5t40.5-7.5 44.5-8 44-8q50-9 104-18 7-2 10.5-2.5t6.5-3 8.5-7T602 935q28-24 59.5-54t66.5-59 75.5-53 87.5-38q49-14 110-20.5t126-6.5q83 0 162.5 9t138.5 23q52 12 108 39.5t110 57.5 103 56 88 36q46 12 79 15t56 9.5 38 22 25 52.5q7 24 14.5 57t14 71.5 10.5 81.5 4 87q0 20-13 32.5t-32.5 19.5-42 10.5-42 4.5-32.5.5l-13-.5q-13 30-34.5 56.5t-49.5 46-62.5 31-72.5 11.5q-72 0-129.5-39t-86.5-102zm3314-125q-2-26-6-62t-9.5-68.5-11.5-55-12-22.5q-18-3-45-8.5t-57.5-14.5-63-21-62.5-28q-26-14-52.5-29t-54.5-31q-111-63-188-82-54-13-127-20.5t-148-7.5q-59 0-112 5t-95 17q-32 9-64 30.5t-63.5 48T3549 971t-56 48q-16 14-25.5 22t-14.5 13q-6 5-10 8-5 2-19 3.5t-22 3.5q-108 18-182 31t-122.5 25-75 24.5-39 29.5-14.5 40-2 56q2 10 17 13t35 3q19 0 39-1.5t36-1.5 22 2 6 9q0 29 11 55t30.5 45 45.5 30 55 11q32 0 58.5-12.5t45-33.5 28.5-49.5 10-60.5h953v9q0 29 11 55.5t30.5 46.5 45.5 32 56 12q34 0 60.5-12.5t44.5-34 27-50 9-59.5q20 0 41-1 18-1 41-2t47-3q10-2 10-10zm-496 125q-43 1-101 1h-281q-91 0-197-.5t-227-.5q-13 30-34.5 56t-49.5 44.5-61.5 29.5-70.5 11q-69 0-126.5-37t-86.5-97q-7 0-32.5-2t-82.5-4q-23-1-38-12.5t-24-28-12.5-35.5-3.5-35q0-69 13.5-109t24.5-55q13-17 28.5-32t39.5-28 59-24.5 88-23.5q15-3 34-6.5t40.5-7.5 44.5-8 44-8q50-9 104-18 7-2 10.5-2.5t6.5-3 8.5-7T3420 935q28-24 59.5-54t66.5-59 75.5-53 87.5-38q49-14 110-20.5t126-6.5q83 0 162.5 9t138.5 23q52 12 108 39.5t110 57.5 103 56 88 36q46 12 79 15t56.5 9.5 38 22 25.5 52.5q7 24 14 57t13 71.5 10.5 81.5 4.5 87q0 20-13 32.5t-32.5 19.5-42 10.5-42 4.5-32.5.5l-13-.5q-13 30-34.5 56.5t-49.5 46-62.5 31-72.5 11.5q-72 0-129.5-39t-86.5-102zM2468 450q19 0 36 8t29.5 22 19.5 33 7 41v476q0 22-7 41t-19.5 33.5-29.5 22.5-36 8q-38 0-64.5-30.5T2377 1030V554q0-44 26.5-74t64.5-30zm-92 851q0-19 7-35.5t19.5-29 29.5-19.5 36-7 35.5 7 29 19.5 19.5 29 7 35.5-7 36-19.5 29.5-29 19.5-35.5 7-36-7-29.5-19.5-19.5-29.5-7-36zm429 200v107h-674v-107h-107v321h107v-107h674v107h107v-321h-107z" fill="#000000"></path></svg>