<?xml version='1.0' encoding='utf-8'?>
<!-- Generator: Adobe Illustrator 20.1.0, SVG Export Plug-In . SVG Version: 6.00 Build 0)  --><svg xmlns="http://www.w3.org/2000/svg" xmlns:xlink="http://www.w3.org/1999/xlink" version="1.1" id="Ebene_1" x="0px" y="0px" viewBox="0 0 400 400" style="enable-background:new 0 0 400 400;" xml:space="preserve" width="400.0" height="400.0">
<style type="text/css">
	.st0{fill:none;stroke:#1D1D1B;stroke-width:15;stroke-miterlimit:10;}
	.st1{fill:#1D1D1B;stroke:#1D1D1B;stroke-width:5;stroke-linecap:round;stroke-linejoin:round;stroke-miterlimit:10;}
	.st2{fill:none;stroke:#1D1D1B;stroke-width:15;stroke-linecap:round;stroke-linejoin:round;stroke-miterlimit:10;}
	.st3{fill:none;stroke:#1D1D1B;stroke-width:10;stroke-linecap:round;stroke-linejoin:round;stroke-miterlimit:10;}
</style>
<g>
	<path class="st0" d="M41.3,293.2c-15.8-27.2-24.8-58.8-24.8-92.5c0-34.5,9.4-66.7,25.9-94.3" fill="#000000"></path>
	<path class="st0" d="M294.4,359.8C267,376,235.1,385.2,201,385.2c-34.7,0-67.2-9.6-94.9-26.3" fill="#000000"></path>
	<path class="st0" d="M359.8,106.7c16.3,27.5,25.7,59.7,25.7,94c0,33.7-9,65.3-24.8,92.5" fill="#000000"></path>
	<path class="st0" d="M108.5,41.1c27.2-15.8,58.8-24.8,92.5-24.8c35.1,0,68,9.8,95.9,26.9" fill="#000000"></path>
</g>
<g>
	<circle class="st1" cx="202" cy="199.5" r="8.8" fill="#000000"></circle>
	<g>
		<path class="st2" d="M137.5,257.2l-0.1,21.9H92.8c0,0-1-81,0-90.4c0.9-8.4,45.1-63.1,49.4-65.1s113.3-1.4,116.3,0    c3,1.4,49.5,58.9,50.6,65.3s0,88.4,0,88.4l-40.4,0.6l-0.6-19.9L137.5,257.2z" fill="#000000"></path>
		<path class="st3" d="M94.1,187.1c0,0,50-0.5,50.4,0c0.8,1,8.1,21.2,7.1,21.9c-1.2,0.9-58.5,0.8-58.5,0.8" fill="#000000"></path>
		<path class="st3" d="M308,187.1c0,0-50-0.5-50.4,0c-0.8,1-8.1,21.2-7.1,21.9c1.2,0.9,58.5,0.8,58.5,0.8" fill="#000000"></path>
	</g>
</g>
</svg>