<?xml version='1.0' encoding='utf-8'?>
<svg xmlns="http://www.w3.org/2000/svg" viewBox="0 0 2411 2041" width="473" height="400"><path d="M2080 788q0-29 19.5-48.5T2147 720q30 0 48.5 21.5T2214 792q0 46 7.5 97.5T2247 1001t47 129 72 150q25 49 25 107 0 51-19.5 95.5T2319 1560t-77.5 52-95.5 19q-50 0-94.5-19.5T1974 1559t-52.5-77.5-19.5-94.5q0-60 27-108 44-82 72.5-151.5T2047 998t24.5-111.5 8.5-98.5zm-720 168q0-23 15.5-38.5T1414 902q22 0 37.5 15.5T1467 956q0 74 26 169t95 225q11 20 16 42.5t5 43.5q0 41-15.5 76.5t-42 62-62.5 41.5-76 15q-41 0-76.5-15.5t-62-41.5-41.5-61.5-15-76.5q0-48 22-86 35-65 58-120.5t36.5-104 19-90 6.5-79.5zm-695 135q0-18 12.5-30.5T707 1048q18 0 30.5 12.5T750 1091q0 30 4.5 63t16 72 30 84 46.5 97q16 31 16 68 0 33-12.5 61.5T817 1586t-49.5 33-60.5 12-60.5-12.5T597 1585t-33.5-49.5T551 1475q0-38 17-69 56-104 76.5-179.5T665 1091zm-554 108q0-14 10-24t24-10 24 10 10 24q0 48 16.5 108t61.5 144q6 12 9.5 27.5t3.5 27.5q0 27-10 49.5t-27 39.5-40 26.5-49 9.5-49-9.5-39.5-26.5-26-40-9.5-49q0-14 3-28.5t10-26.5q45-84 61.5-144t16.5-108z" fill="#ffffff"></path></svg>