<?xml version='1.0' encoding='utf-8'?>
<svg xmlns="http://www.w3.org/2000/svg" viewBox="0 0 2715 2041" width="532" height="400"><path d="M2675 1122l-338 267-26-35q-15-18-29-34t-29.5-27-34-17.5-43.5-6.5h-259v183q0 38-14 70.5t-38.5 56.5-57.5 38-70 14H547q-37 0-69.5-14t-56.5-38-38-56.5-14-70.5v-183H40V838h329V657q0-38 14-71t38-57.5 56.5-38.5 69.5-14h1189q37 0 70 14t57.5 38.5T1902 586t14 71v181h318q81 0 142 22t109 57 86.5 79.5 75.5 90.5zm-328 173q10-8 28.5-23t41-32.5 47-37 47-37 41-31.5 28.5-22q-33-42-66.5-79.5t-74-65.5-90-44.5T2234 906h-386V657q0-24-9-44.5t-24-35-35.5-23-43.5-8.5H547q-23 0-43.5 8.5t-35.5 23-24 35-9 44.5v249H108v77h386V625h1293v358h448q44 0 77 12.5t59.5 31.5 47.5 42 41 45l-114 91-21-24q-12-14-22.5-24t-20.5-16-21-9-26-3h-448v356H494v-356H108v73h327v250q0 23 9 43.5t24 35.5 35.5 24 43.5 9h1189q23 0 43.5-9t35.5-24 24-35.5 9-43.5v-250h327q33 0 58.5 7.5t46 20.5 36.5 30 31 35zM562 1416h1157V692H562v724zm171-362q0-25 9.5-46t25.5-37 37.5-25 46.5-9q24 0 45.5 9t37.5 25 25.5 37 9.5 46-9.5 46.5T935 1138t-37.5 25-45.5 9q-25 0-46.5-9t-37.5-25-25.5-37.5-9.5-46.5zm119-51q-21 0-36 15.5t-15 35.5 15 36 36 16q20 0 34.5-16t14.5-36-14.5-35.5T852 1003zm-149 395q-25 0-46.5-9t-38-25-26-37.5-9.5-46.5q0-24 9.5-45.5t26-37 38-25 46.5-9.5q24 0 45.5 9.5t37.5 25 25 37 9 45.5q0 25-9 46.5t-25 37.5-37.5 25-45.5 9zm0-169q-22 0-36 15.5t-14 35.5q0 22 14 37t36 15q21 0 35-15t14-37q0-20-14-35.5t-35-15.5zm589 169q-24 0-45.5-9t-37-25-25-37.5-9.5-46.5q0-24 9.5-45.5t25-37 37-25 45.5-9.5 46 9.5 38.5 25 26 37 9.5 45.5q0 25-9.5 46.5t-26 37.5-38.5 25-46 9zm0-169q-21 0-35 15.5t-14 35.5q0 22 14 37t35 15q22 0 36-15t14-37q0-20-14-35.5t-36-15.5zm-265-175q0-25 9-46t25-37 37.5-25 45.5-9q25 0 46.5 9t37.5 25 25.5 37 9.5 46-9.5 46.5-25.5 37.5-37.5 25-46.5 9q-24 0-45.5-9t-37.5-25-25-37.5-9-46.5zm117-51q-20 0-34.5 15.5T1095 1054t14.5 36 34.5 16q21 0 36.5-16t15.5-36-15.5-35.5-36.5-15.5zM703 711q24 0 45.5 9t37.5 25 25 37.5 9 46.5q0 24-9 45.5T786 912t-37.5 25.5T703 947q-25 0-46.5-9.5t-38-25.5-26-37.5T583 829q0-25 9.5-46.5t26-37.5 38-25 46.5-9zm0 170q21 0 35-16t14-36q0-22-14-36.5T703 778q-22 0-36 14.5T653 829q0 20 14 36t36 16zm293 517q-24 0-45.5-9t-37-25-25-37.5-9.5-46.5q0-24 9.5-45.5t25-37 37-25 45.5-9.5q25 0 47 9.5t38 25 25.5 37 9.5 45.5q0 25-9.5 46.5T1081 1364t-38 25-47 9zm0-169q-20 0-34.5 15.5T947 1280q0 22 14.5 37t34.5 15q23 0 37-15t14-37q0-20-14-35.5t-37-15.5zm0-518q25 0 47 9t38 25 25.5 37.5 9.5 46.5q0 24-9.5 45.5T1081 912t-38 25.5-47 9.5q-24 0-45.5-9.5t-37-25.5-25-37.5T879 829q0-25 9.5-46.5t25-37.5 37-25 45.5-9zm0 170q23 0 37-16t14-36q0-22-14-36.5T996 778q-20 0-34.5 14.5T947 829q0 20 14.5 36t34.5 16zm296-170q24 0 46 9t38.5 25 26 37.5 9.5 46.5q0 24-9.5 45.5t-26 37.5-38.5 25.5-46 9.5-45.5-9.5-37-25.5-25-37.5-9.5-45.5q0-25 9.5-46.5t25-37.5 37-25 45.5-9zm0 170q22 0 36-16t14-36q0-22-14-36.5t-36-14.5q-21 0-35 14.5t-14 36.5q0 20 14 36t35 16zm295 517q-24 0-45.5-9t-37-25-25-37.5-9.5-46.5q0-24 9.5-45.5t25-37 37-25 45.5-9.5q25 0 46.5 9.5t37 25 24.5 37 9 45.5q0 25-9 46.5t-24.5 37.5-37 25-46.5 9zm0-169q-20 0-35 15.5t-15 35.5q0 22 15 37t35 15q22 0 36.5-15t14.5-37q0-20-14.5-35.5T1587 1229zm0-282q-24 0-45.5-9.5t-37-25.5-25-37.5-9.5-45.5q0-25 9.5-46.5t25-37.5 37-25 45.5-9q51 0 84 33.5t33 84.5q0 24-9 45.5t-24.5 37.5-37 25.5-46.5 9.5zm0-169q-20 0-35 14.5t-15 36.5q0 20 15 36t35 16q22 0 36.5-16t14.5-36q0-22-14.5-36.5T1587 778zm-267 276q0-25 9.5-46t25.5-37 37.5-25 45.5-9q25 0 46 9t37 25 25 37 9 46-9 46.5-25 37.5-37 25-46 9q-24 0-45.5-9t-37.5-25-25.5-37.5-9.5-46.5zm118-51q-20 0-35 15.5t-15 35.5 15 36 35 16q21 0 36-16t15-36-15-35.5-36-15.5z" fill="#000000"></path></svg>