<?xml version='1.0' encoding='utf-8'?>
<svg xmlns="http://www.w3.org/2000/svg" viewBox="0 0 2195 2041" width="430" height="400"><path d="M1893 1762h-468v-102h468q33 0 62-12.5t50.5-34 34-50.5 12.5-62V290q0-33-12.5-62.5t-34-51.5-50.5-34.5-62-12.5h-700q-33 0-62 12.5t-51 34.5-34.5 51.5T1033 290v640H931V290q0-54 20.5-102t56.5-83 83.5-55.5T1193 29h700q54 0 101.5 20.5T2078 105t56.5 83 20.5 102v1211q0 54-20.5 101.5t-56.5 83-83.5 56T1893 1762zm-35-239h-433v-80h433q22 0 37.5-15.5t15.5-37.5V360q0-23-15.5-38.5T1858 306h-631q-22 0-37 15.5t-15 38.5v570h-82V360q0-28 10.5-52.5t29-42.5 43-28.5T1227 226h631q28 0 52.5 10.5T1953 265t28.5 42.5T1992 360v1030q0 27-10.5 51.5T1953 1484t-42.5 28.5-52.5 10.5zm-515-375H327v-140h1016v140zm-1163 0H40v-140h140v140zm1163 339H327v-140h1016v140zm-1163 0H40v-140h140v140zm1163 336H327v-138h1016v138zm-1163 0H40v-138h140v138z" fill="#000000"></path></svg>