<?xml version='1.0' encoding='utf-8'?>
<!-- Generator: Adobe Illustrator 20.1.0, SVG Export Plug-In . SVG Version: 6.00 Build 0)  --><svg xmlns="http://www.w3.org/2000/svg" xmlns:xlink="http://www.w3.org/1999/xlink" version="1.1" id="Ebene_1" x="0px" y="0px" width="461.7px" height="320.7px" viewBox="0 0 461.7 320.7" style="enable-background:new 0 0 461.7 320.7;" xml:space="preserve">
<path d="M0,319.6h115.5v-66.8H44.7V185h64.1v-60H44.7V66.4h68.4v-59H0V319.6z" fill="#ffd100"></path>
<path d="M163.9,319.1h45.8V198.3H225c2.2,0,4.9-0.1,8-0.2c3.1-0.1,6.4-0.7,9.9-1.7c3.5-1,6.9-2.5,10.4-4.5c3.5-2,6.8-4.9,9.9-8.7  c3.3-4.4,6.3-9.6,9-15.6c2.7-5.9,5.1-12.5,7.1-19.6c2-7.1,3.5-14.8,4.5-22.9c1-8.2,1.5-16.6,1.5-25.4c0-3.8-0.1-8-0.4-12.5  c-0.3-4.6-0.8-9.4-1.5-14.5c-0.7-5.1-1.8-10.3-3.3-15.8c-1.5-5.4-3.4-10.9-5.8-16.5c-3.3-7.8-7-14.1-11.2-18.7s-8.7-8.1-13.5-10.4  s-10-3.8-15.5-4.4c-5.5-0.7-11.3-1-17.4-1h-52.9V319.1z M218.7,65.7c1.7,0,3.7,0.2,6,0.6c2.3,0.4,4.5,1.7,6.6,3.8  c2.1,2.2,3.9,5.5,5.3,10.2c1.4,4.6,2.2,11.3,2.2,19.9c0,9.8-0.8,17.3-2.5,22.5c-1.7,5.2-3.7,9-6.1,11.5c-2.4,2.4-4.9,3.8-7.6,4.2  c-2.7,0.4-5.2,0.6-7.2,0.6h-6.3V65.7H218.7z" fill="#ffd100"></path>
<path d="M460.1,111.9c0-16.7-1.6-31.9-4.8-45.6c-3.2-13.7-7.7-25.5-13.4-35.2s-12.5-17.2-20.2-22.6s-16.4-8-25.9-8  c-12,0-22.8,3.9-32.3,11.8c-9.6,7.9-17.7,18.9-24.4,33.1S327.2,76.9,323.6,97s-5.4,42.5-5.4,67.1c0,12.9,0.5,25.7,1.6,38.5  c1,12.8,2.8,24.9,5.4,36.5c2.5,11.5,5.7,22.3,9.6,32.2s8.7,18.6,14.5,25.9s12.5,13,20.1,17.2c7.6,4.2,16.3,6.3,25.9,6.3  c4,0,8.2-0.5,12.6-1.6c4.4-1,8.8-2.9,13.2-5.6s8.7-6.3,12.8-10.8c4.1-4.6,8-10.4,11.8-17.6c3.4-7.2,6.1-14.4,8.2-21.7  s3.6-14.4,4.7-21.4c1-7,1.7-13.7,2.1-20.1c0.3-6.4,0.7-12.2,1.1-17.3h-48.5c-0.3,9.8-1,18.2-2.2,25.4c-1.2,7.2-2.9,13-4.9,17.6  c-2,4.6-4.2,7.9-6.6,10.2c-2.4,2.2-4.9,3.3-7.5,3.3c-4.3,0-7.9-2-10.7-5.9c-2.9-3.9-5.3-9-7.2-15.1c-2-6.2-3.5-13.1-4.6-20.7  c-1.1-7.6-1.9-15-2.3-22.1c-0.5-7.1-0.7-13.6-0.8-19.4s-0.1-10.2-0.1-13.1c0-14.6,0.6-28.3,1.7-41s2.8-23.9,5-33.4s5.1-17,8.7-22.5  c3.6-5.5,7.9-8.2,12.8-8.2c2.7,0,5.1,1,7,3.1s3.6,4.8,4.9,8c1.3,3.3,2.4,7,3.3,11.1c0.9,4.2,1.6,8.2,2.1,12  c0.5,3.8,0.9,7.4,1.1,10.7c0.2,3.3,0.4,5.7,0.5,7.4H460.1z" fill="#ffd100"></path>
</svg>