<?xml version='1.0' encoding='utf-8'?>
<!-- Generator: Adobe Illustrator 20.1.0, SVG Export Plug-In . SVG Version: 6.00 Build 0)  --><svg xmlns="http://www.w3.org/2000/svg" xmlns:xlink="http://www.w3.org/1999/xlink" version="1.1" id="Ebene_1" x="0px" y="0px" viewBox="0 0 409.3 400" style="enable-background:new 0 0 409.3 400;" xml:space="preserve" width="409.3" height="400.0">
<style type="text/css">
	.st0{fill:#1D1D1B;}
	.st1{fill:none;stroke:#1D1D1B;stroke-miterlimit:10;}
	.st2{fill:none;stroke:#1D1D1B;stroke-width:16;stroke-miterlimit:10;}
	.st3{fill:none;stroke:#1D1D1B;stroke-width:16;stroke-linecap:round;stroke-linejoin:round;stroke-miterlimit:10;}
	.st4{fill:none;stroke:#1D1D1B;stroke-width:12;stroke-miterlimit:10;}
</style>
<g>
	<path class="st0" d="M220,86.1c2.3-2.3,4.2-1.5,4.2,1.8v37.3c0,3.3-2.7,6-6,6h-37.3c-3.3,0-4.1-1.9-1.8-4.2L220,86.1z" fill="#000000"></path>
	<path class="st1" d="M220,86.1c2.3-2.3,4.2-1.5,4.2,1.8v37.3c0,3.3-2.7,6-6,6h-37.3c-3.3,0-4.1-1.9-1.8-4.2L220,86.1z" fill="#000000"></path>
</g>
<g>
	<path class="st0" d="M285.2,224.8c-2.3,2.3-4.2,1.5-4.2-1.8v-37.3c0-3.3,2.7-6,6-6h37.3c3.3,0,4.1,1.9,1.8,4.2L285.2,224.8z" fill="#000000"></path>
	<path class="st1" d="M285.2,224.8c-2.3,2.3-4.2,1.5-4.2-1.8v-37.3c0-3.3,2.7-6,6-6h37.3c3.3,0,4.1,1.9,1.8,4.2L285.2,224.8z" fill="#000000"></path>
</g>
<path class="st2" d="M360.3,368h-99.5c-11,0-20-9-20-20V167c0-11,9-20,20-20h99.5c11,0,20,9,20,20v181  C380.3,359,371.3,368,360.3,368z" fill="#000000"></path>
<path class="st3" d="M214.8,207.5h-171c-11,0-20-9-20-20V48c0-11,9-20,20-20h273.5c11,0,20,9,20,20v69.8" fill="#000000"></path>
<line class="st4" x1="244.3" y1="332" x2="377.3" y2="332" fill="#000000"></line>
</svg>