<?xml version='1.0' encoding='utf-8'?>
<!-- Generator: Adobe Illustrator 20.1.0, SVG Export Plug-In . SVG Version: 6.00 Build 0)  --><svg xmlns="http://www.w3.org/2000/svg" xmlns:xlink="http://www.w3.org/1999/xlink" version="1.1" id="Ebene_1" x="0px" y="0px" viewBox="0 0 580.9 400" style="enable-background:new 0 0 580.9 400;" xml:space="preserve" width="580.9" height="400.0">
<style type="text/css">
	.st0{fill:#1D1D1B;}
	.st1{fill:none;stroke:#1D1D1B;stroke-width:18;stroke-miterlimit:10;}
	.st2{fill:none;stroke:#1D1D1B;stroke-width:24;stroke-linecap:round;stroke-linejoin:round;stroke-miterlimit:10;}
	.st3{fill:none;stroke:#1D1D1B;stroke-width:24;stroke-linejoin:round;stroke-miterlimit:10;}
</style>
<g>
	<path class="st0" d="M115.6,252.2l-11,33.2H90.6l35.8-105.5h16.4l36,105.5h-14.5L153,252.2H115.6z M150.2,241.5l-10.3-30.4   c-2.3-6.9-3.9-13.1-5.5-19.2h-0.3c-1.6,6.3-3.3,12.7-5.3,19.1l-10.3,30.5H150.2z" fill="#000000"></path>
</g>
<circle class="st1" cx="132" cy="240.7" r="101.1" fill="#000000"></circle>
<line class="st2" x1="207.9" y1="313.5" x2="261" y2="369.6" fill="#000000"></line>
<polyline class="st3" points="177,95.8 188.4,49 482.1,49 542.3,257.7 277.2,257.7 " fill="#000000"></polyline>
<polygon class="st0" points="481.2,187.8 232,136.1 221.2,112.8 479.4,166.4 " fill="#000000"></polygon>
<polygon class="st0" points="371.6,225.9 300.9,74.8 324.1,74.5 394.6,225.2 " fill="#000000"></polygon>
<polygon class="st0" points="270.6,183.5 254.9,169.5 262.9,136.8 282.8,139.6 " fill="#000000"></polygon>
<polygon class="st0" points="339.4,117.6 331.1,100.1 400.7,74.5 449.2,74.5 " fill="#000000"></polygon>
</svg>