<?xml version='1.0' encoding='utf-8'?>
<svg xmlns="http://www.w3.org/2000/svg" viewBox="0 0 2059 2041" width="404" height="400"><path d="M713 1296v102q0 30-31 30H563q-31 0-31-30v-167q-5-32-8-59t-3-53q0-31 3.5-51.5t8-35 8.5-23.5 4-17h-62q-8 0-14-4t-10-8.5-5.5-9-1.5-6.5l20-68q0-1 4.5-4t11-5.5 13-4.5 10.5-2h101q5-11 9-17t12-17q16-16 29-33.5t25.5-35T713 745t29-26q13-11 37.5-18t54-10.5 60.5-5 57-1.5h157q19 0 45 .5t51.5 2.5 48 5.5 34.5 9.5q18 6 43.5 29.5t49.5 52 43 56 24 40.5h108q4 0 6 2 1 0 6 2t10 4.5l9 4.5 4 3 17 68q0 5-6 16.5t-23 11.5h-62q0 8 3.5 16.5t7 22.5 7 35 3.5 53q0 26-1.5 53t-8.5 59v167q0 30-31 30h-119q-16 0-21.5-8t-5.5-22v-102H713zm611-416q-20-40-54.5-61.5t-78-30.5-93-10-98.5-1q-44 0-84.5 2.5T838 792t-68.5 31-56.5 57h611zm-707 322h824v-95h-178v-91h149l-27-48H672l-29 48h151v91H617v95zM260 700q-37 37-58 85.5T181 891t21.5 108 58.5 85l-55 58q-49-48-76-112.5T103 892t27.5-137T206 643zm68 192q0 26 10 48.5t27 40.5l-56 55q-27-29-43-64.5T250 894q0-43 16-80.5t45-64.5l54 56q-17 17-27 39t-10 48zm1525-249q48 48 76 112t28 137-27.5 137.5T1854 1142l-57-58q38-34 59.5-85t21.5-108-21.5-105.5T1797 700zm-124 249q0-52-36-87l57-56q26 27 42.5 64.5T1809 894q0 42-16 77.5t-43 64.5l-57-55q36-37 36-89zM716 429q60-61 139.5-96t173.5-35 173.5 34 140.5 97l-71 69q-45-45-108-73.5T1029 396t-134.5 27T786 498zm313 156q-66 0-110 44l-70-69q35-35 81-55.5t100-20.5 99.5 20.5T1210 560l-70 69q-22-21-50.5-32.5T1029 585zm-500 73H418l150-387h93zm-331 565h137l-142 409H40zm1200-952h93l149 387h-110zm621 1361h-154l-141-409h136z" fill="#000000"></path></svg>