<?xml version='1.0' encoding='utf-8'?>
<!-- Generator: Adobe Illustrator 23.0.1, SVG Export Plug-In . SVG Version: 6.00 Build 0)  --><svg xmlns="http://www.w3.org/2000/svg" xmlns:xlink="http://www.w3.org/1999/xlink" version="1.1" id="Ebene_2" x="0px" y="0px" viewBox="0 0 291 278" style="enable-background:new 0 0 291 278;" xml:space="preserve" width="418.70505" height="400.0">
<g>
	<path d="M202.2,99.8V66l-26.1-27.6h-74.6v62.1L73,99.8V24.1c0-7.9,6.4-14.3,14.3-14.3h95c3.9,0,7.7,1.6,10.4,4.5l34.2,36.2   c2.5,2.7,3.9,6.2,3.9,9.8v39.5L202.2,99.8z" fill="#000000"></path>
</g>
<g>
	<path d="M262.2,269.6H41.4c-7.9,0-14.3-6.4-14.3-14.3v-84.7c0-19.9,32.7-48.5,55.5-48.5H221c22.8,0,55.5,28.5,55.5,48.5v84.7   C276.5,263.2,270.1,269.6,262.2,269.6z M55.7,240.9h192.1v-69.6c-2.5-6.7-19.5-20.6-26.9-20.6H82.6c-7.3,0-24.4,14-26.9,20.6V240.9   z M55.6,171.7L55.6,171.7L55.6,171.7z" fill="#000000"></path>
</g>
<rect x="95.5" y="154.7" width="18.5" height="18.5" fill="#000000"></rect>
<rect x="123.3" y="154.7" width="18.5" height="18.5" fill="#000000"></rect>
<rect x="151" y="154.7" width="18.5" height="18.5" fill="#000000"></rect>
<rect x="188" y="154.7" width="18.5" height="18.5" fill="#000000"></rect>
<rect x="95.5" y="182.4" width="18.5" height="18.5" fill="#000000"></rect>
<rect x="123.3" y="182.4" width="18.5" height="18.5" fill="#000000"></rect>
<rect x="151" y="182.4" width="18.5" height="18.5" fill="#000000"></rect>
<rect x="188" y="182.4" width="18.5" height="18.5" fill="#000000"></rect>
<rect x="95.5" y="210" width="18.5" height="18.5" fill="#000000"></rect>
<rect x="123.3" y="210" width="18.5" height="18.5" fill="#000000"></rect>
<rect x="151" y="210" width="18.5" height="18.5" fill="#000000"></rect>
<rect x="188" y="210" width="18.5" height="18.5" fill="#000000"></rect>
</svg>