<?xml version='1.0' encoding='utf-8'?>
<svg xmlns="http://www.w3.org/2000/svg" viewBox="0 0 2506 2041" width="491" height="400"><path d="M2411 1628H96q-15 0-29-6t-24.5-16.5-16.5-25-6-30.5V637q0-32 22.5-54T96 561h2315q32 0 53.5 22t21.5 54v913q0 32-21.5 55t-53.5 23zM173 1475h2162V712H173v763zm328-100q-32 0-53.5-21.5T426 1300v-123q0-32 21.5-53.5T501 1102t54 21.5 22 53.5v123q0 32-22 53.5t-54 21.5zm303 0q-31 0-53.5-21.5T728 1300v-123q0-32 22.5-53.5T804 1102q32 0 54.5 21.5T881 1177v123q0 32-22.5 53.5T804 1375zm304 0q-30 0-53-21.5t-23-53.5v-123q0-32 23-53.5t53-21.5q32 0 53.5 21.5t21.5 53.5v123q0 32-21.5 53.5T1108 1375zm304 0q-32 0-54.5-21.5T1335 1300v-123q0-32 22.5-53.5t54.5-21.5q31 0 53.5 21.5t22.5 53.5v123q0 32-22.5 53.5T1412 1375zm302 0q-30 0-52.5-21.5T1639 1300v-123q0-32 22.5-53.5t52.5-21.5q32 0 54 21.5t22 53.5v123q0 32-22 53.5t-54 21.5zm305 0q-32 0-54-21.5t-22-53.5v-123q0-32 22-53.5t54-21.5 53.5 21.5 21.5 53.5v123q0 32-21.5 53.5T2019 1375zm-1100 0q-32 0-53.5-21.5T844 1300V814q0-32 21.5-54t53.5-22 54 22 22 54v486q0 32-22 53.5t-54 21.5z" fill="#000000"></path></svg>