<?xml version='1.0' encoding='utf-8'?>
<svg xmlns="http://www.w3.org/2000/svg" viewBox="0 0 1920 2041" width="376" height="400"><path d="M874 1219q-18-18-27-40.5t-9-46.5q0-15 5-35L567 821l-40-121 120 41 277 276q9-3 18-4t18-1q25 0 47 9.5t38.5 26 26 38.5 9.5 47-9.5 47-26 38.5-39 26-47.5 9.5q-23 0-45.5-8.5T874 1219zm-342 422l-180 181q-72-63-129.5-140t-98-165T62 1332.5 40 1132q0-127 33-245t92.5-220T309 481t186-143.5T715 245t245-33 244.5 33 220 92.5 186 143.5T1754 667t93 220 33 245q0 103-21.5 200t-62 184.5-98 164.5-129.5 141l-180-181 80-81 100 99q84-97 134.5-215.5T1764 1189h-140v-114h140q-10-136-60.5-254.5T1569 605l-100 98-81-81 100-98q-97-85-216-135.5T1017 328v142H903V328q-136 9-255.5 60T432 523l99 100-81 81-99-100q-84 97-135 216t-60 256h142v114H156q10 136 61 255t135 215l99-100z" fill="#000000"></path></svg>