<?xml version='1.0' encoding='utf-8'?>
<svg xmlns="http://www.w3.org/2000/svg" viewBox="0 0 2406 2041" width="472" height="400"><path d="M1264 577q85 85 133.5 197.5T1446 1017t-49 243-134 198l-83-83q69-69 108.5-160.5T1328 1017q0-105-39.5-196.5T1180 660zM197 1017q0-131 49-243.5T381 576l83 83q-69 69-109 160.5T315 1017t40 198 109 161l-83 83q-85-85-134.5-198T197 1017zm172 0q0-94 35.5-176t97-143.5 144-97T822 565t176 35.5 143.5 97 97 143.5 35.5 176-35.5 176.5-97 144-143.5 97-176 35.5-176.5-35.5-144-97-97-144T369 1017zm72 0q0 79 30 148t81.5 120.5 121 81.5 148.5 30q78 0 147.5-30t121-81.5T1172 1165t30-148q0-78-30-147.5t-81.5-121-121-81.5T822 637q-79 0-148.5 30t-121 81.5-81.5 121-30 147.5zm593 204L870 760H769l-160 461h89l33-94h174l31 94h98zm-153-165H753l42-117q6-20 11.5-39.5T817 862q5 20 9.5 37.5T837 935zm952 425l168-548q7-15 20.5-25t32.5-10q18 0 31.5 9t20.5 23l170 551h-443zm221-437l-114 370h228zm-283 588h566q29 0 29-23v-6l-24-61h-576l-22 61q-1 1-1 6 0 11 8 17t20 6zm-195-108l-195-119 55-90 195 119zM225 690L40 578l56-90 184 112z" fill="#000000"></path></svg>