<?xml version='1.0' encoding='utf-8'?>
<svg xmlns="http://www.w3.org/2000/svg" viewBox="0 0 1596 2041" width="313" height="400"><path d="M968 1476q-71 27-154 27-72 0-144-22t-131-60l-108 93q-9 8-14 19.5t-5 19.5q0 11 5 19.5t5 12.5q0 3-.5 4.5t-4.5 6.5q41 30 88 52t88 42q46 17 94.5 24.5t99.5 7.5q52 0 104.5-8.5T993 1689t93.5-39.5 82.5-53.5q11-11 12.5-20.5t1.5-20.5q0-4-2.5-11t-6-14-8.5-11.5-10-4.5l-107-93q-22 11-41.5 22t-39.5 33zm-605-443H202q-29 0-41.5 12.5T148 1072q0 81 18.5 151t49.5 131q0 5 3 12t10.5 13 21 10.5 33.5 4.5l120-106 13-15q0-11-6.5-20.5T404 1232q-20-50-30.5-99.5T363 1033zm646 12q-18-26-40-49.5t-48.5-41-58-28T794 916q-53 0-94 20t-69 53-42.5 74.5T574 1148q0 57 22 100.5t56.5 72 76 43T809 1378q46 0 85.5-19.5t68.5-52 45-75.5 16-90q0-55-15-96zm402-12h-174v12q0 71-12 124.5t-42 103.5l133 121q17 0 27-6t17-13.5 12-14 12-6.5q15-25 27.5-56t21-63 13.5-62.5 5-53.5q0-15-1-30.5t-5-28-12-20-22-7.5zM846 306q0 20 1.5 49t12.5 59q-17-1-32-1h-32q-111 0-207 32.5T404 549q-70 51-120.5 110.5T202 789q1 11 9.5 21t18.5 20l13 13 1141-13q12 0 23 .5t22 .5q25 0 47-2.5t43-12.5q19 62 28 123t9 121q0 101-27.5 197t-78 181-120.5 156-155 122.5-182.5 80T791 1825q-62 0-122-10t-117-32q-61-19-120.5-53.5T318 1650t-100.5-100-82.5-115q-47-79-71-173.5T40 1067q0-106 27-210 15-70 51.5-139t87-130.5 112-113T444 387q76-42 159-63t174-21q34 0 69 3zm95 766q8 11 11 25.5t3 29.5q0 31-10 62.5t-27.5 56.5-42 41-54.5 16q-34 0-66-10.5t-56.5-30-39.5-47-15-62.5q0-28 7.5-55.5T672 1045q31-31 69-48.5t80-17.5q39 10 69.5 31.5T941 1072zm79-886l29 95q0 19-1.5 39t-11.5 42l-54 79v54l67 134q0 20-1.5 47t-11.5 48l-54 81-41-27q11-22 27.5-41.5T995 696v-54l-54-133q-17-17-17-41 0-14 5.5-28.5T941 414l54-81q0-6 2.5-16.5t2.5-18.5q0-12-5-17l-27-95h-41l55-160 67 160h-29zm229 0h-41q17 48 27 78.5t10 56.5q0 22-11.5 41.5t-25 37.5-24.5 36-11 37q0 13 10 22l54 134q8 19 8 39 0 14-5.5 29t-16.5 27l-40 81-41-27 41-82q10-10 10-27 0-15-10-27l-54-133q-4-8-6.5-18t-2.5-21q0-31 22-56l41-81q10-8 10-25t-10-27l-27-95h-41l68-160zm162 0l27 95q0 19-1.5 39t-12.5 42l-54 79v54l27 66 41 68q0 20-1.5 47t-12.5 48l-54 81-40-27 54-82v-54l-68-133q0-20 1.5-47.5T1330 414l54-81v-39l-41-108h-27l54-160 68 160h-27z" fill="#000000"></path></svg>