<?xml version='1.0' encoding='utf-8'?>
<!-- Generator: Adobe Illustrator 20.1.0, SVG Export Plug-In . SVG Version: 6.00 Build 0)  --><svg xmlns="http://www.w3.org/2000/svg" xmlns:xlink="http://www.w3.org/1999/xlink" version="1.1" id="Ebene_1" x="0px" y="0px" viewBox="0 0 400 400" style="enable-background:new 0 0 400 400;" xml:space="preserve" width="400.0" height="400.0">
<style type="text/css">
	.st0{fill:#1D1D1B;stroke:#1D1D1B;}
	.st1{fill:#1D1D1B;}
</style>
<g>
	<g>
		<path class="st0" d="M144.7,270.9V135h79.9v16h-65.3v41.6h61.1v15.9h-61.1v46.3h67.9v16H144.7z" fill="#000000"></path>
	</g>
	<path class="st1" d="M58.4,114.4l-13.1-8.8c13.2-19.7,30-36.2,49.9-49l8.6,13.3C85.6,81.5,70.3,96.5,58.4,114.4z" fill="#000000"></path>
	<path class="st1" d="M19.8,235.6c-2.3-11.3-3.5-22.9-3.5-34.6c0-12.2,1.3-24.4,3.8-36.2l15.4,3.3c-2.3,10.7-3.5,21.8-3.5,32.9   c0,10.6,1.1,21.2,3.2,31.4L19.8,235.6z" fill="#000000"></path>
	<path class="st1" d="M90.3,342.1c-17.8-12.4-33-27.8-45.1-45.8l13.1-8.8c11,16.4,24.7,30.4,40.9,41.6L90.3,342.1z" fill="#000000"></path>
	<path class="st1" d="M188,372.6c-12.2,0-24.4-1.3-36.2-3.8l3.3-15.4c21.2,4.5,43.6,4.6,64.8,0.2l3.2,15.5   C211.6,371.4,199.8,372.6,188,372.6z" fill="#000000"></path>
	<path class="st1" d="M286.6,341.4l-9.1-12.9c17.2-12.1,31.5-27.2,42.6-45l13.4,8.4C321.3,311.5,305.5,328.1,286.6,341.4z" fill="#000000"></path>
	<path class="st1" d="M391.2,168.9c-0.9-1.7-2.7-2.7-4.6-2.7h-30.5C340,88.1,270.7,29.3,188,29.3c-11.1,0-22.1,1.1-32.9,3.1l3,15.5   c9.8-1.9,19.8-2.9,29.9-2.9c74,0,136.1,51.8,151.9,121.1h-31.3c-1.9,0-3.7,1-4.6,2.7c-0.9,1.7-0.9,3.7,0.1,5.3l39,62.9   c1,1.6,2.7,2.5,4.5,2.5c1.8,0,3.5-0.9,4.5-2.5l39-62.9C392.1,172.6,392.1,170.6,391.2,168.9z" fill="#000000"></path>
</g>
</svg>