<?xml version='1.0' encoding='utf-8'?>
<svg xmlns="http://www.w3.org/2000/svg" viewBox="0 0 853 2041" width="167" height="400"><path d="M196 260q0-48 18-89.5t49.5-73 74-49.5T428 30t90 18 73.5 49.5 50 73T660 260t-18.5 90.5-50 74-73.5 50-90 18.5-90.5-18.5-74-50-49.5-74-18-90.5zm124 0q0 23 8.5 42.5t23 34 34 23T428 368q22 0 41.5-8.5t34.5-23 23.5-34T536 260q0-22-8.5-41.5t-23.5-34-34.5-23T428 153q-23 0-42.5 8.5t-34 23-23 34T320 260zm185 1407V817H351v850h154zm-277 0V817H40V660h588v1007h185v153H40v-153h188z" fill="#000000"></path></svg>