<?xml version='1.0' encoding='utf-8'?>
<!-- Generator: Adobe Illustrator 23.0.3, SVG Export Plug-In . SVG Version: 6.00 Build 0)  --><svg xmlns="http://www.w3.org/2000/svg" xmlns:xlink="http://www.w3.org/1999/xlink" version="1.1" id="Ebene_1" x="0px" y="0px" viewBox="0 0 459.9 323.6" style="enable-background:new 0 0 459.9 323.6;" xml:space="preserve" width="568.4796" height="400.0">
<path d="M62.1,6.1L3.9,319.3H49l11.8-69.8h50.4l11.2,69.8h47L112.9,6.1H62.1z M86.6,107.2l13.9,82.3h-29L86.6,107.2z" fill="#000000"></path>
<path d="M175.3,319h50.4L314.4,8.4h-50.2L175.3,319z" fill="#000000"></path>
<path d="M448.1,114c0-16.7-1.6-31.9-4.8-45.6c-3.2-13.7-7.7-25.5-13.4-35.2c-5.7-9.7-12.5-17.2-20.2-22.6s-16.4-8-25.9-8  c-12,0-22.8,3.9-32.3,11.8c-9.6,7.9-17.7,18.9-24.4,33.1s-11.9,31.4-15.4,51.5c-3.6,20.1-5.4,42.5-5.4,67.1  c0,12.9,0.5,25.7,1.6,38.5c1,12.8,2.8,24.9,5.4,36.5c2.5,11.5,5.7,22.3,9.6,32.2c3.8,10,8.7,18.6,14.5,25.9  c5.8,7.3,12.5,13,20.1,17.2c7.6,4.2,16.3,6.3,25.9,6.3c4,0,8.2-0.5,12.6-1.6c4.4-1,8.8-2.9,13.2-5.6c4.4-2.7,8.7-6.3,12.8-10.8  s8-10.4,11.8-17.6c3.4-7.2,6.1-14.4,8.2-21.7c2.1-7.3,3.6-14.4,4.7-21.4c1-7,1.7-13.7,2.1-20.1c0.3-6.4,0.7-12.2,1.1-17.3h-48.5  c-0.3,9.8-1,18.2-2.2,25.4c-1.2,7.2-2.9,13-4.9,17.6c-2,4.6-4.2,7.9-6.6,10.2c-2.4,2.2-4.9,3.3-7.5,3.3c-4.3,0-7.9-2-10.7-5.9  s-5.3-9-7.2-15.1s-3.5-13.1-4.6-20.7c-1.1-7.6-1.9-15-2.3-22.1c-0.5-7.1-0.7-13.6-0.8-19.4c-0.1-5.9-0.1-10.2-0.1-13.1  c0-14.6,0.6-28.3,1.7-41s2.8-23.9,5-33.4s5.1-17,8.7-22.5c3.6-5.5,7.9-8.2,12.8-8.2c2.7,0,5.1,1,7,3.1c2,2.1,3.6,4.8,4.9,8  c1.3,3.3,2.4,7,3.3,11.1s1.6,8.2,2.1,12c0.5,3.8,0.9,7.4,1.1,10.7c0.2,3.3,0.4,5.7,0.5,7.4H448.1z" fill="#000000"></path>
</svg>