<?xml version='1.0' encoding='utf-8'?>
<svg xmlns="http://www.w3.org/2000/svg" viewBox="0 0 1034 2041" width="203" height="400"><path d="M994 1336H882q0-351-54-523T664 641H370q-110 0-164 172t-54 523H40q0-178 12.5-307.5T92 804q35-126 95-192 74-83 183-83h294q108 0 183 83 61 68 95 192 26 95 39 224.5t13 307.5zm-436 486h-82q-159 0-282-55-14-5-40-19t-51.5-37.5-44-56.5-18.5-76v-52q0-15 4.5-38.5t20.5-46 46.5-39T194 1386h646q52 0 82.5 16.5t46.5 39 20.5 46 4.5 38.5v52q0 43-19 76t-44 56.5-51 37.5-39 19q-126 55-283 55zm-364-322q-21 0-29 2.5t-9 3.5q-4 4-4 20v52q0 15 9 28.5t22 24.5 27.5 19.5T237 1664q54 23 112.5 34.5T476 1710h82q67 0 126-11.5t113-34.5q12-5 27-13.5t27.5-19.5 21.5-24.5 9-28.5v-52q0-17-5-20-1-1-9-3.5t-28-2.5H194zM516 436q-55 0-102-14t-82-38.5-55-58-20-71.5 20-71 55-57.5T414 87t102-14 102.5 14 83 38.5T757 183t20 71-20 71.5-55.5 58-83 38.5T516 436zm0-251q-33 0-60 7t-46.5 17.5-30 22.5-10.5 22 10.5 22.5 30 23T456 317t60 7 60.5-7 47-17.5 30.5-23 11-22.5-11-22-30.5-22.5-47-17.5-60.5-7z" fill="#000000"></path></svg>