<?xml version='1.0' encoding='utf-8'?>
<!-- Generator: Adobe Illustrator 23.0.3, SVG Export Plug-In . SVG Version: 6.00 Build 0)  --><svg xmlns="http://www.w3.org/2000/svg" xmlns:xlink="http://www.w3.org/1999/xlink" version="1.1" id="Ebene_1" x="0px" y="0px" viewBox="0 0 1230.3 323.6" style="enable-background:new 0 0 1230.3 323.6;" xml:space="preserve" width="1520.7665" height="400.0">
<path d="M677.8,317.4h115.5v-66.8h-70.7v-67.8h64.1v-60h-64.1V64.2h68.4v-59H677.8V317.4z" fill="#000000"></path>
<path d="M956.8,317.4h115.5v-66.8h-70.7v-67.8h64.1v-60h-64.1V64.2h68.4v-59H956.8V317.4z" fill="#000000"></path>
<path d="M521,317.5h46.5V192.2h22.1c0.9,0,1.9,0.1,2.8,0.2s2,0.7,2.9,1.6s1.9,2.2,2.6,3.8s1.5,4.1,2.2,7.3c0.3,1.3,0.6,4.2,1,8.8  s0.8,10,1.4,16.4c0.5,6.4,1,13.3,1.6,20.6c0.5,7.4,1,14.5,1.6,21.4c0.1,3.9,0.3,7.9,0.6,11.8s0.5,7.8,0.7,11.3s0.5,6.8,0.8,9.8  c0.3,2.9,0.6,7,0.9,12.2h50.8c-0.7-6-1.3-10-2.1-11.9s-1.4-4-2-6.2c-0.6-2.2-1.1-4.5-1.6-7.1c-0.5-2.6-0.9-5.6-1.3-9  c-0.3-2-0.5-4.3-0.8-7.1c-0.3-2.8-0.6-6.4-0.9-10.9c-0.3-4.4-0.7-9.8-1.3-16c-0.5-6.3-1-13.8-1.6-22.7c-0.8-8.5-1.5-16.4-2.2-23.8  c-0.7-7.4-1.7-13.9-3-19.8c-1.4-5.8-3.3-10.9-5.9-15.2c-2.5-4.3-6-7.7-10.3-10.2c3-2.5,6-5.6,9-9.3s5.7-8.4,8.1-14  c2.4-5.6,4.5-12.3,6.2-20.1c1.7-7.8,2.5-16.9,2.5-27.4c0-4.8-0.3-9.9-0.9-15.2c-0.6-5.3-1.5-10.6-2.7-15.9  c-1.2-5.3-2.9-10.6-4.9-15.6c-2-5.1-4.5-9.9-7.3-14.5c-2.7-5-5.8-8.9-9.3-11.7c-3.5-2.9-7.1-5.1-11-6.6c-3.8-1.6-7.8-2.3-11.8-2.3  H521V317.5z M581.9,62.7c2.1,0,4,0,5.8,0.1c1.8,0.1,3.4,0.3,4.8,0.7c1.4,0.4,2.8,1,4,1.8s2.4,2,3.4,3.5c0.5,0.5,1.1,1.4,1.7,2.6  c0.6,1.2,1.2,3,1.8,5.2s1,5,1.4,8.2c0.3,3.3,0.5,7.2,0.5,11.9c0,5-0.2,9.2-0.7,12.7c-0.5,3.5-1,6.4-1.8,8.7  c-0.7,2.3-1.4,4.1-2.1,5.4c-0.7,1.3-1.1,2.3-1.4,2.9c-1.2,1.6-2.4,2.8-3.6,3.8c-1.2,1-2.4,1.7-3.5,2.1c-1.1,0.4-2.1,0.6-3,0.7  c-0.9,0.1-1.8,0.1-2.5,0.1h-20.1V62.7H581.9z" fill="#000000"></path>
<path d="M6.2,164.9c0,6.6,0.2,14.6,0.7,23.9s1.4,19.2,2.8,29.5c1.4,10.4,3.6,20.9,6.4,31.5c2.8,10.6,6.5,20.6,11,30  c3.6,7.3,7.8,13.6,12.3,18.9c4.6,5.3,9.4,9.8,14.7,13.5s10.6,6.3,16,7.7s11.1,2.2,16.8,2.2c3.6,0,8-0.5,13-1.5c5-1,10.3-3,15.8-6.2  c5.5-3.1,11-7.6,16.5-13.4c5.5-5.8,10.4-13.5,14.9-23.2c3.5-7.4,6.6-15.8,9.3-25.2c2.7-9.4,4.9-19.3,6.6-29.7s3.1-21.2,4.1-32.3  c1-11.1,1.5-22.1,1.5-33c0-7.2-0.3-15.4-0.9-24.6s-1.6-19-3.1-29.1s-3.7-20.5-6.5-31s-6.6-20.7-11.1-30.6c-3.9-8.6-8.4-15.6-13.4-21  S123.3,11.6,118,8.5s-10.7-5.2-15.9-6.4C96.8,1.1,92,0.5,87.7,0.5c-10.2,0-19.3,2.2-27.3,6.5s-15.1,10.3-21.1,18S28.1,41.7,24,52.1  S16.4,73.8,13.7,86c-2.7,12.2-4.6,25-5.8,38.3S6.2,151.2,6.2,164.9z M54.6,162.8c0-8.3,0.2-16.5,0.5-24.3s0.8-15.4,1.5-22.6  s1.6-13.7,2.9-19.7c1.3-6,2.9-11.1,4.7-15.4c2.9-7.2,6.3-12.8,10.3-16.8c4-4,8.4-6.1,13.4-6.1c6.3,0,11.9,3.9,16.8,11.6  s8.9,20,11.9,36.7c0.8,4.2,1.4,8.5,1.9,13c0.5,4.5,0.8,9,1,13.4c0.2,4.4,0.4,8.7,0.5,12.8c0.1,4.1,0.2,8,0.2,11.6  c0,11.9-0.3,22.2-0.8,30.9c-0.5,8.7-1.2,16.3-2.1,22.8s-1.9,11.9-3,16.4c-1.2,4.5-2.3,8.4-3.5,11.6c-5.5,16.4-13.2,24.6-23.1,24.6  c-3.1,0-5.9-0.6-8.2-1.8c-2.3-1.2-4.5-2.7-6.4-4.7s-3.5-4.2-4.9-6.7c-1.4-2.5-2.6-5.2-3.6-7.9c-2-5.1-3.6-10.8-5-17  c-1.4-6.3-2.4-12.9-3-19.8c-0.7-7-1.1-14.1-1.5-21.3C54.8,176.7,54.6,169.7,54.6,162.8z" fill="#000000"></path>
<path d="M189.7,318h46.1V192.7L278.1,318H333l-63.3-175.2l58.8-138h-52.3l-40.4,99.8V4.6h-46.1V318z" fill="#000000"></path>
<path d="M353,316.6h50.4L492.2,6H442L353,316.6z" fill="#000000"></path>
<path d="M802.3,207.4c0,5.3,0.1,11.9,0.3,19.6c0.2,7.7,1,15.7,2.3,24.1c1.4,8.4,3.4,16.8,6.1,25.1c2.7,8.3,6.4,15.8,11.2,22.5  c4.8,6.6,11,12.1,18.5,16.2c7.5,4.2,16.7,6.3,27.5,6.3c11.6,0,21.9-2.7,30.9-8.1c9-5.4,16.5-12.7,22.5-22c6-9.3,10.5-20.1,13.6-32.6  c3.1-12.4,4.6-25.7,4.6-39.8c0-10.2-0.7-19.1-2.2-26.9c-1.5-7.8-3.6-14.6-6.3-20.5c-2.7-5.9-5.8-11-9.4-15.3  c-3.6-4.3-7.5-8.1-11.7-11.3s-8.7-6.1-13.5-8.6s-9.5-4.8-14.4-7h0.2c-4.7-2.2-8.8-4.3-12.4-6.3c-3.6-2-6.6-4.2-9-6.7  s-4.2-5.7-5.4-9.5c-1.2-3.8-1.8-8.7-1.8-14.7c0-10.3,1.7-18.6,5.2-24.8s8-9.4,13.6-9.4c2.7,0,5.1,0.9,6.9,2.6c1.9,1.8,3.6,4,5,6.7  c1.4,2.7,2.5,5.8,3.3,9.3c0.8,3.5,1.4,6.9,1.8,10.3s0.7,6.5,0.9,9.3c0.2,2.8,0.3,5.1,0.3,6.9h44.8c0-3-0.1-6.9-0.2-11.7  c-0.1-4.8-0.5-10.1-1.2-15.9s-1.6-11.9-2.9-18.3s-3.3-12.6-5.9-18.8c-3-7.4-6.5-13.5-10.7-18.3s-8.4-8.5-12.9-11.3s-9.2-4.7-14-5.7  s-9.4-1.5-13.7-1.5c-11.9,0-22,2.6-30.5,7.7s-15.4,12.2-20.8,21.2s-9.4,19.4-12,31.1S807,85.5,807,98.5c0,13.6,1.3,25.3,4,35.1  c2.7,9.8,6.6,18.5,11.8,25.9c5.2,7.4,11.6,13.9,19.3,19.4c7.6,5.5,16.4,10.5,26.3,15.1c3.9,2.1,7.4,3.9,10.5,5.6  c3.1,1.6,5.6,3.6,7.5,5.9c2,2.3,3.4,5.2,4.3,8.8c0.9,3.6,1.4,8.2,1.4,14c0,10.8-1.9,19.4-5.8,25.7s-9.3,9.5-16.3,9.5  c-3.5,0-6.5-0.9-9-2.7c-2.5-1.8-4.5-4.1-6-6.9s-2.7-6-3.5-9.6c-0.8-3.6-1.5-7.2-1.9-10.9c-0.4-3.6-0.7-7.1-0.8-10.4  c-0.1-3.3-0.2-5.9-0.2-8v-7.4H802.3z" fill="#000000"></path>
<path d="M1130.6,317.7h46.4V65h45.6V4.9h-137.4V65h45.4V317.7z" fill="#000000"></path>
</svg>