<?xml version='1.0' encoding='utf-8'?>
<!-- Generator: Adobe Illustrator 23.0.1, SVG Export Plug-In . SVG Version: 6.00 Build 0)  --><svg xmlns="http://www.w3.org/2000/svg" xmlns:xlink="http://www.w3.org/1999/xlink" version="1.1" id="Ebene_1" x="0px" y="0px" viewBox="0 0 291 278" style="enable-background:new 0 0 291 278;" xml:space="preserve" width="418.70505" height="400.0">
<g>
	<path d="M175.3,214.8h102.1c3.7,0,6.6-3,6.6-6.6V26.5c0-3.7-3-6.6-6.6-6.6H97c-3.7,0-6.6,3-6.6,6.6v79.6l13.3,0.8V33.1h167.2v168.4   H165c0,0,4.4,2.5,6.7,5.7S175.3,214.8,175.3,214.8z" fill="#000000"></path>
</g>
<g>
	<path d="M152.7,262.2c0-0.2-2.4-19-5.2-29.8c-1.9-7.2-6.6-11.8-14.6-14.1c-1.2-0.4-2.9-0.7-4.6-1.1c-9.7-2.2-24.3-5.5-24.3-17.6   c0-9.3,4-14.3,6.7-17.7c0.5-0.6,0.9-1.1,1.2-1.6c1.6-3,6.1-21.9-0.5-31.4c-7.4-10.6-13.6-12.6-22.5-12.6c-8.9,0-15.1,2-22.5,12.6   c-6.6,9.5-2.1,28.4-0.5,31.4c0.3,0.4,0.7,1,1.2,1.6c2.7,3.3,6.7,8.4,6.7,17.7c0,12-14.6,15.4-24.3,17.6c-1.8,0.4-3.4,0.8-4.6,1.1   c-7.9,2.3-12.7,6.9-14.6,14.1c-2.8,10.8-5.2,29.6-5.2,29.8l-12-1.5c0.1-0.8,2.5-19.8,5.5-31.4c3-11.3,10.9-19.1,22.9-22.6   c1.5-0.4,3.4-0.9,5.3-1.3c13-3,14.9-4.9,14.9-5.8c0-5.1-1.9-7.4-4-10.1c-0.6-0.8-1.2-1.5-1.8-2.4c-3.7-5.4-9.4-30.6,0.6-45   c8.8-12.7,18.1-17.8,32.4-17.8c14.2,0,23.6,5.2,32.4,17.8c10,14.4,4.2,39.6,0.6,45c-0.6,0.8-1.2,1.6-1.8,2.4c-2.2,2.7-4,5.1-4,10.1   c0,0.9,1.9,2.9,14.9,5.8c1.9,0.4,3.8,0.9,5.3,1.3c12,3.5,19.9,11.3,22.9,22.6c3,11.6,5.4,30.6,5.5,31.4L152.7,262.2z" fill="#000000"></path>
</g>
<path d="M143.3,172c4.6,1.2,10.6,0.7,16.7-1.7c9.6-3.8,16-11,15.4-17V88.4l42.8-10.2v54.9c-4-0.3-8.7,0.4-13.5,2.2  c-10.7,4.2-17.4,12.7-15,19c2.5,6.3,13.2,8,23.9,3.8c9.6-3.8,16-11,15.4-17V59.7L164.6,75v70.3c-4-0.3-8.7,0.4-13.5,2.2  c-2.9,1.1-5.6,2.6-7.8,4.3c0,0,1.1,4.7,1,9.1C144.3,165.3,143.3,172,143.3,172z" fill="#000000"></path>
</svg>