<?xml version='1.0' encoding='utf-8'?>
<!-- Generator: Adobe Illustrator 23.0.1, SVG Export Plug-In . SVG Version: 6.00 Build 0)  --><svg xmlns="http://www.w3.org/2000/svg" xmlns:xlink="http://www.w3.org/1999/xlink" version="1.1" id="Ebene_3" x="0px" y="0px" viewBox="0 0 291 278" style="enable-background:new 0 0 291 278;" xml:space="preserve" width="418.70505" height="400.0">
<g>
	<path d="M86.5,18.5c15.5-2.6,35.8-4.8,61.6-4.8c31.7,0,55,7.4,69.7,20.7c13.7,11.8,21.8,29.9,21.8,52c0,22.5-6.6,40.2-19.2,53.1   c-17,18.1-44.6,27.3-76,27.3c-9.6,0-18.4-0.4-25.8-2.2v99.6H86.5V18.5z M118.6,138.4c7,1.8,15.9,2.6,26.6,2.6   c38.7,0,62.4-18.8,62.4-53.1c0-32.8-23.2-48.7-58.7-48.7c-14,0-24.7,1.1-30.3,2.6V138.4z" fill="#000000"></path>
</g>
</svg>