<?xml version='1.0' encoding='utf-8'?>
<!-- Generator: Adobe Illustrator 24.0.2, SVG Export Plug-In . SVG Version: 6.00 Build 0)  --><svg xmlns="http://www.w3.org/2000/svg" xmlns:xlink="http://www.w3.org/1999/xlink" version="1.1" id="Ebene_2" x="0px" y="0px" viewBox="0 0 425 400" style="enable-background:new 0 0 425 400;" xml:space="preserve" width="425.0" height="400.0">
<path d="M7.8,241.4l72.9,2.7c0.3-0.1,0.9-0.3,1.9-0.5c1-0.2,2-0.8,3.2-1.5c1.2-0.8,2.5-2.1,3.7-3.7c1.2-1.6,2.5-4.2,3.6-7.7  c1.1-3.4,2.1-7.7,2.7-13.1c0.8-5.2,1.1-11.9,1.1-19.8c0-9.4-0.4-17.2-1.3-23.6c-0.9-6.3-1.9-11.3-3-15c-1.2-3.7-2.4-6.3-3.6-7.9  c-1.2-1.5-2.2-2.4-2.8-2.4H7.8V241.4z M64.5,162.5c1.4,2.7,2.7,5.9,4,9.6c1,3.2,2,6.9,2.7,11.2c0.9,4.4,1.3,9.3,1.3,14.6  s-0.4,10.1-1.3,14.3c-0.9,4.1-1.7,7.5-2.7,10.2c-1.3,3.3-2.6,6-4,8.1H42.8v-68h21.8V162.5z M357.4,132.7c-5.4,1.4-11.3,2.9-17.8,4.6  c-6.4,1.6-13.2,3.9-20.1,6.7c5.4-5.7,10.1-11.1,14.1-16.2c4-5.1,7.5-9.7,10.3-13.8L357.4,132.7z M417.1,132.7  c-1.4,0.8-3.4,1.7-5.9,2.9c-2.5,1.3-5.1,2.7-7.9,4.2c-2.8,1.5-5.7,3.2-8.5,4.8c-2.8,1.6-5.3,3-7.5,4.4c-1-2.3-2.5-5.4-4.6-9.4  c-2.1-3.9-4.5-8.4-7.3-13.3c-2.7-4.8-5.8-9.8-8.8-15c-3.2-5.2-6.2-10.1-9-14.8c-2.9-4.7-5.6-8.9-7.9-12.6c-2.4-3.7-4.2-6.4-5.6-8.3  c1.7-1.3,4.4-3.2,7.9-5.6s7.6-5.1,12.2-8.1c4.6-2.9,9.4-6.2,14.4-9.5c5-3.3,10-6.5,14.8-9.7c4.8-3.2,9.4-6.1,13.5-8.7  c4.2-2.7,7.6-5,10.3-6.9V6L316.9,67.8l18.9,29.8l-56.3,71.5l86.2-20l16,27.1l35.4-21.5v-22H417.1z M7.8,282.3h92.4  c7.5-3.6,14.3-8.9,20.2-16c2.6-2.9,5-6.5,7.5-10.6s4.6-8.7,6.5-14c2-5.3,3.5-11.3,4.6-18c1.1-6.6,1.7-13.9,1.7-22.1  c0-11.6-0.8-21.9-2.2-30.6c-1.4-8.7-3.2-16.3-5.3-22.7c-2.2-6.4-4.6-11.8-7.3-16c-2.7-4.2-5.3-7.8-7.8-10.6  c-2.5-2.7-4.8-4.8-6.9-6.2c-2.1-1.3-3.6-2.3-4.6-2.8c-0.3-0.3-0.4-0.4-0.5-0.4c-0.1,0-0.2-0.1-0.3-0.2H7.8v15.3h75.5  c2.8,0,5.8,0.7,8.7,2.1c2.9,1.4,6.4,3.3,10.4,5.9c5.4,5.6,9.5,13.3,12.3,23.2c2.7,9.9,4.1,23,4.1,39.4c0,9.8-0.5,18.6-1.6,26.2  c-1.1,7.7-3,14.3-5.9,19.7c-2.8,5.4-6.7,9.8-11.6,13.2c-4.9,3.3-11.3,5.4-19,6.4l-72.9-0.4C7.8,263.1,7.8,282.3,7.8,282.3z   M156.6,244.1c9.6-6.9,16.9-15.3,22.1-25.5c5.2-10.1,7.8-20.7,7.8-31.5c0-9.7-1.9-19-5.7-28.1c-3.8-9-9-17-15.9-23.8l-13.4,16.4  c5.4,4.1,9.4,9.4,12,15.7c2.6,6.3,3.8,13,3.8,19.7c0,8.3-1.9,15.7-5.7,22.4c-3.8,6.6-9,12.7-15.9,18.2L156.6,244.1z M175.7,276.4  c8.1-4.7,15.3-10.3,21.8-16.9s11.8-13.7,16.2-21.5c4.5-7.8,7.7-16,10-24.6c2.3-8.6,3.4-17.3,3.4-26.1c0-8.1-1-16-2.8-23.8  c-2-7.7-4.7-15.2-8.2-22.4c-3.6-7.2-7.8-13.9-12.8-20.2c-5-6.3-10.6-12.2-16.7-17.6l-13.4,16c11,8.1,19.6,18.1,25.8,29.8  c6.2,11.8,9.4,24.5,9.4,38.2c0,7.5-1,14.8-2.9,21.8c-2,7-4.8,13.6-8.5,19.9s-8.2,12.2-13.5,17.5s-11.4,10-18.3,13.9L175.7,276.4z   M200.1,309c10.1-6.6,19.3-14.5,27.6-23.5c8.3-8.9,15.5-18.7,21.3-29.2c5.9-10.6,10.4-21.7,13.7-33.3s4.9-23.6,4.9-35.8  c0-10.8-1.3-21.5-3.9-32.2s-6.4-20.9-11.3-30.8c-4.9-9.9-10.9-19.2-18-27.8c-7.1-8.6-15-16.3-23.8-23.2L200,89.7  c7.4,5.4,14.1,11.8,20.1,18.9c6.1,7.3,11.2,15.1,15.5,23.6s7.5,17.3,9.8,26.7c2.3,9.4,3.4,18.7,3.4,28.3c0,10.8-1.4,21.2-4.4,31.3  c-2.9,10.1-7.1,19.6-12.4,28.6c-5.3,8.9-11.6,17.3-18.9,24.9c-7.3,7.7-15.3,14.6-23.9,20.7L200.1,309z" fill="#000000"></path>
</svg>