<?xml version='1.0' encoding='utf-8'?>
<svg xmlns="http://www.w3.org/2000/svg" viewBox="0 0 1615 2041" width="317" height="400"><path d="M1038 1084l67-210 40 41 34-36 29-41 24-44 19-46 15-46 11-50 4-50v-50l-7-48-11-50-15-46-21-46-26-43-31-40-32-37-38-32-40-30-44-23-46-20-96-24-50-4h-50l-50 7-47 12-48 16-45 22-44 26-38 29-37 35-33 37-28 41-23 44-19 46-16 48-7 48-4 51 8 100 12 46 17 49 22 45 24 41 31 41 36 35 38 31 40 29-41 67-43-30-81-69-64-88-24-47-38-101-10-53-5-52v-55l5-52 11-53 15-51 19-50 25-48 26-44 34-43 77-75 44-29 47-26 50-21 50-17 53-12 53-6h107l104 23 51 20 46 23 46 29 43 32 39 37 36 39 31 43 49 95 18 50 13 53 8 53v106l-8 53-13 54-18 50-23 48-27 46-32 43-35 40 44 42zM770 241h86l235 581h-89l-62-151H671l-63 151h-82zm-74 365h219L809 321zm-577 652q24-26 51-42t54.5-25 53.5-12 47-3q64 0 115.5 20t87.5 60 55.5 99.5T603 1494q0 61-13.5 120T543 1719t-88 74.5-137 28.5q-79 0-132-26t-85.5-70T54 1624.5 40 1503q0-25 3-56.5t11.5-64.5 24-65 40.5-59zm64 435q27 33 64.5 44.5T321 1749q38 0 74-12t63-44q19-23 30-51.5t16.5-56 7-52.5 1.5-41q0-52-9.5-97t-31.5-78-58-51.5-88-18.5q-59 0-97 21.5t-60 57-31 80.5-9 93q0 51 11.5 102.5T183 1693zm551-502h367v73H821v192h264v71H821v280h-87v-616zm475 0h366v73h-280v192h264v71h-264v280h-86v-616z" fill="#000000"></path></svg>