<?xml version='1.0' encoding='utf-8'?>
<svg xmlns="http://www.w3.org/2000/svg" viewBox="0 0 1825 2041" width="358" height="400"><path d="M221 888q-28 0-45.5 17T158 949q0 174 76 326h12q9 29 27.5 40.5T321 1327l147-152q-26-49-43-110t-17-128v-49H221zm1297 439q30 0 48.5-11.5t28.5-40.5h12q37-75 56-156.5t19-169.5q0-27-16.5-44t-44.5-17h-188v49q0 67-18 129.5t-47 120.5zM495 1450v12q-18 14-25.5 26t-7.5 26q0 15 6 36v12q97 66 213 102.5t238 36.5q125 0 236-36.5t213-102.5q-4-4-6-8-1-2-2-3v1q2 0 8.5-11t6.5-21q0-17-8.5-30t-22.5-28v-12l-127-99q-33 19-67.5 37t-71.5 31.5-76.5 22-82.5 8.5q-41 0-81-8.5t-77.5-22T688 1388t-68-37zM919 162q-116 0-222 34t-196 94-161.5 142.5T221 612q0 20 16.5 38.5T270 678h1300q20-9 35.5-27.5T1621 612q-48-97-119.5-179.5T1340 290t-196.5-94T919 162zm0 589q-56 0-103.5 22t-82 59.5T679 920t-20 106q0 55 20 104.5t54.5 87 82 59.5 103.5 22q57 0 105.5-22t83-59.5 54-87T1181 1026q0-56-19.5-106t-54-87.5-83-59.5T919 751zm0 1073q-121 0-234.5-32T471 1702t-183-139-142.5-180T53 1171.5 20 937q0-124 33-239t92.5-214.5T288 302t183-140.5T684.5 71 919 39q126 0 240.5 32t213 90.5T1551 302t136.5 181.5 87 214.5 30.5 239q0 121-30.5 234t-87 212-136.5 180-178.5 139-213 90-240.5 32z" fill="#000000"></path></svg>