<?xml version='1.0' encoding='utf-8'?>
<svg xmlns="http://www.w3.org/2000/svg" viewBox="0 0 1665 2041" width="326" height="400"><path d="M1574 1583q21 0 36 15t15 36-15 36-36 15q-32 0-66.5 9t-75.5 21q-34 10-72.5 20t-80.5 17q-32 5-63 7t-58 2q-18 0-33.5-.5t-29.5-1.5q-45-3-77-32.5t-39-73.5q-1-5-1-14 1-9 1.5-26t-1-37-5.5-40-11-36q-18-39-4-74 5-12 18-26.5t40-23.5q10-3 42.5-16t69.5-27l-150-19h-3q-17-3-29.5-13.5T926 1275q-13-34 7-62 11-17 15.5-25.5t5.5-10.5q1-4 1-37v-1h-5l-91-8q-36-1-66-20t-45-52q-16-34-11-69.5t29-63.5q27-33 57.5-66.5t60.5-65 56.5-59T987 688l20-20 11-12q6-6 10.5-12.5t7.5-15 4.5-20.5 1.5-31q0-5-1.5-7.5T1031 558q-8-8-16.5-18t-16-25-12.5-35-5-47q0-84 128-224 23-25 48.5-50t50.5-47 48-39.5 41-28.5 38.5-5.5T1367 62t5.5 38.5T1349 132q-12 8-31 22t-41 33-46 42.5-47 48.5q-60 66-80.5 104.5T1083 433q0 24 5.5 33.5T1104 487q12 13 26 33t14 57q0 50-11 83t-38 64q-4 5-12 13l-23 23q-19 20-45.5 46.5T959 864t-59 63.5-56 63.5q-6 8-6 14.5t2 10.5 7 8.5 14 4.5h5l91 8q42 2 70.5 30.5t29.5 70.5q0 26-.5 38t-1.5 17-2.5 11.5-5.5 15.5l191 24h2q47 8 60 52 7 22 .5 44.5T1276 1380q-7 7-16 10-6 3-31.5 13t-57 22.5-62.5 24.5-49 19q9 24 14 50t6.5 49.5 1 43-1.5 29.5q6 14 22 16 30 2 72.5 2t89.5-8q37-6 71.5-15t67.5-19q45-13 86.5-23.5t84.5-10.5zM1276 556q31 0 65.5 3t72 13 77.5 27.5 82 47.5q8 5 18 15.5t17 21 8.5 20-7.5 12.5q-10 4-25-2t-38.5-15.5-57-21T1407 658q1 5 1 15 2 32-12.5 54.5T1358 751q-12 1-22-4.5t-18.5-15-13.5-23-6-29.5q0-19 4-31-8-1-14.5-1H1271q-19 0-32.5-13t-13.5-33q0-19 13.5-32t32.5-13h5zM148 1772q-53-95-80.5-199.5T40 1359q0-118 31.5-230T165 917l78 48q-55 89-83 188.5T132 1359q0 97 24 190t72 177zm215-121q-38-67-57-141t-19-151q0-84 22-163t66-150l78 48q-37 60-55.5 127T379 1359q0 65 16 127.5t48 119.5zm216-121q-22-39-33.5-82.5T534 1359q0-99 52-183l78 48q-38 61-38 135 0 33 8 65t25 61z" fill="#000000"></path></svg>