<?xml version='1.0' encoding='utf-8'?>
<svg xmlns="http://www.w3.org/2000/svg" viewBox="0 0 1871 2041" width="367" height="400"><path d="M1831 1718q0 45-30 75t-74 30H144q-44 0-74-30t-30-75V136q0-22 8-41t22-33 33-22.5 41-8.5h1583q22 0 41 8.5t33 22.5 22 33 8 41v1582zm-491-209h-41q-51 0-85.5-2t-56.5-10.5-31.5-26-9.5-49.5V803q-29 2-63.5 3t-72.5 1q-44 0-90.5-1t-92.5-2-90.5-2-84.5-1q-23 0-43.5.5T540 803v164q62 0 103.5 2t67 12.5 36 33T757 1079v347q0 30-9.5 46.5T717 1497t-55.5 9.5-83.5 1.5h-36v178q37-3 74-4t72-1q72 0 135.5 2.5T938 1686q52 0 115.5-2t135.5-2q36 0 72.5 1t74.5 3v-177h4zM1124 416q0-43-16.5-81.5t-45-67-67-45T914 206t-81 16.5-66.5 45-45 67T705 416q0 44 16.5 82t45 67 66.5 45.5 81 16.5 81.5-16.5 67-45.5 45-67 16.5-82z" fill="#000000"></path></svg>