<?xml version='1.0' encoding='utf-8'?>
<!-- Generator: Adobe Illustrator 20.1.0, SVG Export Plug-In . SVG Version: 6.00 Build 0)  --><svg xmlns="http://www.w3.org/2000/svg" xmlns:xlink="http://www.w3.org/1999/xlink" version="1.1" id="Ebene_1" x="0px" y="0px" viewBox="0 0 482.5 400" style="enable-background:new 0 0 482.5 400;" xml:space="preserve" width="482.5" height="400.0">
<style type="text/css">
	.st0{fill:#1D1D1B;}
	.st1{fill:#FFFFFF;stroke:#FFFFFF;stroke-miterlimit:10;}
</style>
<path class="st0" d="M371.9,381.3c-0.1-1-2-25.1-6.9-51.2c-9.4-50.4-21-61.9-28.9-66.2c-13.4-7.2-37-12.6-57.8-17.3  c-11.7-2.7-27.7-6.3-31.6-8.5c-3.1-3.5-3-5.3-2.6-10.4c0.6-1.2,2.2-3.8,3.5-6c10.1-16.9,31.1-52,25.4-99  c-5.6-46.5-34.1-71.4-84.6-74c-0.5,0-1,0-1.4,0c-0.5,0-1-0.1-1.5,0c-50.5,2.6-79,27.5-84.6,74c-5.7,47,15.3,82.1,25.4,99  c1.3,2.1,2.8,4.8,3.5,6c0.5,5.1,0.5,6.9-2.6,10.4c-3.9,2.2-19.8,5.8-31.6,8.5c-20.8,4.7-44.4,10.1-57.8,17.3  c-7.9,4.3-19.5,15.8-28.9,66.2c-4.9,26.1-6.8,50.2-6.9,51.2c-0.4,5.2,3.5,9.7,8.7,10.1c0.3,0,0.5,0,0.8,0c4.9,0,9-3.7,9.4-8.7  c0-0.2,2-24.3,6.6-49.4c8.4-45,17.5-51.9,19.3-52.9c11.2-6,34.4-11.3,53-15.6c26.5-6.1,36.2-8.6,40.9-13.7  c9.3-10.1,8.5-18.9,7.8-25.9l0-0.3c-0.3-3.6-2.2-6.7-6-13c-9-15.1-27.8-46.4-22.9-87.1c4.5-37,25.7-55.3,66.8-57.4  c0.2,0,0.3,0,0.5,0c0.2,0,0.3,0,0.5,0c41.1,2.1,62.3,20.4,66.8,57.4c4.9,40.6-13.8,72-22.9,87.1c-3.8,6.3-5.6,9.4-6,13l0,0.3  c-0.6,7.1-1.4,15.8,7.8,25.9c4.6,5.1,14.3,7.6,40.9,13.7c18.7,4.3,41.9,9.6,53,15.6c1.7,0.9,10.9,7.9,19.3,52.9  c4.7,25.1,6.6,49.2,6.6,49.4c0.4,4.9,4.5,8.7,9.4,8.7c0.2,0,0.5,0,0.8,0C368.4,391,372.3,386.5,371.9,381.3z" fill="#000000"></path>
<path class="st0" d="M240.6,45.1c11.1-10.8,27.4-16.6,49.4-17.7c0.2,0,0.3,0,0.5,0c0.2,0,0.3,0,0.5,0c41.1,2.1,62.3,20.4,66.8,57.4  c4.9,40.6-13.8,72-22.9,87.1c-3.8,6.3-5.6,9.4-6,13l0,0.3c-0.6,7.1-1.4,15.8,7.8,25.9c4.6,5.1,14.3,7.6,40.9,13.7  c18.7,4.3,41.9,9.6,53,15.6c1.7,0.9,10.9,7.9,19.3,52.9c4.7,25.1,6.6,49.2,6.6,49.4c0.4,4.9,4.5,8.7,9.4,8.7c0.2,0,0.5,0,0.8,0  c5.2-0.4,9.1-5,8.7-10.1c-0.1-1-2-25.1-6.9-51.2c-9.4-50.4-21-61.9-28.9-66.2c-13.4-7.2-37-12.6-57.8-17.3  c-11.7-2.7-27.7-6.3-31.6-8.5c-3.1-3.5-3-5.3-2.6-10.4c0.6-1.2,2.2-3.8,3.5-6c10.1-16.9,31.1-52,25.4-99  c-5.6-46.5-34.1-71.4-84.6-74c-0.5,0-1,0-1.4,0c-0.5,0-1-0.1-1.5,0c-24.1,1.3-43.2,7.6-57.2,19c-2.5,2-4.8,4.2-6.9,6.5  c0,0,4.4,1.9,7.7,4.6S240.6,45.1,240.6,45.1z" fill="#000000"></path>
<path class="st1" d="M-160.1,80.9" fill="#000000"></path>
<path class="st1" d="M-179.1,61.9" fill="#000000"></path>
</svg>