<?xml version='1.0' encoding='utf-8'?>
<!-- Generator: Adobe Illustrator 20.1.0, SVG Export Plug-In . SVG Version: 6.00 Build 0)  --><svg xmlns="http://www.w3.org/2000/svg" xmlns:xlink="http://www.w3.org/1999/xlink" version="1.1" id="Ebene_1" x="0px" y="0px" viewBox="0 0 400.7 334" style="enable-background:new 0 0 400.7 334;" xml:space="preserve" width="479.88025" height="400.0">
<style type="text/css">
	.st0{fill:#FFFFFF;stroke:#FFFFFF;stroke-miterlimit:10;}
	.st1{fill:#1D1D1B;}
</style>
<path class="st0" d="M312,14.3" fill="#000000"></path>
<path class="st0" d="M288.4-9.3" fill="#000000"></path>
<path class="st1" d="M369.1,323.5L369.1,323.5c0,0,4.8,3.5,11.6,1.9c6.1-1.3,8.6-5.3,8.6-5.3c-0.1-0.3-0.1-0.7-0.2-1  c-10.2-54.7-22.8-67.2-31.4-71.8c-14.5-7.8-40.1-13.7-62.7-18.8c-12.7-2.9-30.1-6.9-34.3-9.2c-3.3-3.8-3.3-5.8-2.8-11.2  c0.7-1.3,2.4-4.2,3.7-6.5c11-18.3,33.7-56.4,27.6-107.4c-6.1-50.4-37-77.4-91.8-80.3c-0.5,0-1.1,0-1.6,0.1c-0.5-0.1-1-0.1-1.6-0.1  c-54.8,2.9-85.7,29.9-91.8,80.3c-6.2,51,16.6,89.1,27.6,107.4c1.4,2.3,3.1,5.2,3.7,6.5c0.5,5.5,0.5,7.5-2.8,11.2  c-4.2,2.4-21.5,6.3-34.3,9.2c-22.6,5.1-48.1,11-62.7,18.8c-7.7,4.1-18.6,14.6-28.1,55.9c0,0,2.4,5.8,7.2,6.5c11.5,1.6,13-3.4,13-3.4  l0,0c8-34.2,15.8-40.1,17.5-41c12.1-6.5,37.3-12.3,57.5-16.9c28.8-6.6,39.3-9.4,44.3-14.8c10-11,9.2-20.5,8.5-28.1l0-0.3  c-0.4-3.9-2.4-7.3-6.5-14.1c-9.8-16.4-30.1-50.4-24.8-94.5c4.9-40.2,27.9-60,72.5-62.3c0.2,0,0.3,0,0.5-0.1c0.2,0,0.3,0,0.5,0.1  c44.6,2.3,67.6,22.1,72.5,62.3c5.3,44.1-15,78.1-24.8,94.5c-4.1,6.8-6.1,10.2-6.5,14.1l0,0.3c-0.7,7.7-1.6,17.2,8.5,28.1  c5,5.5,15.6,8.3,44.3,14.8c20.2,4.6,45.4,10.4,57.5,16.9c1.9,1,11.8,8.6,20.9,57.4C369,323,369.1,323.3,369.1,323.5z" fill="#000000"></path>
</svg>