<?xml version='1.0' encoding='utf-8'?>
<svg xmlns="http://www.w3.org/2000/svg" viewBox="0 0 1637 2041" width="321" height="400"><path d="M866 1728q127-9 239-61.5t197-137.5 137.5-196.5T1501 1093h96q-9 133-60 256-61 141-168 247-54 54-115.5 96.5T1122 1764q-124 52-256 59v-95zm-730-635q9 128 61.5 239.5T335 1529t196.5 137.5T771 1728v95q-68-4-131-18.5T516 1764q-71-29-133-71.5T266 1596q-105-105-166-247-26-62-41-126t-19-130h96zm1401-350q51 120 60 255h-96q-9-133-66-249.5T1286 546t-212-135.5T818 361q-135 0-255.5 49.5T350.5 546 202 748.5 136 998H40q4-68 19-131.5T100 743q30-71 71-133.5T266 493q109-106 250-166 79-34 159-49L818 32l144 246q41 8 81 20t79 29q140 60 247 166 107 107 168 250zm-539 507V697h94v704h-98L641 847h-2v554h-95V697h97l355 553h2z" fill="#000000"></path></svg>