<?xml version='1.0' encoding='utf-8'?>
<!-- Generator: Adobe Illustrator 24.0.0, SVG Export Plug-In . SVG Version: 6.00 Build 0)  --><svg xmlns="http://www.w3.org/2000/svg" xmlns:xlink="http://www.w3.org/1999/xlink" version="1.1" id="Ebene_2" x="0px" y="0px" viewBox="0 0 374.5 373.8" style="enable-background:new 0 0 374.5 373.8;" xml:space="preserve" width="400.74908" height="400.0">
<g>
	<g>
		<path d="M187.3,367.1c-99.4,0-180.2-80.8-180.2-180.2C7.1,87.5,87.9,6.7,187.3,6.7s180.2,80.8,180.2,180.2    C367.4,286.3,286.6,367.1,187.3,367.1z M187.3,23C96.9,23,23.4,96.5,23.4,186.9c0,90.4,73.5,163.9,163.9,163.9    s163.9-73.5,163.9-163.9C351.1,96.5,277.6,23,187.3,23z" fill="#000000"></path>
	</g>
	<g>
		<path d="M153.5,217.1c-3.2,0-6-2.2-6.7-5.4c-1.8-8.1-2.8-16.5-2.8-24.8c0-8.7,1-17.3,3-25.7c0.9-3.7,4.6-6,8.3-5.1    c3.7,0.9,6,4.6,5.1,8.3c-1.7,7.3-2.6,14.9-2.6,22.5c0,7.4,0.8,14.7,2.4,21.8c0.8,3.7-1.5,7.4-5.2,8.3    C154.5,217.1,154,217.1,153.5,217.1z" fill="#000000"></path>
	</g>
	<g>
		<path d="M119.1,235c-3,0-5.7-1.9-6.6-4.9c-4.2-14-6.3-28.5-6.3-43.2c0-15.2,2.3-30.1,6.7-44.4c1.1-3.6,5-5.7,8.6-4.5    c3.6,1.1,5.7,5,4.5,8.6c-4,13-6.1,26.6-6.1,40.3c0,13.4,1.9,26.5,5.7,39.2c1.1,3.7-1,7.5-4.6,8.6C120.4,234.9,119.7,235,119.1,235    z" fill="#000000"></path>
	</g>
	<g>
		<path d="M86.8,251.8c-2.9,0-5.5-1.8-6.5-4.7c-6.6-19.3-10-39.6-10-60.2c0-21.2,3.6-42.1,10.6-61.9c1.3-3.6,5.2-5.5,8.8-4.2    c3.6,1.3,5.5,5.2,4.2,8.8c-6.5,18.4-9.8,37.6-9.8,57.3c0,19.1,3.1,37.9,9.3,55.7c1.2,3.6-0.7,7.5-4.3,8.8    C88.3,251.7,87.5,251.8,86.8,251.8z" fill="#000000"></path>
	</g>
	<g>
		<path d="M280,307c-3.5,0-6.5-2.7-6.9-6.2l-2.2-22.7c-1-2.7-3.4-10.2-4.1-21.4c-10.9,0-25.4-0.9-34.7-1.5c-2.7-0.2-4.9-0.3-6.3-0.4    c-10.7-0.5-22.1-10.1-22.1-26.7c0-13,1.6-20.5,10.6-24.9c2.4-1.2,5.6-2.9,8.8-4.5l-13.3-6c-2.7-1.2-4.3-4-4-6.9    c0-0.1,0.7-7.7,1.2-16.3c-7.5-2.3-19.5-5.8-19.6-5.9c-1.8-0.5-3.4-1.8-4.2-3.5s-1-3.7-0.3-5.5c0.6-1.6,4.8-11,29.5-39.5    c-3.1-14.4-6.7-35.8,14.9-66.6c2.2-3.1,6.5-3.9,9.6-1.7c3.1,2.2,3.9,6.5,1.7,9.6c-19,27.1-15.3,43.9-12.4,57.4l0.4,1.7    c0.5,2.1-0.1,4.4-1.6,6c-13.8,15.8-21.3,25.6-25.2,31.3c6.2,1.8,13.8,4.1,16.6,5.1c2.9,1,4.8,3.8,4.7,6.9    c-0.3,6.3-0.8,12.9-1.2,17.2l21.7,9.8c2.4,1.1,4,3.4,4.1,6.1c0.1,2.6-1.3,5.1-3.6,6.3c-0.6,0.3-14.4,7.7-21.6,11.3    c-1.7,0.9-3,1.5-3,12.6c0,9.2,5.4,12.8,8.9,12.9c1.4,0.1,3.7,0.2,6.5,0.4c10.5,0.6,30.1,1.8,40.2,1.3c1.9-0.1,3.7,0.6,5.1,1.9    c1.4,1.3,2.1,3.1,2.1,5c0,15.2,3.7,24.1,3.7,24.2c0.3,0.6,0.5,1.4,0.5,2l2.3,23.6c0.4,3.8-2.4,7.2-6.2,7.5    C280.4,307,280.2,307,280,307z" fill="#000000"></path>
	</g>
</g>
</svg>