<?xml version='1.0' encoding='utf-8'?>
<svg xmlns="http://www.w3.org/2000/svg" viewBox="0 0 6798 2041" width="1332" height="400"><path d="M40 1423V348h145l384 954 393-954h128v1075H984V521l-370 902h-98L148 521h-4v902H40zm1282 0V698h93v725h-93zm405 0h-92V698h92l3 135q19-45 48.5-70t67.5-37 83-15 96-3v90q-80 0-136.5 19t-92.5 54-52.5 85-16.5 111v356zm517 0h-93V698h93v135h3q19-45 48.5-70t67.5-37 83-15 95-3v90q-79 0-135 19t-92 54-53 85-17 111v356zm1304 0h-91V698h91v135h4q19-45 49-70t67.5-37 82.5-15 95-3v90q-78 0-134.5 19t-92.5 54-53.5 85-17.5 111v356zm634-183h480v183h-679V385h199v855zm739-563v746h-186V677h186zm834 746h-189V971q0-21-2-47t-13.5-48-35.5-37-67-15q-32 0-59 10.5t-47 32-31.5 53.5-11.5 75v428h-188V677h179v108h4q9-16 24.5-38.5t40-43T5419 669t87-14q52 0 97.5 16t79.5 47.5 53 78 19 107.5v519zm365 0h-189V385h189v573l233-281h232l-253 289 259 457h-224l-170-321-77 85v236zm-1291 117q21 0 39 8t31.5 21.5 21 32 7.5 39.5q0 20-7.5 37.5t-21 31-31.5 21.5-39 8q-25 0-44-10.5t-33-26.5q-179 60-342.5 90t-318.5 30q-293 0-533.5-104.5T3137 1403q-39 17-84 28.5t-96 11.5q-78 0-146.5-24.5t-119-72.5-79.5-120-29-167q0-50 9.5-97t28-88.5T2668 798t68-58q-247-349-543-436-51-16-103.5-23t-106.5-7q-122 0-251.5 37.5T1464 426q0 4 1 8.5t1 10.5q0 20-7.5 37.5t-20.5 31-31 21-38 7.5-37.5-7.5-31.5-21-22-31-8-37.5 8-38 22-31.5 31.5-21.5 37.5-8q17 0 34 6.5t29 16.5q148-78 285.5-117.5T1986 212q60 0 115 7t111 23q159 48 304 164.5T2789 708q37-14 78-22.5t90-8.5q94 0 163.5 29.5T3236 788t69 121.5 23 149.5q0 100-35.5 179t-99.5 129q171 195 397 291t503 96q149 0 307.5-27t329.5-86q0-21 7.5-39.5t21-32 31.5-21.5 39-8zM2957 753q-35 0-65.5 5.5T2834 773q40 63 76.5 130.5T2982 1045q71 145 155 256 49-46 71.5-109t22.5-133q0-64-15.5-120t-48.5-97-85-65-125-24zm0 614q77 0 128-30-44-60-83-126t-74-140q-35-72-72-136.5T2781 811q-51 42-75.5 107.5T2681 1059q0 68 18 124.5t52.5 97.5 86 63.5T2957 1367zm3670-571h-20v-71h-29v-17h79v17h-30v71zm131 0h-18v-73l-20 73h-20l-20-73v73h-15v-88h30l16 72 18-72h29v88z" fill="#000000"></path></svg>