<?xml version='1.0' encoding='utf-8'?>
<svg xmlns="http://www.w3.org/2000/svg" viewBox="0 0 2107 2041" width="413" height="400"><path d="M1453 670q8-24 3.5-51.5T1440 562h387q23 0 39 16.5t16 39.5v957q0 23-16 39.5t-39 16.5h-720V880q26-11 53-24.5l55-27.5v696h560V670h-322zm-393 231v730h-52q-23 0-39.5-16.5T952 1575V905q18 11 37.5 14.5t42.5-6.5q6-2 13-5t15-7zm865-152V565h87q23 0 39 16.5t16 39.5v128h-142zm142 540v128q0 23-16 39.5t-39 16.5h-87v-184h142zm-142-71v-163h142v163h-142zm0-235V820h142v163h-142zm-659 340q0-6-.5-13.5t-.5-15.5q0-23 6-51.5t25-52.5q20-25 45-40t52-27q7-2 8-5-3-10-8-21t-10.5-24.5-9.5-30-4-37.5q0-30 8.5-56t25-44.5 40-29.5 52.5-11 52.5 11 40 29.5 25 44.5 8.5 56q0 41-13.5 67t-19.5 46q3 3 9 5 27 12 52 27t45 40q19 24 25 52.5t6 51.5q0 8-.5 15.5t-.5 13.5h-458zm-848-82q-15-15-31.5-27.5T353 1188l-15-11q-7-5-9-7l-6-6q-5-5-7.5-12.5T312 1137q-1-8 0-16 4-18 28.5-50.5T404 998t88.5-85 102-89 106-85 99.5-72 82-49.5 55-19.5q7-1 14 1 6 2 13 5.5t12 11.5q4 5 5.5 7.5T987 634l8 17q9 19 19 37t22 35q24-10 55-24.5t63-30.5 61.5-31.5T1265 609q-9-18-22-37t-28.5-38-31-36.5T1155 466q-84 0-170 24t-167.5 63T662 642 528 744q-62 50-124.5 114T288 995.5t-91.5 154T143 1312q12 16 26.5 34.5T200 1383t33 34.5 33 28.5q15-18 35-44t41.5-54.5 41.5-57 34-49.5zm10-123q15 12 36.5 29t38 37.5T525 1228t-9 46q-15 25-42.5 63.5T417 1415t-55.5 72-39.5 48l-9 7q-24 16-50.5 11t-50.5-21-45-37-34-36q-17-20-28-33.5t-20-25-17-21.5-18-24q-5-5-6.5-11t-2.5-11 0-11q0-2 4-29.5t18-73 41-107.5 74-134 116.5-151T463 667q97-83 187-137.5t169-88T964 392t113.5-22 74.5-5 30 1q7 2 14 5 13 5 24 16t30 31.5 39.5 46.5 39.5 54.5 30 56.5 10.5 53.5T1351 673l-9 8q-17 11-54 31t-80.5 42-86.5 42-70 30q-25 11-46.5.5t-39-30.5-30.5-44-22-41q-26 15-66.5 44.5t-88 67.5-98 80-96 82.5-81.5 75-55 57.5z" fill="#000000"></path></svg>