<?xml version='1.0' encoding='utf-8'?>
<!-- Generator: Adobe Illustrator 24.0.2, SVG Export Plug-In . SVG Version: 6.00 Build 0)  --><svg xmlns="http://www.w3.org/2000/svg" xmlns:xlink="http://www.w3.org/1999/xlink" version="1.1" id="Ebene_1" x="0px" y="0px" viewBox="0 0 926 400" style="enable-background:new 0 0 926 400;" xml:space="preserve" width="926.0" height="400.0">
<path d="M332.4,94.1c-1.8-3.7-4.4-6.5-7.6-8.5c-3.3-2-6.7-3-10.2-3c-5.5,0-9.9,1.7-13.3,5c-3.4,3.3-6.1,7.4-8.1,12.2  c-2,4.8-3.5,9.8-4.5,15c-1,5.2-1.9,9.7-2.6,13.5c-1,9-1.8,18.1-2.4,27.3c-0.5,9.2-0.8,18.5-0.8,27.9c0,7.3,0.1,14.5,0.4,21.7  c0.3,7.1,0.7,14.2,1.2,21.3c0.5,5.6,1.3,11.8,2.4,18.6c1,6.8,2.7,13.2,4.9,19.1c2.2,5.9,5.1,10.9,8.7,14.9s8.2,6,13.8,6  c4.7,0,8.7-1.4,12.1-4.2s6.1-6.5,8.3-11.2s4-9.9,5.4-15.9c1.4-5.9,2.4-12.1,3.2-18.5s1.3-12.8,1.7-19.1c0.3-6.3,0.6-12.2,0.9-17.5  v-26.7c0-6.3-0.2-12.3-0.6-18.2s-0.9-11.8-1.6-17.8c-0.8-7.4-2-14.7-3.5-21.8C338.5,107,336,100.3,332.4,94.1z M362.4,75.8  c3.9,6.5,7.2,13.4,9.7,20.5c2.5,7.1,4.6,14.4,6.1,22c1.5,7.5,2.6,15.2,3.4,23s1.4,15.7,1.8,23.5c0,0.7,0,2,0.1,4.1s0.1,4.4,0.1,6.9  c0,2.5,0,4.8,0.1,7c0.1,2.2,0.1,3.5,0.1,4c0,17.4-1.2,34.3-3.5,50.7c-2.4,16.4-6.9,31.8-13.5,46.3c-5,10.7-12,19.4-21.1,26.1  c-9.1,6.7-19.7,10-31.8,10c-10.7,0-19.9-2.5-27.4-7.4s-13.9-11.5-19-19.5s-9.1-17.1-12.2-27.2c-3-10.1-5.3-20.3-6.8-30.6  c-1.5-10.3-2.5-20.1-2.9-29.6c-0.5-9.5-0.7-17.5-0.7-24.2c0-15.7,0.9-31,2.8-46s5.4-29.2,10.5-42.8c2.2-5.9,5-11.5,8.3-16.9  c3.3-5.4,7.3-10.1,12-14.2s10-7.4,16-9.9c6-2.5,12.7-3.7,20.2-3.7c10.2,0,19.1,2.3,26.8,7S356.1,66.4,362.4,75.8z M97.6,94.1  c-2-3.4-4.5-6.2-7.6-8.3s-6.7-3.2-10.6-3.2c-4.6,0-8.5,1.3-11.7,4c-3.2,2.7-5.9,6.3-8.2,10.8c-2.3,4.5-4.1,9.6-5.5,15.4  c-1.4,5.7-2.4,11.7-3.2,17.9c-0.8,6.2-1.3,12.3-1.7,18.4c-0.3,6.1-0.6,11.7-0.9,16.8l-0.2,30.6c0.3,10.7,0.8,21.2,1.8,31.5  c0.9,10.3,2.7,20.3,5.3,30.1c0.8,3,1.8,6.1,3.1,9.2c1.3,3.1,2.9,6,4.9,8.7c2,2.7,4.3,4.9,7.1,6.6c2.7,1.7,5.9,2.5,9.6,2.5  c4.4,0,8.2-1.3,11.4-4c3.1-2.7,5.8-6,7.9-10.1c2.2-4.1,3.9-8.4,5.1-13s2.2-8.9,2.8-12.8c1.7-9.4,2.8-19,3.3-28.8s0.8-19.7,0.8-29.6  c0-6.7-0.1-13.3-0.3-19.8c-0.2-6.5-0.4-13.1-0.7-19.8c-0.5-4.6-1-9.2-1.6-13.8c-0.5-4.6-1.2-9.2-2.2-13.7c-0.9-4.5-2.1-8.9-3.4-13.1  C101.7,102.1,99.9,98,97.6,94.1z M127.6,75.8c4.6,7.8,8.3,16.1,11.1,24.7c2.8,8.6,5,17.5,6.6,26.6s2.6,18.4,3.1,27.8  c0.5,9.5,0.8,19,0.8,28.5c0,17.6-1.1,34.9-3.4,51.8s-6.8,32.9-13.6,47.9c-2.4,5.4-5.3,10.3-8.8,14.7c-3.5,4.4-7.5,8.3-12.1,11.7  c-4.5,3.3-9.4,5.9-14.8,7.7c-5.4,1.8-11.1,2.7-17.2,2.7c-10.8,0-20.1-2.5-27.6-7.5c-7.6-5-13.9-11.6-19-19.8s-9.1-17.4-12.2-27.6  c-3-10.3-5.3-20.6-6.9-31.2c-1.6-10.5-2.5-20.7-2.9-30.5c-0.4-9.8-0.6-18.3-0.6-25.5c0-9.4,0.4-19.2,1.2-29.3  c0.8-10.1,2.2-20,4.1-29.6s4.6-18.7,8-27.4S31,75.4,36.2,68.9s11.3-11.6,18.4-15.5c7.1-3.9,15.4-5.8,24.8-5.8  c9.9,0,19.1,2.4,27.4,7.3S122.1,66.7,127.6,75.8z M219.9,280.3c1.7,3.4,2.5,7.2,2.5,11.4c0,4.1-0.8,7.8-2.3,11.3  c-1.5,3.5-3.5,6.4-6,8.9s-5.3,4.4-8.5,5.9c-3.2,1.4-6.6,2.2-10.1,2.2c-3.7,0-7.2-0.7-10.6-2.2c-3.4-1.4-6.4-3.4-8.9-5.9  c-2.5-2.5-4.6-5.4-6.2-8.7s-2.4-6.9-2.4-10.7c0-3.5,0.7-7,2-10.4s3.2-6.4,5.6-8.9s5.3-4.6,8.6-6.2c3.3-1.6,7-2.4,11.1-2.4  c5.7,0,10.8,1.5,15.1,4.5C214.2,272.1,217.6,275.8,219.9,280.3z" fill="#000000"></path>
<path d="M672.8,316H771v-56.8h-60.1v-57.7h54.5v-51h-54.5v-49.8H769V50.5h-96.3V316z" fill="#000000"></path>
<path d="M534.4,223c0,4.5,0.1,10.1,0.3,16.7c0.2,6.5,0.9,13.4,2,20.5c1.2,7.1,2.9,14.3,5.2,21.4c2.3,7.1,5.4,13.4,9.5,19.1  c4.1,5.7,9.4,10.3,15.7,13.8c6.4,3.6,14.2,5.4,23.4,5.4c9.9,0,18.6-2.3,26.3-6.9c7.7-4.6,14-10.8,19.1-18.7s8.9-17.1,11.6-27.7  c2.6-10.5,3.9-21.9,3.9-33.8c0-8.7-0.6-16.2-1.9-22.9c-1.3-6.6-3.1-12.4-5.4-17.4s-4.9-9.4-8-13s-6.4-6.9-9.9-9.6  c-3.6-2.8-7.4-5.2-11.5-7.3c-4.1-2.1-8.1-4.1-12.2-6h0.2c-4-1.9-7.5-3.7-10.5-5.4c-3.1-1.7-5.6-3.6-7.7-5.7c-2-2.1-3.6-4.8-4.6-8.1  s-1.5-7.4-1.5-12.5c0-8.8,1.4-15.8,4.4-21.1c3-5.3,6.8-8,11.6-8c2.3,0,4.3,0.8,5.9,2.2c1.5,1.4,3.1,3.4,4.3,5.7  c1.2,2.3,2.1,4.9,2.8,7.9s1.2,5.9,1.5,8.8c0.3,2.9,0.6,5.5,0.8,7.9c0.2,2.4,0.3,4.3,0.3,5.9h38.1c0-2.6-0.1-5.9-0.2-9.9  c-0.1-4.1-0.4-8.6-1-13.5c-0.6-4.9-1.4-10.1-2.5-15.6c-1.1-5.4-2.8-10.7-5-16c-2.6-6.3-5.5-11.5-9.1-15.6c-3.5-4.1-7.1-7.2-11-9.6  s-7.8-4-11.9-4.8c-4.1-0.9-8-1.3-11.6-1.3c-10.1,0-18.7,2.2-25.9,6.5c-7.2,4.3-13.1,10.4-17.7,18c-4.6,7.7-8,16.5-10.2,26.4  s-3.3,20.5-3.3,31.5c0,11.6,1.1,21.5,3.4,29.8c2.3,8.3,5.6,15.7,10,22c4.4,6.3,9.9,11.8,16.4,16.5s13.9,8.9,22.4,12.8  c3.3,1.8,6.3,3.3,8.9,4.8c2.6,1.4,4.8,3.1,6.4,5c1.6,2,2.9,4.4,3.7,7.5c0.8,3.1,1.2,7,1.2,11.9c0,9.2-1.6,16.5-4.9,21.9  c-3.2,5.4-7.9,8.1-13.9,8.1c-3,0-5.5-0.8-7.7-2.3c-2.1-1.5-3.8-3.5-5.1-5.9c-1.3-2.4-2.3-5.1-3-8.2c-0.7-3.1-1.3-6.1-1.6-9.3  c-0.3-3.1-0.6-6-0.7-8.8c-0.1-2.8-0.2-5-0.2-6.8v-6.3h-39.4V223z" fill="#000000"></path>
<path d="M824.5,316.3H864V101.4h38.8V50.3H785.9v51.1h38.6V316.3L824.5,316.3z" fill="#000000"></path>
<polygon points="411,360.7 376.9,360.7 494.3,24.6 528.4,24.6 " fill="#000000"></polygon>
</svg>