<?xml version='1.0' encoding='utf-8'?>
<!-- Generator: Adobe Illustrator 24.0.2, SVG Export Plug-In . SVG Version: 6.00 Build 0)  --><svg xmlns="http://www.w3.org/2000/svg" xmlns:xlink="http://www.w3.org/1999/xlink" version="1.1" id="Ebene_1" x="0px" y="0px" viewBox="0 0 497 400" style="enable-background:new 0 0 497 400;" xml:space="preserve" width="497.0" height="400.0">
<path d="M171.5,238.7c-4.6-4.8-6.9-10.5-6.9-16.9c0-2.1,0.3-4.4,1-7.1l-54.3-53.9l-7.6-23.7l23.5,7.8l54.1,54.1c2.4-0.7,4.6-1,6.9-1  c3.3,0,6.4,0.7,9.3,2c2.9,1.3,5.5,3,7.6,5.2s3.9,4.6,5.1,7.4c1.2,2.8,1.9,5.8,1.9,8.9c0,3.1-0.6,6.2-1.9,9.1  c-1.2,2.9-2.9,5.5-5.1,7.6s-4.7,3.9-7.5,5.2c-2.9,1.3-5.9,2-9.2,2c-3,0-6-0.6-8.9-1.7C176.5,242.8,173.8,241.1,171.5,238.7z   M215.2,66c-2.6-0.5-5.2-0.9-7.8-1.2l-7.8-0.8v27.8h-22.3V64.1c-17.8,1.2-34.4,5.1-50,11.7s-29.7,15.4-42.3,26.6l19.6,19.8L88.6,138  L69,118.2c-11.1,12.7-20,26.8-26.6,42.3s-10.5,32.3-11.7,50.2h27.8V233H30.8c1.3,17.8,5.3,34.5,11.9,50.1s15.4,29.6,26.6,42  l19.6-19.6l15.9,15.9l-35.5,35.5c-9.4-8.2-17.9-17.4-25.4-27.4c-7.5-10.1-13.9-20.8-19.2-32.3s-9.4-23.6-12.2-36.3S8,235.1,8,221.7  c0-16.6,2.2-32.6,6.5-47.9s10.4-29.7,18.2-43.1s17.2-25.5,28.1-36.5S83.9,73.9,97.3,66s27.8-13.9,43.1-18.2s31.3-6.5,47.9-6.5  c4.6,0,9.1,0.2,13.6,0.5c4.5,0.3,8.9,0.8,13.2,1.5V66z M292.1,341.2l-19.7-19.8l15.7-15.9l19.6,19.4L292.1,341.2z M346.1,232.8  h-27.8v-22.3h27.8V232.8z M231.1,183.4V41.5h27.2v118h40.8v23.9H231.1z M311,183.4V41.5h27.2v141.9H311z M360.6,183.4V41.5h43.7  l20.8,63.3l21.6-63.3H489v141.9h-26.5V74.1h-0.4l-25.1,76h-25.9l-23.9-76h-0.4v109.4H360.6z" fill="#b9c900"></path>
</svg>