<?xml version='1.0' encoding='utf-8'?>
<!-- Generator: Adobe Illustrator 23.0.1, SVG Export Plug-In . SVG Version: 6.00 Build 0)  --><svg xmlns="http://www.w3.org/2000/svg" xmlns:xlink="http://www.w3.org/1999/xlink" version="1.1" id="Ebene_2" x="0px" y="0px" viewBox="0 0 291 278" style="enable-background:new 0 0 291 278;" xml:space="preserve" width="418.70505" height="400.0">
<g>
	<path d="M218.6,71.6c-0.8-0.7-1.8-1-2.8-1c-14.6,1.5-20.5,0.2-31.5-6.6c-13.6-8.5-29.3-7.1-38.7-3.4c-1.4,0.6-2.4,1.9-2.4,3.4V119   c0,0.1,0,0.1,0,0.1v38c0,2.1,1.7,3.7,3.7,3.7s3.7-1.7,3.7-3.7v-35.3c8.3-2.5,20.1-2.4,29.7,3.6c12.4,7.7,19.8,9.2,36.1,7.6   c1.9-0.2,3.3-1.8,3.3-3.7v-55C219.8,73.3,219.4,72.3,218.6,71.6z M212.5,126c-12.3,0.9-18.1-0.6-28.2-6.9   c-7.4-4.6-15.4-6.2-22.7-6.2c-3.9,0-7.6,0.5-10.9,1.3V66.8c8.3-2.5,20.1-2.4,29.7,3.6c11.3,7,18.5,8.9,32.1,8L212.5,126L212.5,126z   " fill="#000000"></path>
	<g>
		<path d="M154.3,83c4.4-0.8,9.4-0.6,14.3,0.2V70.3c-4.9-0.8-9.8-1-14.3-0.2C154.3,70.1,154.3,83,154.3,83z" fill="#000000"></path>
		<path d="M154.3,109.7c4.4-0.8,9.4-0.6,14.3,0.2V96.6c-4.9-0.8-9.8-1-14.3-0.2C154.3,96.4,154.3,109.7,154.3,109.7z" fill="#000000"></path>
		<path d="M168.6,96.6c4.7,0.8,9.4,2.1,13.7,4.9c0.2,0.1,0.3,0.2,0.6,0.3V88.4c-0.2-0.1-0.3-0.2-0.6-0.3c-4.3-2.7-9-4-13.7-4.9V96.6    z" fill="#000000"></path>
		<path d="M182.9,88.4c4.9,3,8.9,4.9,13.2,6V81.5c-4.3-1.1-8.4-3-13.2-6V88.4z" fill="#000000"></path>
		<path d="M182.9,115.1c4.9,3,8.9,4.9,13.2,6v-13.4c-4.3-1.1-8.4-3-13.2-6V115.1z" fill="#000000"></path>
		<g>
			<path d="M196.2,107.8V94.4c3.7,1,7.8,1.3,12.7,1.2V109C204,109.2,199.9,108.8,196.2,107.8z" fill="#000000"></path>
		</g>
	</g>
</g>
<circle cx="96.2" cy="174.4" r="16.1" fill="#000000"></circle>
<g>
	<path d="M96.2,214.8c-22.3,0-40.5-18.2-40.5-40.5s18.2-40.5,40.5-40.5s40.5,18.2,40.5,40.5S118.5,214.8,96.2,214.8z M96.2,140.9   c-18.5,0-33.5,15-33.5,33.5s15,33.5,33.5,33.5s33.5-15,33.5-33.5S114.7,140.9,96.2,140.9z" fill="#000000"></path>
</g>
<g>
	<path d="M143.3,275.1c-75,0-136.1-61-136.1-136.1S68.2,2.9,143.3,2.9S279.3,64,279.3,139S218.3,275.1,143.3,275.1z M143.3,8.8   C71.4,8.8,13,67.2,13,139s58.4,130.2,130.2,130.2c71.8,0,130.2-58.4,130.2-130.2S215.1,8.8,143.3,8.8z" fill="#000000"></path>
</g>
</svg>