<?xml version='1.0' encoding='utf-8'?>
<svg xmlns="http://www.w3.org/2000/svg" viewBox="0 0 2611 2041" width="512" height="400"><path d="M1202 592q27-6 79-12t132-6q67 0 157 6v65q-25-3-51.5-4t-53.5-1q-69 0-137.5 6T1202 659v-67zm-67 13v145q-75 34-131 72.5t-94.5 73-61 59.5-29.5 32h-13l-13 13q0 8-6.5 15.5t-14 13-13.5 9l-6 3.5h-65q-44 4-97 11.5T483.5 1069 376 1087.5t-97 18.5q-35 0-54 12.5t-27.5 37-9.5 61.5-1 86q0 8 4 11t23.5 3.5 59.5 0 111-.5l12 13q0 35 14 64t37.5 50 54.5 32.5 66 11.5q30 0 58-11.5t50.5-32.5 36-50 13.5-64v-13q83-3 163.5-4t157.5-1q154 0 282 2.5t214 2.5h369v40q0 30 13.5 56t37 45.5 55 31 66.5 11.5q37 0 67.5-14.5t51.5-39.5 32.5-56.5 11.5-66.5q0-7-5-7h158q8-2 11.5-8t3.5-25q0-57-14.5-112t-33-99-36-71-23.5-27l-1-14h-198q-25-10-39.5-26t-25.5-27q-20-16-39.5-30.5T1964 849t-47.5-28.5T1860 790v-79q-30-9-51-19.5t-40-20.5q-21-4-37-7t-32-5.5-34-5.5-43-8v-65q29 4 50.5 6t39.5 4.5 34 5.5 34 9q72 24 133 52.5t110 58.5 84.5 59 55.5 54q20 0 49-2.5t55-2.5q27 0 55.5 6t57 24.5 57 53.5 55.5 92q8 17 19.5 47t22 67.5 17.5 79.5 7 84q0 59-15 92.5t-38.5 50-52.5 20.5-57 5h-29q-17 0-20 3-40 78-110 124t-156 46q-42 0-80.5-12t-72-34-61-53.5-46.5-70.5H819q-11 34-33 66t-53.5 56.5-71 39.5-84.5 15q-43 0-85-11.5t-79.5-32.5-68.5-51.5-52-68.5h-8q-3 0-9.5-1t-21.5-2.5l-40-4-65-5.5q-35 0-54.5-22T65 1375.5 54 1318t-2-40q0-37 4.5-67t10-54 11-42.5T86 1082q6-34 37.5-59t80.5-42 110.5-28.5 128-19 133-13.5T701 908q9 0 17.5-15t8.5-24q16-5 49.5-35.5t83-71.5T972 678t138-73h25z" fill="#000000"></path></svg>