<?xml version='1.0' encoding='utf-8'?>
<svg xmlns="http://www.w3.org/2000/svg" viewBox="0 0 2255 2041" width="442" height="400"><path d="M1161 1654q-15-14-22-33t-7-38q0-7 1-14.5t1-14.5l-225-228-32-96 98 33 228 223h26q21 0 39.5 7.5t32 20.5 21.5 30.5 8 38.5-8 39-21.5 31.5-32 21-39.5 7.5q-19 0-36.5-6.5T1161 1654zm729-26h-116v-92h116q-9-112-50-210t-109-175l-86 79-64-65 82-80q-78-70-176-112t-210-50v115h-91V923q-113 8-211.5 49.5T797 1083l82 82-65 66-82-81q-67 78-109.5 176.5T572 1537h116v94H479v-48q0-104 26.5-200.5T581 1202t117.5-152.5T850 932t179-75.5 200-26.5 200.5 26.5T1610 932t153 117.5 118.5 152.5 76.5 180.5 27 200.5q0 10-.5 22.5t-2.5 25.5zm56-949l120-120 149 152-119 117 89 90h-327V591zM905 814q-103 44-186 109H346v122q0 14-10 23.5t-24 9.5H174q-16 0-26-9.5t-10-23.5V868q-1-5-2-11t-2-11q-10-59-10-105t5-80 12.5-55 12.5-31H76q-14 0-25-10t-11-22l26-69q0-13 15.5-22.5T112 442h113q9-14 20-29t24-29q15-17 28-34 11-14 23.5-29t20.5-26q10-12 19-24t22.5-21.5T417 233t56-10q85-8 150.5-9.5T719 212q31 0 97 1.5t151 9.5q34 3 55 10t34.5 16.5T1079 271t19 24q9 11 22 26t24 29q13 17 27 34 11 14 22 29t22 29h112q7 0 15.5 2.5t15.5 7 12 10.5 5 12l25 69q0 12-10.5 22t-24.5 10h-81q4 8 10 22.5t11.5 36.5 8 51.5.5 66.5q-20-2-41-2h-66q1-14 .5-25t-2.5-22H999V592h175q-7-10-14-24t-17-31H298q-11 17-19 31t-13 24h174v111H234q-2 22-.5 49.5T240 814h665zM444 341q-25 29-44.5 54T363 443h717q-19-26-41.5-51.5T989 337q-8-4-30-4-82-8-145.5-10t-94.5-2q-30 0-92.5 2T483 333q-14 0-24 3.5t-15 4.5z" fill="#b9c900"></path></svg>