<?xml version='1.0' encoding='utf-8'?>
<svg xmlns="http://www.w3.org/2000/svg" viewBox="0 0 2107 2041" width="413" height="400"><path d="M726 898v904H622l-287-158H40v-589h295l287-157h104zm-426 253H135v399h165v-399zm331-150l-237 130v438l237 130v-698zm257 632q-24 0-37-13.5t-13-33.5q0-8 6.5-21t15.5-29 18-34.5 14-36.5q8-27 12-54.5t4-55.5q0-64-16.5-118t-49.5-94q-9-12-9-26 0-23 13.5-36t32.5-13q17 0 32.5 14.5T940 1118t23.5 45.5T981 1209q11 34 16.5 71t5.5 75q0 72-20 141.5T919 1617q-5 8-14 12t-17 4zm152 185q-24 0-36-12.5t-12-34.5q0-10 6.5-23.5t16.5-28.5 20.5-30.5 18.5-30.5q32-62 50-142t18-164q0-115-31.5-216.5T999 960q-7-16-7-30 0-20 12.5-34t31.5-14q22 0 44 24.5t41.5 59 35 73.5 24.5 67q17 59 27.5 121t10.5 125q0 64-9.5 125t-26.5 119q-9 29-25 67t-35.5 72.5-41 58.5-41.5 24zm859-647q19 0 40-2.5t36-18.5V320q-15 7-36 8t-40 1h-9v842h9zm-557-68q87-30 184-30 94 0 171 30-17-19-34-35t-36.5-27-43.5-17.5-57-6.5q-21 0-45.5 6.5T1431 1041t-48 27-41 35zm465-801q-80-13-121-88-30-45-72-66.5t-88-21.5q-64 0-111 33.5t-73 93.5l-35 67v677q51-45 106.5-62t112.5-17q51 0 88 13t68 35 60.5 49.5 64.5 57.5V302zm-515 929q-5-40-14-81-8-35-21-77t-34-80V302q-50-38-105.5-54T1005 232q-60 0-113 14.5T794 291q-39 22-81 30t-87 8q-20 0-39-1t-39-8v546l-83 52V175q75 57 161 57 73 0 126-29 57-35 120-51t133-16q69 0 136.5 16.5T1265 214q38-90 105-137t156-47q71 0 130 34t97 91q38 59 95 59h42v18h9q42 0 85.5-14t82.5-43v1046q-39 20-82.5 32.5T1899 1266q-32 0-67-6.5t-60-21.5q-57-29-119-48t-127-19q-37 0-67 2.5t-57.5 9-53.5 18-56 30.5z" fill="#000000"></path></svg>