<?xml version='1.0' encoding='utf-8'?>
<svg xmlns="http://www.w3.org/2000/svg" viewBox="0 0 2108 2041" width="413" height="400"><path d="M81 487q11-26 30.5-44.5T162 424h394q49 0 79 23t30 71v359l3.5.5 8 1 8 1 4.5.5q27 3 48.5 17t37.5 34.5 24.5 46 8.5 50.5v273q0 19 7 36.5t19.5 31 30 22 37.5 8.5q19 0 35.5-7.5T967 1371t20.5-30 7.5-35q0-10-1-15-9-69-17.5-137T958 1017q-2-19-5.5-37.5T949 942V840q0-15-.5-32.5T946 772t-6-35.5-11-32.5q-13-27-27-52t-32-49q-17-23-41-41.5T782 527q-3-2-10-4.5t-14-5.5-12.5-6-5.5-5v-76q26 8 53.5 16.5T845 470q50 31 94 72 23 21 40.5 46t32.5 51 28 54 26 55q1 1 3 5.5t2 6.5q0 5-6.5 9t-14.5 8-14.5 8-6.5 7v171q0 54 9.5 109.5T1057 1183q5 28 9.5 56.5t4.5 57.5q0 36-13 68t-36.5 57-55 39.5T899 1476q-33 0-63.5-13.5t-54-37.5-37.5-56.5-14-70.5v-273q0-30-18-48t-47-23v556q0 6 11 6 5 0 11.5-1t10.5-1h23v30q0 2 .5 10.5t.5 17.5q0 4-.5 6.5t-.5 4.5v5H25q-5 0-5-5 0-2 .5-5t.5-6q0-4-.5-16.5T20 1532v-13l2-5h56V552q0-17 .5-33t2.5-32zm497 391q8 0 9.5-5t1.5-11V515q0-11-8-14t-17-3H167q-7 1-11 4.5t-4 17.5v348q0 7 10 9.5t21 2.5q10 0 18.5-1t11.5-1h365zm1003 167q5-17 17.5-27t28.5-10q20 0 33 15t13 33q0 5-2 13-8 29-12.5 63t-4.5 75q0 47 6.5 103t21.5 125q4 15 4 33 0 37-14.5 68.5t-38.5 54-55.5 35.5-64.5 13q-38 0-70-14.5t-55-38.5-35.5-55-12.5-64 12-63.5 33-53.5q45-47 78-88.5t56-79 38-71.5 24-66zm-143-634q5-16 18.5-25.5t28.5-9.5q20 0 33 15.5t13 32.5q0 4-.5 6.5t-1.5 6.5q-8 29-13 63t-5 76q0 46 7 101.5t22 123.5q4 15 4 33 0 38-14.5 70t-39 54.5-55.5 35-64 12.5q-38 0-70-14.5t-55-38.5-36-55.5-13-65.5q0-31 11.5-61t33.5-53q45-47 78-89t56.5-79.5 38-72T1438 411zm546 0q5-16 17-25.5t28-9.5q20 0 33.5 15t13.5 33q0 4-.5 6.5t-1.5 6.5q-8 29-13 63t-5 76q0 92 28 225 4 15 4 34 0 38-14.5 69.5t-38.5 54-55 35-64 12.5q-38 0-70-14.5t-55-38.5-36-55.5-13-65.5q0-31 12-61t33-53q45-47 78.5-89t56.5-79.5 38-72 24-66.5z" fill="#ffd100"></path></svg>