<?xml version='1.0' encoding='utf-8'?>
<svg xmlns="http://www.w3.org/2000/svg" viewBox="0 0 2171 2041" width="425" height="400"><path d="M922 540q13-7 36-13 20-5 51-9t76-4 76 4 51 9q23 6 38 13V417q-15-18-38-33-20-12-51-22.5t-76-10.5-76 10.5-51 22.5q-23 15-36 33v123zm0 338q13 13 36 23 20 9 51 16t76 7 76-7 51-16q23-10 38-23v37q0 12-2 32.5t-17.5 40.5-49 34.5-96.5 14.5q-64 0-97.5-14.5t-48-34.5-16-40.5T922 915v-37zm432 83V607h74v-22q0-7-7-16.5t-17.5-19T1380 531t-26-16V306q0-43-15.5-81.5T1296 158t-63-44.5-77-16.5h-143q-41 0-76.5 16.5t-62 44.5-42 66.5T817 306v209q-13 7-26.5 16t-24 18.5-17.5 19-7 16.5v22h75v354q0 43 15.5 81t42 66.5 62 45 76.5 16.5h143q41 0 77-16.5t63-45 42.5-66.5 15.5-81zm-341 127q-52 0-86-43t-34-138V270q0-7 9-21.5t25-29.5 38-26 48-11h143q26 0 48.5 11t39 26 25.5 29.5 9 21.5v637q0 48-9 82t-25.5 56-39 32.5-48.5 10.5h-143zm-573 57H40v-112h400q11 0 11-11V30h112v992q0 25-9.5 47.5t-26.5 39-39.5 26.5-47.5 10zm1289 0h402v-112h-402q-10 0-10-11V30h-111v992q0 25 9.5 47.5t26 39 38.5 26.5 47 10zM405 1821H40v-111h365v111zm575 0H615v-111h365v111zm574 0h-363v-111h363v111zm577 0h-365v-111h365v111zm-1095-179q-140 0-267-39t-227-114q-51-38-91-81.5t-66-91.5l129-43q35 64 95 113.5t132 83.5 149 51.5 146 17.5v103zm0-168q-59 0-123-13.5t-124.5-41-113-70T588 1248l110-38q20 35 50 68t71 59 95 42.5 122 18.5v76zm0-143q-35 0-73-9t-75.5-26-72.5-43-64-61l108-35q13 20 33.5 37.5t44.5 32 49.5 23.5 49.5 10v71zm97 311q141 0 268.5-39t227.5-114 158-173l-132-43q-35 64-95 113.5t-131.5 83.5-148.5 51.5-147 17.5v103zm0-168q59 0 123.5-13.5t125.5-41 114-70 88-101.5l-112-38q-20 35-49.5 68t-71.5 59-96 42.5-122 18.5v76zm0-143q36 0 74.5-9t76-26 72-43 64.5-61l-109-35q-13 20-33 37.5t-44 32-50 23.5-51 10v71z" fill="#000000"></path></svg>