<?xml version='1.0' encoding='utf-8'?>
<!-- Generator: Adobe Illustrator 20.1.0, SVG Export Plug-In . SVG Version: 6.00 Build 0)  --><svg xmlns="http://www.w3.org/2000/svg" xmlns:xlink="http://www.w3.org/1999/xlink" version="1.1" id="Ebene_1" x="0px" y="0px" viewBox="0 0 387 400" style="enable-background:new 0 0 387 400;" xml:space="preserve" width="387.0" height="400.0">
<style type="text/css">
	.st0{fill:none;stroke:#1D1D1B;stroke-width:15;stroke-linecap:round;stroke-miterlimit:10;}
</style>
<g>
	<line class="st0" x1="31.7" y1="108.5" x2="356.8" y2="108.5" fill="#000000"></line>
	<path class="st0" d="M115.2,83.9c0,0,2.6-68.7,9.1-70.7c5.4-1.7,44,8.9,71.2,9.3c26.4,0.4,62.9-9.4,70-8.7   c5.6,0.5,10.3,68.9,10.3,68.9" fill="#000000"></path>
	<path class="st0" d="M118.9,236.4c0,0,30.2,22.6,19.3,43.6c-9.9,19.1-70.8,17.5-88.7,28C34,317.2,23,384,23,384" fill="#000000"></path>
	<path class="st0" d="M275.7,239.6c0,0-30.8,22.5-19.9,43.5c9.9,19.1,70.8,17.5,88.7,28C360.1,320.2,371,387,371,387" fill="#000000"></path>
	<circle class="st0" cx="135.1" cy="173" r="31.5" fill="#000000"></circle>
	<circle class="st0" cx="246.8" cy="173" r="31.5" fill="#000000"></circle>
	<path class="st0" d="M159.8,153.5c0,0,17.8-5,29.5-5.4c11.7-0.4,29.5,2.7,29.5,2.7" fill="#000000"></path>
</g>
</svg>