<?xml version='1.0' encoding='utf-8'?>
<svg xmlns="http://www.w3.org/2000/svg" viewBox="0 0 1873 2041" width="367" height="400"><path d="M821 1145l403-232-403-233v465zm137 279q61 0 120-14.5t113-42.5q107-55 177-151l-51-38q-32 43-72 76.5t-86 57-97 35.5-104 12q-93 0-174-35t-142-95.5-96-142T511 913q0-93 35-174.5t96-142 142-96T958 465q53 0 104 12.5t97 36 86 57 72 76.5l51-38q-35-48-79.5-86t-97.5-66q-54-27-113-41.5T958 401q-103 0-196 38.5T597 551q-73 73-112 166t-39 196 39 195.5T597 1274q72 72 165 111t196 39zm-496 400q-87 0-164-33.5t-134.5-91T73 1565t-33-164V453q0-87 33-164t90.5-134.5T298 64t164-33h948q87 0 164 33t134.5 90.5 91 134.5 33.5 164v948q0 87-33.5 164t-91 134.5-134.5 91-164 33.5H462z" fill="#000000"></path></svg>