<?xml version='1.0' encoding='utf-8'?>
<svg xmlns="http://www.w3.org/2000/svg" viewBox="0 0 3115 2041" width="610" height="400"><path d="M55 924q0-121 54-233t151.5-209.5 235-177.5T800 167t359-88.5T1558 47t398.5 31.5T2315 167t304 137 235 177.5T3005.5 691t53.5 233q0 89-29 174t-85.5 164-139.5 150.5-190 133.5q-106 62-228.5 109t-256.5 79.5-278 49-294 16.5-294.5-16.5-279-49-256.5-80T500 1546q-108-61-191-133t-139.5-151T84 1098 55 924zm467 583q104 60 223.5 106t251 77.5 273 47.5 288.5 16 288-16 272-47.5 250.5-77.5 223.5-106q205-118 313.5-268T3014 924q0-115-52-221t-147-198.5-228-168-294.5-130-347.5-84T1558 93t-387.5 29.5-348 84-294.5 130-228 168T153 703t-52 221q0 165 108 315t313 268zm53-223V568h304q59 0 99.5 4.5t68.5 15 47 27 35 41.5q32 49 32 112 0 77-46.5 131T972 968q25 14 42.5 27t34.5 31.5 36.5 46 46.5 70.5l87 141h-174l-104-156q-29-43-46.5-68t-29.5-38.5-21-19-22-9.5q-23-9-73-9h-29v300H575zm145-414h107q52 0 82.5-2t47-6.5 24-12T996 831q16-22 16-54 0-34-19.5-58T938 692q-9-2-35-2.5t-71-.5H720v181zm576-302h143v387q0 54 1.5 86t7 51 15 30 26.5 24q33 26 97 26 49 0 76.5-13.5t41-39.5 16-65 2.5-90V568h144v375q0 69-2.5 113t-8.5 73.5-16.5 48.5-26.5 37q-32 36-83.5 58t-138.5 22q-75 0-125-14t-82-37.5-48.5-53-24.5-59.5-11-75.5-3-105.5V568zm686 483l140-14q14 72 52.5 105t103.5 33q67 0 104-29t37-71q0-21-7-35t-26.5-25-55.5-21.5-93-24.5q-68-17-112.5-39t-70.5-48.5-36-58.5-10-68q0-42 17-78.5t50.5-63.5 82-42.5T2269 555q134 0 202.5 59t71.5 159l-143 6q-11-58-41.5-81t-91.5-23q-24 0-46 4t-38.5 13-26.5 22.5-10 31.5q0 13 5.5 24t22 22 46.5 22 80 23q76 17 127 38.5t81.5 49.5 43 64.5 12.5 84.5q0 51-19.5 92t-56 70-90 44.5T2277 1296q-137 0-209-63t-86-182z" fill="#000000"></path></svg>