<?xml version='1.0' encoding='utf-8'?>
<svg xmlns="http://www.w3.org/2000/svg" viewBox="0 0 2041 2041" width="400" height="400"><path d="M40 1327h170l101 349 110-349h161v481H481v-412l-130 412h-85l-129-412v412q-9 0-26 2t-34 2q-15 0-26-3t-11-14v-468zm846-10q57 0 100 22.5t72 59.5 43.5 84 14.5 95q0 47-14 91t-42 77.5-70.5 53.5-99.5 20q-51 0-94-16.5t-74-47.5-48.5-76.5T656 1576q0-51 14-98t42.5-83 71.5-57 102-21zm-88 388q14 20 37 30.5t47 10.5q36 0 60.5-16t39.5-42 22-58 7-65q0-37-8.5-69t-25-55-40-36.5T884 1391t-53 14-39 39-24.5 58-8.5 70q0 38 9.5 73t29.5 60zm390-377h162q55 0 101 19.5t78.5 52.5 50.5 77 18 93q0 75-30 120t-77.5 69-105.5 32-113 8q-19 0-34-.5t-26-1.5q-13-1-24-2v-467zm104 401h41q41 0 70.5-15t48.5-39 28-54 9-60q0-46-15.5-76.5t-42-48-62.5-24.5-77-7v324zm381-402h323v77h-220v115h205v81h-205v128h225v80h-328v-481zm-642-565H658v120q0 14-10.5 22.5T624 913H484q-15 0-24-9.5t-9-21.5V706q-6-6-9-24t-4.5-37-1.5-34v-15q0-37 2.5-64t6.5-46.5 9-34 10-26.5l4-11h-82q-12 0-23.5-12.5T351 381l26-71q0-8 11.5-19.5T425 279h109q34-37 62.5-75t58.5-73l4-7q9-10 17.5-20.5T698 84t33.5-16 53.5-9q40-3 77.5-5.5T932 49t57.5-3 41.5-1q30 0 96 4t151 10q28 2 47 8t32.5 14.5 23.5 19 19 21.5l8 9q14 21 32 42.5t34.5 42 30 37T1523 279h113q26 0 38 11.5t12 19.5l22 71q0 19-12.5 26t-21.5 7h-80q7 8 13 25t10 38.5 6 45.5 2 45q0 44-9 113 0 8-2.5 14t-2.5 11v176q0 12-8 21.5t-26 9.5h-138q-14 0-24-7t-10-24V762h-374zm279-331h174q-7-11-15-26.5t-16-29.5H609q-11 14-17.5 29.5T577 431h177v108H544q0 19 1 49.5t6 63.5h958q6-30 7-57t1-47v-9h-207V431zM671 279h719q-19-22-40-48.5t-49-58.5q-30 0-65-2t-67-4.5-58.5-4.5-41.5-2H963q-34 0-76 2.5t-94 8.5q-9 0-20.5 2.5T756 175q-23 31-44 57t-41 47z" fill="#000000"></path></svg>