<?xml version='1.0' encoding='utf-8'?>
<svg xmlns="http://www.w3.org/2000/svg" viewBox="0 0 2234 2041" width="438" height="400"><path d="M1743 471q-23-22-49-45t-62.5-41.5-86.5-30-121-11.5h-180v665h297q46 0 83 12.5t67 31.5 53.5 41.5 43.5 42.5q29 30 50.5 46.5t41.5 16.5h58.5l63 .5 61 1 52.5 1.5V566h-187q-33 0-58-7.5t-46-19.5-39-28-35-33zm-429-38h97q22 0 38.5 1t35.5 2v172q-18-2-36.5-2H1313zm743 534h-132q-4 1-13 1-12 0-25-3l-9-1v175l-2-5q-14-9-33.5-26t-45.5-37-58.5-39-72.5-31V837q-32-21-75-37t-108-23v174q-17-1-35-1h-137V774h100q39 0 72 3V608q57 5 102 15t81 23v184q42 11 74 29.5t56.5 39 44 38.5 35.5 27h2V793l-2-6 2 2-2-2q-14-7-33-24.5t-44.5-37.5-58.5-39.5-74-31.5V481q42 12 74 31.5t57.5 39.5 44.5 37.5 34 24.5h2v175q19 12 45 12h134v166zm157-500v837q-20-1-59-2t-86-2-97-2-92-1q-25 0-46-7t-39.5-18.5-35-26.5-32.5-31l-8-9-7-6q-18-17-36.5-33.5t-39-29-44.5-20-53-7.5h-295v268q-14-44-37.5-83.5T1146 1219V245h278q86 0 148.5 15t107.5 38 76.5 50.5T1813 400q35 35 60 51t61 16h280zM1186 1635l-127-5v-41q1-5 1-15 0-67-13.5-117.5T997 1377q-19-15-49-27t-63-26-66-32.5-59-46.5q-28-31-39-62t-11-63q0-38 11-73.5t23-65.5q14-35 21.5-61t7.5-49q0-27-14-51t-38-42.5-57-29.5-70-11q-8 0-23.5 1t-35 5.5-40 15-37 29.5-27.5 48-11 72q0 50 16 87.5t35 71.5q15 27 26 54t14 58q0 29-12.5 51.5t-31 39.5-41.5 29-44 21q-58 24-108 49t-85 64q-25 27-32.5 61.5T149 1570v45l1 10-127 8q-3-28-3-63 0-26 3-54.5t11-57.5 22.5-57 37.5-54q51-54 112-87t128-60q22-9 32-15l15-9 1-1q-8-22-23-48t-30-58-26.5-72-11.5-90q0-62 19.5-116.5t57.5-95 95-63.5 132-23q68 0 130.5 25T832 705q40 41 55 82t15 82q0 39-9.5 77.5t-21.5 72-21.5 59.5-9.5 40q0 29 25.5 49t62 36.5 77 33 70.5 40.5q34 28 56 61.5t35 71 17.5 77.5 4.5 80v34l-2 34z" fill="#000000"></path></svg>