<?xml version='1.0' encoding='utf-8'?>
<svg xmlns="http://www.w3.org/2000/svg" viewBox="0 0 2071 2041" width="406" height="400"><path d="M834 511q32-40 80.5-57t120.5-17q64 0 117 22t85 62q21 22 34 46t19.5 46.5 8.5 42 2 31.5q0 4-.5 6.5t-.5 4.5v786q0 12-4 25-3 11-9.5 24.5T1268 1558q-23 32-85 53t-158 21q-59 0-106-12t-80-32-51-46.5-18-55.5q0-8 1-12V691q0-15 1.5-37t8-46.5 19-49.5 34.5-47zm28 997q8 5 21 11.5t32.5 12.5 46.5 10.5 63 4.5q59 0 96-6.5t58-15.5 28.5-18 7.5-13V702q0-3-1-18t-6.5-35-16.5-42.5-31-41.5-50.5-31.5T1035 521q-48 0-86 9.5T887 564q-21 21-27 51t-6 52v9q0 7-1.5 11t-7.5 4v793q0 2 1 6 2 8 10 15zm36-775q16-15 37-26 18-10 43-18.5t57-8.5 55.5 10 39.5 22q18 14 32 32v158H898V733zm264 687q-16 7-37 11-18 5-43 8t-57 3-55.5-5-39.5-11q-18-7-32-16v-74h264v84zm434-920q32-24 72.5-38t96.5-14 97 15.5 73 47.5q18 18 28.5 37t16 37 7 33.5 1.5 25.5q0 4-.5 6.5t-.5 4.5v649q0 41-14 66t-41.5 38.5-69.5 18-97 4.5h-33q-28 0-50.5-.5t-41-4.5-34-11.5-29.5-21.5l-4-6q-9-14-16.5-28.5t-7.5-27.5v-15l.5-33.5.5-68.5.5-117.5L1552 916l2-257q-1-5-1-11v-12q0-31 8-66t35-70zm21 825q8 16 42.5 29t105.5 13q44 0 72.5-3.5t45.5-8.5 23.5-10 6.5-9h11V658q0-8 .5-22t-2.5-29.5-12.5-31.5-28.5-29-51-21-81-8q-40 0-65.5 20t-40.5 44.5-20.5 45-5.5 21.5v677zm42-634q12-11 30-21 15-8 36.5-15t50.5-7q23 0 43 8.5t34 18.5q17 12 29 27v137h-223V691zm212 571q-10 7-25 11-13 4-33 7t-48 3-48-5-33-11q-15-7-25-16v-63h223zM125 500q32-24 73-38t97-14 96.5 15.5T464 511q20 24 30.5 50t15.5 48q6 26 7 50v666l-11-21q7 16 9 32 0 30-18 48.5t-48.5 29-70.5 14-83 3.5h-50q-30 0-59.5-3t-53-14.5-38-34.5-14.5-63v-2q0-37 1-122v-87l.5-118.5L82 833V640q0-12 1.5-28.5t6-35.5 13-39 22.5-37zm22 825q4 8 13 15.5t25.5 13.5 43 9.5 66.5 3.5q79 0 113.5-11.5T443 1336V659q0-4-.5-15t-3.5-26-9-32-18-33q-19-18-53.5-25t-85.5-7q-41 0-66 20t-39.5 44-21 43.5T136 648v667q0 3 1 5 2 5 10 5zm31-634q16-11 34-21 16-8 37.5-15t45.5-7q28 0 48 8.5t33 18.5q15 12 25 27v137H189zm223 571q-12 7-29 11-14 4-34 7t-43 3q-28 0-49.5-5t-36.5-11q-18-7-31-16l11-63h212v74zm1650-952v116h-550v1121h-117V680q-17-92-58-164-18-31-43-60.5t-59.5-52.5-78.5-37-99-14q-64 0-113 13t-86 35-63.5 49.5T739 506q-42 68-53 153v888l-95 11V415H20V310h2031z" fill="#000000"></path></svg>