<?xml version='1.0' encoding='utf-8'?>
<svg xmlns="http://www.w3.org/2000/svg" viewBox="0 0 1932 2041" width="379" height="400"><path d="M1828 32l64 56-263 256 47 61q70 106 111 243t41 289q0 35-4 83.5t-14 105-28 117-46.5 119.5-68.5 113-94 98l-108-116q95-107 149.5-237t54.5-283v-9q0-61-8.5-116t-24-104.5-37.5-95-50-88.5q-11-16-21.5-31t-24.5-31l-51 51q29 38 52 79.5t40 86.5q22 58 33.5 121t11.5 128q0 142-49 262.5t-133 209-197 138.5-240 50q-62 0-121.5-11.5t-115-34.5-105-56.5T538 1408l-434 422-64-53 266-261q-40-51-73-106.5T174 1288q-34-87-48.5-173T111 928q0-99 17-190.5t49-174T255 410t104-128l115 123q-100 98-151 231t-51 292q0 156 52 288 17 49 44 95t56 89l57-56-33-44q-29-48-51-95.5T359 1104q-13-41-15-85.5t-2-90.5q0-107 26-198t71-164 105.5-128.5T675 345t145.5-56T970 270q141 0 253 56 99 44 177 121zM865 1315h-99v-132l-160 155q27 32 70 58.5t93 45.5 102 29.5 99 10.5q67 0 135-20.5t120-56.5q63-24 112-78.5t83.5-122.5 52.5-141 18-135q0-80-19.5-152T1414 643q-10-15-18.5-28.5T1379 587l-128 123q1 14 1 25v21q0 58-22 100t-57.5 69.5T1091 966t-94 13h-25l-107 106v230zM457 775q-14 42-16 80.5t-2 72.5q0 47 7 94.5t20.5 93 34.5 87 49 75.5l216-210V536h231q24 0 54 2.5t60.5 11.5 58.5 27 48 49l105-102q-25-23-49-43t-53-37q-59-35-122-55.5T970 368q-104 0-191 39t-153.5 99T516 638t-59 137zm408-142v259h82l187-186q-5-13-13-26.5t-18-23.5-21.5-16.5-23.5-6.5H865zm255 213l14-21-51 47q8-5 17-10.5t20-15.5z" fill="#ffd100"></path></svg>