<?xml version='1.0' encoding='utf-8'?>
<!-- Generator: Adobe Illustrator 20.1.0, SVG Export Plug-In . SVG Version: 6.00 Build 0)  --><svg xmlns="http://www.w3.org/2000/svg" xmlns:xlink="http://www.w3.org/1999/xlink" version="1.1" id="Ebene_1" x="0px" y="0px" width="857.5px" height="341.2px" viewBox="0 0 857.5 341.2" style="enable-background:new 0 0 857.5 341.2;" xml:space="preserve">
<path d="M779,69.5c0,5.1-0.9,9.9-2.8,14.3c-1.9,4.4-4.5,8.3-7.8,11.7c-3.3,3.3-7.2,5.9-11.7,7.8c-4.4,1.9-9.2,2.8-14.3,2.8  c-5.1,0-9.9-0.9-14.4-2.8c-4.5-1.9-8.4-4.5-11.8-7.8c-3.3-3.3-5.9-7.2-7.8-11.7c-1.9-4.4-2.8-9.2-2.8-14.3s0.9-9.9,2.8-14.3  c1.9-4.4,4.5-8.3,7.8-11.7c3.3-3.3,7.2-6,11.8-7.9c4.5-2,9.3-2.9,14.4-2.9c5.1,0,9.9,1,14.3,2.9c4.4,2,8.3,4.6,11.7,7.9  c3.3,3.3,5.9,7.2,7.8,11.7C778,59.7,779,64.4,779,69.5z M676.9,190.2c1.8-3.3,3.9-7.1,6.3-11.4c2.1-3.8,4.7-8.3,7.7-13.6  c3.1-5.3,6.6-11.5,10.5-18.5c3.7-5.5,8-9.5,13.1-11.9c5.1-2.5,10.4-3.7,15.9-3.7c4.6,0,9,0.8,13.3,2.3c4.3,1.5,8.2,3.6,11.6,6.3  c3.4,2.7,6.1,5.8,8.2,9.5s3.1,7.6,3.1,11.8c0,4.4-1.2,8.9-3.7,13.3c-2.4,4.2-5,8.8-7.9,13.8c-2.9,5-6,10.2-9.1,15.5  c-3.1,5.3-6.3,10.6-9.5,16.1c-3.2,5.4-6.3,10.7-9.3,15.8c-7.1,11.9-14.2,23.9-21.5,36L676.9,190.2z M775.5,115.4  c1.2-0.7,2.9-1.7,5.3-3c2.4-1.4,5-2.9,8-4.7c3-1.8,6.3-3.7,9.8-5.7c3.5-2,7-4,10.4-6c8.1-4.6,16.9-9.6,26.4-15.1l3.1,3.1v18.8  l-2.5,6.5l-50.5,29c-0.5-2.9-1.2-5.7-2.2-8.4c-0.8-2.4-1.8-4.9-3.1-7.5S777.3,117.3,775.5,115.4z M645.6,210.2  c2.4-0.8,4.8-1.8,7.2-3.1c2.2-1,4.6-2.4,7.1-3.9s5.1-3.4,7.7-5.5c1.3,3.7,3,8.4,5,14.2s4.3,12.2,6.9,19.3s5.2,14.5,7.9,22.2  s5.5,15.4,8.2,23c6.3,17.8,13.1,36.8,20.4,57l-25.5,3.1L645.6,210.2z M656.4,275c-9.1-4.2-17.6-8-25.5-11.6  c-3.4-1.6-6.8-3.1-10.2-4.6s-6.6-2.9-9.6-4.3c-3-1.4-5.7-2.6-8.2-3.7s-4.4-2-5.7-2.6c-3.8-1.7-7.4-2.5-11-2.5  c-3-0.1-5.6,0.5-7.9,1.9c-2.3,1.4-4.1,3.3-5.4,5.8c-0.7,1.3-2.2,3.9-4.5,7.8c-2.4,3.9-5.1,8.6-8.3,13.9c-3.2,5.4-6.7,11.1-10.6,17.3  c-3.9,6.2-7.7,12.2-11.5,18.1c-3.8,5.9-7.3,11.2-10.7,16s-6.1,8.4-8.3,10.9c-1.2,1.4-2.7,2.4-4.6,3c-1.9,0.6-3.8,0.9-5.6,0.9  c-2.7,0-5.5-0.6-8.4-1.7s-5.5-2.7-7.9-4.7s-4.4-4.4-5.9-7.1s-2.3-5.7-2.3-9c0-4.3,1.5-8.7,4.5-13.3c2.4-3.5,5.6-8.3,9.8-14.2  c4.2-5.9,8.8-12.4,13.8-19.4c5-7,10.2-14.1,15.5-21.4c5.3-7.3,10.2-14.1,14.7-20.3c4.5-6.2,8.4-11.5,11.6-16s5.3-7.2,6.2-8.4  c2.2-3,5.1-5.3,8.5-7s7.2-2.4,11.3-2.4c0.9,0,1.8,0,2.6,0.1s1.7,0.2,2.6,0.3c2.5,0.5,6.3,1.3,11.6,2.4c5.2,1.1,10.4,2.3,15.7,3.6  c6.1,1.4,12.7,3,19.6,4.7L656.4,275z M673,86.4c0,10.4-1.7,20.3-5.2,29.6s-8.2,17.6-14.2,25.1l10.6,10.6l-12.3,12.3l-10.8-10.6  c-7.4,6.1-15.8,10.9-25.1,14.3c-9.3,3.4-19.1,5.1-29.4,5.1c-10.4,0-20.3-1.7-29.6-5.1c-9.3-3.4-17.6-8.2-25.1-14.3l-10.6,10.6  l-12.3-12.3l10.6-10.6c-6.1-7.4-10.9-15.8-14.3-25.1c-3.4-9.3-5.1-19.1-5.1-29.6c0-10.3,1.7-20.1,5.1-29.4  c3.4-9.3,8.2-17.6,14.3-25.1l-10.6-10.6l12.3-12.5L532,19.6c7.4-6.3,15.8-11.1,25.1-14.5c9.3-3.4,19.1-5.1,29.6-5.1  c10.3,0,20.1,1.7,29.4,5.1c9.3,3.4,17.6,8.2,25.1,14.5l10.8-10.8l12.3,12.5l-10.6,10.6c6,7.4,10.7,15.8,14.2,25.1S673,76.1,673,86.4  z M655.6,86.4c0-8-1.3-15.5-3.8-22.6s-6.1-13.6-10.7-19.5L599,86.4l42.1,42.1c4.6-5.9,8.1-12.4,10.7-19.5S655.6,94.3,655.6,86.4z   M586.6,17.6c-8,0-15.5,1.2-22.6,3.7c-7.1,2.5-13.6,6-19.5,10.6L586.6,74l42.1-42.1c-5.9-4.6-12.4-8.1-19.5-10.6  C602.1,18.9,594.6,17.6,586.6,17.6z M517.7,86.4c0,8,1.3,15.5,3.8,22.6s6.1,13.6,10.7,19.5l41.9-42.1l-41.9-42.1  c-4.6,5.9-8.1,12.4-10.7,19.5S517.7,78.4,517.7,86.4z M586.6,155.3c8,0,15.5-1.3,22.6-3.8c7.1-2.5,13.6-6.1,19.5-10.7l-42.1-42.1  l-42.1,42.1c5.9,4.6,12.4,8.1,19.5,10.7C571.1,154.1,578.7,155.3,586.6,155.3z M789.6,335.5v-6.9l28.2-37.6c3.3-4.3,5.9-8.1,8-11.3  c2.1-3.2,3.8-6.1,5-8.6c1.2-2.5,2.1-5,2.6-7.2c0.5-2.3,0.8-4.6,0.8-7c0-3.8-1.2-7-3.5-9.6c-2.4-2.6-5.4-3.9-9.2-3.9  c-4.8,0-8.3,1.8-10.3,5.4c-2,3.6-3,8.1-3,13.4v2.4h-20.8c0-13.8,3.1-24.4,9.2-31.5c6.1-7.2,14.8-10.8,25.9-10.8  c5.6,0,10.5,0.9,14.7,2.8c4.2,1.9,7.7,4.4,10.5,7.5s4.9,6.8,6.4,10.9c1.4,4.1,2.2,8.3,2.2,12.6c0,4-0.6,8-1.7,11.9  c-1.1,3.9-2.9,8.2-5.4,12.7c-2.5,4.6-5.8,9.6-9.9,15.2S830,308,824,315.2c4.4-0.4,9.1-0.6,13.9-0.6h19.6v21H789.6z" fill="#000000"></path>
<path d="M0,176.4c0,6.6,0.2,14.6,0.7,23.9c0.5,9.3,1.4,19.2,2.8,29.5s3.6,20.9,6.4,31.5s6.5,20.6,11,30c3.6,7.3,7.8,13.6,12.3,18.9  s9.4,9.8,14.7,13.5s10.6,6.3,16,7.7s11.1,2.2,16.8,2.2c3.6,0,8-0.5,13-1.5c5-1,10.3-3,15.8-6.2c5.5-3.1,11-7.6,16.5-13.4  c5.5-5.8,10.4-13.5,14.9-23.2c3.5-7.4,6.6-15.8,9.3-25.2c2.7-9.4,4.9-19.3,6.6-29.7s3.1-21.2,4.1-32.3c1-11.1,1.5-22.1,1.5-33  c0-7.2-0.3-15.4-0.9-24.6s-1.6-19-3.1-29.1s-3.7-20.5-6.5-31s-6.6-20.7-11.1-30.6c-3.9-8.6-8.4-15.6-13.4-21s-10.2-9.7-15.5-12.8  s-10.7-5.2-15.9-6.4C90.6,12.5,85.8,12,81.5,12c-10.2,0-19.3,2.2-27.3,6.5s-15.1,10.3-21.1,18S22,53.2,17.8,63.6S10.2,85.3,7.5,97.5  c-2.7,12.2-4.6,25-5.8,38.3S0,162.7,0,176.4z M48.5,174.2c0-8.3,0.2-16.5,0.5-24.3c0.3-7.9,0.8-15.4,1.5-22.6  c0.7-7.2,1.6-13.7,2.9-19.7c1.3-6,2.9-11.1,4.7-15.4c2.9-7.2,6.3-12.8,10.3-16.8c4-4,8.4-6.1,13.4-6.1c6.3,0,11.9,3.9,16.8,11.6  s8.9,20,11.9,36.7c0.8,4.2,1.4,8.5,1.9,13c0.5,4.5,0.8,9,1,13.4c0.2,4.4,0.4,8.7,0.5,12.8c0.1,4.1,0.2,8,0.2,11.6  c0,11.9-0.3,22.2-0.8,30.9c-0.5,8.7-1.2,16.3-2.1,22.8s-1.9,11.9-3,16.4s-2.3,8.4-3.5,11.6c-5.5,16.4-13.2,24.6-23.1,24.6  c-3.1,0-5.9-0.6-8.2-1.8c-2.3-1.2-4.5-2.7-6.4-4.7s-3.5-4.2-4.9-6.7s-2.6-5.2-3.6-7.9c-2-5.1-3.6-10.8-5-17  c-1.4-6.3-2.4-12.9-3-19.8c-0.7-7-1.1-14.1-1.5-21.3C48.6,188.2,48.5,181.1,48.5,174.2z" fill="#000000"></path>
<path d="M191.9,329.7h44.9V197.6h60v-61.1h-60v-61h64.3V15.8H191.9V329.7z" fill="#000000"></path>
<path d="M330.5,329.7h44.9V197.6h60v-61.1h-60v-61h64.3V15.8H330.5V329.7z" fill="#000000"></path>
</svg>