<?xml version='1.0' encoding='utf-8'?>
<!-- Generator: Adobe Illustrator 24.0.1, SVG Export Plug-In . SVG Version: 6.00 Build 0)  --><svg xmlns="http://www.w3.org/2000/svg" xmlns:xlink="http://www.w3.org/1999/xlink" version="1.1" id="Ebene_1" x="0px" y="0px" viewBox="0 0 306.4 400" style="enable-background:new 0 0 306.4 400;" xml:space="preserve" width="306.4" height="400.0">
<g>
	<path d="M80.1,387.2c-11.2,0-20.9-1.8-26.2-5.3c-10.2-6.7-40.2-24.4-40.5-24.6c-2.2-1.3-3.8-3.4-4.4-5.9c-0.6-2.5-0.2-5.1,1.1-7.2   l48.7-80.2c1.3-2.2,3.5-3.8,6-4.3c2.5-0.6,5.1-0.1,7.3,1.3c0.4,0.2,37,23.3,52.3,2.7c15.1-20.3,36.3-57.4,50.3-82   c5.1-9,9.2-16.1,11.9-20.5c8-13.2,7.2-35.5-21.3-55.1c-4.2-2.9-5.4-8.5-2.7-12.8l49.7-81.8c2.7-4.5,8.6-5.9,13.1-3.2   c0.9,0.5,22.1,13.5,45.4,30.9c27.4,20.5,29.5,78.9,11.2,109.2L161.7,346c-14.9,24.6-39.1,34.5-56.8,38.4   C96.6,386.3,88,387.2,80.1,387.2z M31.3,345.8c9.9,5.9,25.8,15.4,33,20.2c7.3,4.2,59,6.5,81.1-29.9l120.1-197.8   c13.7-22.5,12.7-69.8-6.3-84.1c-14.1-10.5-27.6-19.5-35.8-24.8l-40.2,66.2c30,24.6,31.9,54.9,19.6,75.2   c-2.6,4.2-6.8,11.6-11.6,20.1c-14.3,25-35.8,62.7-51.6,83.9c-10.9,14.7-28.8,19.6-50.4,13.9c-7.3-1.9-14-4.8-18.9-7.2L31.3,345.8z" fill="#000000"></path>
</g>
</svg>