<?xml version='1.0' encoding='utf-8'?>
<svg xmlns="http://www.w3.org/2000/svg" viewBox="0 0 2044 2041" width="401" height="400"><path d="M1889 732l10-13q0-9 6-10.5t10-1.5q15 0 17 12t5 36.5 13.5 61.5 43.5 87v48q0 35-23 57.5t-60 22.5q-14 0-26.5-7t-21.5-18-14.5-25.5-5.5-29.5v-25q3-12 9-28.5t12.5-32.5 13.5-30.5 11-23.5v-80zM860 384v126h242l81 106 695-209 116 139-83 91-68-102-93 34-451 601H409V732L50 616l80-360 394 128v126h232V384H651V256h313v128H860zm567 1029q16 0 32 5t30 11.5 24.5 14.5 16.5 14l48 24q0 8 7 9.5t15 1.5h47q8 0 15-1.5t7-9.5l46-24q18-18 48.5-31.5t56.5-13.5q22 0 48.5 10.5t42.5 24.5v139l-33-34h-24q-8 0-11-6t-11-6q-6 0-9 2t-8 4-14 4-27 2l-36 34q-5 11-20.5 19.5T1684 1621t-35 9-25 3q-10 0-25.5-2.5t-31.5-8.5-29-14.5-19-20.5l-47-34h-22q-15-12-23-12-3 0-11 1.5t-15.5 4.5-13.5 7.5-6 10.5l-48 22q-5 10-17.5 18.5t-28 14.5-33.5 9.5-35 3.5q-6 0-20.5-1.5t-31-6.5-31.5-14-22-24l-47-22q-4 0-9.5-3.5t-12-8-13-8.5-11.5-4l-22 12q-9 0-10.5 2t-10.5 8.5-32 20-75 37.5q-8 9-24 10.5t-33 1.5q-10 0-25-2t-30.5-7-29-14-20.5-23l-46-22q-15-12-23-12l-12-12q-9 0-17 4t-15 8.5-13 8-12 3.5l-47 22q-6 13-19.5 22t-30 14-34 7.5-31.5 2.5q-8 0-18-.5t-23-4.5-29-13.5-35-27.5l-34-22q-11 0-17-3.5t-11-8-11.5-8.5-17.5-4q-11 8-26 16t-21 8l-36 22h-12v-139q6-6 18.5-12t27-11.5 28-8.5 21.5-3q10 0 26 4t33 11 32.5 15 23.5 15l46 24q0 8 7.5 9.5t16.5 1.5h45q9 0 11.5-1.5t10.5-9.5l48-24q4-4 15.5-11.5t26.5-15 31-13 30-5.5q10 0 24.5 4.5t30 11.5 31 14.5T731 1458l37 24q5 5 8 7.5t8.5 3 14.5.5h49q9 0 12-1.5t11-9.5l35-24q14-6 30-14t31.5-15 29.5-11.5 24-4.5q12 0 26 4.5t29.5 11.5 31 14.5 29.5 14.5l36 24q0 8 6.5 9.5t14.5 1.5h60q11-3 11-11l45-24q7-7 22-15t31-15 30.5-11 22.5-4h11zm-162-381l288-395-392 116-115-116H524v395h741zM178 535l231 69V489l-208-82z" fill="#ffd100"></path></svg>