<?xml version='1.0' encoding='utf-8'?>
<!-- Generator: Adobe Illustrator 20.1.0, SVG Export Plug-In . SVG Version: 6.00 Build 0)  --><svg xmlns="http://www.w3.org/2000/svg" xmlns:xlink="http://www.w3.org/1999/xlink" version="1.1" x="0px" y="0px" viewBox="0 0 610 400" style="enable-background:new 0 0 610 400;" xml:space="preserve" width="610.0" height="400.0">
<g id="Ebene_2">
	<path d="M304.8,352c-78.1,0-151.5-17.6-206.8-49.5c-56-32.3-86.8-75.6-86.8-121.8S42,91.3,98,59C153.3,27,226.8,9.4,304.8,9.4   C382.9,9.4,456.4,27,511.7,59c56,32.3,86.8,75.6,86.8,121.8s-30.8,89.4-86.8,121.8C456.4,334.4,382.9,352,304.8,352z M304.8,17.4   c-157.5,0-285.7,73.3-285.7,163.3c0,90,128.1,163.3,285.7,163.3c157.5,0,285.7-73.3,285.7-163.3C590.5,90.7,462.4,17.4,304.8,17.4z   " fill="#000000"></path>
	<g>
		<path d="M102.1,251V111.4h59.3c14.9,0,25.8,1.3,32.5,3.8c6.8,2.5,12.2,7,16.2,13.4c4.1,6.4,6.1,13.7,6.1,22    c0,10.5-3.1,19.1-9.2,25.9c-6.2,6.8-15.4,11.1-27.6,12.9c6.1,3.6,11.1,7.5,15.1,11.7c4,4.3,9.3,11.8,16,22.7l17,27.2h-33.7    l-20.4-30.4c-7.2-10.9-12.2-17.7-14.9-20.5c-2.7-2.8-5.5-4.8-8.5-5.8c-3-1-7.7-1.6-14.2-1.6h-5.7V251H102.1z M130.3,170.5h20.9    c13.5,0,22-0.6,25.3-1.7c3.4-1.1,6-3.1,7.9-5.9c1.9-2.8,2.9-6.3,2.9-10.5c0-4.7-1.3-8.5-3.8-11.4c-2.5-2.9-6-4.7-10.6-5.5    c-2.3-0.3-9.1-0.5-20.6-0.5h-22V170.5z" fill="#000000"></path>
		<path d="M237.1,182.1c0-14.2,2.1-26.2,6.4-35.8c3.2-7.1,7.5-13.5,13-19.1c5.5-5.6,11.5-9.8,18-12.6c8.7-3.7,18.7-5.5,30.1-5.5    c20.6,0,37,6.4,49.4,19.1c12.3,12.8,18.5,30.5,18.5,53.2c0,22.5-6.1,40.2-18.4,52.9c-12.3,12.7-28.6,19.1-49.1,19.1    c-20.8,0-37.3-6.3-49.5-19C243.3,221.7,237.1,204.3,237.1,182.1z M266.2,181.1c0,15.8,3.6,27.8,10.9,35.9    c7.3,8.2,16.6,12.2,27.8,12.2c11.2,0,20.5-4,27.7-12.1c7.2-8.1,10.8-20.2,10.8-36.4c0-16-3.5-27.9-10.5-35.8    c-7-7.9-16.3-11.8-27.9-11.8c-11.6,0-21,4-28.1,11.9C269.7,153,266.2,165.1,266.2,181.1z" fill="#000000"></path>
		<path d="M394.9,251V111.4h28.2v62l56.9-62h37.9l-52.6,54.4l55.4,85.2h-36.5l-38.4-65.5l-22.9,23.3V251H394.9z" fill="#000000"></path>
	</g>
</g>
<g id="Ebene_3">
</g>
</svg>