<?xml version='1.0' encoding='utf-8'?>
<svg xmlns="http://www.w3.org/2000/svg" viewBox="0 0 1865 2041" width="366" height="400"><path d="M1641 1661l-335 118 108-339 65 66 54-60 47-66 39-71 32-75 24-75 18-80 7-82v-80l-12-79-18-80-25-75-33-74-42-70-50-65-52-59-62-52-66-49-71-37-73-32-79-23-77-16-82-7h-82l-79 12-77 19-78 25-73 35-70 43-62 47-60 56-54 60-44 68-38 70-31 75-25 78-13 79-7 81 6 81 9 80 19 77 27 77 35 74 40 68 50 65 58 57 61 50 66 47-67 109-69-48-66-57-64-60-54-66-48-75-41-74-35-80-29-83-15-87-8-84v-88l7-86 17-84 26-84 30-81 40-77 43-72 55-68 61-62 67-56 68-50 78-43 79-36 82-27 86-19 85-11h174l85 19 83 21 82 32 76 36 74 47 70 52 63 60 58 64 51 69 42 76 38 79 29 81 21 85 12 85v173l-11 87-23 85-29 81-37 78-43 74-51 72-58 64zM870 413h140l380 940h-142l-102-245H710l-101 245H474zm-118 590h356L934 542z" fill="#000000"></path></svg>