<?xml version='1.0' encoding='utf-8'?>
<svg xmlns="http://www.w3.org/2000/svg" viewBox="0 0 1983 2041" width="389" height="400"><path d="M1916 1653q9 15 13 28t4 23q0 48-84 48H128q-78 0-78-41 0-20 19-54L935 162q32-52 60-52 29 0 60 52zM995 393L302 1598h1391zm305 1013l-81-46v90h-62v-125l-134-78v152l107 56-29 56-78-44v97h-62v-97l-78 44-28-56 106-53v-151l-128 74v119h-61v-84l-82 46-31-53 84-49-78-44 28-57 113 65 126-73-129-75-105 61-33-50 78-45-84-49 32-55 81 48v-89h61v124l128 74V989l-100-54 28-56 72 39v-92h62v92l78-39 34 51-112 59v154l134-77V946h62v84l80-48 32 55-84 49 78 45-33 50-104-61-129 75 127 72 106-58 27 51-72 44 84 49z" fill="#000000"></path></svg>