<?xml version='1.0' encoding='utf-8'?>
<!-- Generator: Adobe Illustrator 23.1.0, SVG Export Plug-In . SVG Version: 6.00 Build 0)  --><svg xmlns="http://www.w3.org/2000/svg" xmlns:xlink="http://www.w3.org/1999/xlink" version="1.1" id="Ebene_1" x="0px" y="0px" viewBox="0 0 735.7 323.6" style="enable-background:new 0 0 735.7 323.6;" xml:space="preserve" width="909.3943" height="400.0">
<g id="Ebene_2_1_">
</g>
<g>
	<path d="M413.6,317.1H464L552.7,6.5h-50.2L413.6,317.1z" fill="#000000"></path>
	<path d="M718.1,140.6v42.7H552.7v-42.7H718.1z" fill="#000000"></path>
	<path d="M156.5,317.9H272v-66.8h-70.7v-67.8h64.1v-60h-64.1V64.7h68.4v-59H156.5V317.9z" fill="#000000"></path>
	<path d="M6.5,207.9c0,5.3,0.1,11.9,0.3,19.6c0.2,7.7,1,15.7,2.3,24.1c1.4,8.4,3.4,16.8,6.1,25.1c2.7,8.3,6.4,15.8,11.2,22.5   c4.8,6.6,11,12.1,18.5,16.2c7.5,4.2,16.7,6.3,27.5,6.3c11.6,0,21.9-2.7,30.9-8.1s16.5-12.7,22.5-22s10.5-20.1,13.6-32.6   c3.1-12.4,4.6-25.7,4.6-39.8c0-10.2-0.7-19.1-2.2-26.9c-1.5-7.8-3.6-14.6-6.3-20.5c-2.7-5.9-5.8-11-9.4-15.3s-7.5-8.1-11.7-11.3   s-8.7-6.1-13.5-8.6s-9.5-4.8-14.4-7h0.2c-4.7-2.2-8.8-4.3-12.4-6.3s-6.6-4.2-9-6.7s-4.2-5.7-5.4-9.5c-1.2-3.8-1.8-8.7-1.8-14.7   c0-10.3,1.7-18.6,5.2-24.8c3.5-6.3,8-9.4,13.6-9.4c2.7,0,5.1,0.9,6.9,2.6c1.9,1.8,3.6,4,5,6.7s2.5,5.8,3.3,9.3s1.4,6.9,1.8,10.3   s0.7,6.5,0.9,9.3c0.2,2.8,0.3,5.1,0.3,6.9h44.8c0-3-0.1-6.9-0.2-11.7c-0.1-4.8-0.5-10.1-1.2-15.9s-1.6-11.9-2.9-18.3   s-3.3-12.6-5.9-18.8c-3-7.4-6.5-13.5-10.7-18.3c-4.1-4.8-8.4-8.5-12.9-11.3s-9.2-4.7-14-5.7s-9.4-1.5-13.7-1.5   c-11.9,0-22,2.6-30.5,7.7S32.5,21.7,27.1,30.7s-9.4,19.4-12,31.1s-3.9,24.1-3.9,37.1c0,13.6,1.3,25.3,4,35.1s6.6,18.5,11.8,25.9   c5.2,7.4,11.6,13.9,19.3,19.4s16.4,10.5,26.3,15.1c3.9,2.1,7.4,3.9,10.5,5.6c3.1,1.6,5.6,3.6,7.5,5.9s3.4,5.2,4.3,8.8   s1.4,8.2,1.4,14c0,10.8-1.9,19.4-5.8,25.7c-3.9,6.3-9.3,9.5-16.3,9.5c-3.5,0-6.5-0.9-9-2.7s-4.5-4.1-6-6.9s-2.7-6-3.5-9.6   s-1.5-7.2-1.9-10.9c-0.4-3.6-0.7-7.1-0.8-10.4s-0.2-5.9-0.2-8V208H6.5V207.9z" fill="#000000"></path>
</g>
<path d="M331,317.9h46.4V65.2H423V5.1H285.6v60.1H331V317.9z" fill="#000000"></path>
</svg>