<?xml version='1.0' encoding='utf-8'?>
<svg xmlns="http://www.w3.org/2000/svg" viewBox="0 0 2121 2041" width="416" height="400"><path d="M1867 347q42 0 80.5 17.5t68.5 47 47.5 68T2081 560v857q0 43-17.5 81.5t-47.5 68-68.5 47-80.5 17.5H254q-47 0-86.5-17.5t-68-47-44-68T40 1417V560q0-42 15.5-80.5t44-68 68-47T254 347h1613zM216 1417q0 38 38 38h1613q37 0 37-38V560q0-37-37-37H254q-38 0-38 37v857zm165-768q-38 0-38 38v706h-39q-9 0-23-9.5t-14-29.5V611q0-18 14-28t23-10h1512q38 0 38 38v38H381zm591 63h202v655H972V712z" fill="#000000"></path></svg>