<?xml version='1.0' encoding='utf-8'?>
<svg xmlns="http://www.w3.org/2000/svg" viewBox="0 0 1886 2041" width="370" height="400"><path d="M1823 1364q17 28 21 59.5t-3.5 61.5-26.5 56-48 42q-17 11-36.5 16.5t-40.5 7.5h-136q8 36-1 74t-32 68q-23 27-54.5 42.5T1400 1807t-63-13l-389-163-397 173q-30 15-65 15-34 0-65-15t-54-43q-26-33-34-74.5t4-79.5H202q-44 0-82-24-29-16-48-42t-26.5-56-3.5-61.5 21-59.5L805 109q21-38 58.5-58.5T943 30t79.5 20.5T1081 109zm-363 337q17-21 19.5-49.5T1469 1598l-451-836q-9-18-20-33-10-12-23-22.5T947 696q-16 0-29 10.5T895 729q-11 15-21 33l-457 847q-13 24-10.5 53t19.5 50q13 16 28 23t32 7q19 0 34-7l427-187 420 176q14 7 33 7 33 0 60-30zm267-184q15-9 25-22t14-29 2-33-11-32L1016 148q-12-20-31-31t-42-11-42 11-31 31L129 1401q-9 15-11 32t2 33 14 29 25 22q10 7 21 9.5t22 2.5h171l433-801q4-9 14.5-27t28.5-36 42.5-32 55.5-14 55 14 41.5 32 28 36 15.5 27l431 801h169q20 0 40-12z" fill="#000000"></path></svg>