<?xml version='1.0' encoding='utf-8'?>
<!-- Generator: Adobe Illustrator 22.1.0, SVG Export Plug-In . SVG Version: 6.00 Build 0)  --><svg xmlns="http://www.w3.org/2000/svg" xmlns:xlink="http://www.w3.org/1999/xlink" version="1.1" id="Ebene_1" x="0px" y="0px" viewBox="0 0 291 256" style="enable-background:new 0 0 291 256;" xml:space="preserve" width="454" height="400">
<g>
	<g>
		<path d="M56.6,145.6c-16.4,0-28.8-5.3-35.1-14.8c-5.9-9.1-5.7-21,0.6-35.3c6.6-14.9,12.8-28.3,17.7-39    c5.1-11.1,9.2-19.9,10.9-24.4c0.9-2.4,3.3-4,5.9-4s4.9,1.6,5.9,4c1.8,4.6,5.8,13.4,11,24.5c5,10.7,11.1,24.1,17.7,39    c6.3,14.3,6.5,26.2,0.6,35.3C85.5,140.3,73,145.6,56.6,145.6z M56.6,49.9c-1.6,3.4-3.4,7.4-5.4,11.7c-4.9,10.7-11.1,24-17.6,38.8    c-4.5,10.2-5,18-1.5,23.4c3.8,5.8,12.7,9.1,24.5,9.1s20.8-3.3,24.5-9.1c3.5-5.3,3-13.2-1.5-23.4C73.1,85.7,67,72.4,62,61.7    C60,57.3,58.2,53.4,56.6,49.9z" fill="#000000"></path>
	</g>
	<g>
		<path d="M56,185.1c-3.5,0-6.3-2.8-6.3-6.3V142c0-3.5,2.8-6.3,6.3-6.3c3.5,0,6.3,2.8,6.3,6.3v36.8C62.3,182.3,59.5,185.1,56,185.1z    " fill="#000000"></path>
	</g>
</g>
<g>
	<g>
		<path d="M117.5,98.5c-9.4,0-16.7-3.1-20.3-8.7c-3.5-5.4-3.4-12.3,0.2-20.5c3.6-8.3,7.1-15.6,9.8-21.7c2.8-6.2,5.1-11,6.1-13.5    c0.7-1.7,2.3-2.9,4.2-2.9s3.5,1.1,4.2,2.9c1,2.5,3.2,7.4,6,13.5c2.8,6,6.2,13.4,9.8,21.7c3.7,8.3,3.7,15.2,0.2,20.5    C134.1,95.4,126.9,98.5,117.5,98.5z M117.5,46.9c-0.6,1.4-1.3,2.9-2.1,4.5c-2.8,6-6.1,13.3-9.8,21.5c-1.6,3.7-3.1,8.7-0.9,12    c1.9,2.9,6.7,4.6,12.8,4.6c6.1,0,10.9-1.7,12.8-4.6c2.2-3.3,0.7-8.4-0.9-12c-3.6-8.2-7-15.6-9.8-21.5    C118.8,49.7,118.1,48.2,117.5,46.9z" fill="#000000"></path>
	</g>
	<g>
		<path d="M117.1,120.4c-2.5,0-4.5-2-4.5-4.5V95.5c0-2.5,2-4.5,4.5-4.5c2.5,0,4.5,2,4.5,4.5v20.4    C121.6,118.4,119.6,120.4,117.1,120.4z" fill="#000000"></path>
	</g>
</g>
<g>
	<g>
		<path d="M242.6,123.6c-11.8,0-20.8-3.8-25.4-10.8c-4.3-6.7-4.2-15.3,0.3-25.6c4.6-10.4,8.9-19.8,12.4-27.4    c3.6-7.7,6.4-13.9,7.6-17c0.8-2.1,2.8-3.4,5-3.4c2.2,0,4.2,1.4,5,3.4c1.2,3.2,4.1,9.3,7.6,17c3.5,7.5,7.8,16.9,12.4,27.4    c4.6,10.3,4.7,19,0.3,25.6C263.4,119.8,254.4,123.6,242.6,123.6z M242.6,58.1c-0.9,1.9-1.8,4-2.9,6.2c-3.5,7.5-7.8,16.8-12.3,27.2    c-2.1,4.7-3.9,11.1-1.2,15.4c2.4,3.7,8.5,5.9,16.4,5.9s13.9-2.2,16.4-5.9c2.8-4.3,0.9-10.7-1.2-15.4c-4.6-10.4-8.9-19.7-12.3-27.2    C244.4,62.1,243.5,60,242.6,58.1z" fill="#000000"></path>
	</g>
	<g>
		<path d="M242.2,151.3c-3,0-5.4-2.4-5.4-5.4v-25.8c0-3,2.4-5.4,5.4-5.4s5.4,2.4,5.4,5.4v25.8C247.5,148.8,245.1,151.3,242.2,151.3z    " fill="#000000"></path>
	</g>
</g>
<polygon points="135.9,110 146.1,110 74.3,216.2 50.6,216.2 " fill="#000000"></polygon>
<polygon points="192.3,110 182.1,110 253.9,216.2 277.6,216.2 " fill="#000000"></polygon>
<rect x="157.4" y="110.9" width="14.1" height="18.9" fill="#000000"></rect>
<rect x="157.4" y="145" width="14.1" height="24.9" fill="#000000"></rect>
<rect x="157.4" y="184.3" width="14.1" height="31.9" fill="#000000"></rect>
</svg>