<?xml version='1.0' encoding='utf-8'?>
<!-- Generator: Adobe Illustrator 24.0.1, SVG Export Plug-In . SVG Version: 6.00 Build 0)  --><svg xmlns="http://www.w3.org/2000/svg" xmlns:xlink="http://www.w3.org/1999/xlink" version="1.1" id="Ebene_1" x="0px" y="0px" viewBox="0 0 364 400" style="enable-background:new 0 0 364 400;" xml:space="preserve" width="364.0" height="400.0">
<style type="text/css">
	.st0{fill:none;stroke:#000000;stroke-width:2;stroke-miterlimit:10;}
</style>
<path d="M7.9,95.6c0.4-1.2,1-2.4,2-3.8c0.9-1.4,2.3-2.7,4-3.9c1.8-1.2,4-2.3,6.6-3.1s5.9-1.3,9.8-1.3c3.7,0,6.8,0.4,9.3,1.2  s4.7,1.8,6.5,3c1.8,1.2,3.1,2.6,4.1,4.1c1,1.5,1.8,2.9,2.4,4.2v64.3h75.1V96.6c0.1-1.3,0.7-2.7,1.6-4.3c0.9-1.6,2.1-3,3.6-4.3  c1.5-1.3,3.4-2.4,5.7-3.2c2.3-0.8,5-1.3,8.1-1.3c3.3,0,6.1,0.4,8.5,1.2s4.5,1.8,6.2,3s3.1,2.6,4.2,4c1.1,1.4,2,2.7,2.6,3.9V245h29.2  c4.4-0.7,9.3-2,14.7-4s10.3-5.3,14.8-9.7c4.5-4.4,8.3-10.4,11.4-17.7s4.6-16.8,4.6-28.1c0-7.4-1-14-3.1-19.8  c-2.1-5.7-4.9-10.7-8.4-15c-3.5-4.2-7.6-7.8-12.2-10.8c-4.6-2.9-9.4-5.4-14.4-7.3s-10.1-3.4-15.2-4.4c-5.1-1-9.9-1.8-14.3-2.4V83.9  c18.7,0.9,35.9,5.2,51.5,12.7c6.7,3.1,13.3,7.3,20,12.4c6.7,5.2,12.7,11.5,18,19c5.4,7.5,9.7,16.4,12.9,26.6  c3.3,10.2,4.9,22,4.9,35.3c0,9.7-1.2,18.5-3.7,26.6c-2.5,8-5.8,15.4-9.9,22c-4.1,6.6-8.9,12.5-14.3,17.6c-5.4,5.2-11.1,9.7-17,13.6  s-11.8,7.3-17.8,10c-6,2.7-11.6,5-16.9,6.7c-8.2,0-15.9-0.1-23-0.2c-7.1-0.1-14.4-0.2-21.9-0.2c-3.1,0-6,0.1-8.7,0.2s-5,0.2-7,0.2  c-3,0-5.5-0.4-7.4-1.3c-2-0.8-3.6-1.9-4.8-3.1c-1.2-1.2-2.2-2.6-2.8-4.1c-0.7-1.5-1-2.8-1.2-4v-75.1H52.6v75.6  c-2.2,1.4-4,2.9-5.4,4.3s-3,2.8-4.8,4s-3.9,2.3-6.2,3c-2.3,0.8-4.9,1.2-7.7,1.2s-5.4-0.5-7.6-1.5s-4.1-2.2-5.8-3.7s-3-3.2-4.2-5  c-1.2-1.8-2.2-3.6-2.9-5.3V95.6z M178,319.5c26.3-0.1,49.8-5,70.7-14.5c8.9-4.1,17.6-9.3,26.1-15.7c8.5-6.4,16.1-14.4,22.7-23.9  c6.7-9.5,12-20.9,16.1-34s6.1-28.5,6.1-46s-1.9-32.9-5.7-46.1s-8.8-24.7-15-34.4c-6.2-9.7-13.3-17.9-21.3-24.5  c-8-6.6-16.1-12.1-24.3-16.4c-9.8-5-20.2-8.9-31.2-11.7s-22.7-4.5-35.1-5c-1.6,0-3.2-0.3-4.8-0.8c-1.6-0.5-3.2-1.5-4.6-2.9  c-1.4-1.4-2.6-3.4-3.5-6c-0.9-2.5-1.4-5.8-1.4-9.7s0.4-7.1,1.3-9.6c0.8-2.5,1.9-4.5,3.1-6c1.2-1.5,2.6-2.5,4.1-3  c1.5-0.5,3-0.8,4.4-0.8c31.9,2.7,60.2,10.8,85.1,24.1c10.6,5.7,21,12.9,31.3,21.6c10.3,8.6,19.4,19,27.3,31.3s14.4,26.6,19.3,43  c4.9,16.5,7.3,35.4,7.3,56.8c0,21.6-2.5,40.5-7.6,56.7c-5.1,16.3-11.8,30.4-20.2,42.4c-8.4,12-17.9,22.1-28.6,30.3  c-10.7,8.2-21.6,14.9-32.7,20.1c-13.1,6.3-27,11.1-41.7,14.6c-14.8,3.5-30.5,5.5-47.2,6.2V319.5z" fill="#000000"></path>
<circle class="st0" cx="337.4" cy="27.5" r="21.8" fill="#000000"></circle>
<g>
	<path d="M327.3,40.8V13.6h12.1c2.4,0,4.3,0.2,5.5,0.7c1.3,0.5,2.3,1.4,3,2.6c0.8,1.2,1.1,2.6,1.1,4.1c0,1.9-0.6,3.6-1.9,4.9   c-1.3,1.3-3.2,2.2-5.8,2.5c1,0.5,1.7,0.9,2.2,1.4c1.1,1,2,2.2,3,3.6l4.7,7.4h-4.5l-3.6-5.7c-1.1-1.6-1.9-2.9-2.6-3.7   c-0.7-0.9-1.3-1.5-1.8-1.8c-0.5-0.3-1.1-0.6-1.6-0.7c-0.4-0.1-1.1-0.1-2-0.1h-4.2v12.1H327.3z M330.9,25.6h7.7   c1.6,0,2.9-0.2,3.9-0.5c0.9-0.3,1.6-0.9,2.1-1.6c0.5-0.7,0.7-1.6,0.7-2.4c0-1.3-0.5-2.3-1.4-3.2c-0.9-0.8-2.4-1.2-4.4-1.2h-8.6   V25.6z" fill="#000000"></path>
</g>
</svg>