<?xml version='1.0' encoding='utf-8'?>
<svg xmlns="http://www.w3.org/2000/svg" viewBox="0 0 683 2041" width="134" height="400"><path d="M623 611q-2-117-24-199t-56.5-135.5T463 198t-92-25q-14 0-35 2.5t-47.5 13-54 32.5-53.5 59q-41 62-67 146.5T73 611 54 820.5 50 1039q0 35 .5 82t3 102 10 113T85 1450.5t34.5 107 50.5 88 71 59.5 94 22q73 0 122.5-35.5T546 1584q46-87 66.5-182.5T633 1185q0-126-22-217.5T555.5 815 478 725.5 390 697q-36 0-62.5 12.5T281 742q2-49 6-98t12.5-88 22.5-63.5 34-24.5q17 0 30 32.5T401 611h222zm-278 822q-13 0-25.5-12.5t-22-39T283 1313t-5-101q0-74 8.5-118.5t21-68T332 995t19-7q26 0 44.5 56t18.5 161q0 65-7 109.5t-16.5 70-22 37T345 1433z" fill="#000000"></path></svg>