<?xml version='1.0' encoding='utf-8'?>
<svg xmlns="http://www.w3.org/2000/svg" viewBox="0 0 1874 2041" width="367" height="400"><path d="M409 1178l-34-57-11 16q-33 45-60 100.5t-48 117-36 127-25 130.5l-6 56h77l4-53q17-121 48.5-233t86.5-198zM40 1822q1-67 13-147.5t34-164 55-166.5 75-156 93.5-132T422 961l115 192q-82 94-123 236.5T373 1719q0 51 3 103H40zm684-666q-19 11-37 11-20 0-35.5-10t-26.5-27L477 886q-11-19-11-38t9.5-35.5T502 785l83-49q-18-40-18-84 0-52 25.5-100t74.5-77l657-394q25-15 52-22.5t54-7.5q52 0 99.5 25.5T1606 150l198 329q15 25 22 52t7 54q0 52-25.5 99.5T1734 761l-658 396q-25 15-51.5 21.5T972 1185q-48 0-91-20.5t-73-58.5zm835-405q-10-7-18-15t-16-17q-22 26-53 40.5t-67 14.5q-37 0-67-14.5t-50-40.5q-22 26-53 40.5t-67 14.5q-37 0-67-14.5t-50-40.5q-23 26-54 40.5T930 774q-37 0-66.5-14.5T812 719q-25 30-58.5 42.5T678 774q-6 12-14.5 23.5T642 817l-62 37q-3 2-3 5 0 2 8.5 17t21 36.5 27.5 46 27.5 45.5 21 35 9.5 15q1 3 6 3l2-1 64-39q22-13 45-13t43.5 11.5T885 1046q16 20 38 30.5t47 10.5q28 0 54-15zm-882-53q5 2 16 2 35 0 58.5-23.5T775 619q0-17 10.5-27.5T811 581t26.5 10.5T849 619q0 34 24 57.5t57 23.5q35 0 58.5-23.5T1012 619q0-17 10.5-27.5T1050 581q15 0 25.5 10.5T1086 619q0 34 24 57.5t58 23.5 57.5-23.5T1249 619q0-17 11.5-27.5T1287 581t25.5 10.5T1323 619q0 34 24.5 57.5T1405 700q34 0 58-23.5t24-57.5q0-17 11.5-27.5T1524 581q15 0 26 10.5t11 27.5q0 34 24 57.5t57 23.5l41-24q25-14 38-39t13-52q0-29-15-55l-197-329q-15-26-40-39t-52-13q-29 0-54 15L717 560q-25 15-38.5 39.5T665 651q0 24 10 44z" fill="#e4002c"></path></svg>