<?xml version='1.0' encoding='utf-8'?>
<!-- Generator: Adobe Illustrator 23.1.0, SVG Export Plug-In . SVG Version: 6.00 Build 0)  --><svg xmlns="http://www.w3.org/2000/svg" xmlns:xlink="http://www.w3.org/1999/xlink" version="1.1" id="Ebene_3" x="0px" y="0px" viewBox="0 0 480 186" style="enable-background:new 0 0 480 186;" xml:space="preserve" width="1032.258" height="400.0">
<g>
	<polygon points="18.1,27.9 60.6,27.9 60.6,173.2 76.6,173.2 76.6,27.9 119.2,27.9 119.2,11.8 18.1,11.8  " fill="#000000"></polygon>
	<rect x="306.7" y="12" width="16" height="161.2" fill="#000000"></rect>
	<path d="M270.2,173l-47.9-68.6c21.4-1.5,32.5-23.6,32.5-45.7c0-11.4-2.8-22-7.9-30c-6.3-10-15.8-15.5-26.7-15.5h-62.8V173h16v-68.6   h29.4l47.9,68.5L270.2,173z M173.5,29.3h46.7c5.5,0,9.7,2.7,13.2,8c3.5,5.5,5.3,13.4,5.3,21.5c0,11.9-4.9,29.6-18.6,29.6h-46.7   V29.3H173.5z" fill="#000000"></path>
	<path d="M452.1,28.7c-6.3-10-15.8-15.5-26.7-15.5h-62.8V173h16v-68.6h46.7c22.7,0,34.6-23,34.6-45.7   C460,47.5,457.2,36.8,452.1,28.7z M425.4,88.5h-46.7V29.3h46.7c5.5,0,9.7,2.7,13.2,8c3.5,5.5,5.3,13.4,5.3,21.5   C444,70.7,439,88.5,425.4,88.5z" fill="#000000"></path>
</g>
</svg>