<?xml version='1.0' encoding='utf-8'?>
<svg xmlns="http://www.w3.org/2000/svg" viewBox="0 0 2186 2041" width="428" height="400"><path d="M2003 1313h-436q-30 0-56-11t-45.5-30.5-30.5-45.5-11-55V173q0-29 11-55t30.5-45.5T1511 42t56-11h436q29 0 55 11t45.5 30.5 31 45.5 11.5 55v998q0 29-11.5 55t-31 45.5-45.5 30.5-55 11zM1567 85q-38 0-63.5 25.5T1478 173v998q0 37 25.5 62.5t63.5 25.5h436q37 0 62.5-25.5t25.5-62.5V173q0-37-25.5-62.5T2003 85h-436zm382 531h-328q-22 0-38-16t-16-38V327q0-23 16-38.5t38-15.5h328q23 0 38 15.5t15 38.5v235q0 22-15 38t-38 16zm-328-307q-8 0-13 5t-5 13v235q0 8 5 13t13 5h328q8 0 13-5t5-13V327q0-8-5-13t-13-5h-328zm293 834h-258q-14 0-23-9t-9-23v-101q0-14 9-23t23-9h258q14 0 23.5 9t9.5 23v101q0 14-9.5 23t-23.5 9zm-255-35h252v-95h-252v95zm-899 715h-53v-571q0-18-7-34t-19-28-28-19-34-7H182q-37 0-62.5 26T94 1252v571H40v-571q0-29 11-55t30.5-45 45.5-30 55-11h437q29 0 55 11t45 30 30 45 11 55v571zm-196-128H236q-23 0-38.5-15.5T182 1641v-234q0-23 15.5-38.5T236 1353h328q23 0 39 15.5t16 38.5v234q0 23-16 38.5t-39 15.5zm-328-307q-8 0-13 5.5t-5 13.5v234q0 8 5 13t13 5h328q8 0 13.5-5t5.5-13v-234q0-8-5.5-13.5T564 1388H236zm1054 48q-57-60-88-134.5t-31-157.5q0-14 1-27t3-27l53 7q-3 24-3 47 0 72 26.5 137.5T1329 1398zm-135 127q-82-86-125.5-193.5T986 1144q0-39 6-78l53 7q-2 17-3.5 35.5t-1.5 35.5q0 108 39.5 206t114.5 176z" fill="#ffd100"></path></svg>