<?xml version='1.0' encoding='utf-8'?>
<svg xmlns="http://www.w3.org/2000/svg" viewBox="0 0 2059 2041" width="404" height="400"><path d="M1851 576q-176-110-382-173t-435-63q-227 0-434 63T208 576l424 649q43-18 86.5-33t93.5-23L532 508l110-33 282 671h110q102 0 207 23.5t198 67.5zm-469 750q-85-34-170-51t-178-17h-66l79 168q41 8 64.5 38.5t23.5 74.5q0 21-8 39t-21 31.5-31.5 21.5-40.5 8q-50 0-80-29.5t-30-70.5q0-17 6.5-33.5T946 1481l-90-210q-42 8-89.5 23t-89.5 32q-18 16-41 27.5t-48 27.5L50 542q25-16 48.5-32t40.5-24q195-126 423-191.5t472-65.5q245 0 468 65.5T1919 486q26 8 45 24t45 32l-537 839q-17-16-41-27.5t-49-27.5z" fill="#ffd100"></path></svg>