<?xml version='1.0' encoding='utf-8'?>
<svg xmlns="http://www.w3.org/2000/svg" viewBox="0 0 2065 2041" width="405" height="400"><path d="M232 406q98 0 149.5 41T433 574q0 33-9 59t-25 45.5-36.5 32.5-43.5 19q14 6 23.5 15.5T361 768l19 32-37 15-26 17-32 26-40-67q-8-13-14-21.5t-13-13-15.5-6T181 749h-32v224H40V406h192zm-10 260q45 0 71-22.5t26-69.5q0-41-25.5-62T222 491h-73v175h73zm666 62H675v147l-22-21-27-22-27-17-34-14V406h358v92H675v139h213v91zm409-322l205 567h-118l-41-122h-216l-40 122H975l204-567h118zm16 356l-51-155q-8-26-15.5-51.5T1235 504q-5 26-11.5 51.5T1209 607l-52 155h156zm712 211h-129l-111-182q-8-13-14-21.5t-13-13-16-6-22-1.5h-32v224h-109V406h192q99 0 150 41t51 127q0 33-9 59t-24.5 45.5-36 32.5-43.5 19q23 11 42 38zm-264-307q45 0 71.5-22.5T1859 574q0-41-25.5-62t-72.5-21h-73v175h73zM682 883h244v90H732l-18-41-17-29zm49 366v162l-8 58-7 26-26 53-16 24-20 22-21 18-24 17-26 15-27 10-27 7-57 8-58-8-28-7-26-10-27-15-24-17-21-18-20-22-17-24-26-52-12-56v-191l6-19 6-6 10-5 9-2h26v-26l-10-3-7-5-9-18v-78l2-27 5-28 8-26 25-47 37-40 22-19 22-14 51-18 56-8 54 8 50 18 24 14 41 38 17 21 25 47 7 26 5 28 2 27v130l11 2 16 11 4 9zm-111-32v-152l-6-21-9-22-11-19-14-17-34-27-20-10-22-7h-66l-21 7-20 10-19 13-16 14-14 17-11 19-14 43v152h297zm-186 355h74l6-2 5-5 2-8-12-138 13-10 10-12 6-15 3-15v-16l-3-15-6-15-10-12-13-10-15-7-15-4h-16l-15 4-15 7-13 10-10 12-6 15-3 15v16l3 15 6 15 10 12 13 10-12 138 1 8 4 5z" fill="#000000"></path></svg>