<?xml version='1.0' encoding='utf-8'?>
<svg xmlns="http://www.w3.org/2000/svg" viewBox="0 0 950 2041" width="186" height="400"><path d="M292 397v295h382V397H292zm382-62q25 0 43.5 18t18.5 44v295q0 26-18.5 44T674 754H292q-26 0-43.5-18T231 692V397q0-26 17.5-44t43.5-18h382zm-396 740v63h61v-63h-61zm102 104H237v-146h143v146zm84-104v63h63v-63h-63zm105 104H422v-146h147v146zm75-104v63h60v-63h-60zm101 104H602v-146h143v146zm-467 80v61h61v-61h-61zm102 103H237v-145h143v145zm84-103v61h63v-61h-63zm105 103H422v-145h147v145zm75-103v61h60v-61h-60zm101 103H602v-145h143v145zm-467 90v62h61v-62h-61zm102 101H237v-143h143v143zm84-101v62h63v-62h-63zm105 101H422v-143h147v143zm75-101v62h60v-62h-60zm101 101H602v-143h143v143zM343 112q-47 0-87.5 16.5T185 174q-31 29-46.5 66.5T123 322v1211q0 84 66 144 33 31 75.5 47t88.5 16h244q48 0 90.5-16t75.5-47q32-29 49-65.5t17-78.5V322q0-42-17-79t-49-66q-33-31-75.5-48T597 112H343zm254-81q65 0 122 23t99.5 62.5 67 92.5T910 322v1211q0 60-24.5 112.5t-67 92T719 1800t-122 23H353q-64 0-121-23t-99.5-62.5-67.5-92T40 1533V322q0-61 23-114.5t63.5-92.5 96-61.5T343 31h254z" fill="#000000"></path></svg>