<?xml version='1.0' encoding='utf-8'?>
<svg xmlns="http://www.w3.org/2000/svg" viewBox="0 0 2589 2041" width="507" height="400"><path d="M2290 672q-23 0-42.5 14t-49.5 38l-22 32 1 1q0 1 .5 1t.5 1q8 8 14 17t6 23l40 43q27 24 43.5 52t26 58 14.5 61.5 9 63.5q0 24 1 47t9 39l22 42q1 2 1 3t1 3q7 17 13 35t6 38q0 24-15.5 50.5T2309 1387q-38 32-76 43t-78 11q-8 40-28.5 75t-50.5 61-68.5 41-81.5 15q-42 0-80-15.5t-68-42.5-50.5-64-28.5-81H765q-7 44-27.5 81t-50.5 64-68 42.5-80 15.5q-44 0-82-15.5t-68-42.5-50.5-64-28.5-81q-42-4-89.5-17t-87.5-39.5-66.5-68.5T40 1200q0-40 18-72.5t48-57.5 68.5-43 79-31.5 79.5-22 70-14.5l32-11 169-24q56-8 112-21.5T828 851q58-40 114-71.5t114.5-54 122-34.5 137.5-12h680q22 0 44 2.5t43 10.5l40-33q2-2 4.5-4t4.5-5l6-6q14-14 29-28t33-25.5 40-19 50-8.5l259-10v119h-259zM539 1527q27 0 49.5-11.5T628 1485t26.5-44.5 9.5-53.5-9.5-51.5-26.5-41-39.5-27-49.5-9.5-52 9.5-43.5 27-29.5 41-11 51.5 11 53.5 29.5 44.5 43.5 30.5 52 11.5zm1387 0q28 0 51-11.5t39.5-30.5 25.5-44.5 9-53.5q0-57-34.5-93t-90.5-36q-27 0-51 9.5t-42.5 27-29 41-10.5 51.5 10.5 53.5 29 44.5 42.5 30.5 51 11.5zm301-440q-4-24-8-47.5t-10.5-44.5-16.5-38.5-26-29.5l-52-63q-8-24-18-39t-22-23.5-26.5-11-29.5-2.5h-702q-63 0-118.5 10t-108 29.5T986 875t-105 65q-40 27-77.5 43t-73.5 25.5-71 14.5-70 11l-133 22-33 10q-15 3-41 8t-56 13-61 19-57 24.5-43.5 29.5-19.5 35q0 56 44 83.5t121 42.5q12-36 34.5-66.5t53-53.5 66.5-36 75-13 74.5 13 65.5 36 52.5 53.5T765 1321h945q7-36 27.5-66.5t49.5-53.5 65-36 74-13q43 0 81.5 13.5t68.5 37.5 50.5 57.5 28.5 73.5q38 0 70-14t55-41q-3-2-6-6-5-7-5-15l-21-53q-16-32-18.5-63t-2.5-55z" fill="#000000"></path></svg>