<?xml version='1.0' encoding='utf-8'?>
<svg xmlns="http://www.w3.org/2000/svg" viewBox="0 0 1982 2041" width="388" height="400"><path d="M54 1566l-4-286 10-285 13-76 29-66 43-61 197-208 206-200 213-188 60-38 68-29 73-11 383-9 384 8 42 5 40 16 36 23 30 29 22 34 14 42 6 42 13 630-14 630-7 50-21 47-30 38-41 30-47 20-50 6H251l-50-6-47-20-39-30-33-39-20-47zm1668 61l32-9 24-23 9-31 8-215 5-216-11-24-23-9h-602v197h133l-257 264-256-264h133v-197H218l-24 9-9 22-4 217 4 215 8 32 26 23 32 9h1471zM243 880l-12 21-1 22 10 23 18 15 25 6h104l233-242 249-230 36-25 41-17 45-8 401-6 401 9-2-69-3-66-6-25-14-20-19-14-24-6-380-6-377 7-65 14-57 33-209 186-200 194zm921-44h133l-257-264-256 264h133v231h247V836z" fill="#000000"></path></svg>