<?xml version='1.0' encoding='utf-8'?>
<!-- Generator: Adobe Illustrator 20.1.0, SVG Export Plug-In . SVG Version: 6.00 Build 0)  --><svg xmlns="http://www.w3.org/2000/svg" xmlns:xlink="http://www.w3.org/1999/xlink" version="1.1" id="Ebene_1" x="0px" y="0px" viewBox="0 0 488.9 400" style="enable-background:new 0 0 488.9 400;" xml:space="preserve" width="488.9" height="400.0">
<style type="text/css">
	.st0{fill:none;stroke:#1D1D1B;stroke-width:22;stroke-miterlimit:10;}
</style>
<path class="st0" d="M365.9,330h-196c-5.5,0-10-4.5-10-10V192c0-5.5,4.5-10,10-10h196c5.5,0,10,4.5,10,10v128  C375.9,325.5,371.4,330,365.9,330z" fill="#000000"></path>
<path class="st0" d="M121.9,251h-19c-5.5,0-10-4.5-10-10V116c0-5.5,4.5-10,10-10h212c5.5,0,10,4.5,10,10v23" fill="#000000"></path>
<line class="st0" x1="405.9" y1="323.6" x2="458.9" y2="364" fill="#000000"></line>
<line class="st0" x1="29.9" y1="37" x2="79.2" y2="74.6" fill="#000000"></line>
</svg>