<?xml version='1.0' encoding='utf-8'?>
<svg xmlns="http://www.w3.org/2000/svg" viewBox="0 0 1938 2041" width="380" height="400"><path d="M1034 1029q-7-15-14.5-33t-13.5-37.5-9.5-38.5-3.5-36q0-56 21-105.5t58-86 86.5-58T1264 613t105.5 21.5 86 58 58 86T1535 884q0 40-11.5 84t-35.5 83-61.5 67-89.5 37q2 0-7-12.5t-22-29.5-27-34-23-25q-9-2-16-5-6-2-11-4t-3-2zm230-293q-30 0-57 11.5t-47 31.5-31.5 47-11.5 58q0 30 11.5 57t31.5 47 47 31.5 57 11.5q31 0 58-11.5t47-31.5 31.5-47 11.5-57q0-31-11.5-58t-31.5-47-47-31.5-58-11.5zm-49 729q8-2 26.5-14t31.5-31q-11-10-15.5-17t-9.5-21l-2-13q-2-11-1.5-29.5t-.5-52.5q0-11-11.5-29t-25.5-35.5-27-30.5-17-14q-15-5-45-8.5t-68-6-83-4-90-1.5q-38 0-75 1t-69.5 3-59 4.5-44.5 6.5q-6 2-18.5 8.5t-29 15.5-34.5 18.5-34 17.5l-88 50q-21 12-54 17.5t-70 9-75 7.5-68 13.5-49 26-19 45.5q0 14 2 25t9.5 19 22 13.5 40.5 8.5l65 12q-4 11-4 22 0 29 20 49.5t49 20.5q30 0 51-20.5t21-49.5q0-7-1.5-16.5T360 1469h660q-4 8-6.5 16t-2.5 17q0 29 20.5 49.5t48.5 20.5q30 0 51-20.5t21-49.5q0-16-10-34h70zm-264 74H425q-11 43-47 71t-84 28q-46 0-81.5-28t-47.5-71h-8q-40-6-66.5-17t-42-27.5-22-38.5-6.5-52q0-40 17-68t45.5-46.5 65-29 75.5-17 77-9.5 70-7q8-1 11-1.5t9-3.5l87-49q1-1 2-1t2-1q35-20 71.5-40t59.5-28q18-3 45.5-6t61.5-5 72.5-3 78.5-1q48 0 96.5 1.5t90.5 4.5 75.5 7 52.5 10q13 4 35 23t42.5 44.5 35.5 54 16 52.5v48q0 20 5 31t11 18.5 11 14.5 5 19q0 20-12.5 40t-31 37-40 28.5-38.5 14.5h-11q-11 44-48 73t-85 29q-46 0-82-27t-47-72zm309-1166q-17 0-33.5.5T1197 376q3 14 3 30 0 30-11.5 55.5T1158 505t-44 28.5-51 10.5q-20 0-40-7t-37-17.5-29-23-15-24.5q-24 17-46.5 36T852 550q24 19 39 48t15 63q0 29-11 53.5T865.5 758 822 787.5 769 798t-51-10q-4 23-8 44-3 18-6 38t-4 35h6q28 0 53 10.5t44 29.5 30 44 11 54h-83q0-20-16-37t-39-17q-2 0-2 1l-93 5 4-94q1-17 4.5-38.5t7-40.5 7-33.5T637 771l21-96 90 35q9 4 21 4 22 0 37.5-15t15.5-38q0-12-5-24t-15-20l-75-56 64-68q23-25 49.5-47t54.5-42l70-49 47 72q15 23 26 28t25 5q22 0 37.5-15.5T1116 406q0-7-2-12l-19-91 91-10q14-2 32.5-3t41.5-1 40.5.5 18.5.5l97 4-18 97q-1 3-1 10 0 22 15 38t38 16h8q8-4 23.5-17.5T1509 410l47-59 63 41q14 10 31 23.5t32 26 26 22.5 14 13l72 64-77 62q-9 9-14.5 19.5T1697 645q0 23 16 38.5t38 15.5q11 0 22-4l105-44 9 107q9 30 15.5 62t8.5 64l7 85-87 5q-32 5-46 16.5t-14 37.5q0 16 14 30t40 29l64 37-29 68q-14 32-30.5 62t-36.5 58l-50 70-69-52q-14-8-21-12.5t-18-4.5q-17 0-30.5 9t-20.5 24v3q1 10 4 28.5t9 34.5l27 70-67 34q-62 32-129 48l-83 22-13-51 70-84q2 7 3 12l2 10 1 10q57-14 110-41-5-15-9-31-4-14-6.5-30t-2.5-32q0-27 12.5-49t32-38 43.5-24.5 47-8.5q13 0 27.5 4t27.5 9 22.5 11.5 12.5 10.5q17-24 31.5-50t26.5-55q-20-12-38-26-15-12-29.5-27t-20.5-31q-4-12-6.5-24t-2.5-23q0-28 11-53.5t30-44.5 44.5-30 55.5-11q-2-29-7.5-58t-14.5-58v-1q-26 12-54 12-31 0-56.5-12t-43.5-32-27.5-44.5-9.5-50.5q0-30 12.5-57t39.5-50q-17-15-34-29-14-12-30-25t-29-21q0 3-12.5 15.5t-30.5 26-39.5 24T1450 539q-27 0-51.5-10.5t-44-28.5-31-43-11.5-54q0-14 3-29h-16q-8 0-18-.5t-21-.5z" fill="#000000"></path></svg>