<?xml version='1.0' encoding='utf-8'?>
<svg xmlns="http://www.w3.org/2000/svg" viewBox="0 0 2051 2041" width="402" height="400"><path d="M204 71q46 0 76.5 13t48.5 30.5 25 34 7 23.5q0 3-1 3 0 1-1 40.5t-3.5 104-5 147-5 171-5 176-5 161T332 1101t-1 72q0 27-11 45t-27 28-34.5 14-34.5 4q-8 0-13-.5t-7-.5h-8q-3 0-22-2.5t-41.5-11-42-24.5-22.5-44q-2-21-4.5-74t-5-125.5-5-158.5T49 650t-3.5-169.5-3-148-2-108T40 175q2-27 20-49 15-19 48.5-35.5T204 71zm7 1304q28 0 54 11.5t45.5 31 31 45T353 1516t-11.5 54-31 45.5-45.5 31-54 11.5-53.5-11.5-45-31-31-45.5-11.5-54 11.5-53.5 31-45 45-31T211 1375zm1762-401q17 73 27.5 145t10.5 145q0 97-20.5 193.5T1943 1644l-7 23h-253l22-60q39-85 57-177t18-188q0-135-34.5-256.5t-96.5-225T1500.5 574t-190-141.5-221-90T848 311q-101 0-199 21t-189 61v-71q96-34 191.5-55.5T848 245q192 0 361 65.5T1518 500l55-59q-70-61-154-112t-177-87-192.5-56T849 166t-194.5 21T465 241q2-23 2.5-36t.5-36q96-34 190.5-47T848 109q196 0 374 60t324 169 252.5 261.5T1958 936zm-74-18q-39-130-102-243.5T1649 509l-58 58q78 85 135 187t90 214zm-417-355q8 9 11 10.5t3 11.5q0 14-19 43t-50.5 67.5-73 84-86.5 93-91.5 94.5-88 88-75 74-52.5 53q5 11 6 23t1 29q0 28-10.5 53.5t-29.5 45-44.5 31T826 1413q-28 0-54-11.5t-45.5-31-31-45T684 1272q0-31 11.5-58t31-47 45.5-32 54-12q17 0 28 4.5t17 10.5q11-11 37.5-39t64-66.5 82.5-84 93-92.5q88-85 146-136t94-78 54-35.5 27-8.5q5 0 8 1t5 2z" fill="#ffd100"></path></svg>