<?xml version='1.0' encoding='utf-8'?>
<svg xmlns="http://www.w3.org/2000/svg" viewBox="0 0 4163 2041" width="816" height="400"><path d="M40 1040h207l126 430 134-430h201v591H583v-506l-162 506H317l-157-506v506H40v-591zm1089 0l207 591h-127l-43-127H931l-43 127H767l215-591h147zm6 370l-83-254-88 254h171zm398-370l119 201 129-201h136l-197 284 208 307h-157l-130-221-142 221h-137l208-304-194-287h157zm1030-469l329 1060h-204l-69-226h-376l-70 226h-196l343-1060h243zm5 659l-134-453-140 453h274zm367 401l256-1060h133l-255 1060h-134zm976-716q-2-8-4.5-25.5t-8.5-38-16-42-26.5-39.5-40.5-29.5-58-11.5q-57 0-97.5 31t-67 85-39 126-12.5 154q0 16 1 49t6.5 73.5 17.5 83 34 78 56 58 84 22.5q32 0 62-11.5t54-36 38.5-62.5 16.5-92h212q-1 24-3.5 53.5t-11 62.5-25 67-45.5 67q-32 36-66.5 59.5t-70 37-71 18.5-68.5 5q-82 0-145.5-21t-111.5-58.5-81.5-88.5-54-110.5-30-124.5-9.5-131q0-126 30.5-229t87-176 137-113 180.5-40q77 0 141.5 25t111.5 71 73.5 110.5T4118 915h-207z" fill="#000000"></path></svg>