<?xml version='1.0' encoding='utf-8'?>
<!-- Generator: Adobe Illustrator 20.1.0, SVG Export Plug-In . SVG Version: 6.00 Build 0)  --><svg xmlns="http://www.w3.org/2000/svg" xmlns:xlink="http://www.w3.org/1999/xlink" version="1.1" id="Ebene_1" x="0px" y="0px" viewBox="0 0 398.6 400" style="enable-background:new 0 0 398.6 400;" xml:space="preserve" width="398.6" height="400.0">
<style type="text/css">
	.st0{fill:none;stroke:#1D1D1B;stroke-width:15;stroke-linecap:round;stroke-miterlimit:10;}
	.st1{fill:none;stroke:#1D1D1B;stroke-width:15;stroke-linecap:round;stroke-linejoin:round;stroke-miterlimit:10;}
	.st2{fill:#1D1D1B;stroke:#1D1D1B;stroke-width:10;stroke-linecap:round;stroke-linejoin:round;stroke-miterlimit:10;}
	.st3{fill:none;stroke:#1D1D1B;stroke-width:10;stroke-linecap:round;stroke-linejoin:round;stroke-miterlimit:10;}
</style>
<path class="st0" d="M243.3,125.6c8.6-19.8,18.5-52.7,11.4-80.8c-6-23.9-31.5-32.3-56.6-32.3c-25.3,0-48.9,19.1-49.9,56.3  c-1,37.4,11.5,48,15,56.8c2.5,6.1-1.1,20.3-4.3,21.1c-3.2,0.8-69.1,25.9-74.7,36.8c-1.3,2.4-2.3,6.6-3.1,11.5" fill="#000000"></path>
<path class="st1" d="M257.3,247.2l62.6,111.6l0,0l63.2-113.4l0.5-1.3c2.8-7.4,4.3-15.4,4.3-23.8c0-37.6-30.5-68.1-68.1-68.1  s-68.1,30.5-68.1,68.1c0,9.1,1.8,17.8,5.1,25.8" fill="#000000"></path>
<circle class="st1" cx="319.9" cy="225" r="19" fill="#000000"></circle>
<circle class="st2" cx="101.8" cy="255.5" r="16.6" fill="#000000"></circle>
<circle class="st2" cx="25.2" cy="338.3" r="16.6" fill="#000000"></circle>
<circle class="st2" cx="178.4" cy="332.1" r="16.6" fill="#000000"></circle>
<line class="st3" x1="27.4" y1="334.6" x2="96.3" y2="258.4" fill="#000000"></line>
<line class="st3" x1="106.2" y1="259.2" x2="170.9" y2="325.9" fill="#000000"></line>
<line class="st3" x1="190.3" y1="336" x2="257.2" y2="335.7" fill="#000000"></line>
</svg>