<?xml version='1.0' encoding='utf-8'?>
<svg xmlns="http://www.w3.org/2000/svg" viewBox="0 0 1983 2041" width="389" height="400"><path d="M1916 1653q9 15 13 28t4 23q0 48-84 48H128q-78 0-78-41 0-20 19-54L935 162q32-52 60-52 29 0 60 52zM995 393L302 1598h1391zm242 656l-26-61q-11-12-26-16t-38-4h-30q-17 0-36 .5t-36 2.5h-46q-9 6-16 15t-12 19.5-10.5 22T949 1049l-25 7 42-89q11-14 36-18t50-4h48q18 0 39 1t60 4q12 4 20 12t14 20.5 12 30 16 39.5zm173 255l-30-67q-19-21-50.5-22t-81.5-1h-45q-32 0-52 4t-33 19q1 0 1-1-1 0-10 16.5t-23 51.5l-29 6 48-99q4-8 15-12.5t25-7 29.5-3 29.5-.5h66l25.5.5 30.5 1 41 1.5q15 8 25.5 21.5t18 30.5 13 34.5 12.5 32.5zm-132-151q-3 10-9 10H917q-8-3-10-10h52q10-3 15-21h-60q-7 0-7-6v-5q0-9 7-9h60q-4-8-7-13.5t-8-7.5h-52q3-11 20.5-18t40.5-10.5 48.5-4.5 45.5-1q15 0 25.5.5t12.5.5q4 0 19-1t35-1q18 0 37 1.5t36 5 31 10.5 20 18h-51q-13 4-16 21h61q5 0 5.5 1.5t.5 5.5v7q0 3-.5 4.5t-5.5 1.5h-61q0 18 14 21h53zm168 378q0 10-13 10h-46q-12 0-12-10v-37h71v37zm10-110q0 11-14 11h-393q-9-4-12-11h61q11-5 16-22h-69q-6 0-6-8v-9q0-8 6-8h69q-8-18-16-22h-61q5-15 27-23t52.5-12.5 65.5-5.5 66-1h63.5l62.5 3.5 51.5 12.5 30.5 26h-59q-14 4-17 22h70q6 0 6 8v6q0 9-6 9h-70q0 23 15 24h61zm-293-248q-11 2-29.5 4t-35.5 18l-1 7H905q-12 0-12-12v-5q0-12 12-12h258zm308 288q0 9-3 12t-11 3h-420q-8 0-11-3t-3-12v-2q0-16 14-16h420q14 0 14 16v2zm-493-210q0 9-11 9h-42q-9 0-9-7v-35h62v33zm140 280q0 10-13 10h-47q-11 0-11-10v-37h71v37zm32-421l-6-12h-99l-8 4-2 31 5 9h98l8-3 4-9v-20zm161 262q0-13-14-13h-103q-13 0-13 13v23q0 15 13 15h103q14 0 14-15v-23zm-247-551l-22-53q-14-11-27.5-13.5T979 752h-40q-11 0-20.5 1t-19.5 1h-38q-18 10-27.5 30T818 821l-24 5 37-78q11-11 35-14.5t47-3.5q13 0 24 .5t23.5 1 29 1.5 40.5 2q10 4 16.5 11t12 17.5T1069 789t13 35zm36 88q-4 4-6 6.5t-4 2.5H789q-7-3-9-9h46q8-2 10-17h-51q-5 0-5-5v-5q0-9 5-9h51q-4-14-10-17h-46q3-9 16.5-15t32.5-9 40-4 39-1q14 0 24 .5t14 .5 18-1 32-1q15 0 30.5 1t30 4.5 26 9.5 17.5 15h-45q-13 3-13 17h51q7 0 7 5v9q0 5-7 5h-51q0 14 11 17h47zm-101 17q-3 1-9.5 1t-14 1.5-16 5T944 946l-2 5H778q-9 0-9-11v-4q0-10 9-10h221zm-159 66q0 8-7 8h-37q-5 0-6-1.5t-1-5.5v-28h51v27zm150-121l-8-10h-83l-7 4-2 29 5 7h83l8-3 4-8v-19z" fill="#000000"></path></svg>