<?xml version='1.0' encoding='utf-8'?>
<svg xmlns="http://www.w3.org/2000/svg" viewBox="0 0 1792 2041" width="351" height="400"><path d="M749 1074l448 232-448 234v-466zM177 707h1578v1114H105V722L43 521 1618 30l66 210zm357 146h135v-73H534v73zm334-73v73h136v-73H868zm334 0v73h136v-73h-136zm336 0v73h146v-73h-146zm-1359 0v73h154v-73H179zm765-387l-23-70-129 40 22 70zm168-129l22 69 130-39-23-70zM624 492l-23-70-129 40 22 71zm968-301l-21-69-140 42 22 70zM283 522l-148 46 21 70 148-47zm1401 1226V925H179v823h1505z" fill="#000000"></path></svg>