<?xml version='1.0' encoding='utf-8'?>
<svg xmlns="http://www.w3.org/2000/svg" viewBox="0 0 1570 2041" width="308" height="400"><path d="M45 1577l292-410q6-8 15.5-9.5t17.5 4.5l90 64q24 18 52.5 24t56 1 52.5-20 43-40l311-436q18-25 24-53t1.5-56-19.5-53-40-43l-90-63q-8-5-9.5-14.5T846 455l291-411q5-8 15-9.5t18 4.5l187 134q69 50 111.5 119.5t55.5 147-4.5 157T1453 745l-642 902q-50 69-120 111.5T543.5 1814t-157.5-4-149-67L50 1609q-8-5-9-14.5t4-17.5zm325-317l-227 317 141 101q55 40 119.5 53.5t127 3T649 1690t96-90l643-901q40-56 53.5-120t3-127-44.5-119-90-95l-141-101-225 318 43 31q38 27 61.5 65.5T1079 633t-2 87-36 82l-312 436q-27 38-66 61.5t-81.5 30.5-86.5-2.5-82-36.5z" fill="#000000"></path></svg>