<?xml version='1.0' encoding='utf-8'?>
<!-- Generator: Adobe Illustrator 20.1.0, SVG Export Plug-In . SVG Version: 6.00 Build 0)  --><svg xmlns="http://www.w3.org/2000/svg" xmlns:xlink="http://www.w3.org/1999/xlink" version="1.1" x="0px" y="0px" viewBox="0 0 347 400" style="enable-background:new 0 0 347 400;" xml:space="preserve" width="347" height="400">
<g id="Ebene_1">
</g>
<g id="Ebene_2">
	<g>
		<path d="M175.9,54.3c24.6,0,48.6,6.3,72.1,18.9c23.4,12.6,41.7,30.7,54.8,54.2c13.1,23.5,19.6,48,19.6,73.5    c0,25.2-6.4,49.5-19.3,72.8c-12.9,23.3-30.9,41.4-54.2,54.3c-23.2,12.9-47.6,19.3-72.9,19.3c-25.4,0-49.7-6.4-72.9-19.3    c-23.2-12.9-41.3-31-54.3-54.3c-12.9-23.3-19.4-47.6-19.4-72.8c0-25.5,6.6-50,19.7-73.5c13.1-23.5,31.4-41.6,54.9-54.2    C127.3,60.6,151.3,54.3,175.9,54.3z M175.9,78.6c-20.6,0-40.6,5.3-60.1,15.8C96.3,105,81,120.1,70,139.7    c-11,19.6-16.5,40-16.5,61.3c0,21.1,5.4,41.3,16.2,60.7c10.8,19.4,25.9,34.4,45.4,45.3c19.4,10.8,39.7,16.2,60.8,16.2    c21.1,0,41.4-5.4,60.8-16.2c19.4-10.8,34.5-25.9,45.3-45.3c10.7-19.4,16.1-39.6,16.1-60.7c0-21.2-5.5-41.7-16.4-61.3    c-10.9-19.6-26.2-34.7-45.7-45.3C216.4,83.9,196.3,78.6,175.9,78.6z M111.6,281.9V124.2h54.2c18.5,0,31.9,1.5,40.2,4.4    c8.3,2.9,14.9,8,19.8,15.2c4.9,7.3,7.4,15,7.4,23.1c0,11.5-4.1,21.6-12.3,30.1c-8.2,8.5-19.1,13.3-32.7,14.4    c5.6,2.3,10,5.1,13.4,8.4c6.3,6.2,14.1,16.6,23.3,31.3l19.2,30.9H213l-14-24.9c-11-19.5-19.9-31.8-26.6-36.7    c-4.7-3.6-11.5-5.4-20.4-5.4h-15v67H111.6z M137,193.2h30.9c14.8,0,24.8-2.2,30.2-6.6c5.4-4.4,8.1-10.2,8.1-17.5    c0-4.7-1.3-8.8-3.9-12.5c-2.6-3.7-6.2-6.4-10.8-8.3c-4.6-1.8-13.1-2.7-25.5-2.7H137V193.2z" fill="#000000"></path>
	</g>
</g>
</svg>