<?xml version='1.0' encoding='utf-8'?>
<svg xmlns="http://www.w3.org/2000/svg" viewBox="0 0 1680 2041" width="329" height="400"><path d="M1633 384l-334 376q-7 8-16.5 8.5T1266 762l-83-73q-23-20-50.5-29.5t-55.5-8-54.5 14T976 701l-355 400q-20 23-29 50.5t-7.5 55.5 13.5 54.5 35 46.5l83 74q7 6 7.5 15.5T717 1415l-335 375q-7 8-16.5 8.5T349 1792l-171-153q-63-56-97.5-130T41 1356.5t20.5-156T144 1059l737-826q56-64 129.5-98.5t152.5-39 156.5 21T1461 199l171 152q7 6 7.5 15.5T1633 384zm-356 281l259-292-129-114q-51-46-113.5-66.5t-126-17-123 31.5T939 286l-735 827q-46 51-66.5 113t-17 125.5 31.5 123 79 104.5l128 115 261-290-40-36q-35-31-54-72t-21.5-84.5T516 1125t45-78l356-399q31-35 71.5-54t84-21.5T1159 584t78 45z" fill="#000000"></path></svg>