<?xml version='1.0' encoding='utf-8'?>
<svg xmlns="http://www.w3.org/2000/svg" viewBox="0 0 1926 2041" width="377" height="400"><path d="M1886 348V135q0-40-26.5-67T1794 41h-79v307h171zm-171 903v309h79q39 0 65.5-28t26.5-67v-214h-171zm171-118V860h-171v273h171zm0-393V467h-171v273h171zm-547 568q0-11 1-22.5t1-25.5q0-19-2-41t-8-45-16.5-45.5-26.5-42.5q-34-42-75.5-67t-86.5-45q-10-4-14-9 5-17 14-35.5t18-41 15.5-50 6.5-62.5q0-50-14.5-93t-42-74.5-66.5-49-88-17.5-88 17.5-66 49-41.5 74.5-14.5 93q0 35 7 62.5t16 50 18 41 13 35.5q-3 5-14 9-46 20-86.5 45t-75.5 67q-16 20-26 42.5t-15.5 45.5-7.5 45-2 41q0 14 .5 25.5t.5 22.5h766zm-852 358h936V194l-936-2v1474zM1489 36q38 0 65 27t27 67v1599q0 20-7.5 37t-20 29.5-29 20-35.5 7.5H329V36h1160zM134 1818q-39 0-66.5-27T40 1724V124q0-19 7.5-36t20-29.5 29.5-20 37-7.5h58v1787h-58z" fill="#000000"></path></svg>