<?xml version='1.0' encoding='utf-8'?>
<!-- Generator: Adobe Illustrator 24.0.2, SVG Export Plug-In . SVG Version: 6.00 Build 0)  --><svg xmlns="http://www.w3.org/2000/svg" xmlns:xlink="http://www.w3.org/1999/xlink" version="1.1" id="Ebene_1" x="0px" y="0px" viewBox="0 0 497 400" style="enable-background:new 0 0 497 400;" xml:space="preserve" width="497.0" height="400.0">
<g>
	<path d="M446.7,320.6H54.1c-16.2,0-29.4-13.2-29.4-29.4V55.9c0-16.2,13.2-29.4,29.4-29.4h392.6c16.2,0,29.4,13.2,29.4,29.4v235.3   C476.1,307.4,462.9,320.6,446.7,320.6z M54.1,46.2c-5.3,0-9.7,4.3-9.7,9.7v235.3c0,5.3,4.3,9.7,9.7,9.7h392.6   c5.3,0,9.7-4.3,9.7-9.7V55.9c0-5.3-4.3-9.7-9.7-9.7H54.1z" fill="#000000"></path>
</g>
<g>
	<rect x="114" y="355.6" width="272.9" height="19.7" fill="#000000"></rect>
</g>
</svg>