<?xml version='1.0' encoding='utf-8'?>
<svg xmlns="http://www.w3.org/2000/svg" viewBox="0 0 1982 2041" width="388" height="400"><path d="M1915 1653q17 29 17 51 0 48-85 48H129q-79 0-79-41 0-22 19-54L935 162q30-51 59-51t59 51zm-223-57L994 393 302 1596h1390zm-537-622l-24-3-29-68q-11-13-27-16.5t-40-3.5q-13 0-29 .5t-37 .5h-52q-2 0-5 .5t-7 .5l-10-1q-11 0-21.5 2t-21 10.5-20.5 26-20 48.5l-32 7 48-100q7-7 19-12t27-7.5 31-3.5 30-1q13 0 23 .5t16 .5q4 0 14-.5t24-.5q13 0 28 1t29.5 4 27 8 20.5 13q6 17 15.5 40t22.5 54zm195 286l-27-5-33-76q-11-16-30.5-19.5t-47.5-3.5h-132q-29 0-49 3.5t-33 19.5v-3q-1 0-10.5 20.5T961 1255l-30 5 54-109q4-9 17.5-14.5t30.5-9 36-4.5 36-1q14 0 24.5.5t14.5.5q7 0 19-.5t29-.5q31 0 65 6t51 27q10 27 20.5 53.5t21.5 51.5zm-173-174q-9 10-12 10H775q-8 0-12-10h59q12-4 16-23h-67q-8 0-8-8v-6q0-9 8-9h67q-4-8-7.5-13.5t-8.5-6.5h-59q3-13 21.5-21.5t43-12.5 52.5-5.5 51-1.5h44l41 1 50.5 2 71.5 3q27 13 39 35h-60q-12 1-15 20h67q8 0 8 7v8q0 8-8 8h-67q0 20 14 23h61zm186 419q0 13-13 13h-53q-14 0-14-13v-41h80v41zm9-121q0 12-13 12H921q-9-3-13-12h67q8-5 12-10t7-16h-77q-6 0-6-7v-10q0-10 6-10h77q-8-22-19-23h-67q7-16 31-26t56.5-15.5 69-7 68.5-1.5h26q29 0 63 1t65 5.5 54.5 15 30.5 28.5h-64q-18 2-18 23h75q7 0 7 10v8q0 8-7 8h-75q0 24 14 27h68zm-323-276q-8 2-17 2.5t-18.5 2.5-19.5 6.5-19 13.5l-1 7H762q-15 0-15-13v-5q0-14 15-14h287zm342 321q0 15-16 15H908q-15 0-15-15v-5q0-15 15-15h467q16 0 16 15v5zm-549-235q0 12-11 12h-47q-11 0-11-10v-39h69v37zm156 311q0 13-13 13h-52q-14 0-14-13v-41h79v41zm36-444l-36-23 35-4-7-9H917l-9 4-2 38 7 7h113l7-7zm181 294v-26q0-7-5.5-11t-12.5-4h-115q-14 0-14 15v26q0 15 14 15h115q7 0 12.5-3.5t5.5-11.5z" fill="#000000"></path></svg>