<?xml version='1.0' encoding='utf-8'?>
<svg xmlns="http://www.w3.org/2000/svg" viewBox="0 0 1927 2041" width="378" height="400"><path d="M1548 982l37-14 28-30 12-38 11-154 4-151-4-156-11-149-12-39-28-29-37-16-155-21-155-12-156-7H926l-155 7-154 12-156 21-37 16-27 29-14 39-9 149-4 156 4 151 9 154 14 38 27 30 37 14 156 20 154 14 155 7h156l156-7 155-14zM446 100l160-19 158-15 160-7h161l161 7 158 15 160 19 42 13 39 21 33 27 26 36 18 39 9 44 12 190 2 190-9 193 8 39 27 28 80 46 20 19 7 26v185l-4 21-13 18-19 10-22 2-21-6-213-122-48-19-52-1-174 19-173 9-174 2-173-5-174-14-172-23-41-10-40-22-34-28-26-35-19-40-8-44-10-157-4-156 4-159 10-156 8-44 19-39 26-36 34-27 40-21zm980 1699l-64-174-101 39-105 29-108 22-106 12-110 3-107-5-109-15-107-23-103-33-102-41-98-48-39-25-33-31-29-36-24-39-17-42-10-46-4-47 4-46 10-46 17-42 24-40 30-36 33-30 38-26 27 42 31 35 37 31-55 46-23 24-17 31-7 34 2 36 10 32 19 29 26 23 30 17 97 29 99 24 98 15 102 7h101l100-6 101-15 98-23 97-29 93-38-63-174 406 190z" fill="#000000"></path></svg>