<?xml version='1.0' encoding='utf-8'?>
<svg xmlns="http://www.w3.org/2000/svg" viewBox="0 0 2420 2041" width="474" height="400"><path d="M1429 1406l-347-182v288H894l-323-229H352V840L40 676l33-61 279 148v-75h219l314-231h197v691l380 196zm-773-178l290 200h52v-249L656 999v229zm264-689L656 739v184l342 180V539h-78zM588 780H438v28l150 78V780zm-150 416h150V964l-150-80v312zm1314 258l198-645q8-18 24-29.5t38-11.5 38 10.5 24 27.5l199 648h-521zm260-515l-134 436h269zm-333 693h667q15 0 24.5-7.5t9.5-18.5q0-6-1-8l-27-72h-679l-26 72q-1 2-1 8 0 11 9.5 18.5t23.5 7.5z" fill="#000000"></path></svg>