<?xml version='1.0' encoding='utf-8'?>
<!-- Generator: Adobe Illustrator 23.0.1, SVG Export Plug-In . SVG Version: 6.00 Build 0)  --><svg xmlns="http://www.w3.org/2000/svg" xmlns:xlink="http://www.w3.org/1999/xlink" version="1.1" id="Ebene_3" x="0px" y="0px" viewBox="0 0 291 278" style="enable-background:new 0 0 291 278;" xml:space="preserve" width="418.70505" height="400.0">
<g>
	<rect x="43.1" y="91.2" width="79.8" height="17.6" fill="#000000"></rect>
</g>
<path d="M274.6,46.3h-1.9V15.3c0-4.8-3.9-8.8-8.8-8.8s-8.8,4-8.8,8.8v30.9h-26.4V15.3c0-4.8-3.9-8.8-8.8-8.8c-4.9,0-8.8,4-8.8,8.8  v30.9h-2.5c-4.9,0-8.8,4-8.8,8.8v54.3c0,17.7,14.9,28.3,32.1,31.3v64c0,2.1-0.5,4.9-4.8,7.4c-3.8,2.3-9.6,3.6-15.9,3.6  c-12.5,0-23.9-5.2-23.9-10.9v-76.4c0-17.4-8.7-27-24.6-27H150V21.8c0-4.8-3.9-8.8-8.8-8.8H23.9c-4.9,0-8.8,4-8.8,8.8v211.9H4.7v17.6  h19.2h117.3h20.2v-17.6H150V118.9h12.9c4.5,0,7,0,7,9.4v76.4c0,18.7,20.9,28.5,41.5,28.5c9.4,0,18.2-2.1,24.8-6  c8.7-5.1,13.5-13.1,13.5-22.5v-63.5c20.2-2.4,33.8-14.8,33.8-31.8V55.1C283.4,50.2,279.5,46.3,274.6,46.3z M32.7,233.7V30.6h99.7  v203.1H32.7z M265.8,109.4c0,4.3-2,7.7-6,10.3c-12.1,7.7-42.3,4.6-42.3-10.3V63.9h48.4V109.4z" fill="#000000"></path>
</svg>