<?xml version='1.0' encoding='utf-8'?>
<!-- Generator: Adobe Illustrator 20.1.0, SVG Export Plug-In . SVG Version: 6.00 Build 0)  --><svg xmlns="http://www.w3.org/2000/svg" xmlns:xlink="http://www.w3.org/1999/xlink" version="1.1" id="Ebene_1" x="0px" y="0px" viewBox="0 0 489.5 400" style="enable-background:new 0 0 489.5 400;" xml:space="preserve" width="489.5" height="400.0">
<style type="text/css">
	.st0{fill:none;stroke:#1D1D1B;stroke-width:20;stroke-linecap:round;stroke-linejoin:round;stroke-miterlimit:10;}
	.st1{fill:none;stroke:#1D1D1B;stroke-width:15;stroke-linecap:round;stroke-linejoin:round;stroke-miterlimit:10;}
</style>
<path class="st0" d="M399.9,294.2H28.2c-6.6,0-12-5.4-12-12V46c0-6.6,5.4-12,12-12h371.7c6.6,0,12,5.4,12,12v236.2  C411.9,288.8,406.5,294.2,399.9,294.2z" fill="#000000"></path>
<path class="st0" d="M416.4,113.4l45.2,4.8c7.3,0.8,12.7,7.4,11.9,14.8l-24.9,232c-0.8,7.3-7.4,12.7-14.8,11.9L67,337.6  c-7.3-0.8-12.7-7.4-11.9-14.8l2.2-20.6" fill="#000000"></path>
<circle class="st1" cx="107" cy="114" r="28.6" fill="#000000"></circle>
<polyline class="st1" points="101.6,289.4 216.6,180.5 274.3,248.4 " fill="#000000"></polyline>
<polyline class="st1" points="255.8,218.3 344.4,134.5 407.2,208.4 " fill="#000000"></polyline>
</svg>