<?xml version='1.0' encoding='utf-8'?>
<svg xmlns="http://www.w3.org/2000/svg" viewBox="0 0 1956 2041" width="383" height="400"><path d="M1040 1000H142q-21 0-40-8t-32.5-22T48 937.5 40 898V133q0-43 29.5-72.5T142 31h1455q21 0 39.5 8t32.5 21.5 22 32.5 8 40v378h-85V133q0-7-5-12.5t-12-5.5H142q-7 0-12 5.5t-5 12.5v765q0 7 5 12t12 5h898v85zm72-644v228H885q-11 0-19-6t-11.5-15-2-18.5T862 527l194-194q7-8 17-9.5t18.5 2T1106 337t6 19zm232 683V810h227q12 0 20 6t11.5 15 1.5 19-10 18l-193 195q-8 8-18 9t-18.5-2.5-14.5-11.5-6-19zm470-421h-567q-21 0-39.5 8t-32.5 22-22 32.5-8 39.5v999q0 21 8 40t22 32.5 32.5 21.5 39.5 8h567q21 0 39.5-8t32.5-21.5 22-32.5 8-40V720q0-21-8-39.5t-22-32.5-32.5-22-39.5-8zm-567 86h567q16 0 16 16v813h-599V720q0-7 5-11.5t11-4.5zm567 1032h-567q-6 0-11-5t-5-12v-100h599v100q0 7-4.5 12t-11.5 5z" fill="#000000"></path></svg>