<?xml version='1.0' encoding='utf-8'?>
<svg xmlns="http://www.w3.org/2000/svg" viewBox="0 0 1869 2041" width="366" height="400"><path d="M934 227q-125 0-241 42.5T482 393L330 265Q451 156 605 93.5T934 31q124 0 238.5 32t213.5 90 181 139.5 140 181 90 214 32 237.5q0 124-32 238.5t-90 213.5-140 181-181 140-213.5 90-238.5 32q-123 0-237.5-32t-214-90-181-140T162 1377t-90-213.5T40 925q0-134 36.5-255.5T181 443l153 124q-48 81-73 171t-25 187q0 122 40 234t116 205h1085q76-93 116-205t40-234q0-140-52.5-266.5T1428 432t-226.5-152.5T934 227zm101 575q28 23 43 54.5t15 68.5q0 33-12.5 62t-34 50.5-50.5 34-62 12.5q-43 0-78.5-20t-56.5-55L516 576l477 202q11 4 21.5 10t20.5 14z" fill="#000000"></path></svg>