<?xml version='1.0' encoding='utf-8'?>
<!-- Generator: Adobe Illustrator 23.0.3, SVG Export Plug-In . SVG Version: 6.00 Build 0)  --><svg xmlns="http://www.w3.org/2000/svg" xmlns:xlink="http://www.w3.org/1999/xlink" version="1.1" id="Ebene_1" x="0px" y="0px" viewBox="0 0 599.6 321.6" style="enable-background:new 0 0 599.6 321.6;" xml:space="preserve" width="745.77106" height="400.0">
<g>
	<path d="M161.9,2.8c-84.6,0-84.6,113.9-84.6,168.7c0,43.6,5.2,76.4,15.9,100.4c13.8,31,38.2,48.1,68.7,48.1s54.9-17.1,68.7-48.1   c10.7-24,15.9-56.8,15.9-100.4C246.5,116.8,246.5,2.8,161.9,2.8z M161.9,271.2c-29.6,0-35.8-54.2-35.8-99.7c0-30,1-67.8,9.1-93.2   c8.5-26.7,19.9-26.7,26.8-26.7s18.3,0,26.8,26.7c8,25.4,9.1,63.2,9.1,93.2C197.7,217,191.5,271.2,161.9,271.2z" fill="#000000"></path>
	<polygon points="383.5,7.8 336.9,92.7 336.9,8.1 289.9,8.1 289.9,315.5 336.9,315.5 336.9,194.8 384.3,315.5 434.8,315.5    365.3,138.6 437.1,7.9  " fill="#000000"></polygon>
</g>
</svg>