<?xml version='1.0' encoding='utf-8'?>
<svg xmlns="http://www.w3.org/2000/svg" viewBox="0 0 2115 2041" width="415" height="400"><path d="M1659 1450q-75 101-177 179.5T1255 1757q-115 45-232 56.5t-229.5-6.5-216.5-64-192.5-117-159-165.5T111 1251q-44-114-56-231.5t5-231 62.5-219 115.5-196T402 212 611 96q114-44 233-56.5t233.5 5T1298 107t194 117l81-67 76 323-320-100 75-74q-75-60-165-98.5T1051.5 154t-199-4.5T652 199q-100 39-182.5 100.5T325 439.5t-102.5 171-56.5 192-6 203.5 50 206q39 100 101 182.5T451.5 1539t170 102 190 56 201 5.5T1215 1654q111-43 199.5-112t153.5-157zM470 1001q2 30 16 52t37 36.5 52.5 21.5 61.5 7q48 0 87-6.5t77-20.5l23 129q-45 20-99.5 29.5T610 1259q-75 0-134-22t-99-62.5-61-98T295 947q0-58 17.5-116.5t54.5-105 93.5-75.5T594 621q72 0 122 26.5t81.5 69.5 46 97.5T858 926q0 25-2.5 45t-4.5 30H470zm216-130q0-17-4.5-38.5T666 792t-31.5-32-51.5-13q-29 0-50 12.5t-34.5 31-20.5 40-9 40.5h217zm725 359q-25 13-68 21t-96 8q-72 0-129.5-22t-98.5-63-63-98.5T934 946q0-67 22-126t64.5-103 105.5-70 146-26q37 0 74 6.5t67 17.5l-30 141q-16-8-41-13t-61-5-65.5 12.5-50.5 35-32 54-11 68.5q0 42 13 74t35 54 51.5 33 63.5 11q62 0 104-20zm673-297q0 84-26.5 146t-70 102.5-100 60T1772 1261q-65 0-121-21.5t-97-62.5-64.5-99.5T1466 945q0-75 22.5-135t64-102 100-65 130.5-23q67 0 122.5 23t95.5 64.5 61.5 99T2084 933zm-429 7q0 39 8 73t23.5 58.5 38 38.5 52.5 14q55 0 86-50.5t31-135.5q0-33-6.5-66t-21-58.5T1830 772t-53-16q-33 0-56 16t-37.5 42-21.5 59-7 67z" fill="#000000"></path></svg>