<?xml version='1.0' encoding='utf-8'?>
<svg xmlns="http://www.w3.org/2000/svg" viewBox="0 0 1868 2041" width="366" height="400"><path d="M934 1820q-180 0-342-67.5T302 1557q-63-63-112-136t-82.5-153.5T57 1101 40 925q0-180 67-342t195-290T592 98t342-67 342.5 67T1566 293q128 128 195 290t67 342-67 342.5-195 289.5q-127 128-289.5 195.5T934 1820zm0-1647q-104 0-199.5 27T555 276 402.5 393.5 285 546t-76 180-27 199q0 104 27 199.5t76 179.5 117.5 152.5T555 1574t180 76 199 27 199-27 180-76 152.5-117.5T1583 1304t76-180 27-199-27-199-76-180-117.5-152.5T1313 276t-180-76-199-27zm404 452l-102-101-302 303-305-307-102 102 306 306-303 301 102 103 302-304 298 300 102-102-299-298z" fill="#000000"></path></svg>