<?xml version='1.0' encoding='utf-8'?>
<!-- Generator: Adobe Illustrator 23.1.0, SVG Export Plug-In . SVG Version: 6.00 Build 0)  --><svg xmlns="http://www.w3.org/2000/svg" xmlns:xlink="http://www.w3.org/1999/xlink" version="1.1" x="0px" y="0px" viewBox="0 0 735.7 323.6" style="enable-background:new 0 0 735.7 323.6;" xml:space="preserve" width="909.3943" height="400.0">
<g id="Ebene_2_1_">
</g>
<g id="Ebene_1">
	<path d="M423,317.1h50.4L562.1,6.5h-50.2L423,317.1z" fill="#000000"></path>
	<path d="M664.6,140.6h62.9v42.7h-63.1v68.8H625v-68.8h-62.9v-42.7l62.9-0.4V71.6h39.4L664.6,140.6z" fill="#000000"></path>
	<path d="M7.8,318h46.5V192.7h22.1c0.9,0,1.9,0.1,2.8,0.2s2,0.7,2.9,1.6s1.9,2.2,2.6,3.8c0.8,1.6,1.5,4.1,2.2,7.3   c0.3,1.3,0.6,4.2,1,8.8s0.8,10,1.4,16.4c0.5,6.4,1,13.3,1.6,20.6c0.5,7.4,1,14.5,1.6,21.4c0.1,3.9,0.3,7.9,0.6,11.8   s0.5,7.8,0.7,11.3c0.2,3.6,0.5,6.8,0.8,9.8s0.6,7,0.9,12.2h50.8c-0.7-6-1.3-10-2.1-11.9c-0.7-2-1.4-4-2-6.2   c-0.6-2.2-1.1-4.5-1.6-7.1c-0.5-2.6-0.9-5.6-1.3-9c-0.3-2-0.5-4.3-0.8-7.1c-0.3-2.8-0.6-6.4-0.9-10.9c-0.3-4.4-0.7-9.8-1.3-16   c-0.5-6.3-1-13.8-1.6-22.7c-0.8-8.5-1.5-16.4-2.2-23.8c-0.7-7.4-1.7-13.9-3-19.8c-1.4-5.8-3.3-10.9-5.9-15.2   c-2.5-4.3-6-7.7-10.3-10.2c3-2.5,6-5.6,9-9.3c3-3.7,5.7-8.4,8.1-14c2.4-5.6,4.5-12.3,6.2-20.1s2.5-16.9,2.5-27.4   c0-4.8-0.3-9.9-0.9-15.2c-0.6-5.3-1.5-10.6-2.7-15.9c-1.2-5.3-2.9-10.6-4.9-15.6c-2-5.1-4.5-9.9-7.3-14.5c-2.7-5-5.8-8.9-9.3-11.7   c-3.5-2.9-7.1-5.1-11-6.6c-3.8-1.6-7.8-2.3-11.8-2.3H7.8V318z M68.6,63.2c2.1,0,4,0,5.8,0.1c1.8,0.1,3.4,0.3,4.8,0.7   c1.4,0.4,2.8,1,4,1.8c1.2,0.8,2.4,2,3.4,3.5c0.5,0.5,1.1,1.4,1.7,2.6c0.6,1.2,1.2,3,1.8,5.2c0.6,2.2,1,5,1.4,8.2s0.5,7.2,0.5,11.9   c0,5-0.2,9.2-0.7,12.7c-0.5,3.5-1,6.4-1.8,8.7s-1.4,4.1-2.1,5.4s-1.1,2.3-1.4,2.9c-1.2,1.6-2.4,2.8-3.6,3.8c-1.2,1-2.4,1.7-3.5,2.1   c-1.1,0.4-2.1,0.6-3,0.7c-0.9,0.1-1.8,0.1-2.5,0.1H53.1V63.2H68.6z" fill="#000000"></path>
	<path d="M156.5,317.9H272v-66.8h-70.7v-67.8h64.1v-60h-64.1V64.7h68.4v-59H156.5V317.9z" fill="#000000"></path>
	<path d="M285.5,207.9c0,5.3,0.1,11.9,0.3,19.6c0.2,7.7,1,15.7,2.3,24.1c1.4,8.4,3.4,16.8,6.1,25.1c2.7,8.3,6.4,15.8,11.2,22.5   c4.8,6.6,11,12.1,18.5,16.2c7.5,4.2,16.7,6.3,27.5,6.3c11.6,0,21.9-2.7,30.9-8.1c9-5.4,16.5-12.7,22.5-22   c6-9.3,10.5-20.1,13.6-32.6c3.1-12.4,4.6-25.7,4.6-39.8c0-10.2-0.7-19.1-2.2-26.9c-1.5-7.8-3.6-14.6-6.3-20.5   c-2.7-5.9-5.8-11-9.4-15.3c-3.6-4.3-7.5-8.1-11.7-11.3s-8.7-6.1-13.5-8.6s-9.5-4.8-14.4-7h0.2c-4.7-2.2-8.8-4.3-12.4-6.3   c-3.6-2-6.6-4.2-9-6.7c-2.4-2.5-4.2-5.7-5.4-9.5c-1.2-3.8-1.8-8.7-1.8-14.7c0-10.3,1.7-18.6,5.2-24.8c3.5-6.3,8-9.4,13.6-9.4   c2.7,0,5.1,0.9,6.9,2.6c1.9,1.8,3.6,4,5,6.7c1.4,2.7,2.5,5.8,3.3,9.3c0.8,3.5,1.4,6.9,1.8,10.3c0.4,3.4,0.7,6.5,0.9,9.3   c0.2,2.8,0.3,5.1,0.3,6.9h44.8c0-3-0.1-6.9-0.2-11.7c-0.1-4.8-0.5-10.1-1.2-15.9c-0.7-5.8-1.6-11.9-2.9-18.3   c-1.3-6.4-3.3-12.6-5.9-18.8c-3-7.4-6.5-13.5-10.7-18.3c-4.1-4.8-8.4-8.5-12.9-11.3s-9.2-4.7-14-5.7s-9.4-1.5-13.7-1.5   c-11.9,0-22,2.6-30.5,7.7c-8.5,5.1-15.4,12.2-20.8,21.2s-9.4,19.4-12,31.1c-2.6,11.7-3.9,24.1-3.9,37.1c0,13.6,1.3,25.3,4,35.1   c2.7,9.8,6.6,18.5,11.8,25.9c5.2,7.4,11.6,13.9,19.3,19.4s16.4,10.5,26.3,15.1c3.9,2.1,7.4,3.9,10.5,5.6c3.1,1.6,5.6,3.6,7.5,5.9   s3.4,5.2,4.3,8.8c0.9,3.6,1.4,8.2,1.4,14c0,10.8-1.9,19.4-5.8,25.7s-9.3,9.5-16.3,9.5c-3.5,0-6.5-0.9-9-2.7s-4.5-4.1-6-6.9   s-2.7-6-3.5-9.6c-0.8-3.6-1.5-7.2-1.9-10.9c-0.4-3.6-0.7-7.1-0.8-10.4s-0.2-5.9-0.2-8v-7.4H285.5z" fill="#000000"></path>
</g>
</svg>