<?xml version='1.0' encoding='utf-8'?>
<svg xmlns="http://www.w3.org/2000/svg" viewBox="0 0 2004 2041" width="393" height="400"><path d="M1052 719V549H713V216h331l2-4V41l342 337zm880-391q22 38 22 87 0 46-17 82.5t-45 62-62.5 39.5-70.5 14q-38 0-73.5-14.5t-63-41T1578 495t-17-79q0-36 14.5-71t40.5-63 63-45 81-17q52 0 99 29t73 79zm-98 55q-10-23-31.5-36.5T1759 333q-17 0-32.5 6t-27.5 17.5-19 27-7 33.5 7 33.5 19 26.5 27.5 17.5 32.5 6.5q16 0 31-6.5t26.5-18 18-27 6.5-32.5q0-19-7-34zM558 974h172l-337 340L52 978h171V640h333zm1238-274q22 5 41 18.5t32 32.5 20.5 40.5 7.5 41.5q0 14-2.5 27.5T1889 887l-81 306-66 233q-17 52-49.5 94t-75.5 71.5-93 45.5-102 16q-14 0-27-1t-26-3l-277-52q-20-4-39-9t-39-5q-19 0-36 7l-296 177q-26 20-58 30t-66 10q-30 0-63.5-12.5t-61-34.5-45.5-50.5-18-61.5q0-27 21-46l14-13 275-166 253-149q23-14 50.5-20.5t55.5-6.5q11-1 21.5.5t21.5 3.5l199 39q17 0 32.5-7.5t23.5-25.5l7-20 75-273q9-27 15.5-54.5t15.5-54 22-51 36-44.5q38-39 83.5-57.5T1689 684h15q8 0 16 1zm-30 108q-23-3-43-8t-44-5q-20 2-39 9.5t-35.5 19.5-29 28.5T1556 888l-107 392-12 28q-22 45-63 70t-89 25h-9q-3 0-8-1l-235-45h-12q-31 0-61 14l-250 148-209 127q-6 6-8.5 11t-2.5 14q0 10 7.5 18t18 13.5 22.5 8.5 21 3q17 0 35-8l77-48 262-157q22-12 47.5-19t52.5-7q8 0 14.5.5t14.5 1.5l337 63q6 1 12 1.5t12 .5q33 0 66.5-11t62.5-31 51.5-48 33.5-62l65-236 82-310 1-14q-1-7-6.5-13.5T1766 808z" fill="#000000"></path></svg>