<?xml version='1.0' encoding='utf-8'?>
<svg xmlns="http://www.w3.org/2000/svg" viewBox="0 0 2190 2041" width="429" height="400"><path d="M76 1466q11 6 29 14t41.5 15 50.5 12 56 5q43 0 73-11t49.5-29 28.5-41 9-47q0-35-15-60t-40.5-41.5-58-24-66.5-7.5h-71v-109h71q25 0 52.5-6.5t50-19.5 37-33.5T387 1033q0-20-7-38t-22-31.5-39-21-58-7.5q-24 0-47.5 4.5t-44.5 12-38 16.5-29 18L69 876q15-12 39-23t53.5-19.5T224 820t68-5q62 0 109 15.5t78 42 46.5 62T541 1009q0 60-36.5 108T394 1192v4q37 7 68.5 23t55 41 37.5 58.5 14 73.5q0 50-20.5 93.5t-60 76-97 51.5-132.5 19q-73 0-128.5-16T40 1578zm1704 166v-309h-555v-152l501-756h272v733h152v175h-152v309h-218zm0-484V818q0-52 2-103.5t4-107.5h-6q-29 58-54.5 106.5T1671 813l-226 332v3h335zM682 859l478 363-478 367V859z" fill="#000000"></path></svg>