<?xml version='1.0' encoding='utf-8'?>
<svg xmlns="http://www.w3.org/2000/svg" viewBox="0 0 1889 2041" width="370" height="400"><path d="M1839 928q0-185-69-347t-193.5-287T1290 100.5 944 32q-183 0-345.5 68.5T311.5 294t-193 287T50 928q0 182 68.5 344.5t193 286.5 287 193 345.5 69q184 0 346-69t286.5-193 193.5-286.5 69-344.5zm-131 0q0 155-59.5 294t-165 244-244.5 164.5-295 59.5-294.5-59.5-244-164.5T240 1222t-60-294q0-157 60-296t165.5-244.5 244-165.5T944 162t295 60 244.5 165.5 165 244.5 59.5 296zm-577-603q-95-29-187-29-91 0-187 29l187 414zm444 603q0-100-30-195l-342 770q168-75 270-230.5T1575 928zm-117-371q-75-104-188-173l-232 523H851L618 384q-112 69-187 173l298 667 122-278h187l123 278zm-327 972l-187-414-187 414q96 28 187 28 92 0 187-28zm-445-26L344 733q-30 95-30 195 0 189 102 344.5T686 1503z" fill="#000000"></path></svg>