<?xml version='1.0' encoding='utf-8'?>
<svg xmlns="http://www.w3.org/2000/svg" viewBox="0 0 1983 2041" width="389" height="400"><path d="M1916 1653q9 15 13 28t4 23q0 48-84 48H128q-78 0-78-41 0-20 19-54L935 162q32-52 60-52 29 0 60 52zM995 393L302 1598h1391zm218 626l-19-90q-13-22-34.5-31t-55.5-17l-122-26q-18-4-33.5-6.5T920 846q-27 0-48 15 1 0 1-1-1 0-16 17.5T815 935h-37l85-109q6-8 18.5-10.5T909 812q19 1 40.5 4t40.5 7l51 11q16 3 30.5 6.5t31 7.5 37 9.5T1189 870q17 13 26 32.5t14 42 7.5 45.5 6.5 43zm-15 288q-1 10-12 10-4 0-6-1l-57-12q-13-1-13-11 0-2 1-4l10-46 92 19zm41-132q-3 11-15 11-2 0-2.5-.5t-2.5-.5l-482-102q-5-4-7.5-7t-4.5-10l75 16q14-3 25-23l-85-18q-6-1-6-7 0-1 .5-1.5t.5-2.5l2-11q1-8 10-8l85 17q-3-12-5.5-19t-8.5-12l-75-15q8-13 28-18t46-5q35 0 74.5 6t71.5 13l60 13q4 1 22 4t42.5 8.5 53 13.5 53 18.5 42 24 21.5 30.5l-72-15q-18 1-27 22l86 19q3 0 4 4t1 7l-1 7q-2 8-4.5 9t-5.5 1l-86-18q-2 8-2 12 0 16 14 21zm8 53q-3 16-13 16-5 0-8-1l-516-109q-14-3-14-13 0-6 1-9l1-3q3-17 14-17 2 0 3.5.5t3.5.5l516 109q14 3 14 15 0 5-1 8zm-451-6q-3 10-12 10-5 0-7-1l-58-12q-11-3-11-15l10-46 87 19zm278-145q1-3 1-7 0-10-15-13l-126-26q-2 0-3-.5t-3-.5q-11 0-14 13l-6 29q0 2-.5 2.5t-.5 2.5q0 13 14 16l126 27q2 1 6 1 11 0 15-16zm-436 285q0-12 7-24t18.5-22.5 28-17 36.5-6.5q17 0 28 10t11 27q0 11-7 15.5t-15.5 8-15.5 9-7 18.5q0 18 18.5 25t40.5 14 40.5 17.5T840 1472q0 15-11.5 30.5t-34 29-56 22-77.5 8.5q-17 0-33.5-2t-30.5-6-22.5-10-8.5-14q0-12 10.5-16.5t27-6 35-1.5 35-2 27-9 10.5-22q0-13-12-26t-28-25q-23-16-28-29t-5-31zm371 65q0-1-.5-2t-.5-2q0-13 13.5-23.5t33-17.5 39.5-10.5 34-3.5q16 0 27.5 3.5t13.5 11.5q0 9-8.5 15t-19 11.5-19 11.5-8.5 14q0 11 14 20t31 18 31 17.5 14 18.5q0 17-19 27.5t-46.5 17.5-57.5 9.5-52 2.5-38-4.5-16-18.5q0-10 15.5-14.5t34.5-8.5 34.5-10.5 15.5-21.5q0-10-10-17.5t-22-14.5-22.5-13.5-11.5-15.5z" fill="#000000"></path></svg>