<?xml version='1.0' encoding='utf-8'?>
<!-- Generator: Adobe Illustrator 20.1.0, SVG Export Plug-In . SVG Version: 6.00 Build 0)  --><svg xmlns="http://www.w3.org/2000/svg" xmlns:xlink="http://www.w3.org/1999/xlink" version="1.1" id="Ebene_1" x="0px" y="0px" viewBox="0 0 400 400" style="enable-background:new 0 0 400 400;" xml:space="preserve" width="400.0" height="400.0">
<style type="text/css">
	.st0{fill:none;stroke:#1D1D1B;stroke-width:18;stroke-linecap:round;stroke-miterlimit:10;}
	.st1{fill:#1D1D1B;stroke:#1D1D1B;stroke-width:10;stroke-linecap:round;stroke-miterlimit:10;}
	.st2{fill:#1D1D1B;stroke:#1D1D1B;stroke-width:9;stroke-linecap:round;stroke-miterlimit:10;}
	.st3{fill:#1D1D1B;stroke:#1D1D1B;stroke-width:6;stroke-linecap:round;stroke-miterlimit:10;}
	.st4{fill:#1D1D1B;stroke:#1D1D1B;stroke-width:8;stroke-linecap:round;stroke-miterlimit:10;}
	.st5{fill:#1D1D1B;stroke:#1D1D1B;stroke-width:18;stroke-linecap:round;stroke-linejoin:round;stroke-miterlimit:10;}
	.st6{fill:none;stroke:#1D1D1B;stroke-width:18;stroke-linecap:round;stroke-linejoin:round;stroke-miterlimit:10;}
</style>
<path class="st0" d="M20,132.8c0,0,49.7-1.5,66,1.2c10.8,1.8,52.4,23.9,63.4,26.6c13.6,3.3,43,4.4,43,4.4l1.7,154.8  c0,0-36.8,5.1-53.1-2.1c-14.1-6.3-38.3-31.7-49.1-32.8c-14.1-1.4-71.9-1.6-71.9-1.6" fill="#000000"></path>
<rect x="34.1" y="160.5" class="st1" width="36.8" height="26.5" fill="#000000"></rect>
<polygon class="st2" points="112.4,238.7 80.2,225.6 80.2,199.1 112.4,211.8 " fill="#000000"></polygon>
<polyline class="st3" points="78.6,284.1 78.6,267.8 114.2,280.4 114.4,296.4 " fill="#000000"></polyline>
<polyline class="st4" points="112.4,146.3 112.4,165 79.4,152 79.4,133.8 " fill="#000000"></polyline>
<polygon class="st2" points="148.4,219.4 120.9,205.6 120.9,178 148.4,191.9 " fill="#000000"></polygon>
<polygon class="st4" points="149.4,292 119.8,276.3 120.4,250.8 149.4,266.7 " fill="#000000"></polygon>
<rect x="34.1" y="232.9" class="st1" width="36.8" height="26.5" fill="#000000"></rect>
<rect x="156.1" y="228.9" class="st3" width="26.5" height="32.3" fill="#000000"></rect>
<rect x="156.3" y="301.3" class="st3" width="26.5" height="22.5" fill="#000000"></rect>
<rect x="156.3" y="165.1" class="st3" width="26.5" height="22.5" fill="#000000"></rect>
<line class="st0" x1="20" y1="132.8" x2="20" y2="383.2" fill="#000000"></line>
<path class="st0" d="M48,100.3c0,0-0.3-12,3-20.2C54,72.3,60.5,65,68.1,62.4c20.5-7.1,80.6-4.5,80.6-4.5" fill="#000000"></path>
<polygon class="st5" points="107.1,90.2 107.1,19 161.9,54.6 " fill="#000000"></polygon>
<polygon class="st5" points="320.1,211.9 320.1,140.6 265.2,176.3 " fill="#000000"></polygon>
<path class="st6" d="M194.1,54.6c0,0,122.4,2.1,131.6,1.7c13.5-0.6,37,1.1,46.1,14.3c8.3,12,13.5,57,4.4,82.4  c-2.4,6.6-5.9,15.7-16.3,18.3c-26.1,6.7-67.2,4.9-67.2,4.9" fill="#000000"></path>
</svg>