<?xml version='1.0' encoding='utf-8'?>
<svg xmlns="http://www.w3.org/2000/svg" viewBox="0 0 1793 2041" width="351" height="400"><path d="M993 1607H697v104H591v-104h-17v-19q0-5-2.5-25t-6-52-8-74.5-7.5-92.5L89 1820l-32-33 483-500q-8-82-17-175.5T505 923t-16.5-186.5T475 565L40 97V31l427 463q0-27-1.5-48t-1.5-42h-68v-70h59v-26q0-31 31-50.5t76-33.5v-46h106v28q33-8 63-9.5t59-2.5h11v-40h252v41q36 4 73 9.5t70 14 60 19 43 25.5q8-6 20-12.5t27-6.5q31 0 51 20.5t20 50.5q0 26-16 44t-42 26v19h-47v54h24l417-429v66l-354 363h11v170h-117l-60 688 438 471-36 33-404-442-4 29q40 20 66.5 59t26.5 84q0 33-13 62t-35 50.5-51.5 34.5-63.5 13q-49 0-89.5-28.5T1009 1607h-16zM611 334h15v-79q-11 0-14 12.5t-3 27.5q0 11 1 22t1 17zm41 1334v-61h-18v61h18zM562 274q-35 9-47 19.5T503 308v26h59v-60zm711 60q1-6 1.5-10.5t.5-8.5v-7q0-6-9.5-13.5T1231 278t-68-18-110-17v20H801v-25q-35 2-68.5 4.5T668 248v86h605zm-57 1216q0 26-16.5 43.5T1157 1611q-3 0-8-1t-10-3h-32q21 21 50 21 35 0 58-22t23-56q0-30-22-49v49zm80-965h69v-80h-8l-61 60v20zm-57 43L907 968l284 306q6-70 13-152t14.5-167 15-169 13.5-158h-8zm-190 137H787V654h320v47l132-139V458h23q1-13 2.5-26.5t4.5-27.5H507q2 30 5.5 66.5T516 545l366 392zm-466 476l263-273-320-349q5 71 11.5 150.5t14 160.5 15.5 160 16 151zm476-524v-16H830v16h229zm115 760q-4-1-6.5-1H1157q-38 0-56 24.5t-18 60.5l11 1q5 0 7-2t2-10q0-25 15.5-42t38.5-17q5 0 8.5.5t8.5 4.5v-19zm-197 84h24q0-34 11.5-64.5t32-53 49-36 63.5-13.5q8 0 13 .5t10 .5q2-14 3-30t3-31l-309-332-290 299q12 93 18.5 160t10.5 100h361z" fill="#000000"></path></svg>