<?xml version='1.0' encoding='utf-8'?>
<svg xmlns="http://www.w3.org/2000/svg" viewBox="0 0 1612 2041" width="316" height="400"><path d="M1592 222v744l-46-3h-4q-10 0-37.5-.5t-63-1.5-74.5-1.5-72-.5q-23 0-43-7t-37.5-18-33.5-26-31-30l-6-6q-15-15-31-30t-34-26-39-18-47-7H738v464h-95V25h246q77 0 132.5 13.5t95.5 34 68 45 51 46.5q16 16 28 27t24 18 25.5 10 30.5 3h248zm-88 90h-164q-29 0-51.5-6.5t-41-17-34-24T1183 236l-9-9q-21-20-44.5-40t-56-36.5-77-27T889 113H732v590h261q45 1 80.5 13.5t64 31.5 51 40.5 41 40 34 30.5 31.5 12h52.5l56.5.5 54 1 46 .5V312zm-711 34V193h87q19 0 33 .5t30 2.5v152q-14-1-30-1.5t-33-.5h-87zm-1 147q51 0 89 .5t61 3.5v155q-15-1-30-1.5t-32-.5h-88V493zm660 24v149h-119q-9 0-17-.5t-15-1.5h-8v153l-2-3q-11-5-27.5-20t-39-33-52-35.5T1107 697V551q-29-20-67.5-34T943 497V348q51 5 91 13.5t73 19.5v164q36 9 64 26t50.5 34.5 39 33.5 30.5 24h2V510l-2-2h1l-1-3q-11-4-28-19t-39.5-33-51.5-36-65-29V236q37 10 66 27.5t51 35.5 38.5 33.5T1291 354h2v154q17 10 39 10zM311 1716q0 21-8 40t-22 33-33 22-40 8-39.5-8-32.5-22-22-33-8-40 8-39.5 22-32.5 32.5-22 39.5-8 40 8 33 22 22 32.5 8 39.5zm197 50h-25q-21 0-42-1.5t-38-7.5-27.5-18-10.5-32q2-20 17-33t33-13q31 0 59.5 3t56.5 3q80 0 145-11.5t110.5-30 70.5-41 25-45.5q0-18-21-38t-65.5-37.5-114.5-29-169-11.5q-116 0-207.5-13T150 1372t-96.5-62-33.5-85q0-45 32-86.5t91-73.5 143.5-51T476 995q19 0 39 1t36.5 6.5 27.5 16 11 28.5q0 23-14.5 37.5T541 1099l-142-7q-63 0-115 14.5t-88.5 35.5-57 43.5T118 1225q0 3 1.5 5.5t2.5 4.5q1 3 15.5 17.5t56 30.5 117.5 29 201 13q106 0 192.5 14.5t148 42 95.5 67 34 88.5q0 53-35 95t-96.5 72-144.5 46-180 16h-18z" fill="#000000"></path></svg>