<?xml version='1.0' encoding='utf-8'?>
<svg xmlns="http://www.w3.org/2000/svg" viewBox="0 0 1895 2041" width="371" height="400"><path d="M1845 924l-4 83-11 82-19 81-26 78-35 77-40 72-47 68-51 63-59 59-65 52-67 46-74 42-75 34-78 25-82 19-81 12-84 4-82-4-81-12-81-19-78-25-78-34-71-42-68-46-66-52-57-59-52-63-47-68-41-72-34-77-26-78-18-81-13-82-4-83 4-82 13-82 18-81 26-77 34-77 41-73 47-68 52-64 57-60 66-51 68-46 71-40 78-33 78-28 81-17 81-13 82-4 84 4 81 13 82 17 78 28 75 33 74 40 67 46 65 51 59 60 51 64 47 68 40 73 35 77 26 77 19 81 11 82zm-125 0l-3-76-12-77-19-76-26-71-33-69-39-66-48-62-53-57-56-51-63-45-68-38-70-32-72-21-75-19-77-10-77-1-78 5-74 14-75 22-71 26-69 33-67 44-58 48-55 54-50 57-44 66-37 68-29 69-24 75-14 75-8 77v77l8 77 14 76 24 73 29 70 37 69 44 64 50 58 55 53 58 49 67 42 69 34 71 28 75 20 74 14 78 7 77-3 77-10 75-16 72-25 70-32 68-38 63-45 56-50 53-56 48-61 39-68 33-69 26-72 19-74 12-77z" fill="#000000"></path></svg>