<?xml version='1.0' encoding='utf-8'?>
<!-- Generator: Adobe Illustrator 23.0.3, SVG Export Plug-In . SVG Version: 6.00 Build 0)  --><svg xmlns="http://www.w3.org/2000/svg" xmlns:xlink="http://www.w3.org/1999/xlink" version="1.1" id="Ebene_1" x="0px" y="0px" viewBox="0 0 424 319.9" style="enable-background:new 0 0 424 319.9;" xml:space="preserve" width="530.1657" height="400.0">
<path d="M0,316.3h46.5V191h22.1c0.9,0,1.9,0.1,2.8,0.2s2,0.7,2.9,1.6s1.9,2.2,2.6,3.8s1.5,4.1,2.2,7.3c0.3,1.3,0.6,4.2,1,8.8  s0.8,10,1.4,16.4c0.5,6.4,1,13.3,1.6,20.6c0.5,7.4,1,14.5,1.6,21.4c0.1,3.9,0.3,7.9,0.6,11.8c0.3,4,0.5,7.8,0.7,11.3  s0.5,6.8,0.8,9.8c0.3,2.9,0.6,7,0.9,12.2h50.8c-0.7-6-1.3-10-2.1-11.9c-0.7-2-1.4-4-2-6.2s-1.1-4.5-1.6-7.1s-0.9-5.6-1.3-9  c-0.3-2-0.5-4.3-0.8-7.1c-0.3-2.8-0.6-6.4-0.9-10.9c-0.3-4.4-0.7-9.8-1.3-16c-0.5-6.3-1-13.8-1.6-22.7c-0.8-8.5-1.5-16.4-2.2-23.8  s-1.7-13.9-3-19.8c-1.4-5.8-3.3-10.9-5.9-15.2c-2.5-4.3-6-7.7-10.3-10.2c3-2.5,6-5.6,9-9.3s5.7-8.4,8.1-14s4.5-12.3,6.2-20.1  c1.7-7.8,2.5-16.9,2.5-27.4c0-4.8-0.3-9.9-0.9-15.2s-1.5-10.6-2.7-15.9s-2.9-10.6-4.9-15.6c-2-5.1-4.5-9.9-7.3-14.5  c-2.7-5-5.8-8.9-9.3-11.7c-3.5-2.9-7.1-5.1-11-6.6c-3.8-1.6-7.8-2.3-11.8-2.3H0V316.3z M60.8,61.5c2.1,0,4,0,5.8,0.1  s3.4,0.3,4.8,0.7s2.8,1,4,1.8s2.4,2,3.4,3.5c0.5,0.5,1.1,1.4,1.7,2.6s1.2,3,1.8,5.2c0.6,2.2,1,5,1.4,8.2c0.3,3.3,0.5,7.2,0.5,11.9  c0,5-0.2,9.2-0.7,12.7s-1,6.4-1.8,8.7c-0.7,2.3-1.4,4.1-2.1,5.4s-1.1,2.3-1.4,2.9c-1.2,1.6-2.4,2.8-3.6,3.8s-2.4,1.7-3.5,2.1  c-1.1,0.4-2.1,0.6-3,0.7s-1.8,0.1-2.5,0.1H45.5V61.5H60.8z" fill="#000000"></path>
<path d="M155.6,316H271v-66.8h-70.7v-67.8h64.1v-60h-64.1V62.9h68.4v-59H155.6V316z" fill="#000000"></path>
<path d="M286.6,206.1c0,5.3,0.1,11.9,0.3,19.6c0.2,7.7,1,15.7,2.3,24.1c1.4,8.4,3.4,16.8,6.1,25.1c2.7,8.3,6.4,15.8,11.2,22.5  c4.8,6.6,11,12.1,18.5,16.2c7.5,4.2,16.7,6.3,27.5,6.3c11.6,0,21.9-2.7,30.9-8.1s16.5-12.7,22.5-22s10.5-20.1,13.6-32.6  c3.1-12.4,4.6-25.7,4.6-39.8c0-10.2-0.7-19.1-2.2-26.9s-3.6-14.6-6.3-20.5c-2.7-5.9-5.8-11-9.4-15.3s-7.5-8.1-11.7-11.3  s-8.7-6.1-13.5-8.6s-9.5-4.8-14.4-7h0.2c-4.7-2.2-8.8-4.3-12.4-6.3s-6.6-4.2-9-6.7s-4.2-5.7-5.4-9.5c-1.2-3.8-1.8-8.7-1.8-14.7  c0-10.3,1.7-18.6,5.2-24.8c3.5-6.3,8-9.4,13.6-9.4c2.7,0,5.1,0.9,6.9,2.6c1.9,1.8,3.6,4,5,6.7c1.4,2.7,2.5,5.8,3.3,9.3  s1.4,6.9,1.8,10.3c0.4,3.4,0.7,6.5,0.9,9.3c0.2,2.8,0.3,5.1,0.3,6.9H420c0-3-0.1-6.9-0.2-11.7c-0.1-4.8-0.5-10.1-1.2-15.9  S417,62,415.7,55.6s-3.3-12.6-5.9-18.8c-3-7.4-6.5-13.5-10.7-18.3c-4.1-4.8-8.4-8.5-12.9-11.3s-9.2-4.7-14-5.7S362.8,0,358.5,0  c-11.9,0-22,2.6-30.5,7.7s-15.4,12.2-20.8,21.2s-9.4,19.4-12,31.1s-3.9,24.2-3.9,37.2c0,13.6,1.3,25.3,4,35.1s6.6,18.5,11.8,25.9  c5.2,7.4,11.6,13.9,19.3,19.4s16.4,10.5,26.3,15.1c3.9,2.1,7.4,3.9,10.5,5.6c3.1,1.6,5.6,3.6,7.5,5.9s3.4,5.2,4.3,8.8  s1.4,8.2,1.4,14c0,10.8-1.9,19.4-5.8,25.7c-3.8,6.3-9.3,9.5-16.3,9.5c-3.5,0-6.5-0.9-9-2.7c-2.5-1.8-4.5-4.1-6-6.9s-2.7-6-3.5-9.6  s-1.5-7.2-1.9-10.9c-0.4-3.6-0.7-7.1-0.8-10.4s-0.2-5.9-0.2-8v-7.4h-46.3L286.6,206.1L286.6,206.1z" fill="#000000"></path>
</svg>