<?xml version='1.0' encoding='utf-8'?>
<svg xmlns="http://www.w3.org/2000/svg" viewBox="0 0 2121 2041" width="416" height="400"><path d="M188 349q-23 0-39 16.5T133 405v1078q0 23 16 39t39 16h1078q23 0 39.5-16t16.5-39V405q0-23-16.5-39.5T1266 349H188zm1078-92q31 0 58 11.5t47 31.5 32 47 12 58v1078q0 31-12 58t-32 47-47 31.5-58 11.5H188q-30 0-57-11.5T83.5 1588t-32-47-11.5-58V405q0-31 11.5-58t32-47 47.5-31.5 57-11.5h1078zm209 1220q70 0 136-19.5t124-54 106-83.5 82.5-107.5 53.5-126 19-139.5q0-73-19-140t-53.5-125-82.5-105.5-106-81.5-124-52.5-136-18.5v-83q83 0 160 21.5t144.5 61 123 95 95 122.5 61.5 144.5 22 161.5q0 83-22 161t-61.5 146-95 125-123 97.5-144.5 63-160 22.5v-85zm0-308q44 0 84.5-18t71-48.5 49-71T1698 947q0-45-18.5-85.5t-49-71-71-48.5-84.5-18v-60q57 0 108.5 23t89.5 61.5 60.5 90T1756 947q0 61-22.5 114t-60.5 92-89.5 61.5T1475 1237v-68zm0-137q34 0 59.5-23.5T1560 947q0-39-25.5-63t-59.5-24v-85q36 0 67 13.5t54 37 36 55 13 66.5-13 66-36 54-54 36.5-67 13.5v-85zm-429-291l-201-57v472q0 45-24 85.5t-62.5 71-85 48.5-91.5 18q-38 0-70-10t-55.5-28.5-37-44.5-13.5-59q0-38 21.5-72.5t57-61 80.5-42 92-15.5q13 0 23.5.5t19 2.5 16.5 5 18 8V475l312 97v169z" fill="#000000"></path></svg>