<?xml version='1.0' encoding='utf-8'?>
<svg xmlns="http://www.w3.org/2000/svg" viewBox="0 0 1977 2041" width="387" height="400"><path d="M672 1161v102q0 30-31 30H522q-31 0-31-30v-167q-5-32-8-59t-3-53q0-31 3.5-51.5t8-35T500 874t4-17h-62q-8 0-14-4t-10-8.5-5.5-9-1.5-6.5l20-68q0-1 4.5-4t11-5.5 13-4.5 10.5-2h101q5-11 9-17t12-17q16-16 29-33.5t25.5-35T672 610t29-26q13-11 37.5-18t54-10.5 60.5-5 57-1.5h157q19 0 45 .5t51.5 2.5 48 5.5 34.5 9.5q18 6 43.5 29.5t49.5 52 43 56 24 40.5h108q4 0 6 2 1 0 6 2t10 4.5l9 4.5 4 3 17 68q0 5-6 16.5t-23 11.5h-62q0 8 3.5 16.5t7 22.5 7 35 3.5 53q0 26-1.5 53t-8.5 59v167q0 30-31 30h-119q-16 0-21.5-8t-5.5-22v-102H672zm611-416q-20-40-54.5-61.5t-78-30.5-93-10-98.5-1q-44 0-85 2.5T796.5 657t-68 31-56.5 57h611zm-707 322h824v-95h-178v-91h149l-27-48H631l-29 48h151v91H576v95zM260 565q-37 37-58 85.5T181 756t21.5 108 58.5 85l-55 58q-49-48-76-112.5T103 757t27.5-137T206 508zm68 192q0 26 10 48.5t27 40.5l-56 55q-27-29-43-64.5T250 759q0-43 16-80.5t45-64.5l54 56q-17 17-27 39t-10 48zm1443-249q48 48 76 112t28 137-27.5 137.5T1772 1007l-57-58q38-34 59.5-85t21.5-108-21.5-105.5T1715 565zm-124 249q0-52-36-87l57-56q26 27 42.5 64.5T1727 759q0 42-16 77.5t-43 64.5l-57-55q36-37 36-89zM675 294q60-61 139.5-96T988 163t173.5 34 140.5 97l-71 69q-45-45-108-73.5T988 261t-134.5 27T745 363zm313 156q-66 0-110 44l-70-69q35-35 81-55.5T989 349t99.5 20.5T1169 425l-70 69q-22-21-50.5-32.5T988 450zm-459 73H418l150-387h93zm-331 565h137l-142 409H40zm1118-952h93l149 387h-110zm621 1361h-154l-141-409h136zm-1210-85q27 0 60.5 8.5T846 1458q27 31 35 66.5t8 61.5q0 37-11 73.5t-31 59.5q-14 16-31 25.5t-33.5 14.5-31.5 6.5-25 1.5q-34 0-65.5-11t-54.5-36q-14-15-22-32t-12.5-34-6-32.5-1.5-27.5q0-34 8.5-66.5t27.5-58 50-41.5 77-16zm-62 274q8 11 22 19t40 8q44 0 63-31 8-13 15.5-34.5t7.5-62.5q0-13-1.5-29t-6.5-32q-11-32-31.5-46t-46.5-14q-20 0-36 8t-26 21q-14 17-19.5 43t-5.5 55q0 25 5 50t20 45zm277-267h219v55h-146v84h136v56h-136v144h-73v-339zm261 0h219v55h-146v84h136v56h-136v144h-73v-339z" fill="#ffd100"></path></svg>