<?xml version='1.0' encoding='utf-8'?>
<!-- Generator: Adobe Illustrator 20.1.0, SVG Export Plug-In . SVG Version: 6.00 Build 0)  --><svg xmlns="http://www.w3.org/2000/svg" xmlns:xlink="http://www.w3.org/1999/xlink" version="1.1" id="Ebene_1" x="0px" y="0px" viewBox="0 0 424 400" style="enable-background:new 0 0 424 400;" xml:space="preserve" width="424.0" height="400.0">
<style type="text/css">
	.st0{fill:#FFFFFF;stroke:#FFFFFF;stroke-miterlimit:10;}
	.st1{fill:#1D1D1B;}
	.st2{fill:#1D1E1B;}
</style>
<g>
	<path class="st0" d="M312,37.1" fill="#000000"></path>
	<path class="st0" d="M288.4,13.5" fill="#000000"></path>
	<path class="st1" d="M289.3,295.3L289.3,295.3c0,0,2.9,2.1,7.2,1.2c3.7-0.8,5.3-3.2,5.3-3.2c0-0.2-0.1-0.4-0.1-0.6   c-6.3-33.6-14-41.3-19.3-44.1c-8.9-4.8-24.7-8.4-38.5-11.6c-7.8-1.8-18.5-4.2-21.1-5.7c-2-2.3-2-3.5-1.7-6.9c0.4-0.8,1.4-2.6,2.3-4   c6.7-11.3,20.7-34.7,16.9-66c-3.8-31-22.7-47.6-56.4-49.4c-0.3,0-0.6,0-1,0c-0.3,0-0.6,0-1,0c-33.7,1.8-52.7,18.4-56.4,49.4   c-3.8,31.4,10.2,54.8,16.9,66c0.9,1.4,1.9,3.2,2.3,4c0.3,3.4,0.3,4.6-1.7,6.9c-2.6,1.4-13.2,3.9-21.1,5.7   c-13.9,3.2-29.6,6.8-38.5,11.6c-4.7,2.5-11.4,9-17.3,34.4c0,0,1.5,3.6,4.5,4c7.1,1,8-2.1,8-2.1l0,0c4.9-21,9.7-24.7,10.8-25.2   c7.4-4,22.9-7.5,35.4-10.4c17.7-4,24.2-5.8,27.3-9.1c6.2-6.7,5.6-12.6,5.2-17.3l0-0.2c-0.2-2.4-1.5-4.5-4-8.7   c-6-10.1-18.5-31-15.2-58.1c3-24.7,17.2-36.9,44.6-38.3c0.1,0,0.2,0,0.3,0c0.1,0,0.2,0,0.3,0c27.4,1.4,41.6,13.6,44.6,38.3   c3.3,27.1-9.2,48-15.2,58.1c-2.5,4.2-3.8,6.3-4,8.7l0,0.2c-0.4,4.7-1,10.6,5.2,17.3c3.1,3.4,9.6,5.1,27.3,9.1   c12.4,2.8,27.9,6.4,35.4,10.4c1.2,0.6,7.3,5.3,12.9,35.3C289.3,295,289.3,295.2,289.3,295.3z" fill="#000000"></path>
	<path class="st2" d="M180.7,390.5c-96.9,0-175.8-78.9-175.8-175.8S83.8,38.9,180.7,38.9c96.9,0,175.8,78.9,175.8,175.8   S277.7,390.5,180.7,390.5z M180.7,57.5C94.1,57.5,23.6,128,23.6,214.7c0,86.7,70.5,157.2,157.2,157.2   c86.7,0,157.2-70.5,157.2-157.2C337.9,128,267.4,57.5,180.7,57.5z" fill="#000000"></path>
	<g>
		<path class="st2" d="M239.1,13.5c-28.6,0-55.7,6.9-79.6,19.1c7-0.8,14-1.2,21.2-1.2c11.1,0,22,1,32.6,2.9c8.4-1.4,17-2.1,25.8-2.1    c86.7,0,157.2,70.5,157.2,157.2c0,50.6-24.1,95.7-61.4,124.5c-9.9,15.3-21.9,29-35.8,40.7c67.5-24.6,115.8-89.4,115.8-165.2    C414.9,92.4,336.1,13.5,239.1,13.5z" fill="#000000"></path>
	</g>
</g>
</svg>