<?xml version='1.0' encoding='utf-8'?>
<!-- Generator: Adobe Illustrator 23.0.3, SVG Export Plug-In . SVG Version: 6.00 Build 0)  --><svg xmlns="http://www.w3.org/2000/svg" xmlns:xlink="http://www.w3.org/1999/xlink" version="1.1" id="Ebene_1" x="0px" y="0px" viewBox="0 0 857.5 341.2" style="enable-background:new 0 0 857.5 341.2;" xml:space="preserve" width="1005.27545" height="400.0">
<path d="M294.9,69.5c0,5.1-0.9,9.9-2.8,14.3c-1.9,4.4-4.5,8.3-7.8,11.7c-3.3,3.3-7.2,5.9-11.7,7.8c-4.4,1.9-9.2,2.8-14.3,2.8  c-5.1,0-9.9-0.9-14.4-2.8s-8.4-4.5-11.8-7.8c-3.3-3.3-5.9-7.2-7.8-11.7c-1.9-4.4-2.8-9.2-2.8-14.3s0.9-9.9,2.8-14.3  c1.9-4.4,4.5-8.3,7.8-11.7c3.3-3.3,7.2-6,11.8-7.9c4.5-2,9.3-2.9,14.4-2.9c5.1,0,9.9,1,14.3,2.9c4.4,2,8.3,4.6,11.7,7.9  c3.3,3.3,5.9,7.2,7.8,11.7C293.9,59.7,294.9,64.4,294.9,69.5z M192.8,190.2c1.8-3.3,3.9-7.1,6.3-11.4c2.1-3.8,4.7-8.3,7.7-13.6  c3.1-5.3,6.6-11.5,10.5-18.5c3.7-5.5,8-9.5,13.1-11.9c5.1-2.5,10.4-3.7,15.9-3.7c4.6,0,9,0.8,13.3,2.3c4.3,1.5,8.2,3.6,11.6,6.3  c3.4,2.7,6.1,5.8,8.2,9.5s3.1,7.6,3.1,11.8c0,4.4-1.2,8.9-3.7,13.3c-2.4,4.2-5,8.8-7.9,13.8s-6,10.2-9.1,15.5s-6.3,10.6-9.5,16.1  c-3.2,5.4-6.3,10.7-9.3,15.8c-7.1,11.9-14.2,23.9-21.5,36L192.8,190.2z M291.4,115.4c1.2-0.7,2.9-1.7,5.3-3c2.4-1.4,5-2.9,8-4.7  c3-1.8,6.3-3.7,9.8-5.7s7-4,10.4-6c8.1-4.6,16.9-9.6,26.4-15.1l3.1,3.1v18.8l-2.5,6.5l-50.5,29c-0.5-2.9-1.2-5.7-2.2-8.4  c-0.8-2.4-1.8-4.9-3.1-7.5S293.2,117.3,291.4,115.4z M161.5,210.2c2.4-0.8,4.8-1.8,7.2-3.1c2.2-1,4.6-2.4,7.1-3.9s5.1-3.4,7.7-5.5  c1.3,3.7,3,8.4,5,14.2s4.3,12.2,6.9,19.3s5.2,14.5,7.9,22.2c2.7,7.7,5.5,15.4,8.2,23c6.3,17.8,13.1,36.8,20.4,57l-25.5,3.1  L161.5,210.2z M172.3,275c-9.1-4.2-17.6-8-25.5-11.6c-3.4-1.6-6.8-3.1-10.2-4.6s-6.6-2.9-9.6-4.3c-3-1.4-5.7-2.6-8.2-3.7  s-4.4-2-5.7-2.6c-3.8-1.7-7.4-2.5-11-2.5c-3-0.1-5.6,0.5-7.9,1.9c-2.3,1.4-4.1,3.3-5.4,5.8c-0.7,1.3-2.2,3.9-4.5,7.8  c-2.4,3.9-5.1,8.6-8.3,13.9c-3.2,5.4-6.7,11.1-10.6,17.3c-3.9,6.2-7.7,12.2-11.5,18.1s-7.3,11.2-10.7,16s-6.1,8.4-8.3,10.9  c-1.2,1.4-2.7,2.4-4.6,3c-1.9,0.6-3.8,0.9-5.6,0.9c-2.7,0-5.5-0.6-8.4-1.7s-5.5-2.7-7.9-4.7s-4.4-4.4-5.9-7.1s-2.3-5.7-2.3-9  c0-4.3,1.5-8.7,4.5-13.3c2.4-3.5,5.6-8.3,9.8-14.2c4.2-5.9,8.8-12.4,13.8-19.4s10.2-14.1,15.5-21.4c5.3-7.3,10.2-14.1,14.7-20.3  s8.4-11.5,11.6-16s5.3-7.2,6.2-8.4c2.2-3,5.1-5.3,8.5-7s7.2-2.4,11.3-2.4c0.9,0,1.8,0,2.6,0.1s1.7,0.2,2.6,0.3  c2.5,0.5,6.3,1.3,11.6,2.4c5.2,1.1,10.4,2.3,15.7,3.6c6.1,1.4,12.7,3,19.6,4.7L172.3,275z M188.9,86.4c0,10.4-1.7,20.3-5.2,29.6  s-8.2,17.6-14.2,25.1l10.6,10.6L167.8,164L157,153.4c-7.4,6.1-15.8,10.9-25.1,14.3c-9.3,3.4-19.1,5.1-29.4,5.1  c-10.4,0-20.3-1.7-29.6-5.1c-9.3-3.4-17.6-8.2-25.1-14.3L37.2,164l-12.3-12.3l10.6-10.6c-6.1-7.4-10.9-15.8-14.3-25.1  s-5.1-19.1-5.1-29.6c0-10.3,1.7-20.1,5.1-29.4s8.2-17.6,14.3-25.1L24.9,21.3L37.2,8.8l10.7,10.8C55.3,13.3,63.7,8.5,73,5.1  S92.1,0,102.6,0c10.3,0,20.1,1.7,29.4,5.1c9.3,3.4,17.6,8.2,25.1,14.5l10.8-10.8l12.3,12.5l-10.6,10.6c6,7.4,10.7,15.8,14.2,25.1  S188.9,76.1,188.9,86.4z M171.5,86.4c0-8-1.3-15.5-3.8-22.6s-6.1-13.6-10.7-19.5l-42.1,42.1l42.1,42.1c4.6-5.9,8.1-12.4,10.7-19.5  S171.5,94.3,171.5,86.4z M102.5,17.6c-8,0-15.5,1.2-22.6,3.7s-13.6,6-19.5,10.6L102.5,74l42.1-42.1c-5.9-4.6-12.4-8.1-19.5-10.6  C118,18.9,110.5,17.6,102.5,17.6z M33.6,86.4c0,8,1.3,15.5,3.8,22.6s6.1,13.6,10.7,19.5L90,86.4L48.1,44.3  c-4.6,5.9-8.1,12.4-10.7,19.5S33.6,78.4,33.6,86.4z M102.5,155.3c8,0,15.5-1.3,22.6-3.8c7.1-2.5,13.6-6.1,19.5-10.7l-42.1-42.1  l-42.1,42.1c5.9,4.6,12.4,8.1,19.5,10.7C87,154.1,94.6,155.3,102.5,155.3z M305.5,335.5v-6.9l28.2-37.6c3.3-4.3,5.9-8.1,8-11.3  c2.1-3.2,3.8-6.1,5-8.6s2.1-5,2.6-7.2c0.5-2.3,0.8-4.6,0.8-7c0-3.8-1.2-7-3.5-9.6c-2.4-2.6-5.4-3.9-9.2-3.9c-4.8,0-8.3,1.8-10.3,5.4  c-2,3.6-3,8.1-3,13.4v2.4h-20.8c0-13.8,3.1-24.4,9.2-31.5c6.1-7.2,14.8-10.8,25.9-10.8c5.6,0,10.5,0.9,14.7,2.8  c4.2,1.9,7.7,4.4,10.5,7.5s4.9,6.8,6.4,10.9c1.4,4.1,2.2,8.3,2.2,12.6c0,4-0.6,8-1.7,11.9c-1.1,3.9-2.9,8.2-5.4,12.7  c-2.5,4.6-5.8,9.6-9.9,15.2s-9.3,12.1-15.3,19.3c4.4-0.4,9.1-0.6,13.9-0.6h19.6v21h-67.9V335.5z" fill="#000000"></path>
<path d="M417.2,176.4c0,6.6,0.2,14.6,0.7,23.9c0.5,9.3,1.4,19.2,2.8,29.5c1.4,10.3,3.6,20.9,6.4,31.5c2.8,10.6,6.5,20.6,11,30  c3.6,7.3,7.8,13.6,12.3,18.9s9.4,9.8,14.7,13.5c5.3,3.7,10.6,6.3,16,7.7c5.4,1.4,11.1,2.2,16.8,2.2c3.6,0,8-0.5,13-1.5  s10.3-3,15.8-6.2c5.5-3.1,11-7.6,16.5-13.4s10.4-13.5,14.9-23.2c3.5-7.4,6.6-15.8,9.3-25.2c2.7-9.4,4.9-19.3,6.6-29.7  s3.1-21.2,4.1-32.3s1.5-22.1,1.5-33c0-7.2-0.3-15.4-0.9-24.6c-0.6-9.2-1.6-19-3.1-29.1s-3.7-20.5-6.5-31s-6.6-20.7-11.1-30.6  c-3.9-8.6-8.4-15.6-13.4-21s-10.2-9.7-15.5-12.8s-10.7-5.2-15.9-6.4c-5.4-1.1-10.2-1.6-14.5-1.6c-10.2,0-19.3,2.2-27.3,6.5  s-15.1,10.3-21.1,18S439.2,53.2,435,63.6c-4.2,10.4-7.6,21.7-10.3,33.9c-2.7,12.2-4.6,25-5.8,38.3S417.2,162.7,417.2,176.4z   M465.7,174.2c0-8.3,0.2-16.5,0.5-24.3c0.3-7.9,0.8-15.4,1.5-22.6c0.7-7.2,1.6-13.7,2.9-19.7c1.3-6,2.9-11.1,4.7-15.4  c2.9-7.2,6.3-12.8,10.3-16.8c4-4,8.4-6.1,13.4-6.1c6.3,0,11.9,3.9,16.8,11.6c4.9,7.7,8.9,20,11.9,36.7c0.8,4.2,1.4,8.5,1.9,13  s0.8,9,1,13.4s0.4,8.7,0.5,12.8s0.2,8,0.2,11.6c0,11.9-0.3,22.2-0.8,30.9s-1.2,16.3-2.1,22.8s-1.9,11.9-3,16.4s-2.3,8.4-3.5,11.6  c-5.5,16.4-13.2,24.6-23.1,24.6c-3.1,0-5.9-0.6-8.2-1.8c-2.3-1.2-4.5-2.7-6.4-4.7c-1.9-2-3.5-4.2-4.9-6.7c-1.4-2.5-2.6-5.2-3.6-7.9  c-2-5.1-3.6-10.8-5-17c-1.4-6.3-2.4-12.9-3-19.8c-0.7-7-1.1-14.1-1.5-21.3C465.8,188.2,465.7,181.1,465.7,174.2z" fill="#000000"></path>
<path d="M609.1,329.7H654V197.6h60v-61.1h-60v-61h64.3V15.8H609.1V329.7z" fill="#000000"></path>
<path d="M747.7,329.7h44.9V197.6h60v-61.1h-60v-61h64.3V15.8H747.7V329.7z" fill="#000000"></path>
</svg>