<?xml version='1.0' encoding='utf-8'?>
<!-- Generator: Adobe Illustrator 22.0.1, SVG Export Plug-In . SVG Version: 6.00 Build 0)  --><svg xmlns="http://www.w3.org/2000/svg" xmlns:xlink="http://www.w3.org/1999/xlink" version="1.1" id="Ebene_1" x="0px" y="0px" width="1401px" height="400px" viewBox="0 0 1401 400" style="enable-background:new 0 0 1401 400;" xml:space="preserve">
<g>
	<path d="M1237.6,355.1h54.5c8,0,14-1.2,18.1-3.7c4.1-2.5,7.6-4.2,10.5-5.3c7.8-2.9,15.4-8.1,22.8-15.8s13.8-17.9,19.3-30.7   c5.5-12.8,9.9-28.2,13.1-46.3c3.3-18,4.9-38.8,4.9-62.3c0-10.8-0.5-21.8-1.6-32.8c-1-11-2.7-21.9-5-32.4c-2.3-10.6-5.3-20.6-9-30.1   s-8.3-18-13.6-25.6c-4.7-7.1-9.9-12.4-15.6-16.2c-5.7-3.7-11.2-6.5-16.5-8.2c-5.3-1.8-10.1-2.8-14.5-3.2s-7.7-0.6-10.1-0.6   l-57.4-0.2V355.1z M1289.3,101.1c5,0,9,0.4,12.2,1.2c3.2,0.8,6.1,2,8.7,3.5c4.3,2.2,7.9,6,10.8,11.4c2.9,5.4,5.2,11.9,7,19.5   c1.8,7.6,3.1,16.1,3.9,25.5s1.3,19,1.3,28.9c0,3.7-0.1,8.8-0.3,15.5c-0.2,6.7-0.7,13.9-1.4,21.7s-1.9,15.4-3.4,23   c-1.6,7.6-3.8,14-6.7,19.4c-2.1,4.3-4.3,7.7-6.7,10.1c-2.4,2.4-4.9,4.3-7.5,5.6c-2.7,1.3-5.4,2.1-8.2,2.4s-5.7,0.5-8.5,0.5h-4.9   c-0.4,0-0.9-0.1-1.6-0.2V101.1H1289.3z" fill="#000000"></path>
	<path d="M769.6,355.1h46.1V219.3h45.1v135.8h45.9V41.9h-46.4v117.4h-44.5V41.9h-46.1V355.1z" fill="#000000"></path>
	<path d="M1108.4,355.1h109.5v-68H1154V42h-45.5V355.1z" fill="#000000"></path>
	<path d="M925.7,197.9c0,6.6,0.2,14.6,0.7,23.9c0.5,9.3,1.4,19.2,2.8,29.5s3.6,20.9,6.4,31.5c2.8,10.6,6.5,20.6,11,30   c3.6,7.3,7.8,13.6,12.3,18.9s9.4,9.8,14.7,13.5c5.2,3.7,10.6,6.3,16,7.7s11.1,2.2,16.8,2.2c3.6,0,8-0.5,13-1.5c5-1,10.3-3,15.8-6.2   c5.5-3.1,11-7.6,16.5-13.4c5.5-5.8,10.4-13.5,14.9-23.2c3.5-7.4,6.6-15.8,9.3-25.2c2.7-9.4,4.9-19.3,6.6-29.7s3.1-21.2,4.1-32.3   c1-11.1,1.5-22.1,1.5-33c0-7.2-0.3-15.4-0.9-24.6s-1.6-19-3.1-29.1s-3.7-20.5-6.5-31c-2.9-10.5-6.6-20.7-11.1-30.6   c-3.9-8.6-8.4-15.6-13.4-21c-5-5.4-10.2-9.7-15.5-12.8c-5.3-3.1-10.7-5.2-15.9-6.4s-10.1-1.7-14.4-1.7c-10.2,0-19.3,2.2-27.3,6.5   s-15.1,10.3-21.1,18c-6.1,7.7-11.2,16.7-15.3,27.2c-4.2,10.4-7.6,21.7-10.3,33.9s-4.6,25-5.8,38.3   C926.3,170.7,925.7,184.2,925.7,197.9z M974.2,195.8c0-8.3,0.2-16.5,0.5-24.3c0.3-7.9,0.8-15.4,1.5-22.6c0.7-7.2,1.6-13.7,2.9-19.7   c1.3-6,2.9-11.1,4.7-15.4c2.9-7.2,6.3-12.8,10.3-16.8c4-4,8.4-6.1,13.4-6.1c6.3,0,11.9,3.9,16.8,11.6c5,7.8,8.9,20,11.9,36.7   c0.8,4.2,1.4,8.5,1.9,13c0.5,4.5,0.8,9,1,13.4c0.2,4.4,0.4,8.7,0.5,12.8c0.1,4.1,0.2,8,0.2,11.6c0,11.9-0.3,22.2-0.8,30.9   c-0.5,8.7-1.2,16.3-2.1,22.8c-0.8,6.5-1.9,11.9-3,16.4c-1.2,4.5-2.3,8.4-3.5,11.6c-5.5,16.4-13.2,24.6-23.1,24.6   c-3.1,0-5.9-0.6-8.2-1.8c-2.3-1.2-4.5-2.7-6.4-4.7c-1.9-2-3.5-4.2-4.9-6.7c-1.4-2.5-2.6-5.2-3.6-7.9c-2-5.1-3.6-10.8-5-17   c-1.4-6.3-2.4-12.9-3-19.8c-0.7-7-1.1-14.1-1.5-21.3C974.3,209.7,974.2,202.7,974.2,195.8z" fill="#000000"></path>
</g>
<g>
	<path d="M68.4,41.9L10.1,355.1h45.1L67,285.3h50.4l11.2,69.8h47L119.1,41.9H68.4z M92.8,143l13.9,82.3h-29L92.8,143z" fill="#000000"></path>
	<path d="M489,197.9c0,6.6,0.2,14.6,0.7,23.9c0.5,9.3,1.4,19.2,2.8,29.5s3.6,20.9,6.4,31.5c2.8,10.6,6.5,20.6,11,30   c3.6,7.3,7.8,13.6,12.3,18.9s9.4,9.8,14.7,13.5c5.2,3.7,10.6,6.3,16,7.7s11.1,2.2,16.8,2.2c3.6,0,8-0.5,13-1.5c5-1,10.3-3,15.8-6.2   c5.5-3.1,11-7.6,16.5-13.4c5.5-5.8,10.4-13.5,14.9-23.2c3.5-7.4,6.6-15.8,9.3-25.2c2.7-9.4,4.9-19.3,6.6-29.7s3.1-21.2,4.1-32.3   c1-11.1,1.5-22.1,1.5-33c0-7.2-0.3-15.4-0.9-24.6c-0.6-9.3-1.6-19-3.1-29.1c-1.5-10.2-3.7-20.5-6.5-31   c-2.9-10.5-6.6-20.7-11.1-30.6c-3.9-8.6-8.4-15.6-13.4-21c-5-5.4-10.2-9.7-15.5-12.8c-5.3-3.1-10.7-5.2-15.9-6.4   s-10.1-1.7-14.4-1.7c-10.2,0-19.3,2.2-27.3,6.5c-8,4.3-15.1,10.3-21.1,18c-6.1,7.7-11.2,16.7-15.3,27.2   c-4.2,10.4-7.6,21.7-10.3,33.9c-2.7,12.2-4.6,25-5.8,38.3S489,184.2,489,197.9z M537.5,195.8c0-8.3,0.2-16.5,0.5-24.3   c0.3-7.9,0.8-15.4,1.5-22.6s1.6-13.7,2.9-19.7c1.3-6,2.9-11.1,4.7-15.4c2.9-7.2,6.3-12.8,10.3-16.8c4-4,8.4-6.1,13.4-6.1   c6.3,0,11.9,3.9,16.8,11.6s8.9,20,11.9,36.7c0.8,4.2,1.4,8.5,1.9,13c0.5,4.5,0.8,9,1,13.4c0.2,4.4,0.4,8.7,0.5,12.8   c0.1,4.1,0.2,8,0.2,11.6c0,11.9-0.3,22.2-0.8,30.9c-0.5,8.7-1.2,16.3-2.1,22.8s-1.9,11.9-3,16.4c-1.2,4.5-2.3,8.4-3.5,11.6   c-5.5,16.4-13.2,24.6-23.1,24.6c-3.1,0-5.9-0.6-8.2-1.8c-2.3-1.2-4.5-2.7-6.4-4.7c-1.9-2-3.5-4.2-4.9-6.7c-1.4-2.5-2.6-5.2-3.6-7.9   c-2-5.1-3.6-10.8-5-17c-1.4-6.3-2.4-12.9-3-19.8c-0.7-7-1.1-14.1-1.5-21.3C537.6,209.7,537.5,202.7,537.5,195.8z" fill="#000000"></path>
	<path d="M392.2,355.1h46.4V102.4h45.6V42.3H346.8v60.1h45.4V355.1z" fill="#000000"></path>
	<path d="M186.1,42.1v183c0,6.9,0,13.5,0.1,19.8c0.1,6.3,0.4,12.6,1.1,18.8s1.6,12.4,2.7,18.6s2.8,12.5,4.9,18.9   c3.8,11.7,8.4,21.1,13.9,28.3c5.5,7.1,11.2,12.5,17.1,16.3c5.9,3.8,11.8,6.3,17.5,7.5c5.7,1.2,10.8,1.9,15.1,1.9   c8.5,0,17.1-2,25.9-6.1c8.8-4,16.7-10.8,23.8-20.3c7-9.5,12.9-22.1,17.5-37.7c4.6-15.6,6.9-35,6.9-58.1V42.1h-45.6v183   c0,7.3-0.1,13.6-0.2,18.8c-0.1,5.2-0.4,9.6-0.7,13.2c-0.3,3.6-0.7,6.6-1.3,9c-0.5,2.4-1,4.5-1.6,6.2c-2,5.6-4.1,9.9-6.5,13   s-4.7,5.3-7,6.8c-2.3,1.5-4.5,2.4-6.4,2.6c-1.9,0.3-3.4,0.4-4.4,0.4c-6.4,0-11.4-2.1-15.1-6.3c-3.6-4.2-6.4-9.5-8.1-15.9   s-2.8-13.7-3.1-21.6c-0.3-8-0.5-15.6-0.5-23.1V42.1H186.1z" fill="#000000"></path>
</g>
</svg>