<?xml version='1.0' encoding='utf-8'?>
<!-- Generator: Adobe Illustrator 23.0.1, SVG Export Plug-In . SVG Version: 6.00 Build 0)  --><svg xmlns="http://www.w3.org/2000/svg" xmlns:xlink="http://www.w3.org/1999/xlink" version="1.1" id="Ebene_1" x="0px" y="0px" viewBox="0 0 291 278" style="enable-background:new 0 0 291 278;" xml:space="preserve" width="418.70505" height="400.0">
<g>
	<path d="M240.3,241.9H43c-3.6,0-6.5-2.9-6.5-6.5v-77.1c0-1.8,0.7-3.5,2-4.7l38.2-36.1c1.9-1.8,4.7-2.3,7-1.2c2.4,1,3.9,3.4,3.9,6   v27.4l37.2-32.3c1.9-1.7,4.6-2.1,7-1c2.3,1.1,3.8,3.4,3.8,5.9v26.5l40.6-31.6c2-1.5,4.6-1.8,6.8-0.7c2.2,1.1,3.6,3.4,3.6,5.8v32.2   c0,0.1,0,0.2,0,0.2c0.4,0.6,3.5,1.8,7.3,1c2.5-0.5,4.1-1.7,4.2-2.4c1-7,3.2-32.5,5.3-57.2c1.3-15.5,2.6-30.2,3.5-39.8   c1.4-14.5,11.8-20.5,21.4-20.1c10.2,0.5,18.2,8,18.2,17.1v182.3C246.8,239,243.9,241.9,240.3,241.9z M49.5,228.9h184.3V53.1   c0-2.3-3-4-5.8-4.1c-2.6-0.1-7,0.8-7.8,8.3c-0.9,9.6-2.2,24.2-3.5,39.7c-2.2,24.9-4.4,50.6-5.4,57.9c-1.4,9.9-12.1,14.5-21.5,13.9   c-9.5-0.7-15.9-6.4-15.9-14.3v-18.9l-40.6,31.6c-2,1.5-4.6,1.8-6.8,0.7c-2.2-1.1-3.6-3.4-3.6-5.8v-25.6l-37.2,32.3   c-1.9,1.7-4.6,2.1-7,1c-2.3-1.1-3.8-3.4-3.8-5.9v-26.5l-25.2,23.8V228.9z" fill="#000000"></path>
</g>
</svg>