<?xml version='1.0' encoding='utf-8'?>
<svg xmlns="http://www.w3.org/2000/svg" viewBox="0 0 1847 2041" width="362" height="400"><path d="M999 617H593q-38 0-64.5-26T502 527V120q0-37 26.5-63.5T593 30h406q38 0 64.5 26.5T1090 120v407q0 38-26.5 64T999 617zM623 496h346V151H623v345zm1094 121h-406q-38 0-64-26t-26-64V120q0-37 26-63.5t64-26.5h406q37 0 63.5 26.5T1807 120v407q0 38-26.5 64t-63.5 26zm-376-121h345V151h-345v345zm376 845h-406q-38 0-64-26.5t-26-64.5V844q0-38 26-64.5t64-26.5h406q37 0 63.5 26.5T1807 844v406q0 38-26.5 64.5T1717 1341zm-376-121h345V874h-345v346zm-541 0h168V874H623v275H502V844q0-38 26.5-64.5T593 753h405q19 0 36 7t29.5 19.5 19.5 29 7 35.5v406q0 19-7 35.5t-19.5 29-29.5 19.5-36 7H800v-121zm940 253H688v-148q0-34-28-53-13-10-29-11.5t-30 5.5L79 1483q-18 8-28.5 24T40 1541q0 19 10.5 35t28.5 23l522 217q10 5 24 5 9 0 18-2.5t17-7.5q28-19 28-53v-159h1052q26 0 44.5-18.5t18.5-44.5-18.5-44.5-44.5-18.5zM561 1663l-292-122 292-121v243z" fill="#000000"></path></svg>