<?xml version='1.0' encoding='utf-8'?>
<!-- Generator: Adobe Illustrator 23.0.3, SVG Export Plug-In . SVG Version: 6.00 Build 0)  --><svg xmlns="http://www.w3.org/2000/svg" xmlns:xlink="http://www.w3.org/1999/xlink" version="1.1" id="Ebene_1" x="0px" y="0px" viewBox="0 0 334.3 323.6" style="enable-background:new 0 0 334.3 323.6;" xml:space="preserve" width="413.2262" height="400.0">
<path d="M1.3,166c0,6.6,0.2,14.6,0.7,23.9c0.5,9.3,1.4,19.2,2.8,29.5s3.6,20.9,6.4,31.5c2.8,10.6,6.5,20.6,11,30  c3.6,7.3,7.8,13.6,12.3,18.9s9.4,9.8,14.7,13.5c5.2,3.7,10.6,6.3,16,7.7s11.1,2.2,16.8,2.2c3.6,0,8-0.5,13-1.5c5-1,10.3-3,15.8-6.2  c5.5-3.1,11-7.6,16.5-13.4c5.5-5.8,10.4-13.5,14.9-23.2c3.5-7.4,6.6-15.8,9.3-25.2s4.9-19.3,6.6-29.7s3.1-21.2,4.1-32.3  c1-11.1,1.5-22.1,1.5-33c0-7.2-0.3-15.4-0.9-24.6c-0.6-9.3-1.6-19-3.1-29.1s-3.7-20.5-6.5-31s-6.6-20.7-11.1-30.6  c-3.9-8.6-8.4-15.6-13.4-21s-10.2-9.7-15.5-12.8s-10.7-5.2-15.9-6.4S87.1,1.6,82.8,1.6c-10.2,0-19.3,2.2-27.3,6.5S40.4,18.4,34.4,26  S23.2,42.8,19,53.2S11.5,74.9,8.8,87.1c-2.7,12.2-4.6,25-5.8,38.3S1.3,152.3,1.3,166z M49.7,163.9c0-8.3,0.2-16.5,0.5-24.3  c0.3-7.9,0.8-15.4,1.5-22.6c0.7-7.2,1.6-13.7,2.9-19.7c1.3-6,2.9-11.1,4.7-15.4c2.9-7.2,6.3-12.8,10.3-16.8S78,58.9,83,58.9  c6.3,0,11.9,3.9,16.8,11.6s8.9,20,11.9,36.7c0.8,4.2,1.4,8.5,1.9,13s0.8,9,1,13.4c0.2,4.4,0.4,8.7,0.5,12.8c0.1,4.1,0.2,8,0.2,11.6  c0,11.9-0.3,22.2-0.8,30.9c-0.5,8.7-1.2,16.3-2.1,22.8c-0.8,6.5-1.9,11.9-3,16.4c-1.2,4.5-2.3,8.4-3.5,11.6  c-5.5,16.4-13.2,24.6-23.1,24.6c-3.1,0-5.9-0.6-8.2-1.8c-2.3-1.2-4.5-2.7-6.4-4.7c-1.9-2-3.5-4.2-4.9-6.7c-1.4-2.5-2.6-5.2-3.6-7.9  c-2-5.1-3.6-10.8-5-17c-1.4-6.3-2.4-12.9-3-19.8c-0.7-7-1.1-14.1-1.5-21.3C49.9,177.8,49.7,170.8,49.7,163.9z" fill="#000000"></path>
<path d="M178,318.7h44.4V116l47.7,202.6h57.3V6.1h-44v184.1L237.3,6.1H178V318.7z" fill="#000000"></path>
</svg>