<?xml version='1.0' encoding='utf-8'?>
<!-- Generator: Adobe Illustrator 20.1.0, SVG Export Plug-In . SVG Version: 6.00 Build 0)  --><svg xmlns="http://www.w3.org/2000/svg" xmlns:xlink="http://www.w3.org/1999/xlink" version="1.1" id="Ebene_2" x="0px" y="0px" viewBox="0 0 610 400" style="enable-background:new 0 0 610 400;" xml:space="preserve" width="610.0" height="400.0">
<g>
	<path d="M177.8,111.4h55.8c11,0,19.3,0.5,24.7,1.4c5.4,0.9,10.3,2.8,14.6,5.8c4.3,2.9,7.9,6.8,10.7,11.7c2.9,4.9,4.3,10.3,4.3,16.3   c0,6.5-1.8,12.5-5.3,18c-3.5,5.5-8.3,9.6-14.3,12.3c8.5,2.5,15,6.7,19.6,12.7c4.6,6,6.9,13,6.9,21c0,6.3-1.5,12.5-4.4,18.5   c-3,6-7,10.8-12.1,14.4c-5.1,3.6-11.4,5.8-18.9,6.6c-4.7,0.5-16,0.8-34,1h-47.5V111.4z M206,134.7v32.3h18.5   c11,0,17.8-0.2,20.5-0.5c4.8-0.6,8.6-2.2,11.4-5c2.8-2.8,4.1-6.4,4.1-10.9c0-4.3-1.2-7.8-3.6-10.5c-2.4-2.7-5.9-4.3-10.6-4.9   c-2.8-0.3-10.8-0.5-24.1-0.5H206z M206,190.2v37.3h26.1c10.2,0,16.6-0.3,19.3-0.9c4.2-0.8,7.6-2.6,10.2-5.6c2.6-3,4-6.9,4-11.9   c0-4.2-1-7.7-3-10.7c-2-2.9-5-5-8.8-6.4c-3.8-1.3-12.2-2-25-2H206z" fill="#000000"></path>
	<path d="M318.6,251V111.4h59.3c14.9,0,25.8,1.3,32.5,3.8c6.8,2.5,12.2,7,16.2,13.4c4.1,6.4,6.1,13.7,6.1,22   c0,10.5-3.1,19.1-9.2,25.9c-6.2,6.8-15.4,11.1-27.6,12.9c6.1,3.6,11.1,7.5,15.1,11.7c4,4.3,9.3,11.8,16,22.7l17,27.2h-33.7   L390,220.6c-7.2-10.9-12.2-17.7-14.9-20.5c-2.7-2.8-5.5-4.8-8.5-5.8c-3-1-7.7-1.6-14.2-1.6h-5.7V251H318.6z M346.8,170.5h20.9   c13.5,0,22-0.6,25.3-1.7c3.4-1.1,6-3.1,7.9-5.9c1.9-2.8,2.9-6.3,2.9-10.5c0-4.7-1.3-8.5-3.8-11.4c-2.5-2.9-6-4.7-10.6-5.5   c-2.3-0.3-9.1-0.5-20.6-0.5h-22V170.5z" fill="#000000"></path>
</g>
<path d="M304.8,352c-78.1,0-151.5-17.6-206.8-49.5c-56-32.3-86.8-75.6-86.8-121.8S42,91.3,98,59C153.3,27,226.8,9.4,304.8,9.4  C382.9,9.4,456.4,27,511.7,59c56,32.3,86.8,75.6,86.8,121.8s-30.8,89.4-86.8,121.8C456.4,334.4,382.9,352,304.8,352z M304.8,17.4  c-157.5,0-285.7,73.3-285.7,163.3c0,90,128.1,163.3,285.7,163.3c157.5,0,285.7-73.3,285.7-163.3C590.5,90.7,462.4,17.4,304.8,17.4z" fill="#000000"></path>
</svg>