<?xml version='1.0' encoding='utf-8'?>
<!-- Generator: Adobe Illustrator 23.0.1, SVG Export Plug-In . SVG Version: 6.00 Build 0)  --><svg xmlns="http://www.w3.org/2000/svg" xmlns:xlink="http://www.w3.org/1999/xlink" version="1.1" id="Ebene_1" x="0px" y="0px" viewBox="0 0 291 278" style="enable-background:new 0 0 291 278;" xml:space="preserve" width="418.70505" height="400.0">
<path d="M165.2,105.3c-4-4.1-19.6-3.3-19.6,2.1c0,4.7,0,58.8,0,73.2c-4.4-1.6-9.5-2.5-15.1-2.5c-15.5,0-28.1,7-28.1,15.7  c0,8.7,12.6,15.7,28.1,15.7c15.5,0,28.1-7,28.1-15.7c0,0,0,0,0,0l0,0V116l19.8,24h14.5C192.9,140,169.2,109.3,165.2,105.3z" fill="#000000"></path>
<path d="M242.3,76.5l-57-58.1c-1.6-1.6-3.8-2.5-6-2.5H56.5c-4.7,0-8.4,3.8-8.4,8.4v231.6c0,4.7,3.8,8.4,8.4,8.4h179.8  c4.7,0,8.4-3.8,8.4-8.4V82.4C244.7,80.2,243.9,78.1,242.3,76.5z M186.6,43.7l31,31.6h-31V43.7z M64.9,247.4V32.7h104.9v51.1  c0,4.7,3.8,8.4,8.4,8.4h49.7v155.3H64.9z" fill="#000000"></path>
</svg>