<?xml version='1.0' encoding='utf-8'?>
<!-- Generator: Adobe Illustrator 20.1.0, SVG Export Plug-In . SVG Version: 6.00 Build 0)  --><svg xmlns="http://www.w3.org/2000/svg" xmlns:xlink="http://www.w3.org/1999/xlink" version="1.1" x="0px" y="0px" viewBox="0 0 610 400" style="enable-background:new 0 0 610 400;" xml:space="preserve" width="610.0" height="400.0">
<g id="Ebene_2">
	<path d="M304.8,352c-78.1,0-151.5-17.6-206.8-49.5c-56-32.3-86.8-75.6-86.8-121.8S42,91.3,98,59C153.3,27,226.8,9.4,304.8,9.4   C382.9,9.4,456.4,27,511.7,59c56,32.3,86.8,75.6,86.8,121.8s-30.8,89.4-86.8,121.8C456.4,334.4,382.9,352,304.8,352z M304.8,17.4   c-157.5,0-285.7,73.3-285.7,163.3c0,90,128.1,163.3,285.7,163.3c157.5,0,285.7-73.3,285.7-163.3C590.5,90.7,462.4,17.4,304.8,17.4z   " fill="#000000"></path>
	<g>
		<path d="M196.8,199.7l27.3,8.7c-4.2,15.2-11.2,26.6-20.9,33.9c-9.7,7.4-22.1,11.1-37.1,11.1c-18.5,0-33.8-6.3-45.7-19    c-11.9-12.7-17.9-30-17.9-51.9c0-23.2,6-41.3,18-54.1c12-12.9,27.8-19.3,47.3-19.3c17.1,0,30.9,5,41.6,15.1    c6.3,6,11.1,14.5,14.3,25.7l-27.9,6.7c-1.7-7.2-5.1-12.9-10.3-17.1c-5.2-4.2-11.6-6.3-19.1-6.3c-10.3,0-18.7,3.7-25.2,11.1    c-6.4,7.4-9.7,19.5-9.7,36.1c0,17.6,3.2,30.2,9.5,37.7c6.3,7.5,14.6,11.2,24.8,11.2c7.5,0,13.9-2.4,19.3-7.1    C190.5,217.4,194.4,209.9,196.8,199.7z" fill="#000000"></path>
		<path d="M248.2,111.4h51.5c11.6,0,20.5,0.9,26.6,2.7c8.2,2.4,15.2,6.7,21,12.9c5.8,6.2,10.3,13.7,13.3,22.6c3,8.9,4.6,19.9,4.6,33    c0,11.5-1.4,21.4-4.3,29.7c-3.5,10.2-8.5,18.4-14.9,24.7c-4.9,4.8-11.5,8.5-19.8,11.1c-6.2,2-14.5,3-24.9,3h-53V111.4z M276.4,135    v92.5h21c7.9,0,13.6-0.4,17-1.3c4.6-1.1,8.4-3.1,11.4-5.8c3-2.7,5.5-7.2,7.4-13.5c1.9-6.3,2.9-14.8,2.9-25.6    c0-10.8-1-19.1-2.9-24.9c-1.9-5.8-4.6-10.3-8-13.5s-7.8-5.4-13-6.6c-3.9-0.9-11.6-1.3-23.1-1.3H276.4z" fill="#000000"></path>
		<path d="M389.4,251V111.4h27.4l57.1,93.2v-93.2h26.2V251h-28.3l-56.3-91v91H389.4z" fill="#000000"></path>
	</g>
</g>
<g id="Ebene_3">
</g>
</svg>