<?xml version='1.0' encoding='utf-8'?>
<svg xmlns="http://www.w3.org/2000/svg" viewBox="0 0 2433 2041" width="477" height="400"><path d="M401 1695H157q-24 0-45.5-9.5t-37-25-25-37T40 1578v-322q0-24 9.5-45.5t25-37.5 37-25 45.5-9h244q24 0 45.5 9t37 25 25 37.5 9.5 45.5v322q0 24-9.5 45.5t-25 37-37 25-45.5 9.5zm594 0H750q-24 0-45-9.5t-37-25-25-37-9-45.5v-322q0-24 9-45.5t25-37.5 37-25 45-9h245q24 0 45 9t37 25 25 37.5 9 45.5v322q0 24-9 45.5t-25 37-37 25-45 9.5zm594 0h-245q-24 0-45-9.5t-37-25-25-37-9-45.5v-322q0-24 9-45.5t25-37.5 37-25 45-9h245q24 0 45 9t37 25 25 37.5 9 45.5v322q0 24-9 45.5t-25 37-37 25-45 9.5zm610-63h-412v-132h412q26 0 44-17.5t18-43.5V379q0-26-18-44t-44-18H813q-26 0-44 18t-18 44v673H620V379q0-40 15-75t41.5-61.5T738 201t75-15h1386q40 0 75.5 15t61.5 41.5 41.5 61.5 15.5 75v1060q0 40-15.5 75t-41.5 61.5-61.5 41.5-75.5 15zm-14-1220l-417 13 86 128-387 258 72 110 388-258 86 128z" fill="#000000"></path></svg>