<?xml version='1.0' encoding='utf-8'?>
<svg xmlns="http://www.w3.org/2000/svg" viewBox="0 0 1746 2041" width="342" height="400"><path d="M1681 1147q12 9 18 22.5t6 27.5q0 28-19 44.5t-42 16.5q-11 0-21-3t-18-9l-137-107q-9 6-15 12.5t-8 14.5q-8 33-16.5 82.5t-22 108.5-34 123-51.5 125-74.5 116-104.5 96H40q0-70 1.5-156T52 1483t27-185.5 51-179.5 83.5-159T338 835q38-26 52.5-49.5T405 739q0-30-16.5-64.5T358 595q-11-32-15.5-66.5T338 458q0-86 27-160.5t72.5-130 106.5-87T673 49q66 0 123 30t99 81.5T960.5 281 984 427q0 70-19 133t-51.5 114-77 88.5T741 819q-33 17-56 32t-36.5 29.5T629 910t-6 32q0 13 3 28t23.5 44 50.5 69 66 88.5 69.5 102.5 61 111 41.5 114q4 16 18 24.5t32 8.5q20 0 42-10t40-32q27-33 57-84.5t60-108 59-109.5 55-89q24-34 25-70l-78-60q-16 8-34 13t-38 5q-32 0-59.5-12t-48-33-32.5-49-12-59 12-59 32.5-49 48-33 59.5-12 60 12 48.5 33 32.5 49 12 59q0 20-4 36l356 277z" fill="#000000"></path></svg>