<?xml version='1.0' encoding='utf-8'?>
<svg xmlns="http://www.w3.org/2000/svg" viewBox="0 0 1869 2041" width="366" height="400"><path d="M934 1823q-91 0-177.5-17.5T587 1752q-81-32-152-80.5T302 1561q-125-125-191-285-36-82-53.5-169T40 929t17.5-178T111 580q33-80 81-151t110-133q125-125 285-191 83-36 169.5-53.5T934 34t178.5 17.5T1283 105q81 33 151.5 81T1567 296t110.5 133 81.5 151q70 165 70 349 0 91-17.5 178t-52.5 169q-33 81-81.5 152T1567 1561t-132.5 110.5T1283 1752q-83 36-170.5 53.5T934 1823zm0-1685q-109 0-209.5 28.5t-188.5 80T376 370 252.5 530t-80 189T144 929t28.5 209.5 80 188.5T376 1487t160 123.5 188.5 80T934 1719t210-28.5 189-80 160-123.5 123.5-160 80-188.5T1725 929t-28.5-210-80-189T1493 370t-160-123.5-189-80T934 138zM782 937L448 601q-12-11-12-27t12-27l19-19q11-12 27-12t27 12l261 261 263-261q11-12 27-12t27 12l20 19q11 11 11 27t-11 27zm306-17l-337 336q-11 11-11 27t11 27l19 19q12 12 28 12t27-12l263-261 261 261q11 12 26.5 12t26.5-12l20-19q11-11 11-27t-11-27z" fill="#000000"></path></svg>