<?xml version='1.0' encoding='utf-8'?>
<!-- Generator: Adobe Illustrator 20.1.0, SVG Export Plug-In . SVG Version: 6.00 Build 0)  --><svg xmlns="http://www.w3.org/2000/svg" xmlns:xlink="http://www.w3.org/1999/xlink" version="1.1" id="Ebene_1" x="0px" y="0px" viewBox="0 0 398.6 400" style="enable-background:new 0 0 398.6 400;" xml:space="preserve" width="398.6" height="400.0">
<style type="text/css">
	.st0{fill:none;stroke:#1D1D1B;stroke-width:16;stroke-linecap:round;stroke-miterlimit:10;}
</style>
<g>
	<circle class="st0" cx="199.5" cy="200" r="78.9" fill="#000000"></circle>
	<path class="st0" d="M386.3,178.7l-29.2-10.4c-4.2-20.8-12.4-40.2-23.8-57.3l13.3-28c-8.9-11.2-19-21.3-30.2-30.2l-28,13.3   c-17.1-11.4-36.5-19.6-57.3-23.8l-10.4-29.2c-7-0.8-14.1-1.2-21.3-1.2c-7.2,0-14.3,0.4-21.3,1.2l-10.4,29.2   c-20.8,4.2-40.2,12.4-57.3,23.8l-28-13.3c-11.2,8.9-21.3,19-30.2,30.2l13.3,28c-11.4,17.1-19.6,36.5-23.8,57.3l-29.2,10.4   c-0.8,7-1.2,14.1-1.2,21.3c0,7.2,0.4,14.3,1.2,21.3l29.2,10.4c4.2,20.8,12.4,40.2,23.8,57.3l-13.3,28c8.9,11.2,19,21.3,30.2,30.2   l28-13.3c17.1,11.4,36.5,19.6,57.3,23.8l10.4,29.2c7,0.8,14.1,1.2,21.3,1.2c7.2,0,14.3-0.4,21.3-1.2l10.4-29.2   c20.8-4.2,40.2-12.4,57.3-23.8l28,13.3c11.2-8.9,21.3-19,30.2-30.2l-13.3-28c11.4-17.1,19.6-36.5,23.8-57.3l29.2-10.4   c0.8-7,1.2-14.1,1.2-21.3C387.5,192.8,387.1,185.7,386.3,178.7z" fill="#000000"></path>
</g>
</svg>