<?xml version='1.0' encoding='utf-8'?>
<svg xmlns="http://www.w3.org/2000/svg" viewBox="0 0 1869 2041" width="366" height="400"><path d="M360 1399q-75-100-115-218.5T205 927q0-109 28.5-210t80-188.5 123.5-160 160-124 189.5-80T998 136q132 0 248 40.5T1462 289l261-257 106 127-256 228q100 108 157 245t57 295q0 109-28.5 210t-80 189-123.5 160.5-159.5 124-188 79.5-209.5 28q-155 0-289.5-54T468 1516l-325 305-103-103zm1241-472q0-121-39-225t-108-186l-850 867q81 69 180.5 107t213.5 38q83 0 160-21.5t144-60.5 122-93.5 94.5-121.5 61-144 21.5-160zm-273-524q-72-48-155.5-74.5T998 302q-125 0-234.5 48t-192 132.5-130 198.5T394 927q0 96 26.5 181t77.5 157q-2-2-1-2.5t-1-2.5z" fill="#000000"></path></svg>