<?xml version='1.0' encoding='utf-8'?>
<!-- Generator: Adobe Illustrator 23.0.3, SVG Export Plug-In . SVG Version: 6.00 Build 0)  --><svg xmlns="http://www.w3.org/2000/svg" xmlns:xlink="http://www.w3.org/1999/xlink" version="1.1" id="Ebene_1" x="0px" y="0px" viewBox="0 0 599.6 321.6" style="enable-background:new 0 0 599.6 321.6;" xml:space="preserve" width="745.77106" height="400.0">
<path d="M244.7,316.9h115.5v-66.8h-70.7v-67.8h64.1v-60h-64.1V63.7h68.4v-59H244.7V316.9z" fill="#000000"></path>
<path d="M0,4.4l59.5,312.9h47.4L166.4,4.4H120L84.8,204.5L49.9,4.4H0z" fill="#000000"></path>
<path d="M183.6,318.2H220V3.4h-36.4V318.2z" fill="#000000"></path>
<path d="M368.2,6.7l40.2,308.2h51.1l24.7-180.3l22.9,180.3h50.2L599.6,6.7H553L533.2,178L511.4,6.7H461l-24.7,173l-19.2-173  C417.1,6.7,368.2,6.7,368.2,6.7z" fill="#000000"></path>
</svg>