<?xml version='1.0' encoding='utf-8'?>
<!-- Generator: Adobe Illustrator 23.0.3, SVG Export Plug-In . SVG Version: 6.00 Build 0)  --><svg xmlns="http://www.w3.org/2000/svg" xmlns:xlink="http://www.w3.org/1999/xlink" version="1.1" id="Ebene_1" x="0px" y="0px" viewBox="0 0 433.2 319.9" style="enable-background:new 0 0 433.2 319.9;" xml:space="preserve" width="541.6693" height="400.0">
<path d="M162.7,315.4h115.5v-66.8h-70.7v-67.8h64.1v-60h-64.1V62.2h68.4v-59H162.7V315.4z" fill="#000000"></path>
<path d="M0,206c0,5.3,0.1,11.9,0.3,19.6s1,15.7,2.3,24.1c1.4,8.4,3.4,16.8,6.1,25.2s6.4,15.8,11.2,22.5s11,12.1,18.5,16.2  c7.5,4.2,16.7,6.3,27.5,6.3c11.6,0,21.9-2.7,30.9-8.1s16.5-12.7,22.5-22s10.5-20.1,13.6-32.6c3.1-12.4,4.6-25.7,4.6-39.8  c0-10.2-0.7-19.1-2.2-26.9s-3.6-14.6-6.3-20.5s-5.8-11-9.4-15.3s-7.5-8.1-11.7-11.3c-4.2-3.3-8.7-6.1-13.5-8.6s-9.5-4.8-14.4-7h0.2  c-4.7-2.2-8.8-4.3-12.4-6.3s-6.6-4.2-9-6.7s-4.2-5.7-5.4-9.5s-1.8-8.7-1.8-14.7c0-10.3,1.7-18.6,5.2-24.8c3.5-6.2,8-9.4,13.6-9.4  c2.7,0,5.1,0.9,6.9,2.6s3.6,4,5,6.7c1.4,2.7,2.5,5.8,3.3,9.3s1.4,6.9,1.8,10.3c0.4,3.4,0.7,6.5,0.9,9.3s0.3,5.1,0.3,6.9h44.8  c0-3-0.1-6.9-0.2-11.7c-0.1-4.8-0.5-10.1-1.2-15.9s-1.6-11.9-2.9-18.3c-1.3-6.4-3.3-12.6-5.9-18.8c-3-7.4-6.5-13.5-10.7-18.3  c-4.1-4.8-8.4-8.5-12.9-11.3s-9.2-4.7-14-5.7S76.2,0,71.9,0C60,0,49.9,2.6,41.4,7.7S26,19.9,20.6,28.9S11.2,48.3,8.6,60  S4.7,84.1,4.7,97.1c0,13.6,1.3,25.3,4,35.1s6.6,18.5,11.8,25.9s11.6,13.9,19.3,19.4s16.4,10.5,26.3,15.1c3.9,2.1,7.4,3.9,10.5,5.6  c3.1,1.6,5.6,3.6,7.5,5.9s3.4,5.2,4.3,8.8s1.4,8.2,1.4,14c0,10.8-1.9,19.4-5.8,25.7c-3.8,6.3-9.3,9.5-16.3,9.5c-3.5,0-6.5-0.9-9-2.7  c-2.5-1.8-4.5-4.1-6-6.9s-2.7-6-3.5-9.6s-1.5-7.2-1.9-10.9c-0.4-3.6-0.7-7.1-0.8-10.4c-0.1-3.3-0.2-5.9-0.2-8v-7.4H0V206z" fill="#000000"></path>
<path d="M341.2,315.7h46.4V63h45.6V2.9H295.8V63h45.4L341.2,315.7L341.2,315.7z" fill="#000000"></path>
</svg>