<?xml version='1.0' encoding='utf-8'?>
<svg xmlns="http://www.w3.org/2000/svg" viewBox="0 0 1972 2041" width="386" height="400"><path d="M1689 612q-18 0-32-4t-26.5-11.5-26-19.5-29.5-29q-24-23-53.5-48.5t-72-47.5-101-36-140.5-14H947v1418h94v-606h276q29 0 52.5 8t43.5 21 37.5 29.5 35.5 34.5q16 16 32.5 31.5t34.5 27.5 39 19.5 46 7.5q36 0 77.5.5t79.5 1 67 1.5 38 1h4l48 2V612h-263zm170 690q-22 0-49.5-1t-56.5-1.5-59-1-56-.5q-20 0-40-16t-47-43q-18-19-40.5-39.5t-51-37.5-63.5-28.5-78-12.5h-277V496h167q67 0 114 10.5t81.5 28T1463 573t46 42q17 18 35 34t39.5 28.5 48 20 59.5 7.5h168v597zm-662-560q18 0 35 .5t33 1.5V583q-17-2-31.5-2.5t-36.5-.5h-91v162h91zm-93 157v166h93q37 0 67 3V903q-15-2-31-3t-36-1h-93zm573 26q-21 0-41-10V750q-15-8-33-24.5t-41.5-35-54-36T1438 626v161q40 12 71 31t55 38 41.5 34.5T1635 912l1 3-1-1v163q-15-6-32.5-22.5t-41-35.5-53.5-37.5-70-29.5V780q-35-14-77-23.5t-94-12.5v159q59 6 99.5 20.5T1438 960v154q38 12 68.5 30t54.5 36.5 42 35 32 23.5l1 3v-164l9 2q9 1 17 1h142V925h-127zm-1474-5l52-322L20 376l320-49L481 34l146 290 320 41-230 230 58 319-287-149zm20-482l131 128-29 179 162-87 162 85-33-180 129-128-181-26-82-161-79 163z" fill="#000000"></path></svg>