<?xml version='1.0' encoding='utf-8'?>
<!-- Generator: Adobe Illustrator 20.1.0, SVG Export Plug-In . SVG Version: 6.00 Build 0)  --><svg xmlns="http://www.w3.org/2000/svg" xmlns:xlink="http://www.w3.org/1999/xlink" version="1.1" id="Ebene_1" x="0px" y="0px" viewBox="0 0 398.6 400" style="enable-background:new 0 0 398.6 400;" xml:space="preserve" width="398.6" height="400.0">
<style type="text/css">
	.st0{fill:none;stroke:#1D1D1B;stroke-width:20;stroke-linecap:round;stroke-miterlimit:10;}
</style>
<path class="st0" d="M16.4,358.8c0,0,8.2-103.2,32.7-116.4c24.5-13.2,90-21.4,96.9-29c6.9-7.6,6.3-13.2,5.7-20.1  c-0.6-6.9-37.8-48.5-30.5-108.2c6.4-53.1,42.5-69.9,89.7-69.9c46.4,0,78.7,29.8,78,88.1c-0.6,58.5-23.4,79.2-23.5,92.2  c-0.1,10.3,5.8,20.2,10.9,21.4c5,1.3,84.4,21.1,93.2,38.1c8.8,17,17,112.7,17,112.7" fill="#000000"></path>
</svg>