<?xml version='1.0' encoding='utf-8'?>
<svg xmlns="http://www.w3.org/2000/svg" viewBox="0 0 1435 2041" width="281" height="400"><path d="M40 1668h1355v153H40v-153zm822-579q-51-42-74-86.5T765 916q0-38 16-71.5t44-58.5 65.5-39.5T971 732q51 0 85 13.5t54.5 33.5 29 42 8.5 39q0 8-2 16-9 32-28.5 50t-44.5 37.5-52 47.5-49 78q3 7 10 12.5t10 12.5h2q42-52 86.5-74.5t86.5-22.5q37 0 70.5 16t58.5 43.5 39.5 65 14.5 80.5q0 51-13.5 85t-33 54.5-41.5 29-38 8.5q-8 0-16-2-32-8-50.5-27.5T1119 1325t-48-52.5-79-50.5l-3 4q-8 9-20 20 52 42 75 86.5t23 86.5q0 38-16 71t-43.5 58-65.5 39.5-81 14.5q-48 0-81.5-13t-54.5-31.5-30.5-40.5-9.5-40q0-25 8.5-42t23-31.5 33-28 38-31T826 1303t35-59l-3-5q-12-9-19-19-42 52-86.5 75t-86.5 23q-38 0-71-16t-58-43.5-39.5-65T483 1112q0-48 12.5-81.5t31-54.5 40.5-30.5 40-9.5q36 0 57.5 18.5t43.5 46 51 58 82 54.5l3-6q4-5 9.5-9.5t10.5-8.5h-2zm49 192q-23 47-52 77t-54 51-42 36-17 32q0 8 8 24t37 27q42 16 80 16 30 0 54.5-10t41.5-26.5 26-38.5 9-47q0-16-5-35t-15.5-38.5-26-37T918 1281q-2-1-4-1t-3 1zm118-108q40 20 66 41t44.5 41.5 32.5 38 29 30.5q8 11 21 14 11-1 21-6 8-5 17-13.5t16-25.5q16-44 16-81 0-30-9.5-54.5t-26-41-38.5-25.5-47-9q-32 0-66 17t-63 53q-3 3-8.5 9t-5.5 8 .5 2.5.5 1.5zm-107-120q18-38 38.5-63.5t41-44 39.5-33 34-29.5q11-11 11-24 0-1-1-7.5t-5.5-14.5-13-16.5T1042 806q-44-15-79-15-31 0-55.5 10T866 827.5 840 866t-9 47q0 35 20 73t64 67q0 2 3 2 2 0 4-2zm-120 109q-47-23-75-49.5t-47.5-50.5-34-42-34.5-24q-1 0-7 .5t-14.5 5T572 1015t-15 25q-16 44-16 81 0 31 10 55t26.5 41 38.5 26 46 9q32 0 66-17t63-53q4-5 8.5-10t4.5-7q0-1-2-3zm135-21q-8-7-22-7t-23.5 10-9.5 24q0 13 10 23t24 10q13 0 23.5-9.5T950 1168t-13-27zm-753 83L97 995q-5-14-9-28.5T84 935q0-21 4.5-41t15.5-37l116-198q2-7 4.5-14.5T227 629v-8l-2-8-61-245h-64q-9 0-9-9t6-18L228 41q1-6 8-6 6 0 9 6l132 300q4 7 4 16 0 11-10 11h-51l57 238q4 16 4 37 0 38-20 78L248 913q-3 5-5.5 13t-2.5 16q0 5 .5 10t3.5 10l39 100 77 211q5 14 8 26.5t3 26.5q0 20-6.5 39.5T350 1402l-84 146-133-75 74-126q2-8 5-15t3-16q0-5-1.5-10.5t-3.5-9.5l-27-72h1zm965-581q0 9-1.5 17.5T1145 679l-151-57q0-2-1-4.5t-1-4.5l-60-245h-64q-10 0-10-9 0-4 2-8.5t4-9.5L995 41q3-6 9-6 5 0 8 6l131 301q2 4 4 8.5t2 8.5q0 9-9 9h-54l59 238q1 10 2.5 19.5t1.5 17.5zM484 866q1-2 1-4.5t2-4.5l117-198q7-16 7-30 0-5-.5-8t-2.5-8l-58-245h-65q-10 0-10-11 0-8 6-16L611 41q3-6 9-6 5 0 8 6l132 300q5 8 5 16 0 11-10 11h-53l58 238q3 9 4 17.5t1 19.5q0 38-20 78l-61 102z" fill="#000000"></path></svg>