<?xml version='1.0' encoding='utf-8'?>
<!-- Generator: Adobe Illustrator 20.1.0, SVG Export Plug-In . SVG Version: 6.00 Build 0)  --><svg xmlns="http://www.w3.org/2000/svg" xmlns:xlink="http://www.w3.org/1999/xlink" version="1.1" id="Ebene_1" x="0px" y="0px" viewBox="0 0 887.7 400" style="enable-background:new 0 0 887.7 400;" xml:space="preserve" width="887.7" height="400.0">
<style type="text/css">
	.st0{fill:none;stroke:#1D1D1B;stroke-width:15;stroke-linecap:round;stroke-miterlimit:10;}
	.st1{fill:#1D1D1B;}
	.st2{fill:#1D1D1B;stroke:#1D1D1B;stroke-width:4;stroke-linecap:round;stroke-linejoin:round;stroke-miterlimit:10;}
</style>
<g>
	<line class="st0" x1="537.7" y1="108.5" x2="862.8" y2="108.5" fill="#000000"></line>
	<path class="st0" d="M621.2,83.9c0,0,2.6-68.7,9.1-70.7c5.4-1.7,44,8.9,71.2,9.3c26.4,0.4,62.9-9.4,70-8.7   c5.6,0.5,10.3,68.9,10.3,68.9" fill="#000000"></path>
	<path class="st0" d="M624,225.6c0,0,24.1,25.8,17.1,49.9c-6,20.6-67.7,22-85.6,32.5C540,317.2,529,384,529,384" fill="#000000"></path>
	<path class="st0" d="M777,225.6c0,0-26.1,36.5-15.2,57.5c9.9,19.1,70.8,17.5,88.7,28C866.1,320.2,877,387,877,387" fill="#000000"></path>
	<circle class="st0" cx="641.1" cy="173" r="31.5" fill="#000000"></circle>
	<circle class="st0" cx="752.8" cy="173" r="31.5" fill="#000000"></circle>
	<path class="st0" d="M665.8,153.5c0,0,17.8-5,29.5-5.4c11.7-0.4,29.5,2.7,29.5,2.7" fill="#000000"></path>
</g>
<path class="st1" d="M195.6,13c16.2,0,31.8,2.1,46.7,6.3s28.9,10.1,41.8,17.6c12.9,7.6,24.8,16.7,35.5,27.4  c10.7,10.7,19.9,22.6,27.4,35.6c7.6,13,13.5,27,17.6,41.9c4.2,15,6.3,30.5,6.3,46.7s-2.1,31.8-6.3,46.7s-10.1,28.9-17.6,41.8  c-7.6,12.9-16.7,24.8-27.4,35.5c-10.7,10.7-22.5,19.9-35.5,27.4c-12.9,7.6-26.9,13.5-41.8,17.6c-15,4.2-30.5,6.3-46.7,6.3  s-31.8-2.1-46.7-6.3c-15-4.2-28.9-10.1-41.9-17.6s-24.9-16.7-35.6-27.4c-10.7-10.7-19.9-22.5-27.4-35.5s-13.5-26.9-17.6-41.8  S20,204.8,20,188.6s2.1-31.8,6.3-46.7c4.2-15,10.1-28.9,17.6-41.9s16.7-24.9,27.4-35.6s22.6-19.9,35.6-27.4s27-13.5,41.9-17.6  C163.8,15.1,179.4,13,195.6,13z M191.3,291.3c0.1-0.4,0.5-1.5,1.2-3.3c0.7-1.8,1.2-4,1.6-6.6c0.4-2.5,0.4-5.3,0.1-8.1  c-0.3-2.9-1.3-5.7-2.8-8.4c-1.3-2-2.7-3.5-4.2-4.6s-2.8-2-3.8-2.6c-1.8-1.2-3.5-2-4.9-2.4c-1.4-0.4-2.8-0.7-4.1-0.9  c-1.3-0.2-2.6-0.4-3.8-0.7c-1.2-0.3-2.6-0.9-4-2c-1.3-0.9-2.3-1.9-2.9-2.8c-0.7-1-1.3-2-1.9-3c-0.6-1-1.3-2.2-2.2-3.5  c-0.8-1.3-2.1-2.8-3.8-4.5c-1.3-1.2-2.9-2.4-4.7-3.8c-1.8-1.4-4.1-2.5-6.7-3.4c-2.7-0.8-5.8-1.1-9.2-1c-3.4,0.1-6.7,0.9-10,2.4  c-1,0.4-2.2,0.9-3.4,1.6c-1.2,0.7-2.5,1.2-3.8,1.7c-1.3,0.5-2.5,0.8-3.6,1.1c-1.1,0.3-2.1,0.2-2.8-0.2c-0.3,0-0.5-0.1-0.8-0.4  l-0.2-0.2c-1.4-0.8-2.5-1.7-3.1-2.7c-0.7-1-1.1-1.8-1.4-2.2c-1-1.8-2.4-3.8-3.9-6c-1.6-2.2-2.7-3.8-3.5-4.8c-0.9-1.2-1.8-2-2.5-2.5  s-1.7-1-2.7-1.5s-2.3-1.1-3.8-2c-1.5-0.8-3.4-2.1-5.8-3.8c-2.7-2.1-4.9-3.7-6.4-4.9c-1.5-1.2-2.4-2.7-2.8-4.5  c-0.7-2.4-0.5-4.7,0.5-7s2.3-4.1,4-5.4c2.2-2,4.8-3,7.8-3.1c3-0.1,5.6,0.3,7.8,1.4c1.3,0.7,2.8,1.4,4.6,2.2c1.8,0.8,3.5,1.7,5.2,2.8  c1.7,1.1,3.3,2.4,4.7,3.8c1.4,1.4,2.5,3,3.3,4.7l1.8,3.8l0.9,2.2l0.4,1.8l0.3,2.4c0.4,2.7,1.1,4.6,2.3,5.5c1.1,0.9,2.3,0.7,3.6-0.6  c0.3-0.3,0.6-1.2,1-2.8c0.4-1.6,0.5-3.8,0.2-6.4c-0.3-2.4-0.6-4.2-1-5.7c-0.4-1.4-0.8-2.7-1.3-3.7c-0.5-1-0.9-2.1-1.3-3.2  c-0.4-1.1-0.7-2.5-0.8-4.2c-0.1-1.6,0-3.1,0.4-4.5c0.4-1.4,0.9-2.8,1.6-4.1c0.7-1.3,1.3-2.5,2.1-3.5c0.7-1,1.4-1.9,2.1-2.5  c2.4-3,4.8-5.2,7.3-6.6c2.5-1.4,4.1-2.2,4.7-2.4c1.2-0.4,2.2-0.7,3-0.9c0.8-0.2,1.7-0.3,2.6-0.4c0.9-0.1,2-0.1,3.2-0.2  c1.2-0.1,2.9-0.2,5-0.5c3.5-0.5,6.7-1.1,9.6-1.7c2.9-0.6,5.6-1.8,8.2-3.6c0.4-0.3,1.1-0.8,2.3-1.7c1.1-0.8,2.2-1.9,3.3-3  c1.1-1.2,2.1-2.5,2.9-4c0.8-1.5,1.3-3.2,1.3-5c0-1.4-0.5-2.9-1.5-4.5c-1-1.6-2.5-3.7-4.6-6.5c-2.6-3.4-4.7-6-6.2-7.8  c-1.5-1.8-3.2-3.2-5-4.1c-0.3-0.1-0.9-0.4-1.9-0.7c-1-0.3-2.1-0.6-3.3-0.8c-1.2-0.2-2.6-0.3-4.1-0.2c-1.5,0.1-2.9,0.4-4.2,1.1  c-1,0.5-1.8,1.1-2.4,1.8c-0.5,0.7-1,1.4-1.5,2.3c-0.5,0.8-1,1.8-1.7,2.8s-1.6,2.2-2.9,3.3c-0.7,0.7-2.1,1.7-4.2,3.1  c-2.2,1.4-4.9,2.4-8.3,2.9c-1.4,0.3-3,0.4-4.8,0.5s-3.6-0.5-5.4-1.7c-1.3-0.8-2.4-1.8-3.1-2.9c-0.8-1.2-1.4-2.4-1.8-3.5  c-0.4-1.2-0.7-2.3-0.9-3.3s-0.3-1.8-0.3-2.4c-0.4-3.9,0.3-7.6,2-11c1.7-3.4,4.1-7.3,7.1-11.8c2.2-3.4,4.1-6,5.5-7.8  c1.4-1.8,3.1-3.1,5.1-3.7c2.7-0.8,5.7-1,8.8-0.6c3.1,0.4,5.6,1.6,7.3,3.5c0.8,1,1.2,2.1,1.4,3.1c0.1,1,0.2,2.1,0.2,3.1  s0.1,2.1,0.3,3s0.7,1.9,1.5,2.8c0.9,1,2,1.8,3.1,2.2c1.2,0.4,2.3,0.7,3.2,0.8c1,0.1,1.9,0.2,2.6,0.1c0.8-0.1,1.2-0.1,1.4-0.1  s0.6-0.1,1.3-0.3c0.7-0.2,1.5-0.5,2.4-1c0.9-0.5,1.8-1,2.7-1.8c0.9-0.7,1.7-1.7,2.4-2.8c0.7-1.3,1-2.6,1.1-3.9s0-2.6-0.2-3.8  c-0.2-1.2-0.5-2.3-1-3.2l-1.1-2.2c-0.4-0.8-0.9-1.7-1.6-2.7s-1.6-2.2-2.9-3.4c-1.3-1.2-3.1-2.6-5.3-4c-2.2-1.4-5-2.9-8.2-4.5  c-1.2-0.5-2.5-1-3.9-1.5c-1.4-0.5-3.3-0.9-5.6-1.5c-2.3-0.5-5.2-1.1-8.6-1.7c-3.5-0.6-7.8-1.3-13-2.1c-3.5-0.7-6.6-1.1-9.3-1.5  c-2.7-0.3-5.1-0.6-7.2-0.9c-2.9,2.2-5.6,4.4-8.1,6.5c-2.5,2.1-5.1,4.4-7.7,7.1c-7.2,7.2-13.5,14.9-19,23.2s-10.3,17.1-14.3,26.4  c-5.1,12.5-8.6,25.4-10.6,38.6c1,0.9,2.1,1.9,3,3c1,1.1,2,2.7,3,4.8c1.6,2.9,2.6,5.4,3.1,7.5c0.5,2.2,1,4.2,1.4,6.3s0.9,4.2,1.6,6.6  c0.7,2.4,1.9,5.2,3.7,8.4c1,1.8,2.3,3.9,3.8,6.3c1.5,2.4,3.6,4.6,6.2,6.9c0.7,0.7,1.3,1.2,2.1,1.6c0.7,0.4,1.6,0.9,2.7,1.5  s2.6,1.3,4.5,2.2c1.9,0.8,4.3,2.1,7.3,3.6c2.9,1.4,5.2,2.6,6.9,3.5c1.7,0.9,3,1.7,4,2.3c1,0.6,1.7,1.1,2.2,1.6l1.3,1.3  c2.9,3,5.1,5.7,6.8,8c1.6,2.4,2.4,3.7,2.4,3.9c0.1,1.4,0,2.9-0.3,4.4c-0.3,1.5-0.7,2.9-1.1,4.3c-0.4,1.4-0.7,2.7-0.9,3.9  c-0.2,1.2,0,2.4,0.5,3.6c0.4,0.9,0.9,2.1,1.6,3.5c0.7,1.4,1.4,2.9,2.2,4.4c0.8,1.5,1.6,2.8,2.4,4c0.8,1.2,1.5,2,2.2,2.5  c1.7,1.3,3.1,3,4.1,5.1c1,2.1,1.9,4.3,2.6,6.7c0.7,2.4,1.3,4.7,1.8,7.1c0.5,2.4,1,4.4,1.7,6.3c1.6,4.3,2.9,7.9,4,10.7  c1.1,2.8,2.2,5.3,3.2,7.4c1,2.2,2.1,4.3,3.2,6.4c1.1,2.1,2.4,4.5,4,7.3c6.8,2.7,13.8,4.9,21.2,6.5c0-1.6,0.1-3.5,0.2-5.7  c0.1-2.2,0.7-4.8,1.8-7.8c0.3-1.2,0.8-2.6,1.6-4.4c0.8-1.8,2-3.8,3.5-6c1.2-1.6,2.3-2.8,3.4-3.7c1.1-0.9,2.2-1.8,3.3-2.5  c1.1-0.8,2.3-1.6,3.5-2.4c1.2-0.8,2.6-1.8,4.2-3.1c1-1,2.5-2.6,4.5-4.8C188,297.1,189.7,294.4,191.3,291.3z M190.7,103.9  c1,1.2,2.7,1.5,4.9,1.1c2.2-0.5,4.4-1,6.7-1.7c2-0.5,3.9-1.2,5.7-2c1.8-0.8,3.8-1.8,5.8-2.9s4.3-2.6,6.8-4.3  c2.5-1.7,5.4-3.8,8.8-6.3c3.4-2.5,6.1-4.5,8.1-6.1c2-1.6,3.7-2.9,4.9-3.9s2.2-1.9,2.7-2.5c0.6-0.7,1.1-1.4,1.5-2.2  c1-1,2.4-3.1,4-6.1s2.8-6.9,3.4-11.6c0.3-2,0.3-3.9,0.2-5.9c-0.1-2-0.3-3.8-0.6-5.5c-9.3-3.7-18.8-6.4-28.5-8.3S205.5,33,195.6,33  c-3.8,0-7.4,0.1-11,0.3c-3.5,0.2-7,0.6-10.4,1.1c0.7,2.6,1.8,5.3,3.3,8c1.6,2.7,3.3,5,5.1,6.9c1.8,1.8,3.6,3.2,5.4,4.1  c1.8,0.9,3.4,1.8,5,2.5c1.6,0.8,3.1,1.7,4.5,2.7c1.4,1,2.8,2.5,4.1,4.5c0.1,0.4,0.5,1.1,1.2,2.3s1.2,2.4,1.8,3.8  c0.5,1.4,0.8,3.1,1,4.9s-0.1,3.6-0.8,5.3c-0.5,1.2-1.2,2.1-2,2.8c-0.8,0.7-1.6,1.4-2.5,2.2c-0.9,0.7-1.9,1.5-2.9,2.4  c-1,0.9-2.1,2.2-3.1,3.7c-0.7,0.9-1.3,2-2,3.2c-0.7,1.2-1.2,2.5-1.7,3.8s-0.7,2.5-0.8,3.6S190,103.3,190.7,103.9z M305.5,298.5  c7.1-7.2,13.4-14.9,18.9-23.2c5.6-8.3,10.4-17.1,14.4-26.4c3.9-9.7,6.9-19.6,9-29.7c2.1-10.1,3.1-20.3,3.1-30.7  c0-10.6-1-20.9-3.1-31.1c-2.1-10.1-5.1-20-9-29.7c-4.1-9.3-8.9-18.1-14.4-26.4c-5.6-8.3-11.9-16-18.9-23.2c-0.8-0.8-1.6-1.5-2.4-2.3  c-0.8-0.7-1.6-1.5-2.4-2.3c-3,0.5-5.9,1.4-8.7,2.6c-2.8,1.2-5.1,3-7,5.4c-0.8,1-1.4,2.1-2,3.1s-1.1,2.1-1.7,3s-1.3,2-2.1,2.9  c-0.8,1-1.8,1.9-3.1,2.6c-1.3,0.8-2.5,1.4-3.6,1.8c-1.1,0.4-2.1,0.8-3,1.1s-1.7,0.7-2.4,1.1c-0.7,0.4-1.3,1-1.9,1.8  c-1,1.6-1.4,3.4-1,5.6c0.4,2.2,1.1,4.1,2.2,5.8c1,1.6,2.2,2.7,3.5,3.5s2.6,1.5,4,2.2s2.7,1.4,3.9,2.2s2.3,2,3,3.5  c0.7,1.3,1.1,2.8,1.5,4.6c0.3,1.8,0,3.2-0.9,4.4c-0.3,0.3-0.9,0.7-1.9,1.3c-1,0.6-3.4,0.9-7.2,1.1c-2.2,0.1-4,0.1-5.3,0  c-1.3-0.1-2.4-0.3-3.3-0.4c-0.9-0.1-1.7-0.2-2.4-0.2s-1.4,0.2-2.2,0.6c-0.9,0.4-1.6,0.9-2,1.7s-0.8,1.6-1.2,2.5L255,141l-2.2,4.5  c-0.8,1.4-1.5,2.5-2.2,3.3c-0.7,0.8-1.3,1.5-2,2.3c-0.7,0.7-1.4,1.5-2.2,2.4c-0.8,0.8-1.7,2-2.7,3.4c-1,1.4-2.5,3.9-4.4,7.3  c-1.9,3.4-3.4,7.4-4.6,12c-0.8,3.1-1.2,5.7-1.2,7.6s0.1,3.7,0.3,5.2c0.2,1.5,0.2,2.9,0.1,4.2c-0.1,1.3-0.7,2.8-1.6,4.5  c-1,1.6-2.2,2.7-3.3,3.5c-1.2,0.8-2.4,1.5-3.5,2.3c-1.2,0.7-2.4,1.5-3.5,2.4c-1.2,0.9-2.3,2.3-3.3,4.1c-0.5,0.9-1.3,2.6-2.3,5.1  c-1,2.5-1.1,5.4-0.5,8.8c0,0.1,0.2,0.7,0.5,1.7c0.3,1,0.8,2.1,1.5,3.3c0.7,1.2,1.5,2.6,2.5,4s2.4,2.7,4.1,3.7c0.5,0.4,1.1,0.7,1.9,1  s1.8,0.5,3.1,0.7c1.4,0.2,3.2,0.4,5.6,0.6c2.4,0.2,5.4,0.4,9.2,0.5c3.1,0.3,5.7,0.4,7.5,0.4s3.4,0.1,4.6,0.2  c1.2,0.1,2.2,0.3,2.9,0.5c0.8,0.2,1.6,0.5,2.5,0.9c3.3,1.8,5.7,4.1,7.3,6.8c1.6,2.7,2.7,4.7,3.3,6c0.9,2,1.5,4.3,1.9,7  s0.7,6.4,1.1,11.1c0.3,2.7,0.5,5,0.6,6.8c0.1,1.8,0.2,3.2,0.3,4.4c0.1,1.2,0.2,2.3,0.4,3.2c0.2,1,0.5,2.1,0.9,3.4  c0.7,2.4,1.4,4.7,2.2,7.2c0.8,2.4,2.2,4.5,4.1,6.4c1.7,1.4,3.5,2.5,5.4,3.1c1.9,0.7,3.8,1.1,5.6,1.4c1.8-1.3,3.6-2.7,5.3-4.3  C302,302.1,303.7,300.4,305.5,298.5z" fill="#000000"></path>
<polygon class="st2" points="395.8,263.3 395.8,112.5 467.6,187.9 " fill="#000000"></polygon>
</svg>