<?xml version='1.0' encoding='utf-8'?>
<!-- Generator: Adobe Illustrator 20.1.0, SVG Export Plug-In . SVG Version: 6.00 Build 0)  --><svg xmlns="http://www.w3.org/2000/svg" xmlns:xlink="http://www.w3.org/1999/xlink" version="1.1" x="0px" y="0px" viewBox="0 0 610 400" style="enable-background:new 0 0 610 400;" xml:space="preserve" width="610.0" height="400.0">
<g id="Ebene_2">
	<path d="M304.8,352c-78.1,0-151.5-17.6-206.8-49.5c-56-32.3-86.8-75.6-86.8-121.8S42,91.3,98,59C153.3,27,226.8,9.4,304.8,9.4   C382.9,9.4,456.4,27,511.7,59c56,32.3,86.8,75.6,86.8,121.8s-30.8,89.4-86.8,121.8C456.4,334.4,382.9,352,304.8,352z M304.8,17.4   c-157.5,0-285.7,73.3-285.7,163.3c0,90,128.1,163.3,285.7,163.3c157.5,0,285.7-73.3,285.7-163.3C590.5,90.7,462.4,17.4,304.8,17.4z   " fill="#000000"></path>
	<g>
		<path d="M107,251V111.4h42.2l25.3,95.2l25-95.2h42.3V251h-26.2V141.1L188,251h-27.1l-27.6-109.9V251H107z" fill="#000000"></path>
		<path d="M269.8,251V111.4h103.5V135H298V166h70.1v23.5H298v38h78V251H269.8z" fill="#000000"></path>
		<path d="M385.7,251l47.7-72.8l-43.2-66.7h32.9l28,44.8l27.4-44.8h32.7l-43.4,67.8l47.7,71.8h-34l-30.9-48.3l-31,48.3H385.7z" fill="#000000"></path>
	</g>
</g>
<g id="Ebene_3">
</g>
</svg>