<?xml version='1.0' encoding='utf-8'?>
<!-- Generator: Adobe Illustrator 23.0.1, SVG Export Plug-In . SVG Version: 6.00 Build 0)  --><svg xmlns="http://www.w3.org/2000/svg" xmlns:xlink="http://www.w3.org/1999/xlink" version="1.1" id="Ebene_2" x="0px" y="0px" viewBox="0 0 291 278" style="enable-background:new 0 0 291 278;" xml:space="preserve" width="418.70505" height="400.0">
<g>
	<path d="M278.3,169.7H39.9c-3.8,0-6.5-1.9-7.9-5.7c-1.8-4.9-0.9-12.3,4.3-16.8c14.4-12.4,34.8-29.7,44.1-37   c6.6-5.2,12.9-5.7,18.7-5.7h179.2c4.7,0,8.6-3.8,8.6-8.6s-3.8-8.6-8.6-8.6H142.2V75.3H176c4.7,0,8.6-3.8,8.6-8.6s-3.8-8.6-8.6-8.6   h-54.4c-4.7,0-8.6,3.8-8.6,8.6s3.8,8.6,8.6,8.6h3.5v12.2H99.2c-5.7,0-17.4,0-29.3,9.3c-9.8,7.8-30.4,25.1-44.7,37.5   c-10,8.6-13.8,23.3-9.2,35.7c3.9,10.5,12.9,16.8,23.9,16.8h238.4c4.7,0,8.6-3.8,8.6-8.6S283,169.7,278.3,169.7z" fill="#000000"></path>
	<path d="M277.7,196.5h-263c-4.7,0-8.6,3.8-8.6,8.6s3.8,8.6,8.6,8.6h263c4.7,0,8.6-3.8,8.6-8.6S282.5,196.5,277.7,196.5z" fill="#000000"></path>
	<path d="M87.8,119.1c-4.7,0-8.6,3.8-8.6,8.6c0,4.7,3.8,8.6,8.6,8.6H120c4.7,0,8.6-3.8,8.6-8.6c0-4.7-3.8-8.6-8.6-8.6H87.8z" fill="#000000"></path>
	<path d="M201.7,119.1c-4.7,0-8.6,3.8-8.6,8.6c0,4.7,3.8,8.6,8.6,8.6h32.2c4.7,0,8.6-3.8,8.6-8.6c0-4.7-3.8-8.6-8.6-8.6H201.7z" fill="#000000"></path>
	<path d="M270.8,119.1h-1c-4.7,0-8.6,3.8-8.6,8.6c0,4.7,3.8,8.6,8.6,8.6h1c4.7,0,8.6-3.8,8.6-8.6C279.3,123,275.5,119.1,270.8,119.1   z" fill="#000000"></path>
</g>
</svg>