<?xml version='1.0' encoding='utf-8'?>
<!-- Generator: Adobe Illustrator 23.0.1, SVG Export Plug-In . SVG Version: 6.00 Build 0)  --><svg xmlns="http://www.w3.org/2000/svg" xmlns:xlink="http://www.w3.org/1999/xlink" version="1.1" id="Ebene_3" x="0px" y="0px" viewBox="0 0 291 278" style="enable-background:new 0 0 291 278;" xml:space="preserve" width="418.70505" height="400.0">
<g>
	<path d="M68.7,210.5c-0.4,0-0.7-0.1-1.1-0.2c-1.2-0.4-2.2-1.3-2.7-2.5l-5.5-14.7l-14.9-4.7c-1.2-0.4-2.2-1.3-2.6-2.5   c-0.4-1.2-0.2-2.6,0.5-3.6l8.6-12.8l-4.7-14.1c-0.4-1.1-0.2-2.4,0.4-3.4c0.6-1,1.7-1.7,2.9-1.9l15.1-2.1l7.2-11.8   c0.6-1,1.7-1.7,2.9-1.9c1.2-0.2,2.4,0.2,3.3,1.1l11.3,10.5L102,143c1.3-0.3,2.6,0,3.6,0.9c1,0.9,1.5,2.2,1.4,3.5l-1.6,15.3   l11.5,11.6c1,1,1.4,2.3,1.1,3.7c-0.3,1.3-1.2,2.4-2.4,3l-12.6,5.3l-1.1,15.5c-0.1,1.3-0.8,2.4-1.8,3.1c-1,0.7-2.4,0.9-3.5,0.5   l-13.7-4.5l-11.7,9C70.5,210.2,69.6,210.5,68.7,210.5z M52.1,182.4l11.6,3.7c1.2,0.4,2.1,1.3,2.6,2.4l4.3,11.4l9.1-6.9   c1.1-0.8,2.5-1.1,3.8-0.6l10.8,3.6l0.9-12.7c0.1-1.5,1.1-2.9,2.5-3.5l9.4-4l-8.6-8.7c-0.9-0.9-1.3-2.1-1.2-3.3l1.2-11.5l-9.2,2.1   c-1.3,0.3-2.7-0.1-3.7-1l-9.2-8.6l-5.6,9.2c-0.6,1-1.7,1.7-2.9,1.9l-12.2,1.7l3.8,11.3c0.4,1.2,0.2,2.5-0.5,3.6L52.1,182.4z    M67.1,151.8L67.1,151.8L67.1,151.8z" fill="#000000"></path>
</g>
<circle cx="79.1" cy="171.8" r="8.5" fill="#000000"></circle>
<path d="M128.6,80.6c0,0-18,17.6-31.8,41.8c2.3,1.2,9,3.6,9,3.6s15.1-27.4,32.2-45.5C137.9,80.8,128.6,80.6,128.6,80.6z" fill="#000000"></path>
<path d="M183.5,80.6h9.5c0,0-9.6,16.7-7.2,38.1c1.6,13.8,21.7,39.7,55.5,64.7c-4.3,1.5-14.3,2.3-14.3,2.3s-36.4-27.6-50.9-59.1  C170.3,114.1,179.4,85.6,183.5,80.6z" fill="#000000"></path>
<path d="M157.9,80.6h6.8c0,0-5,8.8-8.2,17.1c0.1,0.2-8.2,0-8.2,0S151.8,89.5,157.9,80.6z" fill="#000000"></path>
<path d="M149.2,111.7c0,0-4.3,15.5-4.6,23.9c0.1,0-9.6,0-9.6,0s3.3-14.3,8.3-23.9C143.3,112,149.2,111.7,149.2,111.7z" fill="#000000"></path>
<path d="M147.5,153c0,0,6.3,20.9,15.6,34.2c0.2,0-13.9,0-13.9,0s-6.7-14-11.3-34.2H147.5z" fill="#000000"></path>
<g>
	<path d="M143.5,277.2c-76.2,0-138.2-62-138.2-138.2c0-76.2,62-138.2,138.2-138.2c76.2,0,138.2,62,138.2,138.2   C281.8,215.2,219.7,277.2,143.5,277.2z M143.5,8.9C71.8,8.9,13.5,67.3,13.5,139s58.4,130.1,130.1,130.1S273.6,210.7,273.6,139   S215.3,8.9,143.5,8.9z" fill="#000000"></path>
</g>
</svg>