<?xml version='1.0' encoding='utf-8'?>
<!-- Generator: Adobe Illustrator 23.0.1, SVG Export Plug-In . SVG Version: 6.00 Build 0)  --><svg xmlns="http://www.w3.org/2000/svg" xmlns:xlink="http://www.w3.org/1999/xlink" version="1.1" id="Ebene_2" x="0px" y="0px" viewBox="0 0 291 278" style="enable-background:new 0 0 291 278;" xml:space="preserve" width="418.70505" height="400.0">
<g>
	<path d="M269.7,63.8H115.4c-4.1,0-7.4-3.3-7.4-7.4s3.3-7.4,7.4-7.4h154.3c4.1,0,7.4,3.3,7.4,7.4S273.8,63.8,269.7,63.8z" fill="#000000"></path>
</g>
<g>
	<path d="M269.7,124.1H115.4c-4.1,0-7.4-3.3-7.4-7.4c0-4.1,3.3-7.4,7.4-7.4h154.3c4.1,0,7.4,3.3,7.4,7.4   C277.1,120.8,273.8,124.1,269.7,124.1z" fill="#000000"></path>
</g>
<g>
	<path d="M133,184.4h136.8c4.1,0,7.4-3.3,7.4-7.4c0-4.1-3.3-7.4-7.4-7.4H132.3C132.3,169.7,132.8,175.5,133,184.4z" fill="#000000"></path>
</g>
<circle cx="80.1" cy="56.5" r="9.1" fill="#000000"></circle>
<path d="M86.7,123c1.5-1.6,2.5-3.8,2.5-6.2c0-5-4.1-9.1-9.1-9.1c-5,0-9.1,4.1-9.1,9.1c0,0.9,0.1,1.8,0.4,2.6c0,0,4.6-0.4,8.7,0.8  C84.2,121.5,86.7,123,86.7,123z" fill="#000000"></path>
<path d="M131.7,255.2L101,223.7c6.7-8.9,10.7-19.9,10.7-31.9c0-29.1-23.7-52.8-52.8-52.8c-29.1,0-52.8,23.7-52.8,52.8  s23.7,52.8,52.8,52.8c12.8,0,24.6-4.6,33.7-12.2l30.5,31.2c1.2,1.2,2.7,1.8,4.3,1.8c1.5,0,3-0.6,4.2-1.7  C134,261.3,134.1,257.5,131.7,255.2z M58.9,232.5c-22.5,0-40.7-18.3-40.7-40.7s18.3-40.7,40.7-40.7s40.7,18.3,40.7,40.7  S81.4,232.5,58.9,232.5z" fill="#000000"></path>
</svg>