<?xml version='1.0' encoding='utf-8'?>
<svg xmlns="http://www.w3.org/2000/svg" viewBox="0 0 1869 2041" width="366" height="400"><path d="M935 30q123 0 237.5 32t214 90 181 139.5 139.5 181 90 214 32 237.5q0 124-32 238.5t-90 213.5-139.5 181-181 140-214 90-237.5 32q-124 0-238.5-32T483 1697t-181-140-140-181-90-213.5T40 924q0-123 32-237.5t90-214 140-181T483 152t213.5-90T935 30zm785 841q-7-131-59-252-10-21-20-41.5t-21-40.5h-247q45 156 51 334h296zM989 429h232q-45-101-104-168t-128-84v252zM881 180q-65 23-121 87.5T662 429h219V180zM622 537q-23 75-37 159t-18 175h314V537H622zm-55 442q4 91 18 174.5t37 158.5h259V979H567zm95 441q42 97 98 161.5t121 87.5v-249H662zm327 253q69-18 128-85t104-168H989v253zm271-361q23-75 37.5-158.5T1315 979H989v333h271zm55-441q-3-91-17.5-175T1260 537H989v334h326zm176-503q-54-55-116.5-97T1240 199q-28-13-55-21 57 60 106 150 14 24 25 49.5t22 51.5h209q-13-16-27-31.5t-29-29.5zM629 199q-71 30-134 72t-118 97q-14 14-27.5 29.5T322 429h223q10-26 21-51.5t25-49.5q50-94 112-156-39 11-74 27zM249 537q-11 20-21 40.5T209 619q-51 120-60 252h310q6-176 50-334H249zM149 979q9 131 60 251 9 21 19 41.5t21 40.5h260q-44-158-50-333H149zm228 503q55 54 118 96t134 73q34 14 74 27-31-32-59-70.5t-53-86.5q-27-47-46-101H322q14 17 27.5 32t27.5 30zm863 169q72-31 134.5-73t116.5-96q15-15 29-30t27-32h-209q-11 27-22 52t-25 49q-48 89-106 151 14-5 27.5-10.5t27.5-10.5zm380-339q11-20 21-40.5t20-41.5q52-121 59-251h-296q-6 177-51 333h247z" fill="#000000"></path></svg>