<?xml version='1.0' encoding='utf-8'?>
<svg xmlns="http://www.w3.org/2000/svg" viewBox="0 0 728 2041" width="143" height="400"><path d="M50 1130q0-76 3.5-147.5t15-134.5 32-115.5 55.5-90 86-58T364 564t121.5 20.5 85.5 58 56 90T659.5 848t15 134.5T678 1130q0 131-10 240t-43 188-95 122.5-166 43.5-166-43.5-95-122.5-43-188-10-240zm413-18q0-87-2.5-152.5t-12.5-109-30-65.5-54-22q-35 0-54.5 22T280 850.5t-12.5 109T265 1112q0 128 4 208t15.5 126 30.5 62.5 49 16.5 49-16.5 30-62.5 15.5-126 4.5-208z" fill="#000000"></path></svg>