<?xml version='1.0' encoding='utf-8'?>
<!-- Generator: Adobe Illustrator 23.0.3, SVG Export Plug-In . SVG Version: 6.00 Build 0)  --><svg xmlns="http://www.w3.org/2000/svg" xmlns:xlink="http://www.w3.org/1999/xlink" version="1.1" id="Ebene_1" x="0px" y="0px" viewBox="0 0 418.7 400" style="enable-background:new 0 0 418.7 400;" xml:space="preserve" width="418.7" height="400.0">
<g>
	<path d="M254.1,169.8V27c0-1.4-1-2.8-2.8-2.8H27c-1.4,0-2.8,1-2.8,2.8v268.6c0,1.4,1,2.8,2.8,2.8h57.2l-18,24.3H27   c-14.9,0-27-12.1-27-27V27C0,12.1,12.1,0,27,0h224.3c14.9,0,27,12.1,27,27v143.2h-24.3V169.8z" fill="#000000"></path>
</g>
<rect x="45.8" y="62" width="60" height="17.7" fill="#000000"></rect>
<rect x="45.8" y="125.1" width="87.3" height="17.7" fill="#000000"></rect>
<rect x="45.8" y="187.9" width="33.3" height="17.7" fill="#000000"></rect>
<rect x="100.2" y="187.9" width="50.6" height="17.7" fill="#000000"></rect>
<rect x="154.6" y="125.1" width="78.3" height="17.7" fill="#000000"></rect>
<rect x="173.3" y="62" width="60" height="17.7" fill="#000000"></rect>
<rect x="126.9" y="62" width="25" height="17.7" fill="#000000"></rect>
<path d="M306.1,197.2H201.4v24.3h104.7c35.7,0,52,25.3,52,48.9s-15.9,47.1-52,47.1h-60.3v-48.2c0-4.2-2.1-8-5.5-10.4  c-3.5-2.1-8-2.4-11.8-0.7l-124.8,60.3c-4.2,2.1-6.9,6.2-6.9,11.1s2.8,9,6.9,10.7L228.4,399c1.7,0.7,3.5,1,5.2,1  c2.4,0,4.5-0.7,6.6-1.7c3.5-2.1,5.5-6.2,5.5-10.4v-46.4h60.3c52.3,0,76.3-37.1,76.3-71.4C382.3,234,356,197.2,306.1,197.2z   M221.5,369.2l-84.2-39.5l84.2-40.6V369.2z" fill="#000000"></path>
</svg>