<?xml version='1.0' encoding='utf-8'?>
<!-- Generator: Adobe Illustrator 23.1.0, SVG Export Plug-In . SVG Version: 6.00 Build 0)  --><svg xmlns="http://www.w3.org/2000/svg" xmlns:xlink="http://www.w3.org/1999/xlink" version="1.1" id="Ebene_1" x="0px" y="0px" viewBox="0 0 916.1 323.6" style="enable-background:new 0 0 916.1 323.6;" xml:space="preserve" width="1132.3856" height="400.0">
<g id="Ebene_2_1_">
</g>
<g>
	<path d="M655.2,317.9h115.5v-66.8H700v-67.8h64.1v-60H700V64.7h68.4v-59H655.2V317.9z" fill="#000000"></path>
</g>
<path d="M209.6,5.2l-58.2,313.2h45.1l11.7-69.8h50.4l11.2,69.8h47L260.4,5.2H209.6z M234.1,106.3l13.9,82.3h-29L234.1,106.3z" fill="#000000"></path>
<path d="M156.4,113.1c0-16.7-1.6-31.9-4.8-45.6s-7.7-25.5-13.4-35.2S125.7,15.1,118,9.7c-7.8-5.3-16.4-8-25.9-8  c-12,0-22.8,3.9-32.3,11.8c-9.6,7.9-17.7,18.9-24.4,33.1C28.7,60.8,23.5,78,20,98.1s-5.4,42.5-5.4,67.1c0,12.9,0.5,25.7,1.6,38.5  c1,12.8,2.8,24.9,5.4,36.5c2.5,11.5,5.7,22.3,9.6,32.2c3.8,10,8.7,18.6,14.5,25.9s12.5,13,20.1,17.2s16.3,6.3,25.9,6.3  c4,0,8.2-0.5,12.6-1.6c4.4-1,8.8-2.9,13.2-5.6s8.7-6.3,12.8-10.8c4.1-4.5,8-10.4,11.8-17.6c3.4-7.2,6.1-14.4,8.2-21.7  c2.1-7.3,3.6-14.4,4.7-21.4c1-7,1.7-13.7,2.1-20.1c0.3-6.4,0.7-12.2,1.1-17.3h-48.5c-0.3,9.8-1,18.2-2.2,25.4s-2.9,13-4.9,17.6  s-4.2,7.9-6.6,10.2c-2.4,2.2-4.9,3.3-7.5,3.3c-4.3,0-7.9-2-10.7-5.9c-2.9-3.9-5.3-9-7.2-15.1s-3.5-13.1-4.6-20.7  c-1.1-7.6-1.9-15-2.3-22.1c-0.5-7.1-0.7-13.6-0.8-19.4s-0.1-10.2-0.1-13.1c0-14.6,0.6-28.3,1.7-41c1.1-12.7,2.8-23.9,5-33.4  s5.1-17,8.7-22.5s7.9-8.2,12.8-8.2c2.7,0,5.1,1,7,3.1c2,2.1,3.6,4.8,4.9,8c1.3,3.3,2.4,7,3.3,11.1s1.6,8.2,2.1,12s0.9,7.4,1.1,10.7  c0.2,3.3,0.4,5.7,0.5,7.4L156.4,113.1L156.4,113.1z" fill="#000000"></path>
<path d="M636.7,113.1c0-16.7-1.6-31.9-4.8-45.6s-7.7-25.5-13.4-35.2S606,15.1,598.3,9.7c-7.8-5.3-16.4-8-25.9-8  c-12,0-22.8,3.9-32.3,11.8c-9.6,7.9-17.7,18.9-24.4,33.1C509,60.8,503.8,78,500.3,98.1s-5.4,42.5-5.4,67.1c0,12.9,0.5,25.7,1.6,38.5  c1,12.8,2.8,24.9,5.4,36.5c2.5,11.5,5.7,22.3,9.6,32.2c3.8,10,8.7,18.6,14.5,25.9s12.5,13,20.1,17.2c7.6,4.2,16.3,6.3,25.9,6.3  c4,0,8.2-0.5,12.6-1.6c4.4-1,8.8-2.9,13.2-5.6s8.7-6.3,12.8-10.8s8-10.4,11.8-17.6c3.4-7.2,6.1-14.4,8.2-21.7  c2.1-7.3,3.6-14.4,4.7-21.4c1-7,1.7-13.7,2.1-20.1c0.3-6.4,0.7-12.2,1.1-17.3H590c-0.3,9.8-1,18.2-2.2,25.4s-2.9,13-4.9,17.6  s-4.2,7.9-6.6,10.2c-2.4,2.2-4.9,3.3-7.5,3.3c-4.3,0-7.9-2-10.7-5.9c-2.9-3.9-5.3-9-7.2-15.1s-3.5-13.1-4.6-20.7  c-1.1-7.6-1.9-15-2.3-22.1c-0.5-7.1-0.7-13.6-0.8-19.4s-0.1-10.2-0.1-13.1c0-14.6,0.6-28.3,1.7-41c1.1-12.7,2.8-23.9,5-33.4  s5.1-17,8.7-22.5c3.6-5.5,7.9-8.2,12.8-8.2c2.7,0,5.1,1,7,3.1c2,2.1,3.6,4.8,4.9,8c1.3,3.3,2.4,7,3.3,11.1c0.9,4.1,1.6,8.2,2.1,12  s0.9,7.4,1.1,10.7c0.2,3.3,0.4,5.7,0.5,7.4L636.7,113.1L636.7,113.1z" fill="#000000"></path>
<path d="M328.8,318.1h44.4V115.4L421,318.1h57.3V5.5h-44v184.1L388.1,5.5h-59.3V318.1z" fill="#000000"></path>
<path d="M789.8,318.4h109.5v-68h-63.9V5.2h-45.5V318.4z" fill="#000000"></path>
</svg>