<?xml version='1.0' encoding='utf-8'?>
<!-- Generator: Adobe Illustrator 20.1.0, SVG Export Plug-In . SVG Version: 6.00 Build 0)  --><svg xmlns="http://www.w3.org/2000/svg" xmlns:xlink="http://www.w3.org/1999/xlink" version="1.1" id="Ebene_1" x="0px" y="0px" viewBox="0 0 400 400" style="enable-background:new 0 0 400 400;" xml:space="preserve" width="400.0" height="400.0">
<style type="text/css">
	.st0{fill:#1D1D1B;}
	.st1{fill:none;stroke:#1D1D1B;stroke-width:16;stroke-miterlimit:10;}
	.st2{fill:none;stroke:#1D1D1B;stroke-width:16;stroke-linecap:round;stroke-linejoin:round;stroke-miterlimit:10;}
</style>
<g>
	<path class="st0" d="M135.1,291.1c-8.1,0-16.9-0.8-23-3.5c-5.6-2.5-12-7.6-18.8-13c-5-4-13.3-10.7-16.1-11.1   c-10.1-1-52.9-1.2-53.4-1.2c-3.7,0-6.8-3.1-6.7-6.8c0-3.7,3-6.7,6.8-6.7c0,0,0,0,0,0c1.8,0,43.9,0.2,54.7,1.3   c6,0.6,12.8,5.7,23.2,14c5.6,4.4,11.8,9.5,15.8,11.2c6.3,2.8,20.1,2.6,30.3,1.7l-1.1-103.9c-7.6-0.5-19.9-1.4-27.2-3.2   c-4.2-1-11.6-4.4-23.2-9.7c-8.7-4-20.6-9.6-24.1-10.1c-9.5-1.5-38.1-1.1-48.3-0.8c-3.7,0.1-6.9-2.8-7-6.6c-0.1-3.7,2.8-6.9,6.6-7   c1.6,0,38.2-1.1,50.9,1c4.9,0.8,13.7,4.8,27.6,11.2c8.2,3.8,17.4,8.1,20.6,8.9c9.5,2.3,30.8,3.1,31,3.1l6.4,0.3l1.4,128.7l-5.9,0.8   C153.9,289.9,145,291.1,135.1,291.1z" fill="#000000"></path>
	<g>
		<rect x="34.4" y="163.3" class="st0" width="27.6" height="19.9" fill="#000000"></rect>
		<path class="st0" d="M65.8,187H30.6v-27.4h35.2V187z M38.1,179.5h20.1v-12.4H38.1V179.5z" fill="#000000"></path>
	</g>
	<g>
		<polygon class="st0" points="93.3,222.1 69.1,212.3 69.1,192.4 93.3,201.8   " fill="#000000"></polygon>
		<path class="st0" d="M96.6,227.1l-31-12.6v-27.2l31,12.2V227.1z M72.5,210l17.4,7.1v-12.9l-17.4-6.8V210z" fill="#000000"></path>
	</g>
	<g>
		<polyline class="st0" points="67.9,256.2 67.9,243.9 94.6,253.4 94.8,265.5   " fill="#000000"></polyline>
		<path class="st0" d="M94.8,267.7c-1.2,0-2.2-1-2.3-2.2L92.4,255l-22.2-7.9v9.1c0,1.2-1,2.3-2.3,2.3c-1.2,0-2.3-1-2.3-2.3v-15.5    l31.2,11.1l0.2,13.6C97,266.7,96,267.7,94.8,267.7C94.8,267.7,94.8,267.7,94.8,267.7z" fill="#000000"></path>
	</g>
	<g>
		<polyline class="st0" points="93.3,152.6 93.3,166.7 68.5,156.9 68.5,143.2   " fill="#000000"></polyline>
		<path class="st0" d="M96.3,171.1l-30.8-12.1v-15.7c0-1.7,1.3-3,3-3s3,1.3,3,3v11.6l18.8,7.4v-9.6c0-1.7,1.3-3,3-3c1.7,0,3,1.3,3,3    V171.1z" fill="#000000"></path>
	</g>
	<g>
		<polygon class="st0" points="120.3,207.6 99.7,197.2 99.7,176.5 120.3,186.9   " fill="#000000"></polygon>
		<path class="st0" d="M123.7,213.1l-27.4-13.8V171l27.4,13.8V213.1z M103.1,195.1l13.9,7V189l-13.9-7V195.1z" fill="#000000"></path>
	</g>
	<g>
		<polygon class="st0" points="121.1,262.2 98.8,250.4 99.2,231.2 121.1,243.2   " fill="#000000"></polygon>
		<path class="st0" d="M124.1,267.2l-28.3-15l0.5-26l27.8,15.2V267.2z M101.9,248.6l16.2,8.6V245l-16-8.7L101.9,248.6z" fill="#000000"></path>
	</g>
	<g>
		<rect x="34.4" y="217.8" class="st0" width="27.6" height="19.9" fill="#000000"></rect>
		<path class="st0" d="M65.8,241.4H30.6V214h35.2V241.4z M38.1,233.9h20.1v-12.4H38.1V233.9z" fill="#000000"></path>
	</g>
	<g>
		<rect x="126.1" y="214.8" class="st0" width="19.9" height="24.3" fill="#000000"></rect>
		<path class="st0" d="M148.3,241.3h-24.4v-28.8h24.4V241.3z M128.3,236.8h15.4V217h-15.4V236.8z" fill="#000000"></path>
	</g>
	<g>
		<rect x="126.3" y="269.2" class="st0" width="19.9" height="16.9" fill="#000000"></rect>
		<path class="st0" d="M148.4,288.3H124v-21.4h24.4V288.3z M128.5,283.8h15.4v-12.4h-15.4V283.8z" fill="#000000"></path>
	</g>
	<g>
		<rect x="126.2" y="166.8" class="st0" width="19.9" height="16.9" fill="#000000"></rect>
		<path class="st0" d="M148.4,186H124v-21.4h24.4V186z M128.5,181.5h15.4V169h-15.4V181.5z" fill="#000000"></path>
	</g>
	<path class="st0" d="M23.8,337.5c-3.7,0-6.8-3-6.8-6.8V142.5c0-3.7,3-6.8,6.8-6.8s6.8,3,6.8,6.8v188.3   C30.6,334.5,27.5,337.5,23.8,337.5z" fill="#000000"></path>
</g>
<path class="st1" d="M136.2,149.6v-24.5c0-5.4,4.5-9.8,10-9.8h36.5c5.5,0,10,4.4,10,9.8v72c0,5.4-4.5,9.8-10,9.8h-13.4" fill="#000000"></path>
<polygon class="st2" points="193.8,113.4 289.7,47 289.7,267.7 193.5,208 " fill="#000000"></polygon>
<line class="st2" x1="314.2" y1="214.8" x2="388.7" y2="262.2" fill="#000000"></line>
<line class="st2" x1="67.9" y1="58.1" x2="118.1" y2="90.1" fill="#000000"></line>
</svg>