<?xml version='1.0' encoding='utf-8'?>
<!-- Generator: Adobe Illustrator 20.1.0, SVG Export Plug-In . SVG Version: 6.00 Build 0)  --><svg xmlns="http://www.w3.org/2000/svg" xmlns:xlink="http://www.w3.org/1999/xlink" version="1.1" id="Ebene_1" x="0px" y="0px" viewBox="0 0 400.7 400" style="enable-background:new 0 0 400.7 400;" xml:space="preserve" width="400.7" height="400.0">
<style type="text/css">
	.st0{fill:#FFFFFF;stroke:#FFFFFF;stroke-miterlimit:10;}
	.st1{fill:#1D1D1B;}
	.st2{fill:#1D1E1B;}
</style>
<path class="st0" d="M312,37.1" fill="#000000"></path>
<path class="st0" d="M288.4,13.5" fill="#000000"></path>
<path class="st1" d="M319,291.7L319,291.7c0,0,3.2,2.3,7.9,1.3c4.1-0.9,5.8-3.5,5.8-3.6c0-0.2-0.1-0.5-0.1-0.7  c-6.9-36.9-15.4-45.3-21.2-48.4c-9.8-5.3-27.1-9.2-42.3-12.7c-8.6-2-20.3-4.6-23.1-6.2c-2.2-2.5-2.2-3.9-1.9-7.6  c0.4-0.9,1.6-2.8,2.5-4.4c7.4-12.3,22.8-38,18.6-72.5c-4.1-34-24.9-52.2-61.9-54.2c-0.4,0-0.7,0-1.1,0c-0.4,0-0.7-0.1-1.1,0  c-37,1.9-57.8,20.1-61.9,54.2c-4.2,34.4,11.2,60.1,18.6,72.5c0.9,1.6,2.1,3.5,2.5,4.4c0.3,3.7,0.4,5-1.9,7.6  c-2.8,1.6-14.5,4.3-23.1,6.2c-15.2,3.5-32.5,7.4-42.3,12.7c-5.2,2.8-12.5,9.8-18.9,37.7c0,0,1.6,3.9,4.9,4.4  c7.8,1.1,8.8-2.3,8.8-2.3l0,0c5.4-23.1,10.7-27.1,11.8-27.7c8.2-4.4,25.2-8.3,38.8-11.4c19.4-4.4,26.5-6.3,29.9-10  c6.8-7.4,6.2-13.8,5.7-19l0-0.2c-0.2-2.6-1.6-4.9-4.4-9.5c-6.6-11-20.3-34-16.7-63.7c3.3-27.1,18.8-40.5,48.9-42c0.1,0,0.2,0,0.3,0  c0.1,0,0.2,0,0.3,0c30.1,1.6,45.6,14.9,48.9,42c3.6,29.7-10.1,52.7-16.7,63.7c-2.7,4.6-4.1,6.9-4.4,9.5l0,0.2  c-0.5,5.2-1.1,11.6,5.7,19c3.4,3.7,10.5,5.6,29.9,10c13.7,3.1,30.6,7,38.8,11.4c1.3,0.7,8,5.8,14.1,38.7  C318.9,291.4,318.9,291.6,319,291.7z" fill="#000000"></path>
<path class="st2" d="M199.8,396.2C93.4,396.2,6.9,309.7,6.9,203.3S93.4,10.4,199.8,10.4c106.4,0,192.9,86.5,192.9,192.9  S306.1,396.2,199.8,396.2z M199.8,30.9c-95.1,0-172.4,77.3-172.4,172.4c0,95.1,77.3,172.4,172.4,172.4  c95.1,0,172.4-77.3,172.4-172.4C372.2,108.2,294.9,30.9,199.8,30.9z" fill="#000000"></path>
</svg>