<?xml version='1.0' encoding='utf-8'?>
<svg xmlns="http://www.w3.org/2000/svg" viewBox="0 0 2173 2041" width="426" height="400"><path d="M603 1470q33 36 72 33.5t76-33.5 69-85 51.5-122.5 23-146-17-155.5-69-151T678 678q-42 38-77 86.5t-60 105-38 119-13 129.5q0 95 28 185.5t85 166.5zm993-867q104 104 159 233.5t55 281.5q0 114-36.5 221.5T1671 1532q-10 10-26 26.5t-40 33.5-54.5 29-67.5 12q-61 0-115-30.5t-96-83-71.5-123-42-151.5-7.5-167.5 31-171 75-162.5 125-141q-67-38-140-58.5T1094 515h-14q-85 9-158.5 29.5T791 603q76 63 125 141t75 162.5 31 171-7.5 167.5-42 151.5-71.5 123-95.5 83T692 1633q-43 0-76-12t-58-29-41.5-33.5L490 1532q-57-85-91-192.5T365 1118q0-152 53-281.5T565 603q-52-19-105-19t-103.5 18.5T260 659t-84 94L50 729q52-100 123-163t153.5-90 172-18T678 515q86-56 187-91t215-35q115 0 218 35t197 91q85-48 174.5-57t173 18 156 90T2123 729l-137 24q-77-114-176.5-151t-213.5 1zm-38 867q57-76 91.5-166.5T1684 1118q0-133-53.5-248.5T1483 678q-80 59-126.5 132T1290 961t-17.5 155.5 21.5 146 50 122.5 67.5 85 75 33.5 71.5-33.5z" fill="#000000"></path></svg>