<?xml version='1.0' encoding='utf-8'?>
<!-- Generator: Adobe Illustrator 20.1.0, SVG Export Plug-In . SVG Version: 6.00 Build 0)  --><svg xmlns="http://www.w3.org/2000/svg" xmlns:xlink="http://www.w3.org/1999/xlink" version="1.1" id="Ebene_1" x="0px" y="0px" viewBox="0 0 400 400" style="enable-background:new 0 0 400 400;" xml:space="preserve" width="400.0" height="400.0">
<style type="text/css">
	.st0{fill:#1D1D1B;}
	.st1{fill:none;stroke:#1D1D1B;stroke-width:20;stroke-linecap:round;stroke-linejoin:round;stroke-miterlimit:10;}
	.st2{fill:none;stroke:#1D1D1B;stroke-width:18;stroke-linecap:round;stroke-linejoin:round;stroke-miterlimit:10;}
	.st3{fill:none;stroke:#1D1D1B;stroke-width:15;stroke-linecap:round;stroke-linejoin:round;stroke-miterlimit:10;}
	.st4{fill:#1D1D1B;stroke:#1D1D1B;stroke-width:5;stroke-linecap:round;stroke-linejoin:round;stroke-miterlimit:10;}
</style>
<path class="st0" d="M165.8,12.6c-1.3,0.8-2,2.4-2,4.1v69.9c0,1.7,0.8,3.3,2,4.1c1.3,0.8,2.8,0.8,4-0.1l47.6-34.9  c1.2-0.9,1.9-2.4,1.9-4s-0.7-3.2-1.9-4l-47.6-34.9C168.6,11.8,167.1,11.8,165.8,12.6z" fill="#000000"></path>
<path class="st1" d="M166.7,51.7" fill="#000000"></path>
<path class="st1" d="M93.6,110.9" fill="#000000"></path>
<path class="st2" d="M90.9,113.6c5.7-35.1,36.1-61.9,72.9-61.9c1,0,1.9,0,2.9,0.1" fill="#000000"></path>
<path class="st0" d="M236.3,387.3c1.3-0.8,2-2.4,2-4.1v-69.9c0-1.7-0.8-3.3-2-4.1c-1.3-0.8-2.8-0.8-4,0.1l-47.6,34.9  c-1.2,0.9-1.9,2.4-1.9,4s0.7,3.2,1.9,4l47.6,34.9C233.5,388.1,235.1,388.2,236.3,387.3z" fill="#000000"></path>
<path class="st1" d="M235.5,348.3" fill="#000000"></path>
<path class="st2" d="M311.3,286.3c-5.7,35.1-36.1,61.9-72.9,61.9c-1,0-1.9,0-2.9-0.1" fill="#000000"></path>
<g>
	<path class="st3" d="M148.8,352.3H56.1c-5.5,0-10-4.5-10-10V160c0-5.5,4.5-10,10-10h92.7c5.5,0,10,4.5,10,10v182.4   C158.8,347.8,154.3,352.3,148.8,352.3z" fill="#000000"></path>
	<rect x="72.6" y="175.9" class="st3" width="59.6" height="125" fill="#000000"></rect>
	<circle class="st4" cx="102.4" cy="328" r="7.5" fill="#000000"></circle>
</g>
<g>
	<path class="st3" d="M344.3,257.9h-92.7c-5.5,0-10-4.5-10-10V65.6c0-5.5,4.5-10,10-10h92.7c5.5,0,10,4.5,10,10v182.4   C354.3,253.4,349.8,257.9,344.3,257.9z" fill="#000000"></path>
	<rect x="268.2" y="81.5" class="st3" width="59.6" height="125" fill="#000000"></rect>
	<circle class="st4" cx="298" cy="233.6" r="7.5" fill="#000000"></circle>
</g>
</svg>