<?xml version='1.0' encoding='utf-8'?>
<svg xmlns="http://www.w3.org/2000/svg" viewBox="0 0 1780 2041" width="349" height="400"><path d="M1311 212v5l-279 503q-15-11-30.5-19.5T968 684q4 11 6.5 20.5T977 724q0 17-6 32.5t-15 31-19.5 30.5-18.5 30q-9-5-18.5-11.5T880 825l46-79q2-6 3.5-11t1.5-10q0-19-10.5-36.5T905 653q-37-16-76-23t-81-7q-78 0-138 25 6 19 14.5 37t8.5 40q0 17-6 33t-14.5 31-18.5 29.5-18 29.5l-40-23 47-80q5-6 5-18 0-16-7.5-31T568 667q-26 11-50 24t-49 28L189 214q121-88 265-132.5T756 37q150 0 291 45 140 46 264 130zm-83 23q-93-57-195-92-69-23-137.5-33T755 99q-134 0-256.5 35T273 235l220 398 48-23q-10-17-14-30t-4-27q0-21 10-40.5t21.5-37.5 21.5-35 10-35v-9l-33-93h-15q-13 0-14-1l55-140 56 141h-30q6 26 18 52.5t12 55.5q0 15-6.5 30.5t-15.5 31-19.5 31.5-18.5 32q-4 7-4 16 0 11 4.5 21t7.5 18q47-22 114-28-1-1-1-13 0-22 9.5-40.5T727 474t21.5-34 9.5-36v-9l-32-92h-16q-13 0-14-1l50-131 5-9 54 136v5h-28q8 24 18.5 51t10.5 53q0 21-10 40t-21.5 36.5-21.5 34-10 32.5q0 8 1.5 9t10.5 1q31 0 59 4t57 10h-1q-3-10-3-22 0-22 10-41t22-36.5 22-34.5 10-35q0-2-.5-4.5t-.5-4.5l-33-93h-22q-7 0-7-1l55-140 55 141h-30q6 26 18 53t12 56q0 14-6.5 29.5t-15.5 31-19.5 32T918 537q-2 10-2 14 0 11 4.5 22t9.5 21q20 10 39 19t39 20zm494 265q18 35 18 77 0 39-14.5 70.5t-38 54T1634 736t-62 12q-33 0-63-13t-53.5-35.5-37-53T1405 581q0-31 12-61.5t33.5-54 53-38T1574 413q51 0 89 24.5t59 62.5zm-90 39q-23-30-57-30-29 0-51.5 19.5T1501 579q0 36 25 54.5t56 18.5q24-4 43.5-24t19.5-47q0-23-13-42zm-862 84q9 25 22.5 50t13.5 53q0 15-6.5 31T784 788.5t-19 31-18 28.5l-39-23 45-79q3-8 4-13.5t1-9.5q0-8-1-14.5t-5-11.5l-34-72q8-1 14-1.5t11-.5h27zm779 188l140 156-120 448q-11 50-38 91t-65.5 70-85 45-95.5 16q-10 0-20.5-.5t-21.5-2.5l-251-48q-13-2-25.5-5t-26.5-3-26.5 3-23.5 11l-232 137q-23 19-51.5 29.5T548 1769q-24 0-52.5-10t-52.5-28-40-43-16-54q0-25 20-44l216-147 235-126q47-28 102-28 15 0 32 3l174 33q1 1 7 1 30 0 40-28l96-345q10-32 31-58.5t48.5-46 59-30T1511 808q20 0 38 3zm116 49q27 35 27 76 0 15-3 28l-138-153q31 5 61.5 13t52.5 36zM457 1168h140l-281 279-276-276h136V893h274v275h7zm1125-254q-19-3-37-6t-38-3q-35 0-64.5 22t-40.5 54l-94 342-11 23q-18 38-52.5 56t-74.5 19h-10q-9 0-10-1l-193-36h-14q-29 0-48 9l-397 239q-10 8-10 16 0 13 8 21t18.5 12.5 20.5 6 13 1.5q23 0 41-13.5t37-24.5l237-141q44-26 95-26 22 0 54 8l250 48q1 1 13 1h13q28 0 56-9.5t53-26.5 44-40.5 28-51.5l126-467 1-10q0-13-14-22z" fill="#000000"></path></svg>