<?xml version='1.0' encoding='utf-8'?>
<svg xmlns="http://www.w3.org/2000/svg" viewBox="0 0 2086 2041" width="409" height="400"><path d="M589 1249l189-133-89 215H554zm321-464L732 910l218-519h141l83 208-103 72-57-151zm339-1l222 547h-143l-101-245H820l150-105h218l-45-121zm-879 801q-27-26-51-54t-47-58l106-74q18 25 38.5 48.5T460 1494zM226 945q1 75 15.5 145.5T282 1227l-108 76q-35-82-55.5-171.5T98 946q0-125 31.5-241.5t89-217.5 139-185T539 158t215.5-93.5T996 30q186 0 346.5 65T1629 279l-108 75q-103-91-233.5-143T1008 159q-109 0-210 28t-187.5 79T453 388.5 331.5 547t-78 188T226 945zm1530-518q72 108 114 234.5t42 266.5q0 123-29.5 236.5T1798 1378t-133.5 183-176.5 144l52 81-357 38 184-309 52 82q82-51 149.5-121.5T1684 1320t74-181 26-200q0-122-35-233t-98-205zM40 1438L1972 77l74 105L114 1543z" fill="#ffffff"></path></svg>