<?xml version='1.0' encoding='utf-8'?>
<!-- Generator: Adobe Illustrator 23.0.1, SVG Export Plug-In . SVG Version: 6.00 Build 0)  --><svg xmlns="http://www.w3.org/2000/svg" xmlns:xlink="http://www.w3.org/1999/xlink" version="1.1" id="Ebene_3" x="0px" y="0px" viewBox="0 0 291 278" style="enable-background:new 0 0 291 278;" xml:space="preserve" width="418.70505" height="400.0">
<g>
	<path d="M146.5,203.8c-34,0-61.6-27.6-61.6-61.6c0-34,27.6-61.6,61.6-61.6s61.6,27.6,61.6,61.6   C208.1,176.1,180.5,203.8,146.5,203.8z M146.5,90.2c-28.6,0-52,23.3-52,52c0,28.6,23.3,52,52,52s52-23.3,52-52   C198.4,113.5,175.1,90.2,146.5,90.2z" fill="#000000"></path>
</g>
<g>
	<g>
		<path d="M181.1,275.6c-1.7,0-3.4-0.9-4.2-2.5l-15.5-27.9c-10.3,1.5-20.6,1.4-30.8-0.1L113.7,273c-1.3,2.2-4.1,3-6.3,1.8L66,254.2    c-2.3-1.1-3.3-3.8-2.3-6.1l12-29.6c-7.8-7.2-14.3-15.4-19.6-24.6l-32.4,4.3c-2.5,0.3-4.8-1.3-5.4-3.8L8.7,149    c-0.5-2.5,0.9-4.9,3.4-5.6l30.6-9c0.8-10.6,3.2-20.9,7.1-30.7L26.2,80.9c-1.8-1.8-2-4.6-0.4-6.6l29.5-35.8c1.6-2,4.4-2.3,6.5-0.9    L88,56.1c8.3-5.6,17.2-10,26.8-13.1l2.5-32.6c0.2-2.5,2.3-4.5,4.8-4.5h46.3c2.5,0,4.6,1.9,4.8,4.5l2.5,31.8    c9.8,2.9,19.2,7.2,27.8,12.9l26.9-18.6c2.1-1.4,4.9-1,6.5,0.9l29.2,36c1.6,2,1.4,4.8-0.4,6.6l-23.2,22c4.5,10.6,7.1,21.9,7.8,33.5    l31,10.4c2.4,0.8,3.8,3.3,3.2,5.8l-11.3,44.9c-0.6,2.5-3,4-5.5,3.6l-31.5-5.4c-5.3,9-11.9,17.1-19.7,24.2l11.3,30.7    c0.9,2.4-0.2,5-2.5,6.1l-42.1,19.3C182.5,275.4,181.8,275.6,181.1,275.6z M164,235c1.7,0,3.4,0.9,4.2,2.5l15,27l34-15.6    l-10.9-29.6c-0.7-1.9-0.1-4,1.4-5.3c8.9-7.6,16.2-16.6,21.7-26.8c1-1.8,3-2.8,5.1-2.5l30.4,5.2l9.1-36.3l-29.9-10    c-1.9-0.6-3.2-2.4-3.3-4.4c-0.4-12.7-3.2-24.9-8.5-36.3c-0.9-1.9-0.4-4.1,1.1-5.5l22.4-21.2l-23.5-29.1l-26,17.9    c-1.7,1.1-3.9,1.1-5.5,0c-9.4-6.6-19.8-11.4-30.8-14.3c-2-0.5-3.5-2.2-3.6-4.3L164,15.6h-37.4l-2.4,31.4c-0.2,2-1.6,3.7-3.5,4.3    c-10.7,3.1-20.8,7.9-29.8,14.5c-1.7,1.2-3.9,1.2-5.6,0.1L59.9,48.2L36.2,77.1l22.7,21.9c1.5,1.4,1.9,3.6,1.1,5.4    c-4.7,10.7-7.3,22.1-7.8,33.9c-0.1,2.1-1.5,3.9-3.5,4.4l-29.6,8.7l7.8,36.6l31.3-4.2c2-0.3,4,0.7,4.9,2.5    c5.5,10.3,12.7,19.4,21.6,27.1c1.6,1.4,2.1,3.6,1.3,5.5l-11.6,28.6l33.4,16.7l16.2-27.1c1-1.7,3.1-2.6,5-2.3    c11.3,2.1,22.7,2.2,34.1,0.1C163.4,235,163.7,235,164,235z" fill="#000000"></path>
	</g>
</g>
</svg>