<?xml version='1.0' encoding='utf-8'?>
<svg xmlns="http://www.w3.org/2000/svg" viewBox="0 0 1923 2041" width="377" height="400"><path d="M1577 323q70 63 127 140t96.5 164 61 183.5T1883 1009q0 88-16 172t-46 161-72.5 146.5T1653 1616q0 1-10 11.5t-23 24-25.5 26L1577 1695l-233-234 72-63 134 125q87-94 142-209t65-253h-207V958h207q-10-138-65-259.5T1550 482l-134 139-72-65zm-1226-1l224 230-71 69-130-126q-42 47-78 99t-61.5 110-40 121.5T180 958h194v103H180q0 69 14.5 134t40 125 61.5 114.5 78 101.5l140-138 66 63-232 234q-8-6-21.5-17t-25-22.5T284 1636t0-8q-116-126-180-279t-64-340q0-103 21.5-199.5t62-183.5 98-164T351 322zm505 570q32-29 72.5-38.5t82.5 1.5l213-215 122-20-21 121-213 216q11 39 1.5 80t-40.5 72q-22 23-50 34.5t-57.5 11.5-58-11.5T856 1109q-22-22-33-50t-11-57.5 11-58 33-51.5zM968 92q140 0 266.5 39.5T1470 243l-64 99q-131-85-282.5-113.5T794 230l19 89-317-66L748 30l20 83q96-21 200-21z" fill="#000000"></path></svg>