<?xml version='1.0' encoding='utf-8'?>
<!-- Generator: Adobe Illustrator 23.0.3, SVG Export Plug-In . SVG Version: 6.00 Build 0)  --><svg xmlns="http://www.w3.org/2000/svg" xmlns:xlink="http://www.w3.org/1999/xlink" version="1.1" id="Ebene_3" x="0px" y="0px" viewBox="0 0 357.1 400" style="enable-background:new 0 0 357.1 400;" xml:space="preserve" width="357.1" height="400.0">
<g>
	<path d="M199.7,399.9C89.7,399.9,0.1,310.4,0.1,200.3C0.1,90.2,89.7,0.7,199.7,0.7c57.6,0,112.4,24.9,150.3,68.3l-15.9,13.9   c-33.9-38.8-82.9-61.1-134.4-61.1c-98.4,0-178.5,80.1-178.5,178.5s80.1,178.5,178.5,178.5c53.5,0,103.7-23.7,137.7-65l16.3,13.5   C315.7,373.4,259.5,399.9,199.7,399.9z" fill="#000000"></path>
</g>
<g>
	<polygon points="195.6,249.1 195.6,249.1 195.6,249.1 195.6,249.1  " fill="#000000"></polygon>
	<path d="M233.4,188.3L195.5,45.4l-37.8,142.9L51.1,150.5l144.5,176.7L340,150.5L233.4,188.3z M162.6,197.5l0.2-0.6l32.9,52.1V73.2   l32.8,123.9l-32.7,51.9v0l122.8-83.3L195.6,316v-66.9l-123-83.5L162.6,197.5z" fill="#000000"></path>
</g>
</svg>