<?xml version='1.0' encoding='utf-8'?>
<svg xmlns="http://www.w3.org/2000/svg" viewBox="0 0 1964 2041" width="385" height="400"><path d="M1385 837l-4-52-9-49-15-48-23-46-26-42-32-39-38-35-42-30-43-24-47-20-48-11-50-7h-52l-49 7-49 11-48 20-44 24-40 30-38 35-31 39-29 42-20 46-16 48-10 49-3 52 3 51 10 48 16 48 20 46 29 43 31 39 38 34 40 30 44 24 48 19 49 13 49 5h52l50-5 48-13 47-19 43-24 42-30 38-34 32-39 26-43 23-46 15-48 9-48zM354 888H50V785h304l-1 52zm677 879h-99v-304l51 3 48-3v304zm883-879h-306l3-51-3-52h306v103zM574 1315l-216 214-71-69 215-217 35 37zm887-72l215 217-72 69-214-214 37-35zm215-1030l-215 215-34-37-37-34 214-215zM574 357l-37 34-35 37-215-215 71-71zm497 492l-4 25-11 23-18 19-19 13-25 7h-24l-24-7-22-13-16-19-11-23-2-25V585l2-24 11-25 16-18 22-14 24-7h24l25 7 19 14 18 18 11 25 4 24v264zm0 239l-4 24-10 22-16 18-18 14-23 9-24 1-23-4-22-12-19-17-11-20-6-22v-24l6-23 11-21 19-16 22-12 23-6 24 2 23 9 18 14 16 18 10 22zm63-732V195H831v161l59-16 61-8h62l59 8zm351 481l-3 57-9 56-17 54-21 53-29 48-33 48-39 42-42 37-47 32-50 28-52 20-55 16-57 10-56 2-58-4-54-11-56-17-53-23-48-28-46-35-42-37-37-43-32-47-27-52-20-52-14-56-9-56-2-57 6-56 10-57 18-55 24-50 30-49 34-46 39-41 45-37 47-32V93h504v306l48 33 45 39 40 42 35 47 31 50 21 54 18 56 9 57z" fill="#ffd100"></path></svg>