<?xml version='1.0' encoding='utf-8'?>
<!-- Generator: Adobe Illustrator 20.1.0, SVG Export Plug-In . SVG Version: 6.00 Build 0)  --><svg xmlns="http://www.w3.org/2000/svg" xmlns:xlink="http://www.w3.org/1999/xlink" version="1.1" x="0px" y="0px" viewBox="0 0 610 400" style="enable-background:new 0 0 610 400;" xml:space="preserve" width="610.0" height="400.0">
<g id="Ebene_2">
	<path d="M304.8,352c-78.1,0-151.5-17.6-206.8-49.5c-56-32.3-86.8-75.6-86.8-121.8S42,91.3,98,59C153.3,27,226.8,9.4,304.8,9.4   C382.9,9.4,456.4,27,511.7,59c56,32.3,86.8,75.6,86.8,121.8s-30.8,89.4-86.8,121.8C456.4,334.4,382.9,352,304.8,352z M304.8,17.4   c-157.5,0-285.7,73.3-285.7,163.3c0,90,128.1,163.3,285.7,163.3c157.5,0,285.7-73.3,285.7-163.3C590.5,90.7,462.4,17.4,304.8,17.4z   " fill="#000000"></path>
	<g>
		<path d="M116.3,111.4h28.2V187c0,12,0.3,19.8,1,23.3c1.2,5.7,4.1,10.3,8.6,13.8c4.5,3.5,10.7,5.2,18.6,5.2c8,0,14-1.6,18.1-4.9    c4.1-3.3,6.5-7.3,7.3-12c0.8-4.8,1.2-12.7,1.2-23.7v-77.2h28.2v73.3c0,16.8-0.8,28.6-2.3,35.5c-1.5,6.9-4.3,12.8-8.4,17.5    c-4.1,4.8-9.6,8.6-16.4,11.4c-6.9,2.8-15.8,4.2-26.9,4.2c-13.3,0-23.4-1.5-30.3-4.6c-6.9-3.1-12.3-7.1-16.3-12    c-4-4.9-6.6-10.1-7.9-15.5c-1.8-8-2.8-19.8-2.8-35.4V111.4z" fill="#000000"></path>
		<path d="M250.1,205.6l27.4-2.7c1.6,9.2,5,16,10,20.3c5,4.3,11.9,6.5,20.4,6.5c9.1,0,15.9-1.9,20.5-5.8c4.6-3.8,6.9-8.3,6.9-13.5    c0-3.3-1-6.1-2.9-8.4c-1.9-2.3-5.3-4.3-10.1-6c-3.3-1.1-10.8-3.2-22.6-6.1c-15.1-3.7-25.7-8.3-31.8-13.8    c-8.6-7.7-12.9-17-12.9-28.1c0-7.1,2-13.8,6-19.9c4-6.2,9.8-10.9,17.4-14.1c7.6-3.2,16.7-4.9,27.5-4.9c17.5,0,30.7,3.8,39.6,11.5    c8.9,7.7,13.5,17.9,13.9,30.8l-28.2,1.2c-1.2-7.2-3.8-12.3-7.8-15.5c-4-3.1-9.9-4.7-17.9-4.7c-8.2,0-14.6,1.7-19.2,5    c-3,2.2-4.5,5-4.5,8.7c0,3.3,1.4,6.1,4.2,8.5c3.6,3,12.2,6.1,25.9,9.3c13.7,3.2,23.9,6.6,30.4,10c6.6,3.5,11.7,8.2,15.4,14.2    c3.7,6,5.6,13.4,5.6,22.2c0,8-2.2,15.5-6.7,22.5c-4.4,7-10.7,12.2-18.9,15.6s-18.3,5.1-30.4,5.1c-17.6,0-31.2-4.1-40.7-12.2    C257.6,233.1,252,221.2,250.1,205.6z" fill="#000000"></path>
		<path d="M513.2,251h-30.7l-12.2-31.7h-55.8L403,251h-29.9l54.4-139.6h29.8L513.2,251z M461.3,195.8L442.1,144l-18.9,51.8H461.3z" fill="#000000"></path>
	</g>
</g>
<g id="Ebene_3">
</g>
</svg>