<?xml version='1.0' encoding='utf-8'?>
<!-- Generator: Adobe Illustrator 23.1.0, SVG Export Plug-In . SVG Version: 6.00 Build 0)  --><svg xmlns="http://www.w3.org/2000/svg" xmlns:xlink="http://www.w3.org/1999/xlink" version="1.1" id="Ebene_1" x="0px" y="0px" viewBox="0 0 334.3 323.6" style="enable-background:new 0 0 334.3 323.6;" xml:space="preserve" width="413.2262" height="400.0">
<style type="text/css">
	.st0{fill:none;stroke:#000000;stroke-width:7;stroke-miterlimit:10;}
</style>
<g>
	<path d="M59.8,192.9H48.3c-13.5,0-24.6-11-24.6-24.6v-130c0-13.5,11-24.6,24.6-24.6h239.1c13.5,0,24.6,11,24.6,24.6v119.3h-9V38.3   c0-8.6-7-15.6-15.6-15.6H48.3c-8.6,0-15.6,7-15.6,15.6v130c0,8.6,7,15.6,15.6,15.6h11.5V192.9z" fill="#000000"></path>
</g>
<path class="st0" d="M220,178.4C220,178.3,220,178.3,220,178.4C220,178.3,220,178.3,220,178.4" fill="#000000"></path>
<g>
	<path d="M186.9,311.9c-5.5,0-11.5-0.4-15.9-5l-0.2-0.3l-78.1-94.4c-8.1-9.8-6.7-24.3,3.1-32.4c4.7-3.9,10.7-5.8,16.8-5.2   c6.1,0.6,11.6,3.5,15.6,8.2l19.8,23.9V93.1c0-12.7,10.3-23,23-23c12.7,0,23,10.3,23,23v62.3c2.8-1.4,6.1-2.2,10-2.2   c11,0,16.1,5.7,18.4,11.9c3.1-2.3,7.3-3.5,12.1-3.5c9,0,15.3,4,18.4,11.7c0.4,1.1,0.8,2.2,1.1,3.4c2.8-1.8,6.6-2.9,11.3-2.9   c9,0,15.3,4,18.4,11.7c2.4,5.9,2.4,12.7,2.4,18.3v52.1c0,27-18.2,56-45.3,56h-50.2c-0.6,0-1.2,0-1.9,0   C188.1,311.9,187.5,311.9,186.9,311.9z M177.6,300.8c2.1,2.1,5.6,2.2,11,2.1c0.6,0,1.3,0,1.9,0h50.2c21.7,0,36.3-24.3,36.3-47   v-52.1c0-4.7,0-10.7-1.7-14.9c-1.2-3-3.3-6-10-6c-2.4,0-9.9,0-10.1,9.1l-9-0.1v-0.2c0-4.8,0-10.7-1.7-14.9c-1.2-3-3.3-6-10-6   c-6.2,0-9.4,2.5-10,7.8c0,1.7,0,3.4,0,4.9l-9,0.1l-0.1-1.9c-0.1-0.5-0.1-1.8,0-3.5c-0.4-11.6-3.6-16-11.6-16c-6.3,0-9.4,2.5-10,8   v2.7l-9,0.6c0-0.3-0.2-1.7,0-3.7V93.1c0-7.7-6.3-14-14-14s-14,6.3-14,14v138.8l-35.7-43.2c-4.9-5.9-13.8-6.8-19.7-1.9   c-5.9,4.9-6.8,13.8-1.9,19.7L177.6,300.8z" fill="#000000"></path>
</g>
</svg>