<?xml version='1.0' encoding='utf-8'?>
<!-- Generator: Adobe Illustrator 23.0.3, SVG Export Plug-In . SVG Version: 6.00 Build 0)  --><svg xmlns="http://www.w3.org/2000/svg" xmlns:xlink="http://www.w3.org/1999/xlink" version="1.1" id="Ebene_1" x="0px" y="0px" viewBox="0 0 670 323.6" style="enable-background:new 0 0 670 323.6;" xml:space="preserve" width="828.1829" height="400.0">
<path d="M4.4,317.8h44.9V134.2l29.4,183.6H118l30.6-185.3v185.3h47.2V4.7h-66.2L99.4,183.2L71.8,4.7H4.4V317.8z" fill="#0040a4"></path>
<path d="M216.1,317.4h115.5v-66.8h-70.7v-67.8h64.1v-60h-64.1V64.2h68.4v-59H216.1V317.4z" fill="#0040a4"></path>
<path d="M348.1,317.6h44.4V114.9l47.7,202.6h57.3V5h-44V189L407.4,5h-59.3V317.6z" fill="#0040a4"></path>
<path d="M512,4.8v183c0,6.9,0,13.5,0.1,19.8c0.1,6.3,0.4,12.6,1.1,18.8c0.7,6.2,1.6,12.4,2.7,18.6s2.8,12.5,4.9,18.9  c3.8,11.7,8.4,21.1,13.9,28.3c5.5,7.1,11.2,12.5,17.1,16.3c5.9,3.8,11.8,6.3,17.5,7.5c5.7,1.2,10.8,1.9,15.1,1.9  c8.5,0,17.1-2,25.9-6.1s16.7-10.8,23.8-20.3c7-9.5,12.9-22.1,17.5-37.7s6.9-35,6.9-58.1V4.8h-45.6v183c0,7.3-0.1,13.6-0.2,18.8  c-0.1,5.2-0.4,9.6-0.7,13.2c-0.3,3.6-0.7,6.6-1.3,9c-0.5,2.4-1,4.5-1.6,6.2c-2,5.6-4.1,9.9-6.5,13c-2.3,3.1-4.7,5.3-7,6.8  c-2.3,1.5-4.5,2.4-6.4,2.6c-1.9,0.3-3.4,0.4-4.4,0.4c-6.4,0-11.4-2.1-15.1-6.3s-6.4-9.5-8.1-15.9c-1.8-6.5-2.8-13.7-3.1-21.6  c-0.3-8-0.5-15.6-0.5-23.1V4.8H512z" fill="#0040a4"></path>
</svg>