<?xml version='1.0' encoding='utf-8'?>
<svg xmlns="http://www.w3.org/2000/svg" viewBox="0 0 2074 2041" width="406" height="400"><path d="M779 1002q3-120 19.5-217.5t35.5-168 36-112 21-49.5q7-14 19-32.5t41-27.5q64-21 137-24t143.5 5.5 134 23.5 108.5 30q46 15 97.5 35.5T1674 512t99 57 88 67q32 29 63 64.5t55.5 79.5 39.5 98.5 15 121.5q0 68-15 122.5t-39.5 98.5-55.5 79.5-63 64.5q-40 36-88 67t-99 57-102.5 46.5-97.5 35.5q-45 15-108.5 30t-134 23.5-143.5 5.5-137-24q-29-10-41-28t-19-32q-4-8-21-49t-36-111-35.5-167-19.5-217zm1129 0q0-49-11-88t-29-72-42-60-51-52q-32-30-72.5-56t-85.5-48.5-91.5-41T1435 551q-62-21-123-33.5t-117-17-104.5-1.5-85.5 13q-6 16-21.5 56.5t-32 103T922 817t-16 183q0 90 13 171.5t30 147 33.5 110 22.5 60.5q37 11 85.5 13.5t104.5-2 117-17 123-33.5q44-15 90.5-33.5t91.5-41 85.5-48.5 72.5-56q27-25 51-52t42-59 29-70.5 11-87.5zM40 934h615l-2 34-1 34q0 15 .5 30t1.5 29H40V934zm0-270h652q-6 29-11.5 60.5T670 791H40V664zm0-270h739l-3 5q-5 11-17.5 41.5T730 521H40V394zm687 1080q17 52 30.5 84t18.5 43H40v-127h687zM40 1204h628q5 35 10.5 66.5T690 1331H40v-127zm1598 78l-233-653h-142l-229 653h127l45-133h247l46 133h139zm-218-233h-182l59-167q10-28 18-55.5t13-53.5h1q6 28 13.5 53t16.5 51z" fill="#ffffff"></path></svg>