<?xml version='1.0' encoding='utf-8'?>
<svg xmlns="http://www.w3.org/2000/svg" viewBox="0 0 1853 2041" width="363" height="400"><path d="M810 1700q-48 51-108 81t-131 30q-78 0-166-42.5T221 1630q-97-97-139-184.5T40 1280q0-71 30-131t81-108q35-32 67.5-48.5T282 969t59-8.5 53-4 47.5-9.5 41.5-26q16-15 24-32.5t16.5-37.5 21.5-42.5 39-48.5q45-45 91-62t93-17q52 0 102 16t96 37l370-371q-1-5-1.5-10.5t-.5-10.5q0-27 11-54t32-48l157-158q45-45 102-43 26 0 50 9t44 29l44 44q20 20 29 44t9 50q0 27-10.5 53.5T1769 317l-157 157q-21 21-48 31.5t-53 10.5h-11.5l-11.5-2-371 371q21 46 37 96t16 101q0 48-17.5 93.5T1091 1266q-26 26-48 39t-42 22-37.5 17-33.5 24q-19 19-26 41.5t-9.5 47.5-4 53-8.5 59-23.5 63.5T810 1700z" fill="#000000"></path></svg>