<?xml version='1.0' encoding='utf-8'?>
<svg xmlns="http://www.w3.org/2000/svg" viewBox="0 0 2017 2041" width="395" height="400"><path d="M1460 1167q-105 0-199.5-41t-165-111.5-112-164.5T942 650t41.5-200.5 112-165 165-111.5 199.5-41 199 40.5 164.5 111 112 165T1977 650q0 71-19 137t-53 123.5-81.5 104.5-105 81-123 52.5T1460 1167zm0-928q-84 0-158.5 32.5T1171 360t-89 130.5-33 159.5q0 84 32.5 158.5T1170 939t131 88.5 159 32.5 158.5-32.5T1749 939t88.5-130.5T1870 650q0-85-33-159.5T1748 360t-130.5-88.5T1460 239zm233 253l-76-76-157 158-158-158-76 76 158 158-158 157 76 76 158-158 157 158 76-76-158-157zm-19 743v261q0 38-14.5 71t-39 58-58 39-70.5 14H223q-38 0-71.5-14t-58-39-39-58-14.5-71V525q0-38 14.5-71.5t39-58 58-39T223 342h695q-6 9-13.5 24t-15 32.5T875 434t-11 33H223q-24 0-41 17t-17 41v971q0 24 17 40.5t41 16.5h1269q29 0 41.5-16.5t16-51.5 1.5-89-2-130q12-1 28-4t33.5-7.5 34-9.5 29.5-10z" fill="#000000"></path></svg>